<?xml version="1.0" encoding="utf-8" standalone="no"?>
<!DOCTYPE svg PUBLIC "-//W3C//DTD SVG 1.1//EN"
  "http://www.w3.org/Graphics/SVG/1.1/DTD/svg11.dtd">
<!-- Created with matplotlib (http://matplotlib.org/) -->
<svg height="432pt" version="1.1" viewBox="0 0 864 432" width="864pt" xmlns="http://www.w3.org/2000/svg" xmlns:xlink="http://www.w3.org/1999/xlink">
 <defs>
  <style type="text/css">
*{stroke-linecap:butt;stroke-linejoin:round;}
  </style>
 </defs>
 <g id="figure_1">
  <g id="axes_1">
   <g id="patch_1">
    <path d="M 108 384.48 
L 777.6 384.48 
L 777.6 51.84 
L 108 51.84 
z
" style="fill:#808080;opacity:0.5;"/>
   </g>
   <g id="patch_2">
    <path clip-path="url(#p0e45aabbce)" d="M 572.265006 327.673889 
C 591.236684 326.236269 608.960961 320.000103 621.534273 310.338834 
C 634.107584 300.677566 640.503374 288.379995 639.313044 276.154519 
C 638.122713 263.929042 629.443448 252.773817 615.186756 245.145651 
C 600.930063 237.517484 582.259939 234.039184 563.288261 235.476804 
C 544.316583 236.914425 526.592305 243.150591 514.018994 252.811859 
C 501.445682 262.473127 495.049893 274.770698 496.240223 286.996175 
C 497.430553 299.221651 506.109818 310.376877 520.366511 318.005043 
C 534.623204 325.633209 553.293328 329.111509 572.265006 327.673889 
z
" style="fill:none;opacity:0.9;stroke:#000000;stroke-linejoin:miter;"/>
   </g>
   <g id="patch_3">
    <path clip-path="url(#p0e45aabbce)" d="M 703.746489 351.727191 
C 731.233074 345.381218 755.541849 332.364429 771.31909 315.543619 
C 787.09633 298.72281 793.053894 279.471326 787.879697 262.029082 
C 782.7055 244.586838 766.821991 230.377917 743.727331 222.531669 
C 720.63267 214.685421 692.212434 213.842456 664.725849 220.188429 
C 637.239264 226.534402 612.930489 239.551192 597.153248 256.372001 
C 581.376008 273.19281 575.418444 292.444295 580.592641 309.886538 
C 585.766838 327.328782 601.650347 341.537703 624.745007 349.383951 
C 647.839668 357.2302 676.259904 358.073164 703.746489 351.727191 
z
" style="fill:none;opacity:0.9;stroke:#030304;stroke-linejoin:miter;"/>
   </g>
   <g id="patch_4">
    <path clip-path="url(#p0e45aabbce)" d="M 568.281614 164.464834 
C 537.077543 170.986842 508.946787 183.943198 490.084818 200.480415 
C 471.22285 217.017632 463.169666 235.785519 467.698886 252.650667 
C 472.228107 269.515815 488.96994 283.10126 514.237193 290.414965 
C 539.504446 297.728669 571.234159 298.173502 602.43823 291.651494 
C 633.642301 285.129486 661.773057 272.17313 680.635026 255.635913 
C 699.496994 239.098697 707.550178 220.330809 703.020958 203.465661 
C 698.491737 186.600513 681.749904 173.015068 656.482651 165.701364 
C 631.215398 158.387659 599.485685 157.942826 568.281614 164.464834 
z
" style="fill:none;opacity:0.9;stroke:#050507;stroke-linejoin:miter;"/>
   </g>
   <g id="patch_5">
    <path clip-path="url(#p0e45aabbce)" d="M 714.303226 194.1811 
C 709.955937 177.664078 694.019152 164.231721 670.002764 156.84235 
C 645.986376 149.452978 615.851216 148.709901 586.234204 154.776774 
C 556.617192 160.843646 529.936425 173.225134 512.068032 189.194358 
C 494.19964 205.163583 486.602497 223.416728 490.949786 239.933749 
C 495.297075 256.450771 511.23386 269.883128 535.250248 277.2725 
C 559.266636 284.661871 589.401796 285.404948 619.018808 279.338076 
C 648.635821 273.271204 675.316588 260.889716 693.18498 244.920491 
C 711.053373 228.951267 718.650516 210.698122 714.303226 194.1811 
z
" style="fill:none;opacity:0.9;stroke:#08080b;stroke-linejoin:miter;"/>
   </g>
   <g id="patch_6">
    <path clip-path="url(#p0e45aabbce)" d="M 473.225291 240.629853 
C 475.728039 257.415594 487.469684 272.432143 505.864264 282.372279 
C 524.258844 292.312415 547.804524 296.36457 571.31564 293.636304 
C 594.826757 290.908039 616.383732 281.622103 631.238892 267.823617 
C 646.094052 254.02513 653.034539 236.840679 650.531791 220.054938 
C 648.029043 203.269197 636.287398 188.252649 617.892818 178.312513 
C 599.498238 168.372377 575.952558 164.320221 552.441442 167.048487 
C 528.930325 169.776753 507.37335 179.062688 492.51819 192.861175 
C 477.66303 206.659661 470.722543 223.844112 473.225291 240.629853 
z
" style="fill:none;opacity:0.9;stroke:#0a0a0f;stroke-linejoin:miter;"/>
   </g>
   <g id="patch_7">
    <path clip-path="url(#p0e45aabbce)" d="M 469.234086 239.77171 
C 475.200479 259.576929 494.491887 275.392352 522.8596 283.734817 
C 551.227314 292.077282 586.355235 292.265663 620.506847 284.258472 
C 654.658459 276.25128 685.045434 260.702267 704.975393 241.035923 
C 724.905352 221.369579 732.751103 199.191573 726.784709 179.386354 
C 720.818316 159.581135 701.526908 143.765711 673.159195 135.423246 
C 644.791481 127.080781 609.66356 126.8924 575.511948 134.899592 
C 541.360337 142.906784 510.973362 158.455797 491.043403 178.122141 
C 471.113443 197.788485 463.267693 219.966491 469.234086 239.77171 
z
" style="fill:none;opacity:0.9;stroke:#0d0d12;stroke-linejoin:miter;"/>
   </g>
   <g id="patch_8">
    <path clip-path="url(#p0e45aabbce)" d="M 577.114376 179.106144 
C 551.551068 180.102579 527.315517 186.732682 509.745322 197.536251 
C 492.175126 208.33982 482.704815 222.434791 483.420114 236.71691 
C 484.135413 250.999029 494.977922 264.302225 513.559703 273.696622 
C 532.141484 283.091019 556.945418 287.809608 582.508725 286.813173 
C 608.072033 285.816739 632.307584 279.186635 649.87778 268.383066 
C 667.447975 257.579497 676.918286 243.484526 676.202987 229.202407 
C 675.487688 214.920288 664.64518 201.617093 646.063399 192.222695 
C 627.481618 182.828298 602.677684 178.109709 577.114376 179.106144 
z
" style="fill:none;opacity:0.9;stroke:#101016;stroke-linejoin:miter;"/>
   </g>
   <g id="patch_9">
    <path clip-path="url(#p0e45aabbce)" d="M 182.913853 211.954176 
C 209.115063 218.756207 235.642838 221.094955 256.654743 218.455336 
C 277.666649 215.815718 291.447156 208.413248 294.961268 197.878233 
C 298.47538 187.343218 291.436186 174.535796 275.393985 162.276653 
C 259.351785 150.017511 235.616353 139.307552 209.415144 132.505521 
C 183.213934 125.70349 156.686159 123.364742 135.674254 126.00436 
C 114.662348 128.643979 100.881841 136.046449 97.367729 146.581464 
C 93.853616 157.116479 100.892811 169.923901 116.935011 182.183043 
C 132.977212 194.442186 156.712643 205.152145 182.913853 211.954176 
z
" style="fill:none;opacity:0.9;stroke:#13131b;stroke-linejoin:miter;"/>
   </g>
   <g id="patch_10">
    <path clip-path="url(#p0e45aabbce)" d="M 594.996988 303.404571 
C 616.791984 302.987943 637.566172 297.251726 652.744279 287.459255 
C 667.922385 277.666785 676.265186 264.617573 675.935275 251.185558 
C 675.605364 237.753542 666.629677 225.035387 650.985006 215.832119 
C 635.340334 206.62885 614.303996 201.691875 592.509001 202.108503 
C 570.714005 202.525132 549.939817 208.261349 534.761711 218.053819 
C 519.583604 227.84629 511.240804 240.895502 511.570715 254.327517 
C 511.900626 267.759533 520.876312 280.477688 536.520984 289.680956 
C 552.165655 298.884225 573.201993 303.8212 594.996988 303.404571 
z
" style="fill:none;opacity:0.9;stroke:#16161e;stroke-linejoin:miter;"/>
   </g>
   <g id="patch_11">
    <path clip-path="url(#p0e45aabbce)" d="M 590.137238 316.413186 
C 616.944201 316.339646 642.634437 309.916531 661.54997 298.558457 
C 680.465503 287.200383 691.061964 271.834687 691.005604 255.845485 
C 690.949245 239.856284 680.244667 224.549023 661.249429 213.294951 
C 642.254192 202.040879 616.519172 195.758839 589.712209 195.83238 
C 562.905246 195.90592 537.21501 202.329035 518.299477 213.687109 
C 499.383944 225.045183 488.787483 240.410878 488.843843 256.40008 
C 488.900202 272.389282 499.60478 287.696542 518.600017 298.950615 
C 537.595255 310.204687 563.330275 316.486726 590.137238 316.413186 
z
" style="fill:none;opacity:0.9;stroke:#181822;stroke-linejoin:miter;"/>
   </g>
   <g id="patch_12">
    <path clip-path="url(#p0e45aabbce)" d="M 529.645721 278.473922 
C 549.301935 287.361038 571.871981 289.488288 592.385069 284.38717 
C 612.898156 279.286051 629.679482 267.373047 639.033153 251.271859 
C 648.386825 235.170671 649.549158 216.19589 642.26416 198.52649 
C 634.979162 180.85709 619.841622 165.935701 600.185408 157.048584 
C 580.529194 148.161467 557.959148 146.034217 537.44606 151.135336 
C 516.932973 156.236455 500.151647 168.149459 490.797975 184.250647 
C 481.444304 200.351835 480.281971 219.326616 487.566969 236.996016 
C 494.851967 254.665415 509.989506 269.586805 529.645721 278.473922 
z
" style="fill:none;opacity:0.9;stroke:#1b1b26;stroke-linejoin:miter;"/>
   </g>
   <g id="patch_13">
    <path clip-path="url(#p0e45aabbce)" d="M 593.688214 238.440638 
C 589.819401 223.981933 578.467336 211.704751 562.132179 204.312997 
C 545.797022 196.921244 525.812466 195.018425 506.579878 199.023612 
C 487.34729 203.028799 470.436925 212.614988 459.573095 225.670931 
C 448.709266 238.726875 444.778954 254.186613 448.647767 268.645317 
C 452.51658 283.104022 463.868645 295.381204 480.203802 302.772957 
C 496.538959 310.164711 516.523515 312.06753 535.756103 308.062343 
C 554.988691 304.057156 571.899056 294.470967 582.762886 281.415024 
C 593.626715 268.35908 597.557027 252.899342 593.688214 238.440638 
z
" style="fill:none;opacity:0.9;stroke:#1e1e29;stroke-linejoin:miter;"/>
   </g>
   <g id="patch_14">
    <path clip-path="url(#p0e45aabbce)" d="M 496.382689 313.866778 
C 519.031359 311.092962 540.10137 304.275842 554.952294 294.916811 
C 569.803219 285.55778 577.222546 274.42096 575.576254 263.959107 
C 573.929963 253.497254 563.352465 244.564532 546.173333 239.128269 
C 528.9942 233.692006 506.616032 232.196049 483.967362 234.969865 
C 461.318691 237.743681 440.24868 244.560801 425.397756 253.919832 
C 410.546831 263.278863 403.127504 274.415683 404.773796 284.877536 
C 406.420087 295.339389 416.997585 304.272111 434.176718 309.708374 
C 451.35585 315.144637 473.734018 316.640594 496.382689 313.866778 
z
" style="fill:none;opacity:0.9;stroke:#20202d;stroke-linejoin:miter;"/>
   </g>
   <g id="patch_15">
    <path clip-path="url(#p0e45aabbce)" d="M 559.56095 381.20366 
C 588.522265 382.208558 616.630941 375.778478 637.696369 363.329571 
C 658.761797 350.880664 671.064078 333.429328 671.893777 314.819017 
C 672.723476 296.208706 662.012852 277.958869 642.120795 264.088822 
C 622.228739 250.218774 594.779348 241.860944 565.818033 240.856046 
C 536.856718 239.851148 508.748042 246.281228 487.682614 258.730135 
C 466.617186 271.179042 454.314905 288.630378 453.485206 307.240689 
C 452.655507 325.851 463.366131 344.100837 483.258188 357.970884 
C 503.150244 371.840932 530.599635 380.198762 559.56095 381.20366 
z
" style="fill:none;opacity:0.9;stroke:#242432;stroke-linejoin:miter;"/>
   </g>
   <g id="patch_16">
    <path clip-path="url(#p0e45aabbce)" d="M 495.754013 305.067402 
C 522.820699 303.195198 548.234133 295.229931 566.397299 282.925858 
C 584.560465 270.621785 593.990423 254.98348 592.610332 239.455098 
C 591.230242 223.926715 579.152782 209.776079 559.037874 200.119703 
C 538.922965 190.463326 512.4129 186.08961 485.346214 187.961814 
C 458.279527 189.834018 432.866094 197.799285 414.702928 210.103358 
C 396.539761 222.40743 387.109804 238.045735 388.489894 253.574118 
C 389.869985 269.1025 401.947444 283.253137 422.062353 292.909513 
C 442.177262 302.565889 468.687326 306.939606 495.754013 305.067402 
z
" style="fill:none;opacity:0.9;stroke:#262636;stroke-linejoin:miter;"/>
   </g>
   <g id="patch_17">
    <path clip-path="url(#p0e45aabbce)" d="M 616.393474 340.21669 
C 617.702284 349.594061 630.686009 357.314622 652.485134 361.67801 
C 674.28426 366.041399 703.118983 366.691363 732.638792 363.484755 
C 762.158601 360.278147 789.953334 353.476773 809.901522 344.578557 
C 829.849711 335.68034 840.322674 325.411781 839.013864 316.03441 
C 837.705055 306.65704 824.721329 298.936478 802.922204 294.57309 
C 781.123079 290.209701 752.288355 289.559738 722.768546 292.766345 
C 693.248737 295.972953 665.454005 302.774327 645.505816 311.672544 
C 625.557628 320.57076 615.084664 330.839319 616.393474 340.21669 
z
" style="fill:none;opacity:0.9;stroke:#292939;stroke-linejoin:miter;"/>
   </g>
   <g id="patch_18">
    <path clip-path="url(#p0e45aabbce)" d="M 555.691143 303.1042 
C 575.983119 304.238143 595.886249 299.204292 611.017101 289.111294 
C 626.147953 279.018296 635.271159 264.690199 636.377439 249.282601 
C 637.48372 233.875002 630.482751 218.645864 616.916416 206.949228 
C 603.350081 195.252592 584.326011 188.043435 564.034035 186.909492 
C 543.74206 185.775548 523.838929 190.8094 508.708077 200.902398 
C 493.577226 210.995396 484.454019 225.323493 483.347739 240.731091 
C 482.241459 256.138689 489.242427 271.367827 502.808762 283.064463 
C 516.375097 294.7611 535.399168 301.970256 555.691143 303.1042 
z
" style="fill:none;opacity:0.9;stroke:#2c2c3d;stroke-linejoin:miter;"/>
   </g>
   <g id="patch_19">
    <path clip-path="url(#p0e45aabbce)" d="M 478.405498 296.836885 
C 506.533167 301.897343 534.564702 302.199824 556.326483 297.677712 
C 578.088264 293.155599 591.803539 284.178103 594.451677 272.722412 
C 597.099815 261.266721 588.464607 248.268142 570.447858 236.589461 
C 552.43111 224.91078 526.503807 215.50551 498.376139 210.445052 
C 470.24847 205.384593 442.216935 205.082112 420.455154 209.604224 
C 398.693373 214.126337 384.978098 223.103833 382.32996 234.559524 
C 379.681822 246.015215 388.31703 259.013794 406.333779 270.692475 
C 424.350528 282.371156 450.27783 291.776426 478.405498 296.836885 
z
" style="fill:none;opacity:0.9;stroke:#2e2e41;stroke-linejoin:miter;"/>
   </g>
   <g id="patch_20">
    <path clip-path="url(#p0e45aabbce)" d="M 480.989489 273.68651 
C 498.887151 278.097074 517.785357 276.860194 533.521997 270.248278 
C 549.258638 263.636361 560.548884 252.189242 564.906192 238.428016 
C 569.2635 224.66679 566.332113 209.714999 556.757637 196.865602 
C 547.18316 184.016206 531.747307 174.318299 513.849645 169.907735 
C 495.951983 165.49717 477.053776 166.73405 461.317136 173.345967 
C 445.580496 179.957883 434.290249 191.405002 429.932942 205.166229 
C 425.575634 218.927455 428.50702 233.879246 438.081497 246.728642 
C 447.655973 259.578039 463.091827 269.275945 480.989489 273.68651 
z
" style="fill:none;opacity:0.9;stroke:#313144;stroke-linejoin:miter;"/>
   </g>
   <g id="patch_21">
    <path clip-path="url(#p0e45aabbce)" d="M 574.943074 293.366219 
C 600.79918 292.369853 625.31156 285.593319 643.081647 274.529072 
C 660.851735 263.464825 670.428681 249.016212 669.703273 234.36537 
C 668.977866 219.714529 658.009332 206.057637 639.213364 196.402465 
C 620.417396 186.747293 595.328601 181.882145 569.472495 182.878512 
C 543.616389 183.874878 519.104009 190.651411 501.333921 201.715658 
C 483.563834 212.779905 473.986888 227.228519 474.712295 241.879361 
C 475.437702 256.530202 486.406236 270.187094 505.202204 279.842266 
C 523.998173 289.497437 549.086968 294.362586 574.943074 293.366219 
z
" style="fill:none;opacity:0.9;stroke:#343449;stroke-linejoin:miter;"/>
   </g>
   <g id="patch_22">
    <path clip-path="url(#p0e45aabbce)" d="M 679.408921 295.982463 
C 707.052633 294.123776 732.875782 284.330144 751.191118 268.758503 
C 769.506454 253.186861 778.818612 233.108565 777.076696 212.945626 
C 775.334781 192.782688 762.681011 174.181321 741.902234 161.238261 
C 721.123457 148.295201 693.916168 142.067191 666.272455 143.925879 
C 638.628743 145.784567 612.805594 155.578198 594.490258 171.14984 
C 576.174922 186.721481 566.862764 206.799777 568.60468 226.962716 
C 570.346595 247.125655 583.000365 265.727022 603.779142 278.670082 
C 624.557919 291.613142 651.765208 297.841151 679.408921 295.982463 
z
" style="fill:none;opacity:0.9;stroke:#37374d;stroke-linejoin:miter;"/>
   </g>
   <g id="patch_23">
    <path clip-path="url(#p0e45aabbce)" d="M 626.495205 334.17897 
C 660.964907 336.545755 694.53574 333.054651 719.814117 324.474534 
C 745.092494 315.894417 760.014548 302.925814 761.293869 288.424911 
C 762.57319 273.924007 750.105328 259.074738 726.636184 247.147481 
C 703.16704 235.220224 670.612767 227.188787 636.143064 224.822002 
C 601.673362 222.455217 568.102529 225.946321 542.824152 234.526438 
C 517.545775 243.106555 502.623722 256.075158 501.3444 270.576061 
C 500.065079 285.076965 512.532942 299.926235 536.002085 311.853492 
C 559.471229 323.780749 592.025503 331.812185 626.495205 334.17897 
z
" style="fill:none;opacity:0.9;stroke:#3a3a50;stroke-linejoin:miter;"/>
   </g>
   <g id="patch_24">
    <path clip-path="url(#p0e45aabbce)" d="M 614.852992 353.968458 
C 650.419104 348.934731 683.036527 335.875701 705.521653 317.667466 
C 728.006778 299.459231 738.523796 277.588413 734.756454 256.871806 
C 730.989112 236.155199 713.244998 218.284223 685.432046 207.194751 
C 657.619094 196.10528 622.00811 192.70272 586.441998 197.736447 
C 550.875887 202.770173 518.258463 215.829203 495.773338 234.037439 
C 473.288212 252.245674 462.771195 274.116491 466.538536 294.833098 
C 470.305878 315.549705 488.049993 333.420682 515.862944 344.510153 
C 543.675896 355.599624 579.286881 359.002184 614.852992 353.968458 
z
" style="fill:none;opacity:0.9;stroke:#3c3c54;stroke-linejoin:miter;"/>
   </g>
   <g id="patch_25">
    <path clip-path="url(#p0e45aabbce)" d="M 678.414749 302.136528 
C 682.140336 285.805684 675.490968 268.326432 659.931092 253.548374 
C 644.371215 238.770316 621.171226 227.900015 595.440651 223.331529 
C 569.710076 218.763044 543.549704 220.869369 522.721053 229.186612 
C 501.892402 237.503856 488.096039 251.352951 484.370452 267.683795 
C 480.644866 284.014639 487.294234 301.493891 502.85411 316.271949 
C 518.413987 331.050007 541.613976 341.920308 567.344551 346.488794 
C 593.075125 351.057279 619.235497 348.950954 640.064149 340.633711 
C 660.8928 332.316467 674.689163 318.467372 678.414749 302.136528 
z
" style="fill:none;opacity:0.9;stroke:#3f3f58;stroke-linejoin:miter;"/>
   </g>
   <g id="patch_26">
    <path clip-path="url(#p0e45aabbce)" d="M 646.809729 220.742108 
C 644.668895 205.939978 632.760454 192.85142 613.707102 184.359038 
C 594.653751 175.866657 570.011111 172.663816 545.206438 175.455904 
C 520.401765 178.247993 497.46025 186.80705 481.434496 199.248041 
C 465.408742 211.689032 457.60718 226.996207 459.748015 241.798337 
C 461.88885 256.600467 473.797291 269.689024 492.850642 278.181406 
C 511.903993 286.673788 536.546633 289.876629 561.351306 287.08454 
C 586.15598 284.292452 609.097495 275.733395 625.123249 263.292404 
C 641.149003 250.851412 648.950564 235.544238 646.809729 220.742108 
z
" style="fill:none;opacity:0.9;stroke:#42425b;stroke-linejoin:miter;"/>
   </g>
   <g id="patch_27">
    <path clip-path="url(#p0e45aabbce)" d="M 585.349293 311.493842 
C 611.715724 305.977542 635.060997 293.451796 650.243587 276.675253 
C 665.426177 259.898711 671.206492 240.241102 666.311486 222.031788 
C 661.416479 203.822473 646.245806 188.548163 624.140631 179.572846 
C 602.035456 170.59753 574.800569 168.654001 548.434137 174.170301 
C 522.067706 179.686601 498.722433 192.212347 483.539843 208.988889 
C 468.357253 225.765432 462.576938 245.42304 467.471944 263.632355 
C 472.366951 281.841669 487.537624 297.115979 509.642799 306.091296 
C 531.747974 315.066613 558.982861 317.010141 585.349293 311.493842 
z
" style="fill:none;opacity:0.9;stroke:#454560;stroke-linejoin:miter;"/>
   </g>
   <g id="patch_28">
    <path clip-path="url(#p0e45aabbce)" d="M 579.649153 301.699448 
C 608.558313 303.095642 636.624862 298.995422 657.667467 290.301813 
C 678.710072 281.608205 691.010698 269.031003 691.860274 255.34019 
C 692.709851 241.649377 682.039015 227.962748 662.197893 217.294623 
C 642.356771 206.626499 614.965304 199.847884 586.056143 198.45169 
C 557.146983 197.055496 529.080434 201.155716 508.037829 209.849325 
C 486.995224 218.542933 474.694598 231.120135 473.845021 244.810948 
C 472.995445 258.501761 483.666281 272.18839 503.507403 282.856515 
C 523.348525 293.524639 550.739992 300.303254 579.649153 301.699448 
z
" style="fill:none;opacity:0.9;stroke:#484864;stroke-linejoin:miter;"/>
   </g>
   <g id="patch_29">
    <path clip-path="url(#p0e45aabbce)" d="M 574.250153 264.986439 
C 605.916566 256.128444 633.45042 239.730816 650.787704 219.404942 
C 668.124988 199.079068 673.850188 176.484466 666.702396 156.597334 
C 659.554604 136.710203 640.117405 121.154238 612.671617 113.35546 
C 585.22583 105.556683 552.01228 106.151829 520.345866 115.009824 
C 488.679453 123.867818 461.145598 140.265446 443.808315 160.59132 
C 426.471031 180.917194 420.745831 203.511796 427.893623 223.398928 
C 435.041415 243.28606 454.478613 258.842025 481.924401 266.640802 
C 509.370189 274.439579 542.583739 273.844434 574.250153 264.986439 
z
" style="fill:none;opacity:0.9;stroke:#4a4a67;stroke-linejoin:miter;"/>
   </g>
   <g id="patch_30">
    <path clip-path="url(#p0e45aabbce)" d="M 464.522335 427.180415 
C 474.287707 442.635542 493.270081 452.731156 517.288809 455.243817 
C 541.307536 457.756478 568.401595 452.481037 592.603833 440.57935 
C 616.806071 428.677662 636.140483 411.121447 646.348889 391.777258 
C 656.557295 372.433069 656.806223 352.880273 647.040851 337.425146 
C 637.275479 321.970019 618.293105 311.874404 594.274377 309.361743 
C 570.25565 306.849083 543.161591 312.124523 518.959353 324.026211 
C 494.757114 335.927899 475.422703 353.484113 465.214297 372.828303 
C 455.005891 392.172492 454.756963 411.725288 464.522335 427.180415 
z
" style="fill:none;opacity:0.9;stroke:#4d4d6b;stroke-linejoin:miter;"/>
   </g>
   <g id="patch_31">
    <path clip-path="url(#p0e45aabbce)" d="M 366.86181 283.147969 
C 374.608976 299.744445 391.680482 312.16099 414.316528 317.663003 
C 436.952574 323.165016 463.305026 321.303282 487.570063 312.487827 
C 511.8351 303.672372 532.031589 288.622939 543.711487 270.65399 
C 555.391385 252.685041 557.601081 233.263662 549.853915 216.667186 
C 542.106749 200.07071 525.035242 187.654165 502.399197 182.152152 
C 479.763151 176.650139 453.410699 178.511873 429.145662 187.327328 
C 404.880625 196.142783 384.684136 211.192216 373.004238 229.161165 
C 361.32434 247.130114 359.114644 266.551493 366.86181 283.147969 
z
" style="fill:none;opacity:0.9;stroke:#50506f;stroke-linejoin:miter;"/>
   </g>
   <g id="patch_32">
    <path clip-path="url(#p0e45aabbce)" d="M 574.78785 289.265516 
C 596.041823 286.94991 615.65658 279.217114 629.3122 267.770187 
C 642.967819 256.323259 649.549379 242.096791 647.607368 228.223997 
C 645.665358 214.351202 635.358332 201.964734 618.956295 193.792567 
C 602.554257 185.620401 581.396362 182.329757 560.142389 184.645363 
C 538.888416 186.960969 519.273658 194.693765 505.618039 206.140692 
C 491.962419 217.58762 485.380859 231.814088 487.32287 245.686882 
C 489.264881 259.559677 499.571906 271.946145 515.973944 280.118312 
C 532.375981 288.290478 553.533877 291.581121 574.78785 289.265516 
z
" style="fill:none;opacity:0.9;stroke:#525372;stroke-linejoin:miter;"/>
   </g>
   <g id="patch_33">
    <path clip-path="url(#p0e45aabbce)" d="M 552.359987 257.393037 
C 577.976967 256.53759 602.32963 250.623237 620.054584 240.952547 
C 637.779538 231.281857 647.429619 218.644399 646.879509 205.823426 
C 646.329398 193.002453 635.624011 181.044742 617.121083 172.583838 
C 598.618156 164.122934 573.82837 159.849634 548.21139 160.705082 
C 522.594409 161.560529 498.241746 167.474882 480.516792 177.145572 
C 462.791839 186.816262 453.141758 199.45372 453.691868 212.274693 
C 454.241978 225.095666 464.947366 237.053378 483.450293 245.514281 
C 501.953221 253.975185 526.743006 258.248485 552.359987 257.393037 
z
" style="fill:none;opacity:0.9;stroke:#555675;stroke-linejoin:miter;"/>
   </g>
   <g id="patch_34">
    <path clip-path="url(#p0e45aabbce)" d="M 539.266073 313.966012 
C 568.019172 316.665322 596.353143 312.998167 618.027756 303.772193 
C 639.70237 294.546219 652.94799 280.514687 654.847423 264.767878 
C 656.746856 249.02107 647.145021 232.844643 628.156612 219.801267 
C 609.168202 206.757891 582.343537 197.9125 553.590438 195.213189 
C 524.837338 192.513878 496.503368 196.181034 474.828754 205.407008 
C 453.154141 214.632982 439.908521 228.664514 438.009088 244.411323 
C 436.109655 260.158131 445.711489 276.334558 464.699899 289.377934 
C 483.688308 302.42131 510.512973 311.266701 539.266073 313.966012 
z
" style="fill:none;opacity:0.9;stroke:#585b78;stroke-linejoin:miter;"/>
   </g>
   <g id="patch_35">
    <path clip-path="url(#p0e45aabbce)" d="M 602.163213 324.203378 
C 632.792644 323.854108 662.081467 317.36074 683.579158 306.153363 
C 705.076848 294.945986 717.028216 279.939633 716.801111 264.439278 
C 716.574005 248.938924 704.186969 234.210104 682.368103 223.496669 
C 660.549237 212.783234 631.079955 206.95989 600.450524 207.30916 
C 569.821093 207.65843 540.53227 214.151798 519.03458 225.359175 
C 497.536889 236.566552 485.585521 251.572906 485.812626 267.07326 
C 486.039732 282.573615 498.426768 297.302435 520.245634 308.01587 
C 542.0645 318.729304 571.533782 324.552648 602.163213 324.203378 
z
" style="fill:none;opacity:0.9;stroke:#5b5f7b;stroke-linejoin:miter;"/>
   </g>
   <g id="patch_36">
    <path clip-path="url(#p0e45aabbce)" d="M 590.066088 319.350096 
C 621.740577 321.769299 652.816101 317.017119 676.448636 306.140168 
C 700.081171 295.263216 714.341225 279.149549 716.088186 261.348014 
C 717.835148 243.546478 706.926386 225.510492 685.764428 211.212271 
C 664.60247 196.91405 634.915096 187.52098 603.240606 185.101777 
C 571.566117 182.682574 540.490593 187.434754 516.858058 198.311706 
C 493.225523 209.188657 478.965469 225.302325 477.218508 243.10386 
C 475.471546 260.905395 486.380308 278.941381 507.542266 293.239603 
C 528.704224 307.537824 558.391598 316.930893 590.066088 319.350096 
z
" style="fill:none;opacity:0.9;stroke:#5e627d;stroke-linejoin:miter;"/>
   </g>
   <g id="patch_37">
    <path clip-path="url(#p0e45aabbce)" d="M 659.774758 387.725056 
C 696.639534 390.111256 732.827801 382.439387 760.369511 366.399088 
C 787.911221 350.35879 804.557716 327.259681 806.6428 302.189072 
C 808.727883 277.118464 796.081316 252.12326 771.488359 232.708364 
C 746.895402 213.293468 712.363961 201.04402 675.499184 198.65782 
C 638.634407 196.271619 602.446141 203.943488 574.904431 219.983787 
C 547.362721 236.024086 530.716226 259.123195 528.631142 284.193803 
C 526.546059 309.264412 539.192625 334.259616 563.785582 353.674512 
C 588.378539 373.089407 622.909981 385.338855 659.774758 387.725056 
z
" style="fill:none;opacity:0.9;stroke:#606680;stroke-linejoin:miter;"/>
   </g>
   <g id="patch_38">
    <path clip-path="url(#p0e45aabbce)" d="M 616.781305 327.343101 
C 648.219372 325.781101 677.96623 317.894648 699.470478 305.420642 
C 720.974727 292.946636 732.480639 276.903524 731.454172 260.824616 
C 730.427705 244.745708 716.952665 229.943775 693.996773 219.678771 
C 671.04088 209.413767 640.478383 204.523784 609.040316 206.085784 
C 577.602249 207.647785 547.855391 215.534238 526.351143 228.008244 
C 504.846894 240.48225 493.340982 256.525361 494.367449 272.604269 
C 495.393916 288.683178 508.868956 303.485111 531.824848 313.750115 
C 554.780741 324.015118 585.343238 328.905101 616.781305 327.343101 
z
" style="fill:none;opacity:0.9;stroke:#636983;stroke-linejoin:miter;"/>
   </g>
   <g id="patch_39">
    <path clip-path="url(#p0e45aabbce)" d="M 472.924681 270.074479 
C 494.730718 285.413283 521.598787 293.540236 547.611505 292.66547 
C 573.624224 291.790704 596.65777 281.98564 611.639272 265.40973 
C 626.620773 248.83382 632.327058 226.840413 627.501382 204.273301 
C 622.675706 181.70619 607.712065 160.407879 585.906027 145.069075 
C 564.099989 129.73027 537.231921 121.603317 511.219202 122.478083 
C 485.206484 123.352849 462.172938 133.157913 447.191436 149.733824 
C 432.209934 166.309734 426.50365 188.303141 431.329326 210.870252 
C 436.155002 233.437364 451.118643 254.735674 472.924681 270.074479 
z
" style="fill:none;opacity:0.9;stroke:#666d85;stroke-linejoin:miter;"/>
   </g>
   <g id="patch_40">
    <path clip-path="url(#p0e45aabbce)" d="M 627.44155 338.981744 
C 658.295856 335.050262 686.927421 325.396194 707.030475 312.145737 
C 727.133529 298.895279 737.066747 283.130274 734.642453 268.322779 
C 732.218159 253.515285 717.634285 240.874269 694.102761 233.183767 
C 670.571238 225.493265 640.013308 223.381173 609.159002 227.312655 
C 578.304696 231.244138 549.673131 240.898206 529.570077 254.148663 
C 509.467023 267.39912 499.533805 283.164126 501.958099 297.97162 
C 504.382393 312.779114 518.966267 325.420131 542.49779 333.110633 
C 566.029314 340.801135 596.587244 342.913226 627.44155 338.981744 
z
" style="fill:none;opacity:0.9;stroke:#697289;stroke-linejoin:miter;"/>
   </g>
   <g id="patch_41">
    <path clip-path="url(#p0e45aabbce)" d="M 553.421691 388.634081 
C 581.188386 374.562373 601.957215 352.059066 611.154087 326.080253 
C 620.350958 300.101441 617.224988 272.768177 602.464634 250.100297 
C 587.70428 227.432416 562.51466 211.280651 532.443495 205.202239 
C 502.372331 199.123828 469.874799 203.615046 442.108105 217.686755 
C 414.34141 231.758463 393.572581 254.26177 384.375709 280.240582 
C 375.178838 306.219395 378.304808 333.552659 393.065162 356.220539 
C 407.825516 378.88842 433.015136 395.040185 463.086301 401.118596 
C 493.157465 407.197008 525.654997 402.70579 553.421691 388.634081 
z
" style="fill:none;opacity:0.9;stroke:#6c758b;stroke-linejoin:miter;"/>
   </g>
   <g id="patch_42">
    <path clip-path="url(#p0e45aabbce)" d="M 555.853734 315.076616 
C 582.936911 307.020352 606.840718 293.867198 622.300617 278.513984 
C 637.760517 263.16077 643.514277 246.861018 638.294699 233.204558 
C 633.075121 219.548098 617.30836 209.64992 594.466862 205.689983 
C 571.625365 201.730047 543.574037 204.031662 516.49086 212.087926 
C 489.407682 220.14419 465.503876 233.297343 450.043976 248.650558 
C 434.584077 264.003772 428.830317 280.303524 434.049895 293.959984 
C 439.269473 307.616444 455.036234 317.514622 477.877731 321.474558 
C 500.719229 325.434495 528.770556 323.13288 555.853734 315.076616 
z
" style="fill:none;opacity:0.9;stroke:#6e798e;stroke-linejoin:miter;"/>
   </g>
   <g id="patch_43">
    <path clip-path="url(#p0e45aabbce)" d="M 645.70977 196.437802 
C 638.420972 184.669936 619.960624 178.911184 594.394405 180.429843 
C 568.828185 181.948502 538.243461 190.62058 509.376165 204.536154 
C 480.508868 218.451728 455.715885 236.474651 440.457582 254.635585 
C 425.199279 272.79652 420.721429 289.612704 428.010227 301.38057 
C 435.299025 313.148435 453.759372 318.907188 479.325592 317.388529 
C 504.891811 315.86987 535.476535 307.197791 564.343832 293.282218 
C 593.211129 279.366644 618.004112 261.34372 633.262415 243.182786 
C 648.520718 225.021852 652.998567 208.205668 645.70977 196.437802 
z
" style="fill:none;opacity:0.9;stroke:#717d91;stroke-linejoin:miter;"/>
   </g>
   <g id="patch_44">
    <path clip-path="url(#p0e45aabbce)" d="M 611.652802 258.483642 
C 610.512234 242.055755 599.65206 226.826215 581.464107 216.149154 
C 563.276154 205.472092 539.245388 200.219242 514.664305 201.547484 
C 490.083223 202.875726 466.958761 210.676614 450.383814 223.232093 
C 433.808868 235.787573 425.136707 252.072544 426.277274 268.500432 
C 427.417842 284.928319 438.278016 300.157859 456.465969 310.834921 
C 474.653922 321.511983 498.684689 326.764832 523.265771 325.436591 
C 547.846853 324.108349 570.971315 316.307461 587.546262 303.751981 
C 604.121209 291.196502 612.79337 274.91153 611.652802 258.483642 
z
" style="fill:none;opacity:0.9;stroke:#738093;stroke-linejoin:miter;"/>
   </g>
   <g id="patch_45">
    <path clip-path="url(#p0e45aabbce)" d="M 553.454439 297.743824 
C 575.667209 282.410132 589.526096 259.306261 591.978841 233.520572 
C 594.431585 207.734883 585.27793 181.372663 566.533863 160.239884 
C 547.789796 139.107105 520.985687 124.929166 492.024829 120.828593 
C 463.063972 116.72802 434.310891 123.039606 412.09812 138.373299 
C 389.885349 153.706991 376.026462 176.810862 373.573718 202.596551 
C 371.120974 228.38224 380.274629 254.74446 399.018695 275.877239 
C 417.762762 297.010018 444.566872 311.187957 473.527729 315.28853 
C 502.488587 319.389103 531.241668 313.077517 553.454439 297.743824 
z
" style="fill:none;opacity:0.9;stroke:#768496;stroke-linejoin:miter;"/>
   </g>
   <g id="patch_46">
    <path clip-path="url(#p0e45aabbce)" d="M 632.853513 333.022934 
C 669.314726 335.351807 704.739153 332.082153 731.324974 323.934077 
C 757.910795 315.786 773.487397 303.424755 774.624212 289.572762 
C 775.761028 275.720769 762.365243 261.508982 737.387122 250.067382 
C 712.409001 238.625782 677.887898 230.888525 641.426685 228.559652 
C 604.965471 226.23078 569.541045 229.500433 542.955224 237.64851 
C 516.369403 245.796587 500.792801 258.157832 499.655985 272.009825 
C 498.51917 285.861818 511.914955 300.073605 536.893076 311.515205 
C 561.871197 322.956805 596.3923 330.694061 632.853513 333.022934 
z
" style="fill:none;opacity:0.9;stroke:#7a8999;stroke-linejoin:miter;"/>
   </g>
   <g id="patch_47">
    <path clip-path="url(#p0e45aabbce)" d="M 471.145576 285.496995 
C 467.521108 304.847502 478.102873 325.457439 500.560359 342.787706 
C 523.017845 360.117972 555.517498 372.753629 590.901647 377.91182 
C 626.285796 383.070011 661.665482 380.329592 689.248739 370.294109 
C 716.831996 360.258626 734.366774 343.747431 737.991242 324.396923 
C 741.615709 305.046416 731.033944 284.436479 708.576458 267.106213 
C 686.118972 249.775946 653.619319 237.140289 618.23517 231.982098 
C 582.851021 226.823907 547.471336 229.564326 519.888079 239.59981 
C 492.304821 249.635293 474.770043 266.146488 471.145576 285.496995 
z
" style="fill:none;opacity:0.9;stroke:#7c8c9c;stroke-linejoin:miter;"/>
   </g>
   <g id="patch_48">
    <path clip-path="url(#p0e45aabbce)" d="M 530.360419 334.042507 
C 553.510583 338.758021 577.586179 336.134159 597.284836 326.748795 
C 616.983494 317.363431 630.696904 301.982838 635.404848 283.994415 
C 640.112793 266.005991 635.430888 246.878412 622.390269 230.824303 
C 609.349651 214.770195 589.015027 203.100304 565.864863 198.38479 
C 542.714699 193.669276 518.639103 196.293138 498.940446 205.678502 
C 479.241789 215.063866 465.528378 230.444459 460.820434 248.432882 
C 456.11249 266.421306 460.794394 285.548885 473.835013 301.602994 
C 486.875632 317.657102 507.210255 329.326993 530.360419 334.042507 
z
" style="fill:none;opacity:0.9;stroke:#7f909f;stroke-linejoin:miter;"/>
   </g>
   <g id="patch_49">
    <path clip-path="url(#p0e45aabbce)" d="M 560.872462 241.695883 
C 563.398216 222.335897 554.195334 202.585822 535.290644 186.795383 
C 516.385953 171.004945 489.322939 160.463362 460.061916 157.492297 
C 430.800893 154.521231 401.730894 159.363256 379.254248 170.951973 
C 356.777602 182.54069 342.729429 199.929931 340.203675 219.289917 
C 337.677922 238.649904 346.880804 258.399979 365.785494 274.190417 
C 384.690184 289.980855 411.753199 300.522438 441.014222 303.493504 
C 470.275245 306.46457 499.345244 301.622544 521.82189 290.033827 
C 544.298535 278.44511 558.346709 261.055869 560.872462 241.695883 
z
" style="fill:none;opacity:0.9;stroke:#8194a1;stroke-linejoin:miter;"/>
   </g>
   <g id="patch_50">
    <path clip-path="url(#p0e45aabbce)" d="M 711.371073 339.21754 
C 741.446513 337.357378 769.683518 327.888831 789.863216 312.897238 
C 810.042915 297.905644 820.517722 278.615001 818.980685 259.273848 
C 817.443648 239.932695 804.020259 222.120152 781.666862 209.759224 
C 759.313465 197.398297 729.855117 191.4982 699.779678 193.358362 
C 669.704238 195.218524 641.467233 204.687071 621.287535 219.678664 
C 601.107836 234.670258 590.633028 253.960901 592.170065 273.302054 
C 593.707103 292.643207 607.130492 310.45575 629.483889 322.816678 
C 651.837286 335.177605 681.295634 341.077702 711.371073 339.21754 
z
" style="fill:none;opacity:0.9;stroke:#8497a4;stroke-linejoin:miter;"/>
   </g>
   <g id="patch_51">
    <path clip-path="url(#p0e45aabbce)" d="M 570.170962 346.208464 
C 606.740107 347.364265 642.072139 342.175354 668.385589 331.784528 
C 694.699038 321.393702 709.845529 306.649327 710.489222 290.798679 
C 711.132914 274.948032 697.221254 259.285247 671.818123 247.259872 
C 646.414992 235.234496 611.594443 227.828349 575.025299 226.672548 
C 538.456154 225.516747 503.124121 230.705658 476.810672 241.096484 
C 450.497222 251.48731 435.350731 266.231685 434.707039 282.082333 
C 434.063346 297.932981 447.975006 313.595765 473.378137 325.621141 
C 498.781268 337.646516 533.601817 345.052663 570.170962 346.208464 
z
" style="fill:none;opacity:0.9;stroke:#879ba7;stroke-linejoin:miter;"/>
   </g>
   <g id="patch_52">
    <path clip-path="url(#p0e45aabbce)" d="M 580.812064 243.370119 
C 580.762701 234.764672 574.467835 226.538415 563.313835 220.503085 
C 552.159836 214.467755 537.057378 211.116111 521.332603 211.186312 
C 505.607828 211.256513 490.544594 214.742829 479.460404 220.877438 
C 468.376213 227.012048 462.176042 235.294087 462.225404 243.899534 
C 462.274767 252.50498 468.569633 260.731237 479.723633 266.766567 
C 490.877632 272.801897 505.98009 276.153542 521.704865 276.083341 
C 537.42964 276.013139 552.492873 272.526824 563.577064 266.392214 
C 574.661254 260.257605 580.861426 251.975565 580.812064 243.370119 
z
" style="fill:none;opacity:0.9;stroke:#8aa0aa;stroke-linejoin:miter;"/>
   </g>
   <g id="patch_53">
    <path clip-path="url(#p0e45aabbce)" d="M 616.530085 335.624384 
C 652.919507 338.506113 688.416954 335.436942 715.204526 327.092821 
C 741.992099 318.748699 757.88271 305.810887 759.376637 291.128788 
C 760.870564 276.446688 747.845835 261.21903 723.170994 248.799528 
C 698.496154 236.380025 664.185793 227.782676 627.796372 224.900947 
C 591.406951 222.019218 555.909503 225.088388 529.121931 233.43251 
C 502.334358 241.776632 486.443747 254.714444 484.94982 269.396543 
C 483.455893 284.078642 496.480622 299.306301 521.155463 311.725803 
C 545.830304 324.145306 580.140664 332.742655 616.530085 335.624384 
z
" style="fill:none;opacity:0.9;stroke:#8da3ad;stroke-linejoin:miter;"/>
   </g>
   <g id="patch_54">
    <path clip-path="url(#p0e45aabbce)" d="M 566.093153 292.496231 
C 588.516489 288.54928 608.960747 280.060266 622.923316 268.898795 
C 636.885885 257.737324 643.226784 244.814681 640.549504 232.976928 
C 637.872223 221.139175 626.39535 211.352812 608.646534 205.773172 
C 590.897717 200.193532 568.326069 199.276167 545.902733 203.223118 
C 523.479397 207.170068 503.03514 215.659082 489.07257 226.820553 
C 475.110001 237.982024 468.769102 250.904667 471.446382 262.74242 
C 474.123663 274.580173 485.600536 284.366537 503.349352 289.946177 
C 521.098169 295.525817 543.669817 296.443181 566.093153 292.496231 
z
" style="fill:none;opacity:0.9;stroke:#8fa7af;stroke-linejoin:miter;"/>
   </g>
   <g id="patch_55">
    <path clip-path="url(#p0e45aabbce)" d="M 615.668051 217.986215 
C 611.481042 200.565366 597.023429 185.808834 575.479333 176.966574 
C 553.935237 168.124314 527.063639 165.918257 500.782696 170.834262 
C 474.501753 175.750267 450.957187 187.386963 435.334417 203.181504 
C 419.711646 218.976045 413.2862 237.638876 417.473209 255.059726 
C 421.660218 272.480575 436.117831 287.237107 457.661927 296.079367 
C 479.206022 304.921627 506.07762 307.127684 532.358564 302.211679 
C 558.639507 297.295674 582.184072 285.658978 597.806843 269.864437 
C 613.429614 254.069896 619.85506 235.407065 615.668051 217.986215 
z
" style="fill:none;opacity:0.9;stroke:#92aab2;stroke-linejoin:miter;"/>
   </g>
   <g id="patch_56">
    <path clip-path="url(#p0e45aabbce)" d="M 497.08524 276.562764 
C 512.649723 276.556036 527.576756 272.832054 538.578832 266.210981 
C 549.580909 259.589908 555.759759 250.612325 555.754562 241.255442 
C 555.749365 231.898558 549.560546 222.926322 538.55112 216.314764 
C 527.541693 209.703205 512.610531 205.99213 497.046048 205.998858 
C 481.481565 206.005586 466.554532 209.729568 455.552455 216.350641 
C 444.550378 222.971714 438.371528 231.949297 438.376725 241.30618 
C 438.381922 250.663064 444.570742 259.6353 455.580168 266.246858 
C 466.589594 272.858417 481.520757 276.569492 497.08524 276.562764 
z
" style="fill:none;opacity:0.9;stroke:#95aeb5;stroke-linejoin:miter;"/>
   </g>
   <g id="patch_57">
    <path clip-path="url(#p0e45aabbce)" d="M 688.685346 281.783025 
C 688.953737 263.017749 677.814777 244.891666 657.721694 231.396836 
C 637.62861 217.902005 610.221914 210.14022 581.537612 209.820924 
C 552.85331 209.501627 525.233348 216.650889 504.760702 229.694166 
C 484.288057 242.737443 472.634228 260.60981 472.365837 279.375086 
C 472.097446 298.140362 483.236406 316.266445 503.329489 329.761276 
C 523.422573 343.256106 550.829269 351.017891 579.513571 351.337188 
C 608.197873 351.656484 635.817835 344.507223 656.290481 331.463945 
C 676.763126 318.420668 688.416955 300.548301 688.685346 281.783025 
z
" style="fill:none;opacity:0.9;stroke:#97b2b7;stroke-linejoin:miter;"/>
   </g>
   <g id="patch_58">
    <path clip-path="url(#p0e45aabbce)" d="M 575.234134 289.74219 
C 596.370767 298.77064 619.547792 302.140671 639.660738 299.110072 
C 659.773685 296.079474 675.180419 286.895681 682.487788 273.581317 
C 689.795156 260.266954 688.406544 243.909079 678.627777 228.110324 
C 668.84901 212.311569 651.478481 198.361833 630.341848 189.333383 
C 609.205215 180.304933 586.02819 176.934902 565.915243 179.965501 
C 545.802297 182.996099 530.395562 192.179892 523.088194 205.494256 
C 515.780826 218.808619 517.169438 235.166494 526.948205 250.965249 
C 536.726972 266.764004 554.097501 280.71374 575.234134 289.74219 
z
" style="fill:none;opacity:0.9;stroke:#9ab5ba;stroke-linejoin:miter;"/>
   </g>
   <g id="patch_59">
    <path clip-path="url(#p0e45aabbce)" d="M 541.283275 326.726403 
C 542.793095 340.961047 556.313099 353.618069 578.865663 361.909905 
C 601.418227 370.201742 631.162034 373.451402 661.546355 370.943185 
C 691.930676 368.434968 720.474766 360.37366 740.892121 348.534669 
C 761.309476 336.695678 771.93311 322.045606 770.423289 307.810962 
C 768.913468 293.576317 755.393464 280.919296 732.8409 272.627459 
C 710.288336 264.335623 680.54453 261.085963 650.160209 263.594179 
C 619.775887 266.102396 591.231797 274.163705 570.814442 286.002696 
C 550.397087 297.841686 539.773454 312.491758 541.283275 326.726403 
z
" style="fill:none;opacity:0.9;stroke:#9dbabd;stroke-linejoin:miter;"/>
   </g>
   <g id="patch_60">
    <path clip-path="url(#p0e45aabbce)" d="M 555.564175 194.055536 
C 533.730551 203.903139 516.635518 219.987482 508.04406 238.766178 
C 499.452602 257.544874 500.066173 277.484723 509.749641 294.194207 
C 519.433108 310.903691 537.395861 323.018553 559.68181 327.870636 
C 581.967759 332.722719 606.757357 329.915872 628.590981 320.068269 
C 650.424605 310.220667 667.519637 294.136323 676.111095 275.357628 
C 684.702553 256.578932 684.088983 236.639082 674.405515 219.929598 
C 664.722047 203.220115 646.759295 191.105252 624.473346 186.253169 
C 602.187396 181.401087 577.397799 184.207934 555.564175 194.055536 
z
" style="fill:none;opacity:0.9;stroke:#a0bec0;stroke-linejoin:miter;"/>
   </g>
   <g id="patch_61">
    <path clip-path="url(#p0e45aabbce)" d="M 478.399478 309.368282 
C 489.078086 326.846262 511.132013 337.994367 539.704137 340.357357 
C 568.276261 342.720347 601.033795 336.105295 630.762272 321.969088 
C 660.490748 307.832881 684.76297 287.329679 698.233261 264.975074 
C 711.703553 242.620469 713.272124 220.239615 702.593516 202.761635 
C 691.914908 185.283656 669.860981 174.135551 641.288857 171.772561 
C 612.716733 169.409571 579.959199 176.024623 550.230722 190.16083 
C 520.502246 204.297036 496.230024 224.800238 482.759732 247.154844 
C 469.289441 269.509449 467.72087 291.890303 478.399478 309.368282 
z
" style="fill:none;opacity:0.9;stroke:#a3c1c3;stroke-linejoin:miter;"/>
   </g>
   <g id="patch_62">
    <path clip-path="url(#p0e45aabbce)" d="M 518.827892 366.425633 
C 555.234593 371.587673 591.459888 369.376779 619.525578 360.279875 
C 647.591268 351.182971 665.205913 335.942779 668.490092 317.915775 
C 671.77427 299.88877 660.459845 280.546778 637.038685 264.149647 
C 613.617525 247.752517 580.001866 235.639001 543.595166 230.476961 
C 507.188465 225.314922 470.96317 227.525816 442.89748 236.62272 
C 414.83179 245.719624 397.217145 260.959816 393.932967 278.98682 
C 390.648788 297.013825 401.963214 316.355817 425.384373 332.752947 
C 448.805533 349.150078 482.421192 361.263594 518.827892 366.425633 
z
" style="fill:none;opacity:0.9;stroke:#a5c5c5;stroke-linejoin:miter;"/>
   </g>
   <g id="patch_63">
    <path clip-path="url(#p0e45aabbce)" d="M 571.221867 315.991315 
C 597.098229 319.245376 622.980514 315.792308 643.168451 306.392609 
C 663.356387 296.992909 676.20172 282.414022 678.875412 265.866779 
C 681.549104 249.319535 673.832861 232.154943 657.426097 218.153306 
C 641.019332 204.151668 617.261585 194.456157 591.385223 191.202095 
C 565.508862 187.948034 539.626576 191.401102 519.43864 200.800801 
C 499.250703 210.200501 486.405371 224.779388 483.731679 241.326632 
C 481.057987 257.873876 488.774229 275.038467 505.180994 289.040105 
C 521.587759 303.041742 545.345506 312.737253 571.221867 315.991315 
z
" style="fill:none;opacity:0.9;stroke:#a9c8c8;stroke-linejoin:miter;"/>
   </g>
   <g id="patch_64">
    <path clip-path="url(#p0e45aabbce)" d="M 537.338008 378.667188 
C 549.453588 389.616065 570.053515 392.385185 594.600895 386.36468 
C 619.148275 380.344175 645.638922 366.025593 668.238579 346.562437 
C 690.838237 327.09928 707.701743 304.080629 715.115105 282.576073 
C 722.528467 261.071518 719.886418 242.836811 707.770839 231.887934 
C 695.655259 220.939057 675.055331 218.169938 650.507952 224.190443 
C 625.960572 230.210947 599.469924 244.529529 576.870267 263.992686 
C 554.270609 283.455842 537.407104 306.474494 529.993741 327.979049 
C 522.580379 349.483604 525.222428 367.718311 537.338008 378.667188 
z
" style="fill:none;opacity:0.9;stroke:#adcaca;stroke-linejoin:miter;"/>
   </g>
   <g id="patch_65">
    <path clip-path="url(#p0e45aabbce)" d="M 461.75331 224.896823 
C 462.681205 244.749143 470.223009 263.549065 482.717727 277.156126 
C 495.212445 290.763186 511.639939 298.066427 528.382245 297.457396 
C 545.12455 296.848365 560.814731 288.376786 571.997208 273.908426 
C 583.179685 259.440065 588.941458 240.156202 588.013563 220.303881 
C 587.085668 200.451561 579.543864 181.651639 567.049146 168.044579 
C 554.554428 154.437519 538.126934 147.134277 521.384628 147.743308 
C 504.642323 148.352339 488.952142 156.823918 477.769665 171.292279 
C 466.587188 185.760639 460.825415 205.044503 461.75331 224.896823 
z
" style="fill:none;opacity:0.9;stroke:#b2cece;stroke-linejoin:miter;"/>
   </g>
   <g id="patch_66">
    <path clip-path="url(#p0e45aabbce)" d="M 496.462464 353.251569 
C 525.130354 354.446637 553.031378 348.060829 574.020658 335.500546 
C 595.009939 322.940263 607.373795 305.230996 608.389231 286.273005 
C 609.404667 267.315015 598.988776 248.656136 579.435539 234.405772 
C 559.882301 220.155407 532.788151 211.477035 504.120261 210.281967 
C 475.452371 209.086899 447.551348 215.472707 426.562067 228.03299 
C 405.572786 240.593273 393.20893 258.30254 392.193494 277.260531 
C 391.178058 296.218521 401.593949 314.8774 421.147187 329.127764 
C 440.700424 343.378129 467.794574 352.056501 496.462464 353.251569 
z
" style="fill:none;opacity:0.9;stroke:#b7d1d1;stroke-linejoin:miter;"/>
   </g>
   <g id="patch_67">
    <path clip-path="url(#p0e45aabbce)" d="M 566.146127 367.826404 
C 592.241307 368.436547 617.497417 361.492166 636.352091 348.522683 
C 655.206765 335.5532 666.120602 317.617514 666.689958 298.665752 
C 667.259314 279.713991 657.437702 261.293481 639.388218 247.461126 
C 621.338735 233.628771 596.53504 225.513921 570.43986 224.903779 
C 544.34468 224.293637 519.088571 231.238017 500.233897 244.2075 
C 481.379223 257.176984 470.465385 275.112669 469.896029 294.064431 
C 469.326674 313.016193 479.148285 331.436703 497.197769 345.269058 
C 515.247252 359.101413 540.050947 367.216262 566.146127 367.826404 
z
" style="fill:none;opacity:0.9;stroke:#bbd3d3;stroke-linejoin:miter;"/>
   </g>
   <g id="patch_68">
    <path clip-path="url(#p0e45aabbce)" d="M 538.037241 272.043056 
C 556.541951 268.452462 573.289178 260.989148 584.59054 251.296821 
C 595.891903 241.604494 600.824694 230.47449 598.302524 220.358063 
C 595.780354 210.241637 586.009147 201.964749 571.140898 197.350289 
C 556.272649 192.735828 537.521284 192.160545 519.016574 195.751139 
C 500.511864 199.341733 483.764637 206.805048 472.463275 216.497375 
C 461.161912 226.189702 456.229121 237.319705 458.751291 247.436132 
C 461.273461 257.552558 471.044668 265.829446 485.912917 270.443907 
C 500.781166 275.058367 519.532531 275.63365 538.037241 272.043056 
z
" style="fill:none;opacity:0.9;stroke:#bfd6d6;stroke-linejoin:miter;"/>
   </g>
   <g id="patch_69">
    <path clip-path="url(#p0e45aabbce)" d="M 517.512409 158.413731 
C 485.091883 164.025138 455.446746 175.93606 435.105994 191.523256 
C 414.765242 207.110452 405.389607 225.101295 409.043965 241.533512 
C 412.698323 257.965729 429.084311 271.497702 454.593105 279.14917 
C 480.1019 286.800638 512.650821 287.946894 545.071346 282.335487 
C 577.491871 276.72408 607.137009 264.813158 627.477761 249.225962 
C 647.818513 233.638766 657.194147 215.647923 653.53979 199.215706 
C 649.885432 182.783489 633.499444 169.251516 607.990649 161.600048 
C 582.481855 153.94858 549.932934 152.802324 517.512409 158.413731 
z
" style="fill:none;opacity:0.9;stroke:#c3d8d8;stroke-linejoin:miter;"/>
   </g>
   <g id="patch_70">
    <path clip-path="url(#p0e45aabbce)" d="M 453.706395 318.567512 
C 458.561376 314.195493 455.850548 303.634449 446.17094 289.210326 
C 436.491333 274.786204 420.633242 257.676669 402.089228 241.649898 
C 383.545215 225.623127 363.829315 211.987635 347.283727 203.746481 
C 330.73814 195.505327 318.713738 193.331364 313.858758 197.703382 
C 309.003777 202.075401 311.714605 212.636445 321.394213 227.060568 
C 331.073821 241.48469 346.931911 258.594225 365.475925 274.620996 
C 384.019939 290.647767 403.735838 304.283259 420.281426 312.524413 
C 436.827013 320.765568 448.851415 322.93953 453.706395 318.567512 
z
" style="fill:none;opacity:0.9;stroke:#c7dbdb;stroke-linejoin:miter;"/>
   </g>
   <g id="patch_71">
    <path clip-path="url(#p0e45aabbce)" d="M 604.111388 229.012254 
C 573.205087 230.507555 543.927566 237.847068 522.72686 249.414349 
C 501.526154 260.98163 490.133206 275.832263 491.057181 290.695568 
C 491.981156 305.558873 505.146615 319.221327 527.654019 328.673934 
C 550.161423 338.12654 580.173142 342.597535 611.079443 341.102234 
C 641.985744 339.606933 671.263265 332.267421 692.463971 320.70014 
C 713.664677 309.132858 725.057625 294.282225 724.13365 279.41892 
C 723.209675 264.555615 710.044215 250.893161 687.536812 241.440555 
C 665.029408 231.987948 635.017689 227.516953 604.111388 229.012254 
z
" style="fill:none;opacity:0.9;stroke:#ccdfdf;stroke-linejoin:miter;"/>
   </g>
   <g id="patch_72">
    <path clip-path="url(#p0e45aabbce)" d="M 595.030813 317.386419 
C 628.981145 324.501024 663.026905 325.823516 689.669909 321.062632 
C 716.312912 316.301747 733.377877 305.846191 737.106442 291.998678 
C 740.835008 278.151165 730.922753 262.042284 709.552737 247.219828 
C 688.182721 232.397372 657.09971 220.07153 623.149378 212.956925 
C 589.199047 205.84232 555.153287 204.519828 528.510283 209.280713 
C 501.86728 214.041598 484.802315 224.497154 481.07375 238.344667 
C 477.345184 252.19218 487.257439 268.301061 508.627455 283.123517 
C 529.997471 297.945972 561.080482 310.271814 595.030813 317.386419 
z
" style="fill:none;opacity:0.9;stroke:#d1e1e1;stroke-linejoin:miter;"/>
   </g>
   <g id="patch_73">
    <path clip-path="url(#p0e45aabbce)" d="M 515.101142 286.60044 
C 536.826686 289.661469 558.226443 289.498064 574.587365 286.146214 
C 590.948287 282.794363 600.934576 276.527731 602.346869 268.726471 
C 603.759161 260.92521 596.48215 252.226259 582.118512 244.54546 
C 567.754874 236.864662 547.477337 230.829119 525.751792 227.76809 
C 504.026248 224.707062 482.626491 224.870467 466.265569 228.222317 
C 449.904648 231.574167 439.918358 237.840799 438.506066 245.64206 
C 437.093773 253.443321 444.370784 262.142272 458.734422 269.82307 
C 473.09806 277.503869 493.375598 283.539412 515.101142 286.60044 
z
" style="fill:none;opacity:0.9;stroke:#d5e4e4;stroke-linejoin:miter;"/>
   </g>
   <g id="patch_74">
    <path clip-path="url(#p0e45aabbce)" d="M 489.799688 277.795858 
C 506.482806 284.496895 524.82291 286.394115 540.780805 283.069676 
C 556.7387 279.745238 569.011494 271.470566 574.896247 260.068063 
C 580.781001 248.665559 579.797249 235.066187 572.161651 222.26505 
C 564.526054 209.463914 550.862024 198.506168 534.178906 191.805131 
C 517.495788 185.104093 499.155684 183.206874 483.197789 186.531312 
C 467.239894 189.855751 454.9671 198.130422 449.082347 209.532926 
C 443.197594 220.93543 444.181346 234.534802 451.816943 247.335939 
C 459.45254 260.137075 473.11657 271.09482 489.799688 277.795858 
z
" style="fill:none;opacity:0.9;stroke:#d9e6e6;stroke-linejoin:miter;"/>
   </g>
   <g id="patch_75">
    <path clip-path="url(#p0e45aabbce)" d="M 609.346176 309.436373 
C 641.099062 310.893273 671.927615 305.982205 695.042204 295.784774 
C 718.156793 285.587343 731.670214 270.936124 732.606293 255.057878 
C 733.542371 239.179632 721.824682 223.370748 700.033908 211.112948 
C 678.243135 198.855149 648.158398 191.149229 616.405511 189.692328 
C 584.652625 188.235428 553.824072 193.146496 530.709483 203.343927 
C 507.594895 213.541358 494.081474 228.192577 493.145395 244.070823 
C 492.209316 259.949069 503.927006 275.757953 525.717779 288.015753 
C 547.508553 300.273553 577.59329 307.979472 609.346176 309.436373 
z
" style="fill:none;opacity:0.9;stroke:#dde9e9;stroke-linejoin:miter;"/>
   </g>
   <g id="patch_76">
    <path clip-path="url(#p0e45aabbce)" d="M 497.761532 350.545139 
C 528.011541 350.285115 556.946017 342.734113 578.192477 329.555154 
C 599.438937 316.376195 611.262702 298.645282 611.059726 280.267444 
C 610.856749 261.889605 598.643602 244.365311 577.110089 231.554082 
C 555.576577 218.742853 526.480814 211.69067 496.230805 211.950694 
C 465.980796 212.210719 437.046321 219.761721 415.79986 232.94068 
C 394.5534 246.119639 382.729635 263.850551 382.932612 282.22839 
C 383.135589 300.606228 395.348735 318.130523 416.882248 330.941752 
C 438.415761 343.752981 467.511523 350.805164 497.761532 350.545139 
z
" style="fill:none;opacity:0.9;stroke:#e1ecec;stroke-linejoin:miter;"/>
   </g>
   <g id="patch_77">
    <path clip-path="url(#p0e45aabbce)" d="M 509.488295 266.471947 
C 527.165589 279.095963 549.044533 285.839133 570.306545 285.216349 
C 591.568556 284.593566 610.477687 276.655679 622.869419 263.150914 
C 635.261151 249.646149 640.123755 231.677112 636.386299 213.201273 
C 632.648843 194.725435 620.616473 177.251266 602.93918 164.62725 
C 585.261887 152.003233 563.382943 145.260064 542.120931 145.882847 
C 520.858919 146.50563 501.949789 154.443518 489.558057 167.948283 
C 477.166325 181.453047 472.30372 199.422085 476.041177 217.897923 
C 479.778633 236.373762 491.811002 253.84793 509.488295 266.471947 
z
" style="fill:none;opacity:0.9;stroke:#e6efef;stroke-linejoin:miter;"/>
   </g>
   <g id="patch_78">
    <path clip-path="url(#p0e45aabbce)" d="M 457.088381 219.766286 
C 454.084762 224.366966 458.257772 232.364063 468.688354 241.99631 
C 479.118936 251.628557 494.955479 262.109523 512.710169 271.130897 
C 530.464858 280.152271 548.688102 286.977498 563.366443 290.1034 
C 578.044783 293.229303 587.979799 292.400665 590.983418 287.799985 
C 593.987037 283.199305 589.814027 275.202208 579.383445 265.569961 
C 568.952864 255.937714 553.11632 245.456748 535.361631 236.435374 
C 517.606942 227.414 499.383697 220.588774 484.705357 217.462871 
C 470.027016 214.336968 460.092 215.165606 457.088381 219.766286 
z
" style="fill:none;opacity:0.9;stroke:#eaf2f2;stroke-linejoin:miter;"/>
   </g>
   <g id="matplotlib.axis_1"/>
   <g id="matplotlib.axis_2"/>
   <g id="patch_79">
    <path d="M 108 384.48 
L 108 51.84 
" style="fill:none;stroke:#000000;stroke-linecap:square;stroke-linejoin:miter;stroke-width:0.8;"/>
   </g>
   <g id="patch_80">
    <path d="M 777.6 384.48 
L 777.6 51.84 
" style="fill:none;stroke:#000000;stroke-linecap:square;stroke-linejoin:miter;stroke-width:0.8;"/>
   </g>
   <g id="patch_81">
    <path d="M 108 384.48 
L 777.6 384.48 
" style="fill:none;stroke:#000000;stroke-linecap:square;stroke-linejoin:miter;stroke-width:0.8;"/>
   </g>
   <g id="patch_82">
    <path d="M 108 51.84 
L 777.6 51.84 
" style="fill:none;stroke:#000000;stroke-linecap:square;stroke-linejoin:miter;stroke-width:0.8;"/>
   </g>
  </g>
  <g id="text_1">
   <!-- JC091|20190602|FOV1_zoom2p0x|combined_rfs10_static|traces001|fit-2dgaus_dff-no-cutoff -->
   <defs>
    <path d="M 9.8125 72.90625 
L 19.671875 72.90625 
L 19.671875 5.078125 
Q 19.671875 -8.109375 14.671875 -14.0625 
Q 9.671875 -20.015625 -1.421875 -20.015625 
L -5.171875 -20.015625 
L -5.171875 -11.71875 
L -2.09375 -11.71875 
Q 4.4375 -11.71875 7.125 -8.046875 
Q 9.8125 -4.390625 9.8125 5.078125 
z
" id="DejaVuSans-4a"/>
    <path d="M 64.40625 67.28125 
L 64.40625 56.890625 
Q 59.421875 61.53125 53.78125 63.8125 
Q 48.140625 66.109375 41.796875 66.109375 
Q 29.296875 66.109375 22.65625 58.46875 
Q 16.015625 50.828125 16.015625 36.375 
Q 16.015625 21.96875 22.65625 14.328125 
Q 29.296875 6.6875 41.796875 6.6875 
Q 48.140625 6.6875 53.78125 8.984375 
Q 59.421875 11.28125 64.40625 15.921875 
L 64.40625 5.609375 
Q 59.234375 2.09375 53.4375 0.328125 
Q 47.65625 -1.421875 41.21875 -1.421875 
Q 24.65625 -1.421875 15.125 8.703125 
Q 5.609375 18.84375 5.609375 36.375 
Q 5.609375 53.953125 15.125 64.078125 
Q 24.65625 74.21875 41.21875 74.21875 
Q 47.75 74.21875 53.53125 72.484375 
Q 59.328125 70.75 64.40625 67.28125 
z
" id="DejaVuSans-43"/>
    <path d="M 31.78125 66.40625 
Q 24.171875 66.40625 20.328125 58.90625 
Q 16.5 51.421875 16.5 36.375 
Q 16.5 21.390625 20.328125 13.890625 
Q 24.171875 6.390625 31.78125 6.390625 
Q 39.453125 6.390625 43.28125 13.890625 
Q 47.125 21.390625 47.125 36.375 
Q 47.125 51.421875 43.28125 58.90625 
Q 39.453125 66.40625 31.78125 66.40625 
z
M 31.78125 74.21875 
Q 44.046875 74.21875 50.515625 64.515625 
Q 56.984375 54.828125 56.984375 36.375 
Q 56.984375 17.96875 50.515625 8.265625 
Q 44.046875 -1.421875 31.78125 -1.421875 
Q 19.53125 -1.421875 13.0625 8.265625 
Q 6.59375 17.96875 6.59375 36.375 
Q 6.59375 54.828125 13.0625 64.515625 
Q 19.53125 74.21875 31.78125 74.21875 
z
" id="DejaVuSans-30"/>
    <path d="M 10.984375 1.515625 
L 10.984375 10.5 
Q 14.703125 8.734375 18.5 7.8125 
Q 22.3125 6.890625 25.984375 6.890625 
Q 35.75 6.890625 40.890625 13.453125 
Q 46.046875 20.015625 46.78125 33.40625 
Q 43.953125 29.203125 39.59375 26.953125 
Q 35.25 24.703125 29.984375 24.703125 
Q 19.046875 24.703125 12.671875 31.3125 
Q 6.296875 37.9375 6.296875 49.421875 
Q 6.296875 60.640625 12.9375 67.421875 
Q 19.578125 74.21875 30.609375 74.21875 
Q 43.265625 74.21875 49.921875 64.515625 
Q 56.59375 54.828125 56.59375 36.375 
Q 56.59375 19.140625 48.40625 8.859375 
Q 40.234375 -1.421875 26.421875 -1.421875 
Q 22.703125 -1.421875 18.890625 -0.6875 
Q 15.09375 0.046875 10.984375 1.515625 
z
M 30.609375 32.421875 
Q 37.25 32.421875 41.125 36.953125 
Q 45.015625 41.5 45.015625 49.421875 
Q 45.015625 57.28125 41.125 61.84375 
Q 37.25 66.40625 30.609375 66.40625 
Q 23.96875 66.40625 20.09375 61.84375 
Q 16.21875 57.28125 16.21875 49.421875 
Q 16.21875 41.5 20.09375 36.953125 
Q 23.96875 32.421875 30.609375 32.421875 
z
" id="DejaVuSans-39"/>
    <path d="M 12.40625 8.296875 
L 28.515625 8.296875 
L 28.515625 63.921875 
L 10.984375 60.40625 
L 10.984375 69.390625 
L 28.421875 72.90625 
L 38.28125 72.90625 
L 38.28125 8.296875 
L 54.390625 8.296875 
L 54.390625 0 
L 12.40625 0 
z
" id="DejaVuSans-31"/>
    <path d="M 21 76.421875 
L 21 -23.578125 
L 12.703125 -23.578125 
L 12.703125 76.421875 
z
" id="DejaVuSans-7c"/>
    <path d="M 19.1875 8.296875 
L 53.609375 8.296875 
L 53.609375 0 
L 7.328125 0 
L 7.328125 8.296875 
Q 12.9375 14.109375 22.625 23.890625 
Q 32.328125 33.6875 34.8125 36.53125 
Q 39.546875 41.84375 41.421875 45.53125 
Q 43.3125 49.21875 43.3125 52.78125 
Q 43.3125 58.59375 39.234375 62.25 
Q 35.15625 65.921875 28.609375 65.921875 
Q 23.96875 65.921875 18.8125 64.3125 
Q 13.671875 62.703125 7.8125 59.421875 
L 7.8125 69.390625 
Q 13.765625 71.78125 18.9375 73 
Q 24.125 74.21875 28.421875 74.21875 
Q 39.75 74.21875 46.484375 68.546875 
Q 53.21875 62.890625 53.21875 53.421875 
Q 53.21875 48.921875 51.53125 44.890625 
Q 49.859375 40.875 45.40625 35.40625 
Q 44.1875 33.984375 37.640625 27.21875 
Q 31.109375 20.453125 19.1875 8.296875 
z
" id="DejaVuSans-32"/>
    <path d="M 33.015625 40.375 
Q 26.375 40.375 22.484375 35.828125 
Q 18.609375 31.296875 18.609375 23.390625 
Q 18.609375 15.53125 22.484375 10.953125 
Q 26.375 6.390625 33.015625 6.390625 
Q 39.65625 6.390625 43.53125 10.953125 
Q 47.40625 15.53125 47.40625 23.390625 
Q 47.40625 31.296875 43.53125 35.828125 
Q 39.65625 40.375 33.015625 40.375 
z
M 52.59375 71.296875 
L 52.59375 62.3125 
Q 48.875 64.0625 45.09375 64.984375 
Q 41.3125 65.921875 37.59375 65.921875 
Q 27.828125 65.921875 22.671875 59.328125 
Q 17.53125 52.734375 16.796875 39.40625 
Q 19.671875 43.65625 24.015625 45.921875 
Q 28.375 48.1875 33.59375 48.1875 
Q 44.578125 48.1875 50.953125 41.515625 
Q 57.328125 34.859375 57.328125 23.390625 
Q 57.328125 12.15625 50.6875 5.359375 
Q 44.046875 -1.421875 33.015625 -1.421875 
Q 20.359375 -1.421875 13.671875 8.265625 
Q 6.984375 17.96875 6.984375 36.375 
Q 6.984375 53.65625 15.1875 63.9375 
Q 23.390625 74.21875 37.203125 74.21875 
Q 40.921875 74.21875 44.703125 73.484375 
Q 48.484375 72.75 52.59375 71.296875 
z
" id="DejaVuSans-36"/>
    <path d="M 9.8125 72.90625 
L 51.703125 72.90625 
L 51.703125 64.59375 
L 19.671875 64.59375 
L 19.671875 43.109375 
L 48.578125 43.109375 
L 48.578125 34.8125 
L 19.671875 34.8125 
L 19.671875 0 
L 9.8125 0 
z
" id="DejaVuSans-46"/>
    <path d="M 39.40625 66.21875 
Q 28.65625 66.21875 22.328125 58.203125 
Q 16.015625 50.203125 16.015625 36.375 
Q 16.015625 22.609375 22.328125 14.59375 
Q 28.65625 6.59375 39.40625 6.59375 
Q 50.140625 6.59375 56.421875 14.59375 
Q 62.703125 22.609375 62.703125 36.375 
Q 62.703125 50.203125 56.421875 58.203125 
Q 50.140625 66.21875 39.40625 66.21875 
z
M 39.40625 74.21875 
Q 54.734375 74.21875 63.90625 63.9375 
Q 73.09375 53.65625 73.09375 36.375 
Q 73.09375 19.140625 63.90625 8.859375 
Q 54.734375 -1.421875 39.40625 -1.421875 
Q 24.03125 -1.421875 14.8125 8.828125 
Q 5.609375 19.09375 5.609375 36.375 
Q 5.609375 53.65625 14.8125 63.9375 
Q 24.03125 74.21875 39.40625 74.21875 
z
" id="DejaVuSans-4f"/>
    <path d="M 28.609375 0 
L 0.78125 72.90625 
L 11.078125 72.90625 
L 34.1875 11.53125 
L 57.328125 72.90625 
L 67.578125 72.90625 
L 39.796875 0 
z
" id="DejaVuSans-56"/>
    <path d="M 50.984375 -16.609375 
L 50.984375 -23.578125 
L -0.984375 -23.578125 
L -0.984375 -16.609375 
z
" id="DejaVuSans-5f"/>
    <path d="M 5.515625 54.6875 
L 48.1875 54.6875 
L 48.1875 46.484375 
L 14.40625 7.171875 
L 48.1875 7.171875 
L 48.1875 0 
L 4.296875 0 
L 4.296875 8.203125 
L 38.09375 47.515625 
L 5.515625 47.515625 
z
" id="DejaVuSans-7a"/>
    <path d="M 30.609375 48.390625 
Q 23.390625 48.390625 19.1875 42.75 
Q 14.984375 37.109375 14.984375 27.296875 
Q 14.984375 17.484375 19.15625 11.84375 
Q 23.34375 6.203125 30.609375 6.203125 
Q 37.796875 6.203125 41.984375 11.859375 
Q 46.1875 17.53125 46.1875 27.296875 
Q 46.1875 37.015625 41.984375 42.703125 
Q 37.796875 48.390625 30.609375 48.390625 
z
M 30.609375 56 
Q 42.328125 56 49.015625 48.375 
Q 55.71875 40.765625 55.71875 27.296875 
Q 55.71875 13.875 49.015625 6.21875 
Q 42.328125 -1.421875 30.609375 -1.421875 
Q 18.84375 -1.421875 12.171875 6.21875 
Q 5.515625 13.875 5.515625 27.296875 
Q 5.515625 40.765625 12.171875 48.375 
Q 18.84375 56 30.609375 56 
z
" id="DejaVuSans-6f"/>
    <path d="M 52 44.1875 
Q 55.375 50.25 60.0625 53.125 
Q 64.75 56 71.09375 56 
Q 79.640625 56 84.28125 50.015625 
Q 88.921875 44.046875 88.921875 33.015625 
L 88.921875 0 
L 79.890625 0 
L 79.890625 32.71875 
Q 79.890625 40.578125 77.09375 44.375 
Q 74.3125 48.1875 68.609375 48.1875 
Q 61.625 48.1875 57.5625 43.546875 
Q 53.515625 38.921875 53.515625 30.90625 
L 53.515625 0 
L 44.484375 0 
L 44.484375 32.71875 
Q 44.484375 40.625 41.703125 44.40625 
Q 38.921875 48.1875 33.109375 48.1875 
Q 26.21875 48.1875 22.15625 43.53125 
Q 18.109375 38.875 18.109375 30.90625 
L 18.109375 0 
L 9.078125 0 
L 9.078125 54.6875 
L 18.109375 54.6875 
L 18.109375 46.1875 
Q 21.1875 51.21875 25.484375 53.609375 
Q 29.78125 56 35.6875 56 
Q 41.65625 56 45.828125 52.96875 
Q 50 49.953125 52 44.1875 
z
" id="DejaVuSans-6d"/>
    <path d="M 18.109375 8.203125 
L 18.109375 -20.796875 
L 9.078125 -20.796875 
L 9.078125 54.6875 
L 18.109375 54.6875 
L 18.109375 46.390625 
Q 20.953125 51.265625 25.265625 53.625 
Q 29.59375 56 35.59375 56 
Q 45.5625 56 51.78125 48.09375 
Q 58.015625 40.1875 58.015625 27.296875 
Q 58.015625 14.40625 51.78125 6.484375 
Q 45.5625 -1.421875 35.59375 -1.421875 
Q 29.59375 -1.421875 25.265625 0.953125 
Q 20.953125 3.328125 18.109375 8.203125 
z
M 48.6875 27.296875 
Q 48.6875 37.203125 44.609375 42.84375 
Q 40.53125 48.484375 33.40625 48.484375 
Q 26.265625 48.484375 22.1875 42.84375 
Q 18.109375 37.203125 18.109375 27.296875 
Q 18.109375 17.390625 22.1875 11.75 
Q 26.265625 6.109375 33.40625 6.109375 
Q 40.53125 6.109375 44.609375 11.75 
Q 48.6875 17.390625 48.6875 27.296875 
z
" id="DejaVuSans-70"/>
    <path d="M 54.890625 54.6875 
L 35.109375 28.078125 
L 55.90625 0 
L 45.3125 0 
L 29.390625 21.484375 
L 13.484375 0 
L 2.875 0 
L 24.125 28.609375 
L 4.6875 54.6875 
L 15.28125 54.6875 
L 29.78125 35.203125 
L 44.28125 54.6875 
z
" id="DejaVuSans-78"/>
    <path d="M 48.78125 52.59375 
L 48.78125 44.1875 
Q 44.96875 46.296875 41.140625 47.34375 
Q 37.3125 48.390625 33.40625 48.390625 
Q 24.65625 48.390625 19.8125 42.84375 
Q 14.984375 37.3125 14.984375 27.296875 
Q 14.984375 17.28125 19.8125 11.734375 
Q 24.65625 6.203125 33.40625 6.203125 
Q 37.3125 6.203125 41.140625 7.25 
Q 44.96875 8.296875 48.78125 10.40625 
L 48.78125 2.09375 
Q 45.015625 0.34375 40.984375 -0.53125 
Q 36.96875 -1.421875 32.421875 -1.421875 
Q 20.0625 -1.421875 12.78125 6.34375 
Q 5.515625 14.109375 5.515625 27.296875 
Q 5.515625 40.671875 12.859375 48.328125 
Q 20.21875 56 33.015625 56 
Q 37.15625 56 41.109375 55.140625 
Q 45.0625 54.296875 48.78125 52.59375 
z
" id="DejaVuSans-63"/>
    <path d="M 48.6875 27.296875 
Q 48.6875 37.203125 44.609375 42.84375 
Q 40.53125 48.484375 33.40625 48.484375 
Q 26.265625 48.484375 22.1875 42.84375 
Q 18.109375 37.203125 18.109375 27.296875 
Q 18.109375 17.390625 22.1875 11.75 
Q 26.265625 6.109375 33.40625 6.109375 
Q 40.53125 6.109375 44.609375 11.75 
Q 48.6875 17.390625 48.6875 27.296875 
z
M 18.109375 46.390625 
Q 20.953125 51.265625 25.265625 53.625 
Q 29.59375 56 35.59375 56 
Q 45.5625 56 51.78125 48.09375 
Q 58.015625 40.1875 58.015625 27.296875 
Q 58.015625 14.40625 51.78125 6.484375 
Q 45.5625 -1.421875 35.59375 -1.421875 
Q 29.59375 -1.421875 25.265625 0.953125 
Q 20.953125 3.328125 18.109375 8.203125 
L 18.109375 0 
L 9.078125 0 
L 9.078125 75.984375 
L 18.109375 75.984375 
z
" id="DejaVuSans-62"/>
    <path d="M 9.421875 54.6875 
L 18.40625 54.6875 
L 18.40625 0 
L 9.421875 0 
z
M 9.421875 75.984375 
L 18.40625 75.984375 
L 18.40625 64.59375 
L 9.421875 64.59375 
z
" id="DejaVuSans-69"/>
    <path d="M 54.890625 33.015625 
L 54.890625 0 
L 45.90625 0 
L 45.90625 32.71875 
Q 45.90625 40.484375 42.875 44.328125 
Q 39.84375 48.1875 33.796875 48.1875 
Q 26.515625 48.1875 22.3125 43.546875 
Q 18.109375 38.921875 18.109375 30.90625 
L 18.109375 0 
L 9.078125 0 
L 9.078125 54.6875 
L 18.109375 54.6875 
L 18.109375 46.1875 
Q 21.34375 51.125 25.703125 53.5625 
Q 30.078125 56 35.796875 56 
Q 45.21875 56 50.046875 50.171875 
Q 54.890625 44.34375 54.890625 33.015625 
z
" id="DejaVuSans-6e"/>
    <path d="M 56.203125 29.59375 
L 56.203125 25.203125 
L 14.890625 25.203125 
Q 15.484375 15.921875 20.484375 11.0625 
Q 25.484375 6.203125 34.421875 6.203125 
Q 39.59375 6.203125 44.453125 7.46875 
Q 49.3125 8.734375 54.109375 11.28125 
L 54.109375 2.78125 
Q 49.265625 0.734375 44.1875 -0.34375 
Q 39.109375 -1.421875 33.890625 -1.421875 
Q 20.796875 -1.421875 13.15625 6.1875 
Q 5.515625 13.8125 5.515625 26.8125 
Q 5.515625 40.234375 12.765625 48.109375 
Q 20.015625 56 32.328125 56 
Q 43.359375 56 49.78125 48.890625 
Q 56.203125 41.796875 56.203125 29.59375 
z
M 47.21875 32.234375 
Q 47.125 39.59375 43.09375 43.984375 
Q 39.0625 48.390625 32.421875 48.390625 
Q 24.90625 48.390625 20.390625 44.140625 
Q 15.875 39.890625 15.1875 32.171875 
z
" id="DejaVuSans-65"/>
    <path d="M 45.40625 46.390625 
L 45.40625 75.984375 
L 54.390625 75.984375 
L 54.390625 0 
L 45.40625 0 
L 45.40625 8.203125 
Q 42.578125 3.328125 38.25 0.953125 
Q 33.9375 -1.421875 27.875 -1.421875 
Q 17.96875 -1.421875 11.734375 6.484375 
Q 5.515625 14.40625 5.515625 27.296875 
Q 5.515625 40.1875 11.734375 48.09375 
Q 17.96875 56 27.875 56 
Q 33.9375 56 38.25 53.625 
Q 42.578125 51.265625 45.40625 46.390625 
z
M 14.796875 27.296875 
Q 14.796875 17.390625 18.875 11.75 
Q 22.953125 6.109375 30.078125 6.109375 
Q 37.203125 6.109375 41.296875 11.75 
Q 45.40625 17.390625 45.40625 27.296875 
Q 45.40625 37.203125 41.296875 42.84375 
Q 37.203125 48.484375 30.078125 48.484375 
Q 22.953125 48.484375 18.875 42.84375 
Q 14.796875 37.203125 14.796875 27.296875 
z
" id="DejaVuSans-64"/>
    <path d="M 41.109375 46.296875 
Q 39.59375 47.171875 37.8125 47.578125 
Q 36.03125 48 33.890625 48 
Q 26.265625 48 22.1875 43.046875 
Q 18.109375 38.09375 18.109375 28.8125 
L 18.109375 0 
L 9.078125 0 
L 9.078125 54.6875 
L 18.109375 54.6875 
L 18.109375 46.1875 
Q 20.953125 51.171875 25.484375 53.578125 
Q 30.03125 56 36.53125 56 
Q 37.453125 56 38.578125 55.875 
Q 39.703125 55.765625 41.0625 55.515625 
z
" id="DejaVuSans-72"/>
    <path d="M 37.109375 75.984375 
L 37.109375 68.5 
L 28.515625 68.5 
Q 23.6875 68.5 21.796875 66.546875 
Q 19.921875 64.59375 19.921875 59.515625 
L 19.921875 54.6875 
L 34.71875 54.6875 
L 34.71875 47.703125 
L 19.921875 47.703125 
L 19.921875 0 
L 10.890625 0 
L 10.890625 47.703125 
L 2.296875 47.703125 
L 2.296875 54.6875 
L 10.890625 54.6875 
L 10.890625 58.5 
Q 10.890625 67.625 15.140625 71.796875 
Q 19.390625 75.984375 28.609375 75.984375 
z
" id="DejaVuSans-66"/>
    <path d="M 44.28125 53.078125 
L 44.28125 44.578125 
Q 40.484375 46.53125 36.375 47.5 
Q 32.28125 48.484375 27.875 48.484375 
Q 21.1875 48.484375 17.84375 46.4375 
Q 14.5 44.390625 14.5 40.28125 
Q 14.5 37.15625 16.890625 35.375 
Q 19.28125 33.59375 26.515625 31.984375 
L 29.59375 31.296875 
Q 39.15625 29.25 43.1875 25.515625 
Q 47.21875 21.78125 47.21875 15.09375 
Q 47.21875 7.46875 41.1875 3.015625 
Q 35.15625 -1.421875 24.609375 -1.421875 
Q 20.21875 -1.421875 15.453125 -0.5625 
Q 10.6875 0.296875 5.421875 2 
L 5.421875 11.28125 
Q 10.40625 8.6875 15.234375 7.390625 
Q 20.0625 6.109375 24.8125 6.109375 
Q 31.15625 6.109375 34.5625 8.28125 
Q 37.984375 10.453125 37.984375 14.40625 
Q 37.984375 18.0625 35.515625 20.015625 
Q 33.0625 21.96875 24.703125 23.78125 
L 21.578125 24.515625 
Q 13.234375 26.265625 9.515625 29.90625 
Q 5.8125 33.546875 5.8125 39.890625 
Q 5.8125 47.609375 11.28125 51.796875 
Q 16.75 56 26.8125 56 
Q 31.78125 56 36.171875 55.265625 
Q 40.578125 54.546875 44.28125 53.078125 
z
" id="DejaVuSans-73"/>
    <path d="M 18.3125 70.21875 
L 18.3125 54.6875 
L 36.8125 54.6875 
L 36.8125 47.703125 
L 18.3125 47.703125 
L 18.3125 18.015625 
Q 18.3125 11.328125 20.140625 9.421875 
Q 21.96875 7.515625 27.59375 7.515625 
L 36.8125 7.515625 
L 36.8125 0 
L 27.59375 0 
Q 17.1875 0 13.234375 3.875 
Q 9.28125 7.765625 9.28125 18.015625 
L 9.28125 47.703125 
L 2.6875 47.703125 
L 2.6875 54.6875 
L 9.28125 54.6875 
L 9.28125 70.21875 
z
" id="DejaVuSans-74"/>
    <path d="M 34.28125 27.484375 
Q 23.390625 27.484375 19.1875 25 
Q 14.984375 22.515625 14.984375 16.5 
Q 14.984375 11.71875 18.140625 8.90625 
Q 21.296875 6.109375 26.703125 6.109375 
Q 34.1875 6.109375 38.703125 11.40625 
Q 43.21875 16.703125 43.21875 25.484375 
L 43.21875 27.484375 
z
M 52.203125 31.203125 
L 52.203125 0 
L 43.21875 0 
L 43.21875 8.296875 
Q 40.140625 3.328125 35.546875 0.953125 
Q 30.953125 -1.421875 24.3125 -1.421875 
Q 15.921875 -1.421875 10.953125 3.296875 
Q 6 8.015625 6 15.921875 
Q 6 25.140625 12.171875 29.828125 
Q 18.359375 34.515625 30.609375 34.515625 
L 43.21875 34.515625 
L 43.21875 35.40625 
Q 43.21875 41.609375 39.140625 45 
Q 35.0625 48.390625 27.6875 48.390625 
Q 23 48.390625 18.546875 47.265625 
Q 14.109375 46.140625 10.015625 43.890625 
L 10.015625 52.203125 
Q 14.9375 54.109375 19.578125 55.046875 
Q 24.21875 56 28.609375 56 
Q 40.484375 56 46.34375 49.84375 
Q 52.203125 43.703125 52.203125 31.203125 
z
" id="DejaVuSans-61"/>
    <path d="M 4.890625 31.390625 
L 31.203125 31.390625 
L 31.203125 23.390625 
L 4.890625 23.390625 
z
" id="DejaVuSans-2d"/>
    <path d="M 45.40625 27.984375 
Q 45.40625 37.75 41.375 43.109375 
Q 37.359375 48.484375 30.078125 48.484375 
Q 22.859375 48.484375 18.828125 43.109375 
Q 14.796875 37.75 14.796875 27.984375 
Q 14.796875 18.265625 18.828125 12.890625 
Q 22.859375 7.515625 30.078125 7.515625 
Q 37.359375 7.515625 41.375 12.890625 
Q 45.40625 18.265625 45.40625 27.984375 
z
M 54.390625 6.78125 
Q 54.390625 -7.171875 48.1875 -13.984375 
Q 42 -20.796875 29.203125 -20.796875 
Q 24.46875 -20.796875 20.265625 -20.09375 
Q 16.0625 -19.390625 12.109375 -17.921875 
L 12.109375 -9.1875 
Q 16.0625 -11.328125 19.921875 -12.34375 
Q 23.78125 -13.375 27.78125 -13.375 
Q 36.625 -13.375 41.015625 -8.765625 
Q 45.40625 -4.15625 45.40625 5.171875 
L 45.40625 9.625 
Q 42.625 4.78125 38.28125 2.390625 
Q 33.9375 0 27.875 0 
Q 17.828125 0 11.671875 7.65625 
Q 5.515625 15.328125 5.515625 27.984375 
Q 5.515625 40.671875 11.671875 48.328125 
Q 17.828125 56 27.875 56 
Q 33.9375 56 38.28125 53.609375 
Q 42.625 51.21875 45.40625 46.390625 
L 45.40625 54.6875 
L 54.390625 54.6875 
z
" id="DejaVuSans-67"/>
    <path d="M 8.5 21.578125 
L 8.5 54.6875 
L 17.484375 54.6875 
L 17.484375 21.921875 
Q 17.484375 14.15625 20.5 10.265625 
Q 23.53125 6.390625 29.59375 6.390625 
Q 36.859375 6.390625 41.078125 11.03125 
Q 45.3125 15.671875 45.3125 23.6875 
L 45.3125 54.6875 
L 54.296875 54.6875 
L 54.296875 0 
L 45.3125 0 
L 45.3125 8.40625 
Q 42.046875 3.421875 37.71875 1 
Q 33.40625 -1.421875 27.6875 -1.421875 
Q 18.265625 -1.421875 13.375 4.4375 
Q 8.5 10.296875 8.5 21.578125 
z
M 31.109375 56 
z
" id="DejaVuSans-75"/>
   </defs>
   <g transform="translate(0 6.11375)scale(0.08 -0.08)">
    <use xlink:href="#DejaVuSans-4a"/>
    <use x="29.492188" xlink:href="#DejaVuSans-43"/>
    <use x="99.316406" xlink:href="#DejaVuSans-30"/>
    <use x="162.939453" xlink:href="#DejaVuSans-39"/>
    <use x="226.5625" xlink:href="#DejaVuSans-31"/>
    <use x="290.185547" xlink:href="#DejaVuSans-7c"/>
    <use x="323.876953" xlink:href="#DejaVuSans-32"/>
    <use x="387.5" xlink:href="#DejaVuSans-30"/>
    <use x="451.123047" xlink:href="#DejaVuSans-31"/>
    <use x="514.746094" xlink:href="#DejaVuSans-39"/>
    <use x="578.369141" xlink:href="#DejaVuSans-30"/>
    <use x="641.992188" xlink:href="#DejaVuSans-36"/>
    <use x="705.615234" xlink:href="#DejaVuSans-30"/>
    <use x="769.238281" xlink:href="#DejaVuSans-32"/>
    <use x="832.861328" xlink:href="#DejaVuSans-7c"/>
    <use x="866.552734" xlink:href="#DejaVuSans-46"/>
    <use x="924.072266" xlink:href="#DejaVuSans-4f"/>
    <use x="1002.767578" xlink:href="#DejaVuSans-56"/>
    <use x="1071.175781" xlink:href="#DejaVuSans-31"/>
    <use x="1134.798828" xlink:href="#DejaVuSans-5f"/>
    <use x="1184.798828" xlink:href="#DejaVuSans-7a"/>
    <use x="1237.289062" xlink:href="#DejaVuSans-6f"/>
    <use x="1298.470703" xlink:href="#DejaVuSans-6f"/>
    <use x="1359.652344" xlink:href="#DejaVuSans-6d"/>
    <use x="1457.064453" xlink:href="#DejaVuSans-32"/>
    <use x="1520.6875" xlink:href="#DejaVuSans-70"/>
    <use x="1584.164062" xlink:href="#DejaVuSans-30"/>
    <use x="1647.787109" xlink:href="#DejaVuSans-78"/>
    <use x="1706.966797" xlink:href="#DejaVuSans-7c"/>
    <use x="1740.658203" xlink:href="#DejaVuSans-63"/>
    <use x="1795.638672" xlink:href="#DejaVuSans-6f"/>
    <use x="1856.820312" xlink:href="#DejaVuSans-6d"/>
    <use x="1954.232422" xlink:href="#DejaVuSans-62"/>
    <use x="2017.708984" xlink:href="#DejaVuSans-69"/>
    <use x="2045.492188" xlink:href="#DejaVuSans-6e"/>
    <use x="2108.871094" xlink:href="#DejaVuSans-65"/>
    <use x="2170.394531" xlink:href="#DejaVuSans-64"/>
    <use x="2233.871094" xlink:href="#DejaVuSans-5f"/>
    <use x="2283.871094" xlink:href="#DejaVuSans-72"/>
    <use x="2324.984375" xlink:href="#DejaVuSans-66"/>
    <use x="2360.189453" xlink:href="#DejaVuSans-73"/>
    <use x="2412.289062" xlink:href="#DejaVuSans-31"/>
    <use x="2475.912109" xlink:href="#DejaVuSans-30"/>
    <use x="2539.535156" xlink:href="#DejaVuSans-5f"/>
    <use x="2589.535156" xlink:href="#DejaVuSans-73"/>
    <use x="2641.634766" xlink:href="#DejaVuSans-74"/>
    <use x="2680.84375" xlink:href="#DejaVuSans-61"/>
    <use x="2742.123047" xlink:href="#DejaVuSans-74"/>
    <use x="2781.332031" xlink:href="#DejaVuSans-69"/>
    <use x="2809.115234" xlink:href="#DejaVuSans-63"/>
    <use x="2864.095703" xlink:href="#DejaVuSans-7c"/>
    <use x="2897.787109" xlink:href="#DejaVuSans-74"/>
    <use x="2936.996094" xlink:href="#DejaVuSans-72"/>
    <use x="2978.109375" xlink:href="#DejaVuSans-61"/>
    <use x="3039.388672" xlink:href="#DejaVuSans-63"/>
    <use x="3094.369141" xlink:href="#DejaVuSans-65"/>
    <use x="3155.892578" xlink:href="#DejaVuSans-73"/>
    <use x="3207.992188" xlink:href="#DejaVuSans-30"/>
    <use x="3271.615234" xlink:href="#DejaVuSans-30"/>
    <use x="3335.238281" xlink:href="#DejaVuSans-31"/>
    <use x="3398.861328" xlink:href="#DejaVuSans-7c"/>
    <use x="3432.552734" xlink:href="#DejaVuSans-66"/>
    <use x="3467.757812" xlink:href="#DejaVuSans-69"/>
    <use x="3495.541016" xlink:href="#DejaVuSans-74"/>
    <use x="3534.75" xlink:href="#DejaVuSans-2d"/>
    <use x="3570.833984" xlink:href="#DejaVuSans-32"/>
    <use x="3634.457031" xlink:href="#DejaVuSans-64"/>
    <use x="3697.933594" xlink:href="#DejaVuSans-67"/>
    <use x="3761.410156" xlink:href="#DejaVuSans-61"/>
    <use x="3822.689453" xlink:href="#DejaVuSans-75"/>
    <use x="3886.068359" xlink:href="#DejaVuSans-73"/>
    <use x="3938.167969" xlink:href="#DejaVuSans-5f"/>
    <use x="3988.167969" xlink:href="#DejaVuSans-64"/>
    <use x="4051.644531" xlink:href="#DejaVuSans-66"/>
    <use x="4086.849609" xlink:href="#DejaVuSans-66"/>
    <use x="4121.976562" xlink:href="#DejaVuSans-2d"/>
    <use x="4158.060547" xlink:href="#DejaVuSans-6e"/>
    <use x="4221.439453" xlink:href="#DejaVuSans-6f"/>
    <use x="4282.636719" xlink:href="#DejaVuSans-2d"/>
    <use x="4318.720703" xlink:href="#DejaVuSans-63"/>
    <use x="4373.701172" xlink:href="#DejaVuSans-75"/>
    <use x="4437.080078" xlink:href="#DejaVuSans-74"/>
    <use x="4476.289062" xlink:href="#DejaVuSans-6f"/>
    <use x="4537.470703" xlink:href="#DejaVuSans-66"/>
    <use x="4572.675781" xlink:href="#DejaVuSans-66"/>
   </g>
  </g>
 </g>
 <defs>
  <clipPath id="p0e45aabbce">
   <rect height="332.64" width="669.6" x="108" y="51.84"/>
  </clipPath>
 </defs>
</svg>
