<?xml version="1.0" encoding="utf-8" standalone="no"?>
<!DOCTYPE svg PUBLIC "-//W3C//DTD SVG 1.1//EN"
  "http://www.w3.org/Graphics/SVG/1.1/DTD/svg11.dtd">
<!-- Created with matplotlib (http://matplotlib.org/) -->
<svg height="432pt" version="1.1" viewBox="0 0 864 432" width="864pt" xmlns="http://www.w3.org/2000/svg" xmlns:xlink="http://www.w3.org/1999/xlink">
 <defs>
  <style type="text/css">
*{stroke-linecap:butt;stroke-linejoin:round;}
  </style>
 </defs>
 <g id="figure_1">
  <g id="axes_1">
   <g id="patch_1">
    <path d="M 108 384.48 
L 777.6 384.48 
L 777.6 51.84 
L 108 51.84 
z
" style="fill:#808080;opacity:0.5;"/>
   </g>
   <g id="patch_2">
    <path clip-path="url(#pb1e22c2596)" d="M 432.071052 251.420769 
C 445.540371 252.958271 459.052757 250.390376 469.632264 244.282631 
C 480.211771 238.174886 486.994629 229.025963 488.486992 218.850806 
C 489.979355 208.675648 486.059379 198.305013 477.590392 190.022912 
C 469.121405 181.74081 456.794863 176.22344 443.325544 174.685938 
C 429.856225 173.148435 416.343839 175.716331 405.764332 181.824076 
C 395.184825 187.93182 388.401968 197.080743 386.909605 207.255901 
C 385.417241 217.431058 389.337218 227.801694 397.806205 236.083795 
C 406.275191 244.365896 418.601733 249.883267 432.071052 251.420769 
z
" style="fill:none;opacity:0.9;stroke:#000000;stroke-linejoin:miter;"/>
   </g>
   <g id="patch_3">
    <path clip-path="url(#pb1e22c2596)" d="M 538.843556 230.078525 
C 540.23169 239.697405 549.975224 247.978801 565.928256 253.098831 
C 581.881288 258.218862 602.741324 259.7595 623.914183 257.381437 
C 645.087043 255.003374 664.844056 248.900768 678.833969 240.417649 
C 692.823882 231.934529 699.904482 221.763504 698.516347 212.144624 
C 697.128213 202.525744 687.384679 194.244348 671.431647 189.124317 
C 655.478615 184.004287 634.618579 182.463649 613.44572 184.841712 
C 592.27286 187.219775 572.515847 193.32238 558.525934 201.8055 
C 544.536021 210.28862 537.455421 220.459645 538.843556 230.078525 
z
" style="fill:none;opacity:0.9;stroke:#040406;stroke-linejoin:miter;"/>
   </g>
   <g id="patch_4">
    <path clip-path="url(#pb1e22c2596)" d="M 611.581929 302.981521 
C 639.373965 299.670267 665.266603 291.497979 683.557291 280.26451 
C 701.847978 269.031041 711.043362 255.653553 709.118264 243.078284 
C 707.193167 230.503014 694.304765 219.756677 673.291578 213.206028 
C 652.278391 206.65538 624.856054 204.835252 597.064018 208.146507 
C 569.271982 211.457761 543.379344 219.630048 525.088656 230.863518 
C 506.797969 242.096987 497.602585 255.474474 499.527683 268.049744 
C 501.45278 280.625014 514.341183 291.371351 535.354369 297.921999 
C 556.367556 304.472647 583.789893 306.292775 611.581929 302.981521 
z
" style="fill:none;opacity:0.9;stroke:#0a0a0d;stroke-linejoin:miter;"/>
   </g>
   <g id="patch_5">
    <path clip-path="url(#pb1e22c2596)" d="M 607.493867 304.203426 
C 630.387018 300.210519 651.339976 291.893246 665.738095 281.08339 
C 680.136214 270.273533 686.803952 257.85367 684.272817 246.559132 
C 681.741682 235.264593 670.21833 226.017527 652.240645 220.854494 
C 634.26296 215.69146 611.298741 215.033998 588.405591 219.026905 
C 565.51244 223.019811 544.559482 231.337084 530.161363 242.146941 
C 515.763243 252.956797 509.095505 265.37666 511.62664 276.671199 
C 514.157775 287.965738 525.681127 297.212803 543.658812 302.375837 
C 561.636497 307.53887 584.600716 308.196333 607.493867 304.203426 
z
" style="fill:none;opacity:0.9;stroke:#0f0f15;stroke-linejoin:miter;"/>
   </g>
   <g id="patch_6">
    <path clip-path="url(#pb1e22c2596)" d="M 627.78422 229.985952 
C 643.712405 230.983805 659.190772 229.451119 670.81039 225.72545 
C 682.430007 221.999782 689.242185 216.385315 689.74662 210.118572 
C 690.251055 203.851828 684.406562 197.444459 673.500324 192.307614 
C 662.594085 187.170769 647.516546 183.723848 631.588361 182.725995 
C 615.660175 181.728143 600.181808 183.260829 588.562191 186.986497 
C 576.942574 190.712166 570.130396 196.326633 569.625961 202.593376 
C 569.121526 208.86012 574.966018 215.267488 585.872257 220.404334 
C 596.778496 225.541179 611.856034 228.9881 627.78422 229.985952 
z
" style="fill:none;opacity:0.9;stroke:#14141c;stroke-linejoin:miter;"/>
   </g>
   <g id="patch_7">
    <path clip-path="url(#pb1e22c2596)" d="M 635.962607 254.241677 
C 629.402635 241.080108 614.494323 231.798116 594.521054 228.439953 
C 574.547784 225.081791 551.140286 227.921637 529.45379 236.334048 
C 507.767294 244.746459 489.572405 258.044599 478.876337 273.299707 
C 468.180269 288.554815 465.856308 304.521379 472.41628 317.682949 
C 478.976252 330.844519 493.884564 340.126511 513.857834 343.484673 
C 533.831103 346.842836 557.238601 344.00299 578.925098 335.590579 
C 600.611594 327.178168 618.806483 313.880028 629.502551 298.62492 
C 640.198619 283.369812 642.522579 267.403247 635.962607 254.241677 
z
" style="fill:none;opacity:0.9;stroke:#191923;stroke-linejoin:miter;"/>
   </g>
   <g id="patch_8">
    <path clip-path="url(#pb1e22c2596)" d="M 522.864188 310.858392 
C 542.38679 320.549968 564.321464 324.814896 583.837354 322.713876 
C 603.353244 320.612855 618.856964 312.317426 626.933999 299.654559 
C 635.011033 286.991691 635.001929 270.995254 626.908691 255.188276 
C 618.815453 239.381298 603.298859 225.054349 583.776257 215.362774 
C 564.253656 205.671198 542.318981 201.40627 522.803091 203.50729 
C 503.287201 205.608311 487.783481 213.90374 479.706447 226.566607 
C 471.629412 239.229474 471.638516 255.225912 479.731754 271.03289 
C 487.824992 286.839868 503.341587 301.166817 522.864188 310.858392 
z
" style="fill:none;opacity:0.9;stroke:#1e1e29;stroke-linejoin:miter;"/>
   </g>
   <g id="patch_9">
    <path clip-path="url(#pb1e22c2596)" d="M 614.653243 272.385022 
C 630.127396 275.317945 645.847279 274.528219 658.35077 270.189772 
C 670.854261 265.851324 679.120505 258.318371 681.328959 249.249957 
C 683.537413 240.181543 679.507766 230.318064 670.1275 221.831838 
C 660.747235 213.345611 646.782208 206.929499 631.308056 203.996576 
C 615.833903 201.063653 600.11402 201.853379 587.610529 206.191826 
C 575.107038 210.530273 566.840794 218.063227 564.63234 227.131641 
C 562.423886 236.200054 566.453533 246.063533 575.833799 254.54976 
C 585.214064 263.035987 599.179091 269.452099 614.653243 272.385022 
z
" style="fill:none;opacity:0.9;stroke:#232331;stroke-linejoin:miter;"/>
   </g>
   <g id="patch_10">
    <path clip-path="url(#pb1e22c2596)" d="M 556.095996 316.052911 
C 577.484671 311.540587 596.648248 302.224978 609.36617 290.157738 
C 622.084093 278.090499 627.317999 264.256865 623.915183 251.703535 
C 620.512366 239.150205 608.750651 228.902102 591.220419 223.216252 
C 573.690187 217.530403 551.822704 216.87103 530.434029 221.383354 
C 509.045354 225.895678 489.881777 235.211287 477.163855 247.278527 
C 464.445932 259.345767 459.212025 273.1794 462.614842 285.73273 
C 466.017659 298.28606 477.779373 308.534163 495.309605 314.220013 
C 512.839837 319.905863 534.707321 320.565235 556.095996 316.052911 
z
" style="fill:none;opacity:0.9;stroke:#282838;stroke-linejoin:miter;"/>
   </g>
   <g id="patch_11">
    <path clip-path="url(#pb1e22c2596)" d="M 594.914828 329.976289 
C 616.133871 325.699078 635.202038 316.636394 647.919786 304.784188 
C 660.637534 292.931982 665.966515 279.257934 662.733084 266.773595 
C 659.499652 254.289255 647.967803 244.013916 630.677293 238.2106 
C 613.386782 232.407284 591.749303 231.549807 570.53026 235.827018 
C 549.311217 240.104229 530.243051 249.166913 517.525303 261.019119 
C 504.807555 272.871325 499.478574 286.545373 502.712005 299.029712 
C 505.945437 311.514051 517.477286 321.789391 534.767796 327.592707 
C 552.058307 333.396023 573.695785 334.2535 594.914828 329.976289 
z
" style="fill:none;opacity:0.9;stroke:#2e2d3f;stroke-linejoin:miter;"/>
   </g>
   <g id="patch_12">
    <path clip-path="url(#pb1e22c2596)" d="M 602.333199 286.408203 
C 629.72698 286.703144 656.07905 281.450363 675.585673 271.806723 
C 695.092296 262.163083 706.160842 248.915945 706.353593 234.982836 
C 706.546343 221.049728 695.847561 207.568226 676.613528 197.507476 
C 657.379496 187.446725 631.180586 181.628141 603.786806 181.333199 
C 576.393026 181.038257 550.040955 186.291039 530.534332 195.934679 
C 511.027709 205.578319 499.959163 218.825457 499.766412 232.758565 
C 499.573662 246.691674 510.272444 260.173175 529.506477 270.233926 
C 548.74051 280.294677 574.939419 286.113261 602.333199 286.408203 
z
" style="fill:none;opacity:0.9;stroke:#333347;stroke-linejoin:miter;"/>
   </g>
   <g id="patch_13">
    <path clip-path="url(#pb1e22c2596)" d="M 559.878512 344.590885 
C 579.274134 342.891003 597.346631 336.542105 610.115745 326.942464 
C 622.884859 317.342823 629.308049 305.276206 627.970681 293.400147 
C 626.633313 281.524087 617.644578 270.808211 602.98414 263.612568 
C 588.323703 256.416924 569.188522 253.329004 549.7929 255.028887 
C 530.397278 256.72877 512.324781 263.077667 499.555667 272.677308 
C 486.786552 282.276949 480.363363 294.343566 481.700731 306.219626 
C 483.038098 318.095686 492.026833 328.811561 506.687271 336.007205 
C 521.347709 343.202849 540.48289 346.290768 559.878512 344.590885 
z
" style="fill:none;opacity:0.9;stroke:#38384e;stroke-linejoin:miter;"/>
   </g>
   <g id="patch_14">
    <path clip-path="url(#pb1e22c2596)" d="M 491.602627 230.607729 
C 486.715636 241.651055 488.080444 254.328048 495.396469 265.846746 
C 502.712495 277.365445 515.382416 286.785398 530.61583 292.031971 
C 545.849244 297.278544 562.40241 297.923377 576.629685 293.824453 
C 590.85696 289.725529 601.59675 281.217507 606.483742 270.174181 
C 611.370734 259.130854 610.005925 246.453862 602.6899 234.935163 
C 595.373874 223.416465 582.703953 213.996512 567.470539 208.749939 
C 552.237125 203.503366 535.683959 202.858533 521.456684 206.957457 
C 507.229409 211.05638 496.489619 219.564402 491.602627 230.607729 
z
" style="fill:none;opacity:0.9;stroke:#3c3c54;stroke-linejoin:miter;"/>
   </g>
   <g id="patch_15">
    <path clip-path="url(#pb1e22c2596)" d="M 590.82572 283.984221 
C 611.737816 280.940099 631.106796 274.334212 644.666868 265.62143 
C 658.22694 256.908648 664.870984 246.800331 663.135727 237.522719 
C 661.400469 228.245106 651.427586 220.555674 635.413489 216.147931 
C 619.399393 211.740187 598.651562 210.974005 577.739467 214.018127 
C 556.827372 217.062249 537.458391 223.668136 523.898319 232.380918 
C 510.338247 241.0937 503.694203 251.202017 505.42946 260.479629 
C 507.164718 269.757242 517.137601 277.446674 533.151698 281.854417 
C 549.165794 286.262161 569.913625 287.028343 590.82572 283.984221 
z
" style="fill:none;opacity:0.9;stroke:#42425b;stroke-linejoin:miter;"/>
   </g>
   <g id="patch_16">
    <path clip-path="url(#pb1e22c2596)" d="M 593.781456 308.99856 
C 612.546666 310.062831 630.806285 307.509478 644.538846 301.900848 
C 658.271406 296.292218 666.355705 288.086231 667.011268 279.090159 
C 667.666832 270.094088 660.840137 261.042422 648.034684 253.928685 
C 635.22923 246.814949 617.490527 242.219947 598.725318 241.155676 
C 579.960108 240.091405 561.700489 242.644758 547.967928 248.253388 
C 534.235368 253.862018 526.151069 262.068006 525.495506 271.064077 
C 524.839942 280.060149 531.666637 289.111815 544.47209 296.225551 
C 557.277544 303.339288 575.016247 307.934289 593.781456 308.99856 
z
" style="fill:none;opacity:0.9;stroke:#474763;stroke-linejoin:miter;"/>
   </g>
   <g id="patch_17">
    <path clip-path="url(#pb1e22c2596)" d="M 525.822287 329.995679 
C 551.879707 339.412701 579.747645 342.255447 603.288513 337.897834 
C 626.829381 333.54022 644.12117 322.338029 651.355564 306.758411 
C 658.589958 291.178794 655.176302 272.493757 641.866413 254.818463 
C 628.556524 237.14317 606.437096 221.920729 580.379676 212.503707 
C 554.322256 203.086685 526.454317 200.24394 502.91345 204.601553 
C 479.372582 208.959166 462.080793 220.161357 454.846399 235.740975 
C 447.612004 251.320592 451.025661 270.005629 464.33555 287.680923 
C 477.645439 305.356216 499.764867 320.578657 525.822287 329.995679 
z
" style="fill:none;opacity:0.9;stroke:#4c4c6a;stroke-linejoin:miter;"/>
   </g>
   <g id="patch_18">
    <path clip-path="url(#pb1e22c2596)" d="M 436.811748 208.58943 
C 460.491216 208.102354 483.108758 204.030689 499.683123 197.271172 
C 516.257488 190.511655 525.435452 181.616171 525.195675 172.543847 
C 524.955899 163.471523 515.317958 154.963074 498.404498 148.892387 
C 481.491038 142.8217 458.682968 139.68442 435.0035 140.171496 
C 411.324032 140.658572 388.70649 144.730237 372.132126 151.489754 
C 355.557761 158.24927 346.379797 167.144754 346.619573 176.217079 
C 346.85935 185.289403 356.49729 193.797852 373.41075 199.868539 
C 390.32421 205.939226 413.132281 209.076506 436.811748 208.58943 
z
" style="fill:none;opacity:0.9;stroke:#515171;stroke-linejoin:miter;"/>
   </g>
   <g id="patch_19">
    <path clip-path="url(#pb1e22c2596)" d="M 548.038476 297.335437 
C 567.587708 295.229327 585.559653 287.579917 597.996199 276.071899 
C 610.432745 264.563882 616.318502 250.136837 614.357202 235.968153 
C 612.395902 221.799468 602.747676 209.045956 587.537433 200.516427 
C 572.32719 191.986899 552.796779 188.377754 533.247547 190.483864 
C 513.698315 192.589973 495.72637 200.239384 483.289824 211.747401 
C 470.853278 223.255418 464.96752 237.682464 466.928821 251.851148 
C 468.890121 266.019832 478.538347 278.773345 493.74859 287.302873 
C 508.958833 295.832401 528.489244 299.441547 548.038476 297.335437 
z
" style="fill:none;opacity:0.9;stroke:#565776;stroke-linejoin:miter;"/>
   </g>
   <g id="patch_20">
    <path clip-path="url(#pb1e22c2596)" d="M 591.537031 293.027755 
C 617.89131 289.814188 642.285772 281.089794 659.34782 268.776021 
C 676.409868 256.462247 684.746461 241.564458 682.521562 227.36372 
C 680.296663 213.162981 667.691924 200.81872 647.483393 193.049617 
C 627.274862 185.280513 601.112476 182.72088 574.758197 185.934447 
C 548.403918 189.148014 524.009456 197.872408 506.947408 210.186182 
C 489.88536 222.499955 481.548767 237.397744 483.773666 251.598482 
C 485.998565 265.799221 498.603304 278.143482 518.811835 285.912585 
C 539.020366 293.681689 565.182752 296.241322 591.537031 293.027755 
z
" style="fill:none;opacity:0.9;stroke:#5b5f7b;stroke-linejoin:miter;"/>
   </g>
   <g id="patch_21">
    <path clip-path="url(#pb1e22c2596)" d="M 629.947464 296.450168 
C 650.420677 295.599916 669.910442 292.016932 684.124366 286.490327 
C 698.338289 280.963722 706.115867 273.94472 705.744178 266.979173 
C 705.372488 260.013626 696.881878 253.670241 682.142306 249.346075 
C 667.402735 245.021908 647.617621 243.07001 627.144408 243.920262 
C 606.671195 244.770515 587.18143 248.353499 572.967506 253.880103 
C 558.753583 259.406708 550.976005 266.425711 551.347694 273.391258 
C 551.719384 280.356804 560.209994 286.700189 574.949566 291.024356 
C 589.689137 295.348522 609.474251 297.30042 629.947464 296.450168 
z
" style="fill:none;opacity:0.9;stroke:#606680;stroke-linejoin:miter;"/>
   </g>
   <g id="patch_22">
    <path clip-path="url(#pb1e22c2596)" d="M 541.274586 255.941726 
C 557.631516 256.079524 573.369076 251.743566 585.021251 243.888795 
C 596.673425 236.034024 603.288866 225.301748 603.410599 214.055625 
C 603.532332 202.809503 597.150419 191.967731 585.670401 183.918084 
C 574.190383 175.868436 558.549553 171.268131 542.192622 171.130333 
C 525.835692 170.992534 510.098132 175.328493 498.445957 183.183264 
C 486.793783 191.038035 480.178342 201.770311 480.056609 213.016433 
C 479.934876 224.262555 486.316789 235.104327 497.796807 243.153975 
C 509.276825 251.203622 524.917655 255.803927 541.274586 255.941726 
z
" style="fill:none;opacity:0.9;stroke:#666d85;stroke-linejoin:miter;"/>
   </g>
   <g id="patch_23">
    <path clip-path="url(#pb1e22c2596)" d="M 543.166761 312.509546 
C 568.871443 318.234508 595.224761 317.792308 616.422705 311.280335 
C 637.620649 304.768363 651.932499 292.718291 656.206237 277.78401 
C 660.479975 262.849728 654.366669 246.250554 639.212704 231.642263 
C 624.058739 217.033972 601.101369 205.609266 575.396687 199.884304 
C 549.692006 194.159343 523.338687 194.601543 502.140744 201.113515 
C 480.9428 207.625488 466.63095 219.675559 462.357211 234.609841 
C 458.083473 249.544123 464.196779 266.143297 479.350744 280.751588 
C 494.50471 295.359879 517.46208 306.784585 543.166761 312.509546 
z
" style="fill:none;opacity:0.9;stroke:#6b748b;stroke-linejoin:miter;"/>
   </g>
   <g id="patch_24">
    <path clip-path="url(#pb1e22c2596)" d="M 622.664657 304.170669 
C 648.079992 299.754958 671.292993 290.301713 687.191264 277.892901 
C 703.089536 265.484089 710.375056 251.132834 707.443272 237.999834 
C 704.511489 224.866834 691.601769 214.02434 671.557329 207.860286 
C 651.51289 201.696231 625.970269 200.713884 600.554934 205.129595 
C 575.139599 209.545305 551.926598 218.99855 536.028326 231.407362 
C 520.130054 243.816174 512.844535 258.167429 515.776318 271.300429 
C 518.708102 284.433429 531.617821 295.275923 551.662261 301.439978 
C 571.706701 307.604032 597.249322 308.586379 622.664657 304.170669 
z
" style="fill:none;opacity:0.9;stroke:#707b90;stroke-linejoin:miter;"/>
   </g>
   <g id="patch_25">
    <path clip-path="url(#pb1e22c2596)" d="M 609.633043 241.86727 
C 605.774235 231.163964 596.79773 222.377772 584.680499 217.443751 
C 572.563269 212.509729 558.294631 211.830719 545.017087 215.556264 
C 531.739543 219.281808 520.537147 227.107735 513.877095 237.310473 
C 507.217043 247.513211 505.6431 259.259752 509.501909 269.963057 
C 513.360717 280.666363 522.337222 289.452555 534.454453 294.386576 
C 546.571683 299.320598 560.840321 299.999609 574.117865 296.274064 
C 587.395409 292.548519 598.597805 284.722592 605.257857 274.519854 
C 611.917908 264.317116 613.491851 252.570575 609.633043 241.86727 
z
" style="fill:none;opacity:0.9;stroke:#748194;stroke-linejoin:miter;"/>
   </g>
   <g id="patch_26">
    <path clip-path="url(#pb1e22c2596)" d="M 595.920182 296.343681 
C 624.1035 293.255743 650.19242 283.589213 668.441158 269.473033 
C 686.689897 255.356852 695.608525 237.943544 693.23282 221.068188 
C 690.857114 204.192832 677.381041 189.233225 655.772547 179.484048 
C 634.164054 169.734871 606.187379 165.992101 578.00406 169.080039 
C 549.820741 172.167977 523.731822 181.834507 505.483084 195.950688 
C 487.234345 210.066868 478.315716 227.480176 480.691422 244.355533 
C 483.067127 261.230889 496.543201 276.190495 518.151694 285.939672 
C 539.760188 295.688849 567.736863 299.431619 595.920182 296.343681 
z
" style="fill:none;opacity:0.9;stroke:#7a8999;stroke-linejoin:miter;"/>
   </g>
   <g id="patch_27">
    <path clip-path="url(#pb1e22c2596)" d="M 499.214593 308.03759 
C 517.696757 306.564031 535.027723 301.278144 547.390547 293.344085 
C 559.753371 285.410025 566.138682 275.475573 565.140191 265.728677 
C 564.1417 255.981781 555.840929 247.218232 542.066025 241.368099 
C 528.291122 235.517967 510.166746 233.058888 491.684582 234.532447 
C 473.202418 236.006006 455.871452 241.291893 443.508628 249.225952 
C 431.145804 257.160012 424.760492 267.094464 425.758983 276.84136 
C 426.757475 286.588256 435.058246 295.351805 448.83315 301.201938 
C 462.608053 307.052071 480.732429 309.511149 499.214593 308.03759 
z
" style="fill:none;opacity:0.9;stroke:#7f909f;stroke-linejoin:miter;"/>
   </g>
   <g id="patch_28">
    <path clip-path="url(#pb1e22c2596)" d="M 638.189843 269.324945 
C 670.471121 263.394731 700.192132 252.442822 720.807167 238.881248 
C 741.422203 225.319675 751.248138 210.25568 748.120923 197.006934 
C 744.993709 183.758188 729.168668 173.406392 704.131083 168.231408 
C 679.093498 163.056425 646.887577 163.480768 614.606299 169.410983 
C 582.325021 175.341197 552.604011 186.293107 531.988975 199.85468 
C 511.373939 213.416253 501.548005 228.480248 504.675219 241.728994 
C 507.802434 254.97774 523.627474 265.329537 548.665059 270.50452 
C 573.702644 275.679504 605.908566 275.25516 638.189843 269.324945 
z
" style="fill:none;opacity:0.9;stroke:#8497a4;stroke-linejoin:miter;"/>
   </g>
   <g id="patch_29">
    <path clip-path="url(#pb1e22c2596)" d="M 464.817012 214.899362 
C 463.616627 220.367294 467.461576 226.465671 475.505053 231.851396 
C 483.548531 237.237122 495.133823 241.470475 507.709404 243.61911 
C 520.284985 245.767744 532.824114 245.656233 542.565193 243.309136 
C 552.306272 240.962038 558.453986 236.570984 559.654372 231.103053 
C 560.854757 225.635121 557.009809 219.536744 548.966331 214.151019 
C 540.922853 208.765293 529.337561 204.53194 516.76198 202.383305 
C 504.186399 200.234671 491.64727 200.346182 481.906191 202.693279 
C 472.165112 205.040377 466.017398 209.43143 464.817012 214.899362 
z
" style="fill:none;opacity:0.9;stroke:#899ea9;stroke-linejoin:miter;"/>
   </g>
   <g id="patch_30">
    <path clip-path="url(#pb1e22c2596)" d="M 547.13693 295.489794 
C 571.728534 298.999699 596.429977 296.293212 615.801053 287.966406 
C 635.17213 279.639601 647.631276 266.372323 650.434511 251.086537 
C 653.237745 235.800751 646.156196 219.744474 630.749492 206.453914 
C 615.342788 193.163354 592.868819 183.723626 568.277215 180.213721 
C 543.685611 176.703817 518.984167 179.410304 499.613091 187.737109 
C 480.242015 196.063915 467.782869 209.331192 464.979634 224.616978 
C 462.1764 239.902764 469.257949 255.959042 484.664653 269.249602 
C 500.071357 282.540162 522.545326 291.97989 547.13693 295.489794 
z
" style="fill:none;opacity:0.9;stroke:#8ea4ae;stroke-linejoin:miter;"/>
   </g>
   <g id="patch_31">
    <path clip-path="url(#pb1e22c2596)" d="M 504.002913 218.032027 
C 489.385217 219.745563 475.982007 225.490584 466.745184 234.001815 
C 457.508361 242.513045 453.192072 253.095581 454.746928 263.418743 
C 456.301785 273.741904 463.60084 282.96285 475.036562 289.050773 
C 486.472284 295.138697 501.110997 297.596548 515.728693 295.883011 
C 530.34639 294.169475 543.7496 288.424454 552.986423 279.913223 
C 562.223246 271.401993 566.539535 260.819457 564.984679 250.496295 
C 563.429822 240.173134 556.130767 230.952189 544.695045 224.864265 
C 533.259323 218.776341 518.62061 216.31849 504.002913 218.032027 
z
" style="fill:none;opacity:0.9;stroke:#93acb3;stroke-linejoin:miter;"/>
   </g>
   <g id="patch_32">
    <path clip-path="url(#pb1e22c2596)" d="M 559.768709 298.293883 
C 577.478217 300.695286 595.130496 299.177708 608.837837 294.075377 
C 622.545177 288.973046 631.188435 280.702546 632.864034 271.085357 
C 634.539632 261.468169 629.110766 251.289493 617.773079 242.791065 
C 606.435393 234.292637 590.114558 228.168316 572.40505 225.766913 
C 554.695542 223.36551 537.043263 224.883088 523.335922 229.985419 
C 509.628582 235.087749 500.985324 243.35825 499.309725 252.975439 
C 497.634127 262.592627 503.062993 272.771303 514.40068 281.269731 
C 525.738366 289.768159 542.059201 295.89248 559.768709 298.293883 
z
" style="fill:none;opacity:0.9;stroke:#98b3b8;stroke-linejoin:miter;"/>
   </g>
   <g id="patch_33">
    <path clip-path="url(#pb1e22c2596)" d="M 589.30846 315.576289 
C 612.75013 311.712381 634.172925 302.992135 648.858723 291.336086 
C 663.544521 279.680036 670.294292 266.039847 667.621477 253.419612 
C 664.948662 240.799378 653.071484 230.229483 634.605755 224.037825 
C 616.140025 217.846167 592.593388 216.538268 569.151718 220.402176 
C 545.710048 224.266085 524.287253 232.98633 509.601455 244.64238 
C 494.915657 256.298429 488.165886 269.938618 490.838701 282.558853 
C 493.511517 295.179088 505.388694 305.748983 523.854424 311.94064 
C 542.320153 318.132298 565.86679 319.440198 589.30846 315.576289 
z
" style="fill:none;opacity:0.9;stroke:#9dbabd;stroke-linejoin:miter;"/>
   </g>
   <g id="patch_34">
    <path clip-path="url(#pb1e22c2596)" d="M 558.518038 309.859368 
C 585.821865 312.83743 612.843488 309.75419 633.63171 301.288696 
C 654.419931 292.823202 667.277484 279.666624 669.372643 264.716546 
C 671.467801 249.766468 662.629504 234.243497 644.804284 221.566388 
C 626.979064 208.889279 601.622271 200.093061 574.318444 197.114999 
C 547.014618 194.136937 519.992995 197.220177 499.204773 205.685671 
C 478.416552 214.151165 465.558998 227.307743 463.46384 242.257821 
C 461.368682 257.207899 470.206979 272.73087 488.032199 285.407979 
C 505.857419 298.085088 531.214212 306.881306 558.518038 309.859368 
z
" style="fill:none;opacity:0.9;stroke:#a3c1c3;stroke-linejoin:miter;"/>
   </g>
   <g id="patch_35">
    <path clip-path="url(#pb1e22c2596)" d="M 504.38194 307.234553 
C 500.76636 313.041612 501.042137 320.425732 505.148532 327.760646 
C 509.254928 335.095561 516.856674 341.782405 526.279574 346.348481 
C 535.702474 350.914556 546.177191 352.987062 555.396789 352.109554 
C 564.616387 351.232045 571.828126 347.476167 575.443706 341.669107 
C 579.059286 335.862048 578.78351 328.477928 574.677115 321.143013 
C 570.570719 313.808099 562.968973 307.121255 553.546073 302.555179 
C 544.123172 297.989104 533.648456 295.916598 524.428858 296.794106 
C 515.20926 297.671615 507.99752 301.427493 504.38194 307.234553 
z
" style="fill:none;opacity:0.9;stroke:#a9c8c8;stroke-linejoin:miter;"/>
   </g>
   <g id="patch_36">
    <path clip-path="url(#pb1e22c2596)" d="M 609.279987 306.181694 
C 630.372877 304.449862 650.147112 298.451238 664.247646 289.506949 
C 678.34818 280.562659 685.623768 269.402965 684.472045 258.485661 
C 683.320321 247.568356 673.835321 237.78479 658.106004 231.289679 
C 642.376687 224.794569 621.687283 222.118211 600.594393 223.850042 
C 579.501504 225.581873 559.727269 231.580497 545.626734 240.524787 
C 531.5262 249.469076 524.250613 260.62877 525.402336 271.546075 
C 526.554059 282.463379 536.03906 292.246945 551.768376 298.742056 
C 567.497693 305.237167 588.187097 307.913525 609.279987 306.181694 
z
" style="fill:none;opacity:0.9;stroke:#b0cccc;stroke-linejoin:miter;"/>
   </g>
   <g id="patch_37">
    <path clip-path="url(#pb1e22c2596)" d="M 597.559305 308.313382 
C 628.832241 304.480464 658.021703 295.68065 678.699052 283.851995 
C 699.3764 272.023341 709.853421 258.131603 707.822671 245.236278 
C 705.791922 232.340952 691.419204 221.494883 667.869942 215.086793 
C 644.320679 208.678703 613.517566 207.231783 582.24463 211.064701 
C 550.971694 214.897619 521.782231 223.697433 501.104883 235.526088 
C 480.427535 247.354743 469.950514 261.24648 471.981264 274.141806 
C 474.012013 287.037131 488.384731 297.8832 511.933993 304.29129 
C 535.483255 310.69938 566.286369 312.1463 597.559305 308.313382 
z
" style="fill:none;opacity:0.9;stroke:#b8d2d1;stroke-linejoin:miter;"/>
   </g>
   <g id="patch_38">
    <path clip-path="url(#pb1e22c2596)" d="M 479.786463 227.597138 
C 479.710831 245.585552 486.247965 262.861258 497.958135 275.619481 
C 509.668306 288.377704 525.59543 295.576793 542.231743 295.631231 
C 558.868056 295.685669 574.855277 288.591011 586.672406 275.909775 
C 598.489535 263.228539 605.171756 245.99609 605.247387 228.007676 
C 605.323019 210.019261 598.785885 192.743556 587.075715 179.985332 
C 575.365544 167.227109 559.43842 160.028021 542.802107 159.973583 
C 526.165794 159.919145 510.178573 167.013802 498.361444 179.695038 
C 486.544315 192.376274 479.862094 209.608723 479.786463 227.597138 
z
" style="fill:none;opacity:0.9;stroke:#c0d7d7;stroke-linejoin:miter;"/>
   </g>
   <g id="patch_39">
    <path clip-path="url(#pb1e22c2596)" d="M 461.453586 302.071105 
C 477.462244 298.837162 492.17921 293.276578 502.363243 286.614008 
C 512.547276 279.951439 517.366896 272.730852 515.760636 266.542499 
C 514.154376 260.354146 506.253381 255.703278 493.797754 253.614195 
C 481.342126 251.525112 465.348813 252.168378 449.340155 255.402322 
C 433.331497 258.636265 418.614531 264.196848 408.430498 270.859418 
C 398.246465 277.521988 393.426846 284.742574 395.033105 290.930927 
C 396.639365 297.11928 404.54036 301.770148 416.995987 303.859231 
C 429.451615 305.948314 445.444928 305.305048 461.453586 302.071105 
z
" style="fill:none;opacity:0.9;stroke:#c8dcdc;stroke-linejoin:miter;"/>
   </g>
   <g id="patch_40">
    <path clip-path="url(#pb1e22c2596)" d="M 599.362386 337.706474 
C 624.818625 327.135072 646.188331 311.284134 658.765075 293.644645 
C 671.341819 276.005156 674.098765 258.017302 666.428729 243.642699 
C 658.758693 229.268096 641.287898 219.680367 617.864084 216.991098 
C 594.440271 214.301829 566.975889 218.730587 541.519651 229.301989 
C 516.063412 239.873391 494.693706 255.724329 482.116962 273.363818 
C 469.540218 291.003308 466.783272 308.991162 474.453308 323.365765 
C 482.123344 337.740367 499.594139 347.328096 523.017953 350.017365 
C 546.441766 352.706634 573.906148 348.277877 599.362386 337.706474 
z
" style="fill:none;opacity:0.9;stroke:#d1e1e1;stroke-linejoin:miter;"/>
   </g>
   <g id="patch_41">
    <path clip-path="url(#pb1e22c2596)" d="M 550.293126 279.856558 
C 565.803656 282.258996 581.332794 281.288304 593.460426 277.158265 
C 605.588058 273.028226 613.324017 266.07604 614.964547 257.832844 
C 616.605078 249.589649 612.016239 240.728465 602.208667 233.200865 
C 592.401096 225.673265 578.175538 220.093845 562.665008 217.691407 
C 547.154477 215.288969 531.625339 216.259661 519.497707 220.3897 
C 507.370075 224.519739 499.634117 231.471925 497.993586 239.715121 
C 496.353055 247.958316 500.941895 256.8195 510.749466 264.3471 
C 520.557037 271.8747 534.782595 277.45412 550.293126 279.856558 
z
" style="fill:none;opacity:0.9;stroke:#d7e6e6;stroke-linejoin:miter;"/>
   </g>
   <g id="matplotlib.axis_1"/>
   <g id="matplotlib.axis_2"/>
   <g id="patch_42">
    <path d="M 108 384.48 
L 108 51.84 
" style="fill:none;stroke:#000000;stroke-linecap:square;stroke-linejoin:miter;stroke-width:0.8;"/>
   </g>
   <g id="patch_43">
    <path d="M 777.6 384.48 
L 777.6 51.84 
" style="fill:none;stroke:#000000;stroke-linecap:square;stroke-linejoin:miter;stroke-width:0.8;"/>
   </g>
   <g id="patch_44">
    <path d="M 108 384.48 
L 777.6 384.48 
" style="fill:none;stroke:#000000;stroke-linecap:square;stroke-linejoin:miter;stroke-width:0.8;"/>
   </g>
   <g id="patch_45">
    <path d="M 108 51.84 
L 777.6 51.84 
" style="fill:none;stroke:#000000;stroke-linecap:square;stroke-linejoin:miter;stroke-width:0.8;"/>
   </g>
  </g>
  <g id="text_1">
   <!-- JC084|20190525|FOV1_zoom2p0x|combined_rfs_static|traces001|fit-2dgaus_dff-no-cutoff -->
   <defs>
    <path d="M 9.8125 72.90625 
L 19.671875 72.90625 
L 19.671875 5.078125 
Q 19.671875 -8.109375 14.671875 -14.0625 
Q 9.671875 -20.015625 -1.421875 -20.015625 
L -5.171875 -20.015625 
L -5.171875 -11.71875 
L -2.09375 -11.71875 
Q 4.4375 -11.71875 7.125 -8.046875 
Q 9.8125 -4.390625 9.8125 5.078125 
z
" id="DejaVuSans-4a"/>
    <path d="M 64.40625 67.28125 
L 64.40625 56.890625 
Q 59.421875 61.53125 53.78125 63.8125 
Q 48.140625 66.109375 41.796875 66.109375 
Q 29.296875 66.109375 22.65625 58.46875 
Q 16.015625 50.828125 16.015625 36.375 
Q 16.015625 21.96875 22.65625 14.328125 
Q 29.296875 6.6875 41.796875 6.6875 
Q 48.140625 6.6875 53.78125 8.984375 
Q 59.421875 11.28125 64.40625 15.921875 
L 64.40625 5.609375 
Q 59.234375 2.09375 53.4375 0.328125 
Q 47.65625 -1.421875 41.21875 -1.421875 
Q 24.65625 -1.421875 15.125 8.703125 
Q 5.609375 18.84375 5.609375 36.375 
Q 5.609375 53.953125 15.125 64.078125 
Q 24.65625 74.21875 41.21875 74.21875 
Q 47.75 74.21875 53.53125 72.484375 
Q 59.328125 70.75 64.40625 67.28125 
z
" id="DejaVuSans-43"/>
    <path d="M 31.78125 66.40625 
Q 24.171875 66.40625 20.328125 58.90625 
Q 16.5 51.421875 16.5 36.375 
Q 16.5 21.390625 20.328125 13.890625 
Q 24.171875 6.390625 31.78125 6.390625 
Q 39.453125 6.390625 43.28125 13.890625 
Q 47.125 21.390625 47.125 36.375 
Q 47.125 51.421875 43.28125 58.90625 
Q 39.453125 66.40625 31.78125 66.40625 
z
M 31.78125 74.21875 
Q 44.046875 74.21875 50.515625 64.515625 
Q 56.984375 54.828125 56.984375 36.375 
Q 56.984375 17.96875 50.515625 8.265625 
Q 44.046875 -1.421875 31.78125 -1.421875 
Q 19.53125 -1.421875 13.0625 8.265625 
Q 6.59375 17.96875 6.59375 36.375 
Q 6.59375 54.828125 13.0625 64.515625 
Q 19.53125 74.21875 31.78125 74.21875 
z
" id="DejaVuSans-30"/>
    <path d="M 31.78125 34.625 
Q 24.75 34.625 20.71875 30.859375 
Q 16.703125 27.09375 16.703125 20.515625 
Q 16.703125 13.921875 20.71875 10.15625 
Q 24.75 6.390625 31.78125 6.390625 
Q 38.8125 6.390625 42.859375 10.171875 
Q 46.921875 13.96875 46.921875 20.515625 
Q 46.921875 27.09375 42.890625 30.859375 
Q 38.875 34.625 31.78125 34.625 
z
M 21.921875 38.8125 
Q 15.578125 40.375 12.03125 44.71875 
Q 8.5 49.078125 8.5 55.328125 
Q 8.5 64.0625 14.71875 69.140625 
Q 20.953125 74.21875 31.78125 74.21875 
Q 42.671875 74.21875 48.875 69.140625 
Q 55.078125 64.0625 55.078125 55.328125 
Q 55.078125 49.078125 51.53125 44.71875 
Q 48 40.375 41.703125 38.8125 
Q 48.828125 37.15625 52.796875 32.3125 
Q 56.78125 27.484375 56.78125 20.515625 
Q 56.78125 9.90625 50.3125 4.234375 
Q 43.84375 -1.421875 31.78125 -1.421875 
Q 19.734375 -1.421875 13.25 4.234375 
Q 6.78125 9.90625 6.78125 20.515625 
Q 6.78125 27.484375 10.78125 32.3125 
Q 14.796875 37.15625 21.921875 38.8125 
z
M 18.3125 54.390625 
Q 18.3125 48.734375 21.84375 45.5625 
Q 25.390625 42.390625 31.78125 42.390625 
Q 38.140625 42.390625 41.71875 45.5625 
Q 45.3125 48.734375 45.3125 54.390625 
Q 45.3125 60.0625 41.71875 63.234375 
Q 38.140625 66.40625 31.78125 66.40625 
Q 25.390625 66.40625 21.84375 63.234375 
Q 18.3125 60.0625 18.3125 54.390625 
z
" id="DejaVuSans-38"/>
    <path d="M 37.796875 64.3125 
L 12.890625 25.390625 
L 37.796875 25.390625 
z
M 35.203125 72.90625 
L 47.609375 72.90625 
L 47.609375 25.390625 
L 58.015625 25.390625 
L 58.015625 17.1875 
L 47.609375 17.1875 
L 47.609375 0 
L 37.796875 0 
L 37.796875 17.1875 
L 4.890625 17.1875 
L 4.890625 26.703125 
z
" id="DejaVuSans-34"/>
    <path d="M 21 76.421875 
L 21 -23.578125 
L 12.703125 -23.578125 
L 12.703125 76.421875 
z
" id="DejaVuSans-7c"/>
    <path d="M 19.1875 8.296875 
L 53.609375 8.296875 
L 53.609375 0 
L 7.328125 0 
L 7.328125 8.296875 
Q 12.9375 14.109375 22.625 23.890625 
Q 32.328125 33.6875 34.8125 36.53125 
Q 39.546875 41.84375 41.421875 45.53125 
Q 43.3125 49.21875 43.3125 52.78125 
Q 43.3125 58.59375 39.234375 62.25 
Q 35.15625 65.921875 28.609375 65.921875 
Q 23.96875 65.921875 18.8125 64.3125 
Q 13.671875 62.703125 7.8125 59.421875 
L 7.8125 69.390625 
Q 13.765625 71.78125 18.9375 73 
Q 24.125 74.21875 28.421875 74.21875 
Q 39.75 74.21875 46.484375 68.546875 
Q 53.21875 62.890625 53.21875 53.421875 
Q 53.21875 48.921875 51.53125 44.890625 
Q 49.859375 40.875 45.40625 35.40625 
Q 44.1875 33.984375 37.640625 27.21875 
Q 31.109375 20.453125 19.1875 8.296875 
z
" id="DejaVuSans-32"/>
    <path d="M 12.40625 8.296875 
L 28.515625 8.296875 
L 28.515625 63.921875 
L 10.984375 60.40625 
L 10.984375 69.390625 
L 28.421875 72.90625 
L 38.28125 72.90625 
L 38.28125 8.296875 
L 54.390625 8.296875 
L 54.390625 0 
L 12.40625 0 
z
" id="DejaVuSans-31"/>
    <path d="M 10.984375 1.515625 
L 10.984375 10.5 
Q 14.703125 8.734375 18.5 7.8125 
Q 22.3125 6.890625 25.984375 6.890625 
Q 35.75 6.890625 40.890625 13.453125 
Q 46.046875 20.015625 46.78125 33.40625 
Q 43.953125 29.203125 39.59375 26.953125 
Q 35.25 24.703125 29.984375 24.703125 
Q 19.046875 24.703125 12.671875 31.3125 
Q 6.296875 37.9375 6.296875 49.421875 
Q 6.296875 60.640625 12.9375 67.421875 
Q 19.578125 74.21875 30.609375 74.21875 
Q 43.265625 74.21875 49.921875 64.515625 
Q 56.59375 54.828125 56.59375 36.375 
Q 56.59375 19.140625 48.40625 8.859375 
Q 40.234375 -1.421875 26.421875 -1.421875 
Q 22.703125 -1.421875 18.890625 -0.6875 
Q 15.09375 0.046875 10.984375 1.515625 
z
M 30.609375 32.421875 
Q 37.25 32.421875 41.125 36.953125 
Q 45.015625 41.5 45.015625 49.421875 
Q 45.015625 57.28125 41.125 61.84375 
Q 37.25 66.40625 30.609375 66.40625 
Q 23.96875 66.40625 20.09375 61.84375 
Q 16.21875 57.28125 16.21875 49.421875 
Q 16.21875 41.5 20.09375 36.953125 
Q 23.96875 32.421875 30.609375 32.421875 
z
" id="DejaVuSans-39"/>
    <path d="M 10.796875 72.90625 
L 49.515625 72.90625 
L 49.515625 64.59375 
L 19.828125 64.59375 
L 19.828125 46.734375 
Q 21.96875 47.46875 24.109375 47.828125 
Q 26.265625 48.1875 28.421875 48.1875 
Q 40.625 48.1875 47.75 41.5 
Q 54.890625 34.8125 54.890625 23.390625 
Q 54.890625 11.625 47.5625 5.09375 
Q 40.234375 -1.421875 26.90625 -1.421875 
Q 22.3125 -1.421875 17.546875 -0.640625 
Q 12.796875 0.140625 7.71875 1.703125 
L 7.71875 11.625 
Q 12.109375 9.234375 16.796875 8.0625 
Q 21.484375 6.890625 26.703125 6.890625 
Q 35.15625 6.890625 40.078125 11.328125 
Q 45.015625 15.765625 45.015625 23.390625 
Q 45.015625 31 40.078125 35.4375 
Q 35.15625 39.890625 26.703125 39.890625 
Q 22.75 39.890625 18.8125 39.015625 
Q 14.890625 38.140625 10.796875 36.28125 
z
" id="DejaVuSans-35"/>
    <path d="M 9.8125 72.90625 
L 51.703125 72.90625 
L 51.703125 64.59375 
L 19.671875 64.59375 
L 19.671875 43.109375 
L 48.578125 43.109375 
L 48.578125 34.8125 
L 19.671875 34.8125 
L 19.671875 0 
L 9.8125 0 
z
" id="DejaVuSans-46"/>
    <path d="M 39.40625 66.21875 
Q 28.65625 66.21875 22.328125 58.203125 
Q 16.015625 50.203125 16.015625 36.375 
Q 16.015625 22.609375 22.328125 14.59375 
Q 28.65625 6.59375 39.40625 6.59375 
Q 50.140625 6.59375 56.421875 14.59375 
Q 62.703125 22.609375 62.703125 36.375 
Q 62.703125 50.203125 56.421875 58.203125 
Q 50.140625 66.21875 39.40625 66.21875 
z
M 39.40625 74.21875 
Q 54.734375 74.21875 63.90625 63.9375 
Q 73.09375 53.65625 73.09375 36.375 
Q 73.09375 19.140625 63.90625 8.859375 
Q 54.734375 -1.421875 39.40625 -1.421875 
Q 24.03125 -1.421875 14.8125 8.828125 
Q 5.609375 19.09375 5.609375 36.375 
Q 5.609375 53.65625 14.8125 63.9375 
Q 24.03125 74.21875 39.40625 74.21875 
z
" id="DejaVuSans-4f"/>
    <path d="M 28.609375 0 
L 0.78125 72.90625 
L 11.078125 72.90625 
L 34.1875 11.53125 
L 57.328125 72.90625 
L 67.578125 72.90625 
L 39.796875 0 
z
" id="DejaVuSans-56"/>
    <path d="M 50.984375 -16.609375 
L 50.984375 -23.578125 
L -0.984375 -23.578125 
L -0.984375 -16.609375 
z
" id="DejaVuSans-5f"/>
    <path d="M 5.515625 54.6875 
L 48.1875 54.6875 
L 48.1875 46.484375 
L 14.40625 7.171875 
L 48.1875 7.171875 
L 48.1875 0 
L 4.296875 0 
L 4.296875 8.203125 
L 38.09375 47.515625 
L 5.515625 47.515625 
z
" id="DejaVuSans-7a"/>
    <path d="M 30.609375 48.390625 
Q 23.390625 48.390625 19.1875 42.75 
Q 14.984375 37.109375 14.984375 27.296875 
Q 14.984375 17.484375 19.15625 11.84375 
Q 23.34375 6.203125 30.609375 6.203125 
Q 37.796875 6.203125 41.984375 11.859375 
Q 46.1875 17.53125 46.1875 27.296875 
Q 46.1875 37.015625 41.984375 42.703125 
Q 37.796875 48.390625 30.609375 48.390625 
z
M 30.609375 56 
Q 42.328125 56 49.015625 48.375 
Q 55.71875 40.765625 55.71875 27.296875 
Q 55.71875 13.875 49.015625 6.21875 
Q 42.328125 -1.421875 30.609375 -1.421875 
Q 18.84375 -1.421875 12.171875 6.21875 
Q 5.515625 13.875 5.515625 27.296875 
Q 5.515625 40.765625 12.171875 48.375 
Q 18.84375 56 30.609375 56 
z
" id="DejaVuSans-6f"/>
    <path d="M 52 44.1875 
Q 55.375 50.25 60.0625 53.125 
Q 64.75 56 71.09375 56 
Q 79.640625 56 84.28125 50.015625 
Q 88.921875 44.046875 88.921875 33.015625 
L 88.921875 0 
L 79.890625 0 
L 79.890625 32.71875 
Q 79.890625 40.578125 77.09375 44.375 
Q 74.3125 48.1875 68.609375 48.1875 
Q 61.625 48.1875 57.5625 43.546875 
Q 53.515625 38.921875 53.515625 30.90625 
L 53.515625 0 
L 44.484375 0 
L 44.484375 32.71875 
Q 44.484375 40.625 41.703125 44.40625 
Q 38.921875 48.1875 33.109375 48.1875 
Q 26.21875 48.1875 22.15625 43.53125 
Q 18.109375 38.875 18.109375 30.90625 
L 18.109375 0 
L 9.078125 0 
L 9.078125 54.6875 
L 18.109375 54.6875 
L 18.109375 46.1875 
Q 21.1875 51.21875 25.484375 53.609375 
Q 29.78125 56 35.6875 56 
Q 41.65625 56 45.828125 52.96875 
Q 50 49.953125 52 44.1875 
z
" id="DejaVuSans-6d"/>
    <path d="M 18.109375 8.203125 
L 18.109375 -20.796875 
L 9.078125 -20.796875 
L 9.078125 54.6875 
L 18.109375 54.6875 
L 18.109375 46.390625 
Q 20.953125 51.265625 25.265625 53.625 
Q 29.59375 56 35.59375 56 
Q 45.5625 56 51.78125 48.09375 
Q 58.015625 40.1875 58.015625 27.296875 
Q 58.015625 14.40625 51.78125 6.484375 
Q 45.5625 -1.421875 35.59375 -1.421875 
Q 29.59375 -1.421875 25.265625 0.953125 
Q 20.953125 3.328125 18.109375 8.203125 
z
M 48.6875 27.296875 
Q 48.6875 37.203125 44.609375 42.84375 
Q 40.53125 48.484375 33.40625 48.484375 
Q 26.265625 48.484375 22.1875 42.84375 
Q 18.109375 37.203125 18.109375 27.296875 
Q 18.109375 17.390625 22.1875 11.75 
Q 26.265625 6.109375 33.40625 6.109375 
Q 40.53125 6.109375 44.609375 11.75 
Q 48.6875 17.390625 48.6875 27.296875 
z
" id="DejaVuSans-70"/>
    <path d="M 54.890625 54.6875 
L 35.109375 28.078125 
L 55.90625 0 
L 45.3125 0 
L 29.390625 21.484375 
L 13.484375 0 
L 2.875 0 
L 24.125 28.609375 
L 4.6875 54.6875 
L 15.28125 54.6875 
L 29.78125 35.203125 
L 44.28125 54.6875 
z
" id="DejaVuSans-78"/>
    <path d="M 48.78125 52.59375 
L 48.78125 44.1875 
Q 44.96875 46.296875 41.140625 47.34375 
Q 37.3125 48.390625 33.40625 48.390625 
Q 24.65625 48.390625 19.8125 42.84375 
Q 14.984375 37.3125 14.984375 27.296875 
Q 14.984375 17.28125 19.8125 11.734375 
Q 24.65625 6.203125 33.40625 6.203125 
Q 37.3125 6.203125 41.140625 7.25 
Q 44.96875 8.296875 48.78125 10.40625 
L 48.78125 2.09375 
Q 45.015625 0.34375 40.984375 -0.53125 
Q 36.96875 -1.421875 32.421875 -1.421875 
Q 20.0625 -1.421875 12.78125 6.34375 
Q 5.515625 14.109375 5.515625 27.296875 
Q 5.515625 40.671875 12.859375 48.328125 
Q 20.21875 56 33.015625 56 
Q 37.15625 56 41.109375 55.140625 
Q 45.0625 54.296875 48.78125 52.59375 
z
" id="DejaVuSans-63"/>
    <path d="M 48.6875 27.296875 
Q 48.6875 37.203125 44.609375 42.84375 
Q 40.53125 48.484375 33.40625 48.484375 
Q 26.265625 48.484375 22.1875 42.84375 
Q 18.109375 37.203125 18.109375 27.296875 
Q 18.109375 17.390625 22.1875 11.75 
Q 26.265625 6.109375 33.40625 6.109375 
Q 40.53125 6.109375 44.609375 11.75 
Q 48.6875 17.390625 48.6875 27.296875 
z
M 18.109375 46.390625 
Q 20.953125 51.265625 25.265625 53.625 
Q 29.59375 56 35.59375 56 
Q 45.5625 56 51.78125 48.09375 
Q 58.015625 40.1875 58.015625 27.296875 
Q 58.015625 14.40625 51.78125 6.484375 
Q 45.5625 -1.421875 35.59375 -1.421875 
Q 29.59375 -1.421875 25.265625 0.953125 
Q 20.953125 3.328125 18.109375 8.203125 
L 18.109375 0 
L 9.078125 0 
L 9.078125 75.984375 
L 18.109375 75.984375 
z
" id="DejaVuSans-62"/>
    <path d="M 9.421875 54.6875 
L 18.40625 54.6875 
L 18.40625 0 
L 9.421875 0 
z
M 9.421875 75.984375 
L 18.40625 75.984375 
L 18.40625 64.59375 
L 9.421875 64.59375 
z
" id="DejaVuSans-69"/>
    <path d="M 54.890625 33.015625 
L 54.890625 0 
L 45.90625 0 
L 45.90625 32.71875 
Q 45.90625 40.484375 42.875 44.328125 
Q 39.84375 48.1875 33.796875 48.1875 
Q 26.515625 48.1875 22.3125 43.546875 
Q 18.109375 38.921875 18.109375 30.90625 
L 18.109375 0 
L 9.078125 0 
L 9.078125 54.6875 
L 18.109375 54.6875 
L 18.109375 46.1875 
Q 21.34375 51.125 25.703125 53.5625 
Q 30.078125 56 35.796875 56 
Q 45.21875 56 50.046875 50.171875 
Q 54.890625 44.34375 54.890625 33.015625 
z
" id="DejaVuSans-6e"/>
    <path d="M 56.203125 29.59375 
L 56.203125 25.203125 
L 14.890625 25.203125 
Q 15.484375 15.921875 20.484375 11.0625 
Q 25.484375 6.203125 34.421875 6.203125 
Q 39.59375 6.203125 44.453125 7.46875 
Q 49.3125 8.734375 54.109375 11.28125 
L 54.109375 2.78125 
Q 49.265625 0.734375 44.1875 -0.34375 
Q 39.109375 -1.421875 33.890625 -1.421875 
Q 20.796875 -1.421875 13.15625 6.1875 
Q 5.515625 13.8125 5.515625 26.8125 
Q 5.515625 40.234375 12.765625 48.109375 
Q 20.015625 56 32.328125 56 
Q 43.359375 56 49.78125 48.890625 
Q 56.203125 41.796875 56.203125 29.59375 
z
M 47.21875 32.234375 
Q 47.125 39.59375 43.09375 43.984375 
Q 39.0625 48.390625 32.421875 48.390625 
Q 24.90625 48.390625 20.390625 44.140625 
Q 15.875 39.890625 15.1875 32.171875 
z
" id="DejaVuSans-65"/>
    <path d="M 45.40625 46.390625 
L 45.40625 75.984375 
L 54.390625 75.984375 
L 54.390625 0 
L 45.40625 0 
L 45.40625 8.203125 
Q 42.578125 3.328125 38.25 0.953125 
Q 33.9375 -1.421875 27.875 -1.421875 
Q 17.96875 -1.421875 11.734375 6.484375 
Q 5.515625 14.40625 5.515625 27.296875 
Q 5.515625 40.1875 11.734375 48.09375 
Q 17.96875 56 27.875 56 
Q 33.9375 56 38.25 53.625 
Q 42.578125 51.265625 45.40625 46.390625 
z
M 14.796875 27.296875 
Q 14.796875 17.390625 18.875 11.75 
Q 22.953125 6.109375 30.078125 6.109375 
Q 37.203125 6.109375 41.296875 11.75 
Q 45.40625 17.390625 45.40625 27.296875 
Q 45.40625 37.203125 41.296875 42.84375 
Q 37.203125 48.484375 30.078125 48.484375 
Q 22.953125 48.484375 18.875 42.84375 
Q 14.796875 37.203125 14.796875 27.296875 
z
" id="DejaVuSans-64"/>
    <path d="M 41.109375 46.296875 
Q 39.59375 47.171875 37.8125 47.578125 
Q 36.03125 48 33.890625 48 
Q 26.265625 48 22.1875 43.046875 
Q 18.109375 38.09375 18.109375 28.8125 
L 18.109375 0 
L 9.078125 0 
L 9.078125 54.6875 
L 18.109375 54.6875 
L 18.109375 46.1875 
Q 20.953125 51.171875 25.484375 53.578125 
Q 30.03125 56 36.53125 56 
Q 37.453125 56 38.578125 55.875 
Q 39.703125 55.765625 41.0625 55.515625 
z
" id="DejaVuSans-72"/>
    <path d="M 37.109375 75.984375 
L 37.109375 68.5 
L 28.515625 68.5 
Q 23.6875 68.5 21.796875 66.546875 
Q 19.921875 64.59375 19.921875 59.515625 
L 19.921875 54.6875 
L 34.71875 54.6875 
L 34.71875 47.703125 
L 19.921875 47.703125 
L 19.921875 0 
L 10.890625 0 
L 10.890625 47.703125 
L 2.296875 47.703125 
L 2.296875 54.6875 
L 10.890625 54.6875 
L 10.890625 58.5 
Q 10.890625 67.625 15.140625 71.796875 
Q 19.390625 75.984375 28.609375 75.984375 
z
" id="DejaVuSans-66"/>
    <path d="M 44.28125 53.078125 
L 44.28125 44.578125 
Q 40.484375 46.53125 36.375 47.5 
Q 32.28125 48.484375 27.875 48.484375 
Q 21.1875 48.484375 17.84375 46.4375 
Q 14.5 44.390625 14.5 40.28125 
Q 14.5 37.15625 16.890625 35.375 
Q 19.28125 33.59375 26.515625 31.984375 
L 29.59375 31.296875 
Q 39.15625 29.25 43.1875 25.515625 
Q 47.21875 21.78125 47.21875 15.09375 
Q 47.21875 7.46875 41.1875 3.015625 
Q 35.15625 -1.421875 24.609375 -1.421875 
Q 20.21875 -1.421875 15.453125 -0.5625 
Q 10.6875 0.296875 5.421875 2 
L 5.421875 11.28125 
Q 10.40625 8.6875 15.234375 7.390625 
Q 20.0625 6.109375 24.8125 6.109375 
Q 31.15625 6.109375 34.5625 8.28125 
Q 37.984375 10.453125 37.984375 14.40625 
Q 37.984375 18.0625 35.515625 20.015625 
Q 33.0625 21.96875 24.703125 23.78125 
L 21.578125 24.515625 
Q 13.234375 26.265625 9.515625 29.90625 
Q 5.8125 33.546875 5.8125 39.890625 
Q 5.8125 47.609375 11.28125 51.796875 
Q 16.75 56 26.8125 56 
Q 31.78125 56 36.171875 55.265625 
Q 40.578125 54.546875 44.28125 53.078125 
z
" id="DejaVuSans-73"/>
    <path d="M 18.3125 70.21875 
L 18.3125 54.6875 
L 36.8125 54.6875 
L 36.8125 47.703125 
L 18.3125 47.703125 
L 18.3125 18.015625 
Q 18.3125 11.328125 20.140625 9.421875 
Q 21.96875 7.515625 27.59375 7.515625 
L 36.8125 7.515625 
L 36.8125 0 
L 27.59375 0 
Q 17.1875 0 13.234375 3.875 
Q 9.28125 7.765625 9.28125 18.015625 
L 9.28125 47.703125 
L 2.6875 47.703125 
L 2.6875 54.6875 
L 9.28125 54.6875 
L 9.28125 70.21875 
z
" id="DejaVuSans-74"/>
    <path d="M 34.28125 27.484375 
Q 23.390625 27.484375 19.1875 25 
Q 14.984375 22.515625 14.984375 16.5 
Q 14.984375 11.71875 18.140625 8.90625 
Q 21.296875 6.109375 26.703125 6.109375 
Q 34.1875 6.109375 38.703125 11.40625 
Q 43.21875 16.703125 43.21875 25.484375 
L 43.21875 27.484375 
z
M 52.203125 31.203125 
L 52.203125 0 
L 43.21875 0 
L 43.21875 8.296875 
Q 40.140625 3.328125 35.546875 0.953125 
Q 30.953125 -1.421875 24.3125 -1.421875 
Q 15.921875 -1.421875 10.953125 3.296875 
Q 6 8.015625 6 15.921875 
Q 6 25.140625 12.171875 29.828125 
Q 18.359375 34.515625 30.609375 34.515625 
L 43.21875 34.515625 
L 43.21875 35.40625 
Q 43.21875 41.609375 39.140625 45 
Q 35.0625 48.390625 27.6875 48.390625 
Q 23 48.390625 18.546875 47.265625 
Q 14.109375 46.140625 10.015625 43.890625 
L 10.015625 52.203125 
Q 14.9375 54.109375 19.578125 55.046875 
Q 24.21875 56 28.609375 56 
Q 40.484375 56 46.34375 49.84375 
Q 52.203125 43.703125 52.203125 31.203125 
z
" id="DejaVuSans-61"/>
    <path d="M 4.890625 31.390625 
L 31.203125 31.390625 
L 31.203125 23.390625 
L 4.890625 23.390625 
z
" id="DejaVuSans-2d"/>
    <path d="M 45.40625 27.984375 
Q 45.40625 37.75 41.375 43.109375 
Q 37.359375 48.484375 30.078125 48.484375 
Q 22.859375 48.484375 18.828125 43.109375 
Q 14.796875 37.75 14.796875 27.984375 
Q 14.796875 18.265625 18.828125 12.890625 
Q 22.859375 7.515625 30.078125 7.515625 
Q 37.359375 7.515625 41.375 12.890625 
Q 45.40625 18.265625 45.40625 27.984375 
z
M 54.390625 6.78125 
Q 54.390625 -7.171875 48.1875 -13.984375 
Q 42 -20.796875 29.203125 -20.796875 
Q 24.46875 -20.796875 20.265625 -20.09375 
Q 16.0625 -19.390625 12.109375 -17.921875 
L 12.109375 -9.1875 
Q 16.0625 -11.328125 19.921875 -12.34375 
Q 23.78125 -13.375 27.78125 -13.375 
Q 36.625 -13.375 41.015625 -8.765625 
Q 45.40625 -4.15625 45.40625 5.171875 
L 45.40625 9.625 
Q 42.625 4.78125 38.28125 2.390625 
Q 33.9375 0 27.875 0 
Q 17.828125 0 11.671875 7.65625 
Q 5.515625 15.328125 5.515625 27.984375 
Q 5.515625 40.671875 11.671875 48.328125 
Q 17.828125 56 27.875 56 
Q 33.9375 56 38.28125 53.609375 
Q 42.625 51.21875 45.40625 46.390625 
L 45.40625 54.6875 
L 54.390625 54.6875 
z
" id="DejaVuSans-67"/>
    <path d="M 8.5 21.578125 
L 8.5 54.6875 
L 17.484375 54.6875 
L 17.484375 21.921875 
Q 17.484375 14.15625 20.5 10.265625 
Q 23.53125 6.390625 29.59375 6.390625 
Q 36.859375 6.390625 41.078125 11.03125 
Q 45.3125 15.671875 45.3125 23.6875 
L 45.3125 54.6875 
L 54.296875 54.6875 
L 54.296875 0 
L 45.3125 0 
L 45.3125 8.40625 
Q 42.046875 3.421875 37.71875 1 
Q 33.40625 -1.421875 27.6875 -1.421875 
Q 18.265625 -1.421875 13.375 4.4375 
Q 8.5 10.296875 8.5 21.578125 
z
M 31.109375 56 
z
" id="DejaVuSans-75"/>
   </defs>
   <g transform="translate(0 6.11375)scale(0.08 -0.08)">
    <use xlink:href="#DejaVuSans-4a"/>
    <use x="29.492188" xlink:href="#DejaVuSans-43"/>
    <use x="99.316406" xlink:href="#DejaVuSans-30"/>
    <use x="162.939453" xlink:href="#DejaVuSans-38"/>
    <use x="226.5625" xlink:href="#DejaVuSans-34"/>
    <use x="290.185547" xlink:href="#DejaVuSans-7c"/>
    <use x="323.876953" xlink:href="#DejaVuSans-32"/>
    <use x="387.5" xlink:href="#DejaVuSans-30"/>
    <use x="451.123047" xlink:href="#DejaVuSans-31"/>
    <use x="514.746094" xlink:href="#DejaVuSans-39"/>
    <use x="578.369141" xlink:href="#DejaVuSans-30"/>
    <use x="641.992188" xlink:href="#DejaVuSans-35"/>
    <use x="705.615234" xlink:href="#DejaVuSans-32"/>
    <use x="769.238281" xlink:href="#DejaVuSans-35"/>
    <use x="832.861328" xlink:href="#DejaVuSans-7c"/>
    <use x="866.552734" xlink:href="#DejaVuSans-46"/>
    <use x="924.072266" xlink:href="#DejaVuSans-4f"/>
    <use x="1002.767578" xlink:href="#DejaVuSans-56"/>
    <use x="1071.175781" xlink:href="#DejaVuSans-31"/>
    <use x="1134.798828" xlink:href="#DejaVuSans-5f"/>
    <use x="1184.798828" xlink:href="#DejaVuSans-7a"/>
    <use x="1237.289062" xlink:href="#DejaVuSans-6f"/>
    <use x="1298.470703" xlink:href="#DejaVuSans-6f"/>
    <use x="1359.652344" xlink:href="#DejaVuSans-6d"/>
    <use x="1457.064453" xlink:href="#DejaVuSans-32"/>
    <use x="1520.6875" xlink:href="#DejaVuSans-70"/>
    <use x="1584.164062" xlink:href="#DejaVuSans-30"/>
    <use x="1647.787109" xlink:href="#DejaVuSans-78"/>
    <use x="1706.966797" xlink:href="#DejaVuSans-7c"/>
    <use x="1740.658203" xlink:href="#DejaVuSans-63"/>
    <use x="1795.638672" xlink:href="#DejaVuSans-6f"/>
    <use x="1856.820312" xlink:href="#DejaVuSans-6d"/>
    <use x="1954.232422" xlink:href="#DejaVuSans-62"/>
    <use x="2017.708984" xlink:href="#DejaVuSans-69"/>
    <use x="2045.492188" xlink:href="#DejaVuSans-6e"/>
    <use x="2108.871094" xlink:href="#DejaVuSans-65"/>
    <use x="2170.394531" xlink:href="#DejaVuSans-64"/>
    <use x="2233.871094" xlink:href="#DejaVuSans-5f"/>
    <use x="2283.871094" xlink:href="#DejaVuSans-72"/>
    <use x="2324.984375" xlink:href="#DejaVuSans-66"/>
    <use x="2360.189453" xlink:href="#DejaVuSans-73"/>
    <use x="2412.289062" xlink:href="#DejaVuSans-5f"/>
    <use x="2462.289062" xlink:href="#DejaVuSans-73"/>
    <use x="2514.388672" xlink:href="#DejaVuSans-74"/>
    <use x="2553.597656" xlink:href="#DejaVuSans-61"/>
    <use x="2614.876953" xlink:href="#DejaVuSans-74"/>
    <use x="2654.085938" xlink:href="#DejaVuSans-69"/>
    <use x="2681.869141" xlink:href="#DejaVuSans-63"/>
    <use x="2736.849609" xlink:href="#DejaVuSans-7c"/>
    <use x="2770.541016" xlink:href="#DejaVuSans-74"/>
    <use x="2809.75" xlink:href="#DejaVuSans-72"/>
    <use x="2850.863281" xlink:href="#DejaVuSans-61"/>
    <use x="2912.142578" xlink:href="#DejaVuSans-63"/>
    <use x="2967.123047" xlink:href="#DejaVuSans-65"/>
    <use x="3028.646484" xlink:href="#DejaVuSans-73"/>
    <use x="3080.746094" xlink:href="#DejaVuSans-30"/>
    <use x="3144.369141" xlink:href="#DejaVuSans-30"/>
    <use x="3207.992188" xlink:href="#DejaVuSans-31"/>
    <use x="3271.615234" xlink:href="#DejaVuSans-7c"/>
    <use x="3305.306641" xlink:href="#DejaVuSans-66"/>
    <use x="3340.511719" xlink:href="#DejaVuSans-69"/>
    <use x="3368.294922" xlink:href="#DejaVuSans-74"/>
    <use x="3407.503906" xlink:href="#DejaVuSans-2d"/>
    <use x="3443.587891" xlink:href="#DejaVuSans-32"/>
    <use x="3507.210938" xlink:href="#DejaVuSans-64"/>
    <use x="3570.6875" xlink:href="#DejaVuSans-67"/>
    <use x="3634.164062" xlink:href="#DejaVuSans-61"/>
    <use x="3695.443359" xlink:href="#DejaVuSans-75"/>
    <use x="3758.822266" xlink:href="#DejaVuSans-73"/>
    <use x="3810.921875" xlink:href="#DejaVuSans-5f"/>
    <use x="3860.921875" xlink:href="#DejaVuSans-64"/>
    <use x="3924.398438" xlink:href="#DejaVuSans-66"/>
    <use x="3959.603516" xlink:href="#DejaVuSans-66"/>
    <use x="3994.730469" xlink:href="#DejaVuSans-2d"/>
    <use x="4030.814453" xlink:href="#DejaVuSans-6e"/>
    <use x="4094.193359" xlink:href="#DejaVuSans-6f"/>
    <use x="4155.390625" xlink:href="#DejaVuSans-2d"/>
    <use x="4191.474609" xlink:href="#DejaVuSans-63"/>
    <use x="4246.455078" xlink:href="#DejaVuSans-75"/>
    <use x="4309.833984" xlink:href="#DejaVuSans-74"/>
    <use x="4349.042969" xlink:href="#DejaVuSans-6f"/>
    <use x="4410.224609" xlink:href="#DejaVuSans-66"/>
    <use x="4445.429688" xlink:href="#DejaVuSans-66"/>
   </g>
  </g>
 </g>
 <defs>
  <clipPath id="pb1e22c2596">
   <rect height="332.64" width="669.6" x="108" y="51.84"/>
  </clipPath>
 </defs>
</svg>
