<?xml version="1.0" encoding="utf-8" standalone="no"?>
<!DOCTYPE svg PUBLIC "-//W3C//DTD SVG 1.1//EN"
  "http://www.w3.org/Graphics/SVG/1.1/DTD/svg11.dtd">
<!-- Created with matplotlib (http://matplotlib.org/) -->
<svg height="576pt" version="1.1" viewBox="0 0 720 576" width="720pt" xmlns="http://www.w3.org/2000/svg" xmlns:xlink="http://www.w3.org/1999/xlink">
 <defs>
  <style type="text/css">
*{stroke-linecap:butt;stroke-linejoin:round;}
  </style>
 </defs>
 <g id="figure_1">
  <g id="patch_1">
   <path d="M 0 576 
L 720 576 
L 720 0 
L 0 0 
z
" style="fill:#ffffff;"/>
  </g>
  <g id="axes_1">
   <g id="patch_2">
    <path d="M 90 512.64 
L 648 512.64 
L 648 69.12 
L 90 69.12 
z
" style="fill:#ffffff;"/>
   </g>
   <g id="PathCollection_1"/>
   <g id="PathCollection_2">
    <defs>
     <path d="M 0 2.738613 
C 0.726289 2.738613 1.422928 2.450055 1.936492 1.936492 
C 2.450055 1.422928 2.738613 0.726289 2.738613 0 
C 2.738613 -0.726289 2.450055 -1.422928 1.936492 -1.936492 
C 1.422928 -2.450055 0.726289 -2.738613 0 -2.738613 
C -0.726289 -2.738613 -1.422928 -2.450055 -1.936492 -1.936492 
C -2.450055 -1.422928 -2.738613 -0.726289 -2.738613 0 
C -2.738613 0.726289 -2.450055 1.422928 -1.936492 1.936492 
C -1.422928 2.450055 -0.726289 2.738613 0 2.738613 
z
" id="m2db59aeb47" style="stroke:#000000;"/>
    </defs>
    <g clip-path="url(#p445b9d5137)">
     <use style="stroke:#000000;" x="533.49971" xlink:href="#m2db59aeb47" y="230.197071"/>
     <use style="stroke:#000000;" x="505.172384" xlink:href="#m2db59aeb47" y="196.408538"/>
     <use style="stroke:#000000;" x="451.173417" xlink:href="#m2db59aeb47" y="321.609754"/>
     <use style="stroke:#000000;" x="461.796164" xlink:href="#m2db59aeb47" y="242.58788"/>
     <use style="stroke:#000000;" x="452.058646" xlink:href="#m2db59aeb47" y="239.186758"/>
     <use style="stroke:#000000;" x="458.255249" xlink:href="#m2db59aeb47" y="268.825717"/>
     <use style="stroke:#000000;" x="447.632501" xlink:href="#m2db59aeb47" y="286.717715"/>
     <use style="stroke:#000000;" x="452.058646" xlink:href="#m2db59aeb47" y="293.147096"/>
     <use style="stroke:#000000;" x="473.304141" xlink:href="#m2db59aeb47" y="245.352183"/>
     <use style="stroke:#000000;" x="481.271202" xlink:href="#m2db59aeb47" y="231.950281"/>
     <use style="stroke:#000000;" x="482.156431" xlink:href="#m2db59aeb47" y="238.406313"/>
     <use style="stroke:#000000;" x="494.549636" xlink:href="#m2db59aeb47" y="243.272765"/>
     <use style="stroke:#000000;" x="511.368986" xlink:href="#m2db59aeb47" y="247.673507"/>
     <use style="stroke:#000000;" x="528.188337" xlink:href="#m2db59aeb47" y="217.528002"/>
     <use style="stroke:#000000;" x="510.483757" xlink:href="#m2db59aeb47" y="251.065984"/>
     <use style="stroke:#000000;" x="505.172384" xlink:href="#m2db59aeb47" y="239.178889"/>
     <use style="stroke:#000000;" x="488.353033" xlink:href="#m2db59aeb47" y="242.813573"/>
     <use style="stroke:#000000;" x="511.368986" xlink:href="#m2db59aeb47" y="226.528729"/>
     <use style="stroke:#000000;" x="508.713299" xlink:href="#m2db59aeb47" y="213.161049"/>
     <use style="stroke:#000000;" x="509.598528" xlink:href="#m2db59aeb47" y="123.586285"/>
     <use style="stroke:#000000;" x="467.992767" xlink:href="#m2db59aeb47" y="203.645831"/>
     <use style="stroke:#000000;" x="400.715366" xlink:href="#m2db59aeb47" y="255.025481"/>
     <use style="stroke:#000000;" x="383.010787" xlink:href="#m2db59aeb47" y="305.713799"/>
     <use style="stroke:#000000;" x="428.157464" xlink:href="#m2db59aeb47" y="287.688452"/>
     <use style="stroke:#000000;" x="432.583609" xlink:href="#m2db59aeb47" y="279.291535"/>
     <use style="stroke:#000000;" x="423.731319" xlink:href="#m2db59aeb47" y="280.074968"/>
     <use style="stroke:#000000;" x="422.84609" xlink:href="#m2db59aeb47" y="277.046293"/>
     <use style="stroke:#000000;" x="428.157464" xlink:href="#m2db59aeb47" y="263.005282"/>
     <use style="stroke:#000000;" x="425.501777" xlink:href="#m2db59aeb47" y="266.647345"/>
     <use style="stroke:#000000;" x="479.500744" xlink:href="#m2db59aeb47" y="238.637318"/>
     <use style="stroke:#000000;" x="401.600595" xlink:href="#m2db59aeb47" y="285.568221"/>
     <use style="stroke:#000000;" x="396.289221" xlink:href="#m2db59aeb47" y="247.399371"/>
     <use style="stroke:#000000;" x="407.797198" xlink:href="#m2db59aeb47" y="244.788393"/>
     <use style="stroke:#000000;" x="388.32216" xlink:href="#m2db59aeb47" y="297.003213"/>
     <use style="stroke:#000000;" x="385.666474" xlink:href="#m2db59aeb47" y="286.154334"/>
     <use style="stroke:#000000;" x="377.699413" xlink:href="#m2db59aeb47" y="254.996677"/>
     <use style="stroke:#000000;" x="378.584642" xlink:href="#m2db59aeb47" y="247.14212"/>
     <use style="stroke:#000000;" x="369.732352" xlink:href="#m2db59aeb47" y="250.496486"/>
     <use style="stroke:#000000;" x="362.650521" xlink:href="#m2db59aeb47" y="274.547598"/>
     <use style="stroke:#000000;" x="348.486857" xlink:href="#m2db59aeb47" y="331.108912"/>
     <use style="stroke:#000000;" x="338.749339" xlink:href="#m2db59aeb47" y="310.342078"/>
     <use style="stroke:#000000;" x="323.700446" xlink:href="#m2db59aeb47" y="319.941995"/>
     <use style="stroke:#000000;" x="303.34018" xlink:href="#m2db59aeb47" y="257.277205"/>
     <use style="stroke:#000000;" x="300.684493" xlink:href="#m2db59aeb47" y="352.588104"/>
     <use style="stroke:#000000;" x="299.799264" xlink:href="#m2db59aeb47" y="354.517979"/>
     <use style="stroke:#000000;" x="209.50591" xlink:href="#m2db59aeb47" y="407.604204"/>
     <use style="stroke:#000000;" x="384.781245" xlink:href="#m2db59aeb47" y="301.714798"/>
     <use style="stroke:#000000;" x="367.076665" xlink:href="#m2db59aeb47" y="298.994618"/>
     <use style="stroke:#000000;" x="399.830137" xlink:href="#m2db59aeb47" y="259.384629"/>
     <use style="stroke:#000000;" x="372.388039" xlink:href="#m2db59aeb47" y="294.883917"/>
     <use style="stroke:#000000;" x="363.53575" xlink:href="#m2db59aeb47" y="266.421786"/>
     <use style="stroke:#000000;" x="355.568689" xlink:href="#m2db59aeb47" y="354.76975"/>
     <use style="stroke:#000000;" x="364.420978" xlink:href="#m2db59aeb47" y="327.546645"/>
     <use style="stroke:#000000;" x="402.485824" xlink:href="#m2db59aeb47" y="324.100133"/>
     <use style="stroke:#000000;" x="369.732352" xlink:href="#m2db59aeb47" y="302.299742"/>
     <use style="stroke:#000000;" x="343.175483" xlink:href="#m2db59aeb47" y="321.644825"/>
     <use style="stroke:#000000;" x="373.273268" xlink:href="#m2db59aeb47" y="282.608875"/>
     <use style="stroke:#000000;" x="367.961894" xlink:href="#m2db59aeb47" y="322.257232"/>
     <use style="stroke:#000000;" x="394.518763" xlink:href="#m2db59aeb47" y="325.484912"/>
     <use style="stroke:#000000;" x="420.190403" xlink:href="#m2db59aeb47" y="262.673886"/>
     <use style="stroke:#000000;" x="388.32216" xlink:href="#m2db59aeb47" y="315.20819"/>
     <use style="stroke:#000000;" x="375.928955" xlink:href="#m2db59aeb47" y="324.714097"/>
     <use style="stroke:#000000;" x="431.69838" xlink:href="#m2db59aeb47" y="284.104039"/>
     <use style="stroke:#000000;" x="413.108571" xlink:href="#m2db59aeb47" y="249.762621"/>
     <use style="stroke:#000000;" x="415.764258" xlink:href="#m2db59aeb47" y="313.834579"/>
     <use style="stroke:#000000;" x="406.911969" xlink:href="#m2db59aeb47" y="294.628605"/>
     <use style="stroke:#000000;" x="408.682427" xlink:href="#m2db59aeb47" y="290.295725"/>
     <use style="stroke:#000000;" x="390.092618" xlink:href="#m2db59aeb47" y="302.013601"/>
     <use style="stroke:#000000;" x="410.452885" xlink:href="#m2db59aeb47" y="273.456806"/>
     <use style="stroke:#000000;" x="377.699413" xlink:href="#m2db59aeb47" y="301.569145"/>
     <use style="stroke:#000000;" x="372.388039" xlink:href="#m2db59aeb47" y="305.237517"/>
     <use style="stroke:#000000;" x="369.732352" xlink:href="#m2db59aeb47" y="262.886295"/>
     <use style="stroke:#000000;" x="354.68346" xlink:href="#m2db59aeb47" y="316.284107"/>
     <use style="stroke:#000000;" x="344.945941" xlink:href="#m2db59aeb47" y="304.944582"/>
     <use style="stroke:#000000;" x="353.798231" xlink:href="#m2db59aeb47" y="324.830083"/>
     <use style="stroke:#000000;" x="351.142544" xlink:href="#m2db59aeb47" y="319.874424"/>
     <use style="stroke:#000000;" x="341.405025" xlink:href="#m2db59aeb47" y="368.830455"/>
     <use style="stroke:#000000;" x="357.339147" xlink:href="#m2db59aeb47" y="335.052112"/>
     <use style="stroke:#000000;" x="351.142544" xlink:href="#m2db59aeb47" y="324.599589"/>
     <use style="stroke:#000000;" x="350.257315" xlink:href="#m2db59aeb47" y="327.49386"/>
     <use style="stroke:#000000;" x="359.994834" xlink:href="#m2db59aeb47" y="351.9272"/>
     <use style="stroke:#000000;" x="342.290254" xlink:href="#m2db59aeb47" y="347.517848"/>
     <use style="stroke:#000000;" x="321.044759" xlink:href="#m2db59aeb47" y="364.452077"/>
     <use style="stroke:#000000;" x="321.929988" xlink:href="#m2db59aeb47" y="374.055673"/>
     <use style="stroke:#000000;" x="334.323194" xlink:href="#m2db59aeb47" y="349.261712"/>
     <use style="stroke:#000000;" x="298.914035" xlink:href="#m2db59aeb47" y="393.009066"/>
     <use style="stroke:#000000;" x="288.291288" xlink:href="#m2db59aeb47" y="360.830287"/>
     <use style="stroke:#000000;" x="272.357166" xlink:href="#m2db59aeb47" y="349.288955"/>
     <use style="stroke:#000000;" x="269.701479" xlink:href="#m2db59aeb47" y="364.167087"/>
     <use style="stroke:#000000;" x="289.176517" xlink:href="#m2db59aeb47" y="361.978813"/>
     <use style="stroke:#000000;" x="267.045793" xlink:href="#m2db59aeb47" y="382.927563"/>
     <use style="stroke:#000000;" x="269.701479" xlink:href="#m2db59aeb47" y="383.836175"/>
     <use style="stroke:#000000;" x="256.423045" xlink:href="#m2db59aeb47" y="403.842184"/>
     <use style="stroke:#000000;" x="262.619648" xlink:href="#m2db59aeb47" y="404.149713"/>
     <use style="stroke:#000000;" x="256.423045" xlink:href="#m2db59aeb47" y="372.286604"/>
     <use style="stroke:#000000;" x="213.932055" xlink:href="#m2db59aeb47" y="410.174475"/>
     <use style="stroke:#000000;" x="221.013886" xlink:href="#m2db59aeb47" y="409.922229"/>
     <use style="stroke:#000000;" x="240.488924" xlink:href="#m2db59aeb47" y="393.523322"/>
     <use style="stroke:#000000;" x="256.423045" xlink:href="#m2db59aeb47" y="380.332098"/>
     <use style="stroke:#000000;" x="265.275335" xlink:href="#m2db59aeb47" y="343.174709"/>
     <use style="stroke:#000000;" x="274.127624" xlink:href="#m2db59aeb47" y="376.063159"/>
     <use style="stroke:#000000;" x="218.3582" xlink:href="#m2db59aeb47" y="379.522701"/>
     <use style="stroke:#000000;" x="275.012853" xlink:href="#m2db59aeb47" y="331.27858"/>
     <use style="stroke:#000000;" x="208.620681" xlink:href="#m2db59aeb47" y="385.239116"/>
     <use style="stroke:#000000;" x="221.899115" xlink:href="#m2db59aeb47" y="380.433454"/>
     <use style="stroke:#000000;" x="201.538849" xlink:href="#m2db59aeb47" y="418.372119"/>
     <use style="stroke:#000000;" x="290.061746" xlink:href="#m2db59aeb47" y="381.089019"/>
     <use style="stroke:#000000;" x="284.750372" xlink:href="#m2db59aeb47" y="368.240185"/>
     <use style="stroke:#000000;" x="278.553769" xlink:href="#m2db59aeb47" y="355.879792"/>
     <use style="stroke:#000000;" x="316.618614" xlink:href="#m2db59aeb47" y="317.552114"/>
     <use style="stroke:#000000;" x="299.799264" xlink:href="#m2db59aeb47" y="400.839101"/>
     <use style="stroke:#000000;" x="294.48789" xlink:href="#m2db59aeb47" y="372.257648"/>
     <use style="stroke:#000000;" x="312.19247" xlink:href="#m2db59aeb47" y="333.770256"/>
     <use style="stroke:#000000;" x="270.586708" xlink:href="#m2db59aeb47" y="353.757979"/>
     <use style="stroke:#000000;" x="274.127624" xlink:href="#m2db59aeb47" y="326.440177"/>
     <use style="stroke:#000000;" x="244.02984" xlink:href="#m2db59aeb47" y="383.919735"/>
     <use style="stroke:#000000;" x="246.685526" xlink:href="#m2db59aeb47" y="391.322837"/>
     <use style="stroke:#000000;" x="238.718466" xlink:href="#m2db59aeb47" y="414.001405"/>
     <use style="stroke:#000000;" x="266.160564" xlink:href="#m2db59aeb47" y="363.894245"/>
     <use style="stroke:#000000;" x="259.078732" xlink:href="#m2db59aeb47" y="377.528612"/>
     <use style="stroke:#000000;" x="251.9969" xlink:href="#m2db59aeb47" y="326.083526"/>
     <use style="stroke:#000000;" x="282.979914" xlink:href="#m2db59aeb47" y="377.779734"/>
     <use style="stroke:#000000;" x="199.768391" xlink:href="#m2db59aeb47" y="420.502424"/>
     <use style="stroke:#000000;" x="194.457018" xlink:href="#m2db59aeb47" y="420.121503"/>
     <use style="stroke:#000000;" x="231.636634" xlink:href="#m2db59aeb47" y="357.887026"/>
     <use style="stroke:#000000;" x="225.440031" xlink:href="#m2db59aeb47" y="410.375007"/>
     <use style="stroke:#000000;" x="209.50591" xlink:href="#m2db59aeb47" y="432.809434"/>
     <use style="stroke:#000000;" x="259.078732" xlink:href="#m2db59aeb47" y="370.3037"/>
     <use style="stroke:#000000;" x="195.342247" xlink:href="#m2db59aeb47" y="413.094897"/>
     <use style="stroke:#000000;" x="279.438998" xlink:href="#m2db59aeb47" y="393.991715"/>
     <use style="stroke:#000000;" x="311.307241" xlink:href="#m2db59aeb47" y="343.447304"/>
     <use style="stroke:#000000;" x="338.749339" xlink:href="#m2db59aeb47" y="324.594285"/>
     <use style="stroke:#000000;" x="344.060712" xlink:href="#m2db59aeb47" y="324.293625"/>
     <use style="stroke:#000000;" x="374.158497" xlink:href="#m2db59aeb47" y="330.055762"/>
    </g>
   </g>
   <g id="PolyCollection_1">
    <path clip-path="url(#p445b9d5137)" d="M 90 468.263471 
L 90 492.48 
L 95.636364 488.660367 
L 101.272727 484.883243 
L 106.909091 481.165512 
L 112.545455 477.490074 
L 118.181818 473.814636 
L 123.818182 470.139198 
L 129.454545 466.463761 
L 135.090909 462.788323 
L 140.727273 459.112885 
L 146.363636 455.415337 
L 152 451.652625 
L 157.636364 447.87927 
L 163.272727 444.139185 
L 168.909091 440.420744 
L 174.545455 436.729676 
L 180.181818 433.070893 
L 185.818182 429.38367 
L 191.454545 425.652043 
L 197.090909 421.960942 
L 202.727273 418.268585 
L 208.363636 414.573839 
L 214 410.764758 
L 219.636364 407.158067 
L 225.272727 403.497904 
L 230.909091 399.87709 
L 236.545455 396.114442 
L 242.181818 392.422084 
L 247.818182 388.780373 
L 253.454545 384.994448 
L 259.090909 381.313256 
L 264.727273 377.696851 
L 270.363636 373.998234 
L 276 370.399657 
L 281.636364 366.771949 
L 287.272727 363.160385 
L 292.909091 359.506497 
L 298.545455 355.93108 
L 304.181818 352.396488 
L 309.818182 348.830963 
L 315.454545 345.267732 
L 321.090909 341.809391 
L 326.727273 338.252192 
L 332.363636 334.702036 
L 338 331.231415 
L 343.636364 327.806825 
L 349.272727 324.260589 
L 354.909091 320.871638 
L 360.545455 317.426728 
L 366.181818 314.039326 
L 371.818182 310.655658 
L 377.454545 307.273505 
L 383.090909 303.889349 
L 388.727273 300.507474 
L 394.363636 297.229897 
L 400 293.961298 
L 405.636364 290.69838 
L 411.272727 287.447664 
L 416.909091 284.122301 
L 422.545455 280.876142 
L 428.181818 277.59763 
L 433.818182 274.288327 
L 439.454545 271.046078 
L 445.090909 267.778536 
L 450.727273 264.524663 
L 456.363636 261.243391 
L 462 258.027953 
L 467.636364 254.809137 
L 473.272727 251.56526 
L 478.909091 248.321384 
L 484.545455 245.077508 
L 490.181818 241.833631 
L 495.818182 238.589755 
L 501.454545 235.345879 
L 507.090909 232.100902 
L 512.727273 228.854729 
L 518.363636 225.608556 
L 524 222.346478 
L 529.636364 219.093268 
L 535.272727 215.860833 
L 540.909091 212.629707 
L 546.545455 209.408775 
L 552.181818 206.197431 
L 557.818182 202.986086 
L 563.454545 199.774741 
L 569.090909 196.563397 
L 574.727273 193.352052 
L 580.363636 190.140707 
L 586 186.929363 
L 591.636364 183.742961 
L 597.272727 180.623165 
L 602.909091 177.414404 
L 608.545455 174.227032 
L 614.181818 171.055056 
L 619.818182 167.855588 
L 625.454545 164.65594 
L 631.090909 161.456292 
L 636.727273 158.256209 
L 642.363636 155.05592 
L 648 151.855222 
L 648 118.115494 
L 648 118.115494 
L 642.363636 121.85373 
L 636.727273 125.591967 
L 631.090909 129.330203 
L 625.454545 133.06844 
L 619.818182 136.806676 
L 614.181818 140.544912 
L 608.545455 144.283149 
L 602.909091 148.021385 
L 597.272727 151.759622 
L 591.636364 155.497858 
L 586 159.236094 
L 580.363636 162.974331 
L 574.727273 166.712567 
L 569.090909 170.450804 
L 563.454545 174.188863 
L 557.818182 177.954906 
L 552.181818 181.714927 
L 546.545455 185.474948 
L 540.909091 189.23705 
L 535.272727 193.039648 
L 529.636364 196.804095 
L 524 200.604013 
L 518.363636 204.368577 
L 512.727273 208.17293 
L 507.090909 211.944836 
L 501.454545 215.782505 
L 495.818182 219.587059 
L 490.181818 223.317524 
L 484.545455 227.024609 
L 478.909091 230.731695 
L 473.272727 234.467804 
L 467.636364 238.297517 
L 462 242.087856 
L 456.363636 245.847154 
L 450.727273 249.475472 
L 445.090909 253.165777 
L 439.454545 256.872284 
L 433.818182 260.601775 
L 428.181818 264.384187 
L 422.545455 268.169692 
L 416.909091 271.956757 
L 411.272727 275.730267 
L 405.636364 279.423558 
L 400 283.058573 
L 394.363636 286.716574 
L 388.727273 290.337279 
L 383.090909 293.936358 
L 377.454545 297.561015 
L 371.818182 301.15566 
L 366.181818 304.812117 
L 360.545455 308.496733 
L 354.909091 312.061681 
L 349.272727 315.655391 
L 343.636364 319.167286 
L 338 322.601939 
L 332.363636 325.978933 
L 326.727273 329.455191 
L 321.090909 332.99379 
L 315.454545 336.475206 
L 309.818182 339.965489 
L 304.181818 343.388457 
L 298.545455 346.826671 
L 292.909091 350.286705 
L 287.272727 353.704059 
L 281.636364 357.137428 
L 276 360.50617 
L 270.363636 363.78779 
L 264.727273 367.021341 
L 259.090909 370.247114 
L 253.454545 373.596834 
L 247.818182 376.872587 
L 242.181818 380.115247 
L 236.545455 383.428607 
L 230.909091 386.699489 
L 225.272727 390.016941 
L 219.636364 393.350604 
L 214 396.684491 
L 208.363636 400.019517 
L 202.727273 403.208109 
L 197.090909 406.371491 
L 191.454545 409.696054 
L 185.818182 413.022589 
L 180.181818 416.396598 
L 174.545455 419.719378 
L 168.909091 422.996552 
L 163.272727 426.134543 
L 157.636364 429.328246 
L 152 432.531165 
L 146.363636 435.735836 
L 140.727273 438.982574 
L 135.090909 442.27555 
L 129.454545 445.569969 
L 123.818182 448.864388 
L 118.181818 452.159799 
L 112.545455 455.372659 
L 106.909091 458.590734 
L 101.272727 461.793443 
L 95.636364 465.000728 
L 90 468.263471 
z
" style="fill-opacity:0.15;"/>
   </g>
   <g id="PathCollection_3">
    <defs>
     <path d="M 0 2.738613 
C 0.726289 2.738613 1.422928 2.450055 1.936492 1.936492 
C 2.450055 1.422928 2.738613 0.726289 2.738613 0 
C 2.738613 -0.726289 2.450055 -1.422928 1.936492 -1.936492 
C 1.422928 -2.450055 0.726289 -2.738613 0 -2.738613 
C -0.726289 -2.738613 -1.422928 -2.450055 -1.936492 -1.936492 
C -2.450055 -1.422928 -2.738613 -0.726289 -2.738613 0 
C -2.738613 0.726289 -2.450055 1.422928 -1.936492 1.936492 
C -1.422928 2.450055 -0.726289 2.738613 0 2.738613 
z
" id="m4c4693f1e5" style="stroke:#ff00ff;"/>
    </defs>
    <g clip-path="url(#p445b9d5137)">
     <use style="fill:#ff00ff;stroke:#ff00ff;" x="451.173417" xlink:href="#m4c4693f1e5" y="321.609754"/>
     <use style="fill:#ff00ff;stroke:#ff00ff;" x="447.632501" xlink:href="#m4c4693f1e5" y="286.717715"/>
     <use style="fill:#ff00ff;stroke:#ff00ff;" x="452.058646" xlink:href="#m4c4693f1e5" y="293.147096"/>
     <use style="fill:#ff00ff;stroke:#ff00ff;" x="510.483757" xlink:href="#m4c4693f1e5" y="251.065984"/>
     <use style="fill:#ff00ff;stroke:#ff00ff;" x="509.598528" xlink:href="#m4c4693f1e5" y="123.586285"/>
     <use style="fill:#ff00ff;stroke:#ff00ff;" x="467.992767" xlink:href="#m4c4693f1e5" y="203.645831"/>
     <use style="fill:#ff00ff;stroke:#ff00ff;" x="407.797198" xlink:href="#m4c4693f1e5" y="244.788393"/>
     <use style="fill:#ff00ff;stroke:#ff00ff;" x="377.699413" xlink:href="#m4c4693f1e5" y="254.996677"/>
     <use style="fill:#ff00ff;stroke:#ff00ff;" x="378.584642" xlink:href="#m4c4693f1e5" y="247.14212"/>
     <use style="fill:#ff00ff;stroke:#ff00ff;" x="369.732352" xlink:href="#m4c4693f1e5" y="250.496486"/>
     <use style="fill:#ff00ff;stroke:#ff00ff;" x="303.34018" xlink:href="#m4c4693f1e5" y="257.277205"/>
     <use style="fill:#ff00ff;stroke:#ff00ff;" x="399.830137" xlink:href="#m4c4693f1e5" y="259.384629"/>
     <use style="fill:#ff00ff;stroke:#ff00ff;" x="363.53575" xlink:href="#m4c4693f1e5" y="266.421786"/>
     <use style="fill:#ff00ff;stroke:#ff00ff;" x="355.568689" xlink:href="#m4c4693f1e5" y="354.76975"/>
     <use style="fill:#ff00ff;stroke:#ff00ff;" x="402.485824" xlink:href="#m4c4693f1e5" y="324.100133"/>
     <use style="fill:#ff00ff;stroke:#ff00ff;" x="373.273268" xlink:href="#m4c4693f1e5" y="282.608875"/>
     <use style="fill:#ff00ff;stroke:#ff00ff;" x="394.518763" xlink:href="#m4c4693f1e5" y="325.484912"/>
     <use style="fill:#ff00ff;stroke:#ff00ff;" x="375.928955" xlink:href="#m4c4693f1e5" y="324.714097"/>
     <use style="fill:#ff00ff;stroke:#ff00ff;" x="415.764258" xlink:href="#m4c4693f1e5" y="313.834579"/>
     <use style="fill:#ff00ff;stroke:#ff00ff;" x="369.732352" xlink:href="#m4c4693f1e5" y="262.886295"/>
     <use style="fill:#ff00ff;stroke:#ff00ff;" x="341.405025" xlink:href="#m4c4693f1e5" y="368.830455"/>
     <use style="fill:#ff00ff;stroke:#ff00ff;" x="359.994834" xlink:href="#m4c4693f1e5" y="351.9272"/>
     <use style="fill:#ff00ff;stroke:#ff00ff;" x="342.290254" xlink:href="#m4c4693f1e5" y="347.517848"/>
     <use style="fill:#ff00ff;stroke:#ff00ff;" x="321.044759" xlink:href="#m4c4693f1e5" y="364.452077"/>
     <use style="fill:#ff00ff;stroke:#ff00ff;" x="321.929988" xlink:href="#m4c4693f1e5" y="374.055673"/>
     <use style="fill:#ff00ff;stroke:#ff00ff;" x="334.323194" xlink:href="#m4c4693f1e5" y="349.261712"/>
     <use style="fill:#ff00ff;stroke:#ff00ff;" x="298.914035" xlink:href="#m4c4693f1e5" y="393.009066"/>
     <use style="fill:#ff00ff;stroke:#ff00ff;" x="256.423045" xlink:href="#m4c4693f1e5" y="403.842184"/>
     <use style="fill:#ff00ff;stroke:#ff00ff;" x="262.619648" xlink:href="#m4c4693f1e5" y="404.149713"/>
     <use style="fill:#ff00ff;stroke:#ff00ff;" x="265.275335" xlink:href="#m4c4693f1e5" y="343.174709"/>
     <use style="fill:#ff00ff;stroke:#ff00ff;" x="316.618614" xlink:href="#m4c4693f1e5" y="317.552114"/>
     <use style="fill:#ff00ff;stroke:#ff00ff;" x="299.799264" xlink:href="#m4c4693f1e5" y="400.839101"/>
     <use style="fill:#ff00ff;stroke:#ff00ff;" x="274.127624" xlink:href="#m4c4693f1e5" y="326.440177"/>
     <use style="fill:#ff00ff;stroke:#ff00ff;" x="238.718466" xlink:href="#m4c4693f1e5" y="414.001405"/>
     <use style="fill:#ff00ff;stroke:#ff00ff;" x="251.9969" xlink:href="#m4c4693f1e5" y="326.083526"/>
     <use style="fill:#ff00ff;stroke:#ff00ff;" x="282.979914" xlink:href="#m4c4693f1e5" y="377.779734"/>
     <use style="fill:#ff00ff;stroke:#ff00ff;" x="231.636634" xlink:href="#m4c4693f1e5" y="357.887026"/>
     <use style="fill:#ff00ff;stroke:#ff00ff;" x="209.50591" xlink:href="#m4c4693f1e5" y="432.809434"/>
    </g>
   </g>
   <g id="matplotlib.axis_1">
    <g id="xtick_1">
     <g id="line2d_1">
      <defs>
       <path d="M 0 0 
L 0 3.5 
" id="m1a793eaf25" style="stroke:#000000;stroke-width:0.8;"/>
      </defs>
      <g>
       <use style="stroke:#000000;stroke-width:0.8;" x="90" xlink:href="#m1a793eaf25" y="516.64"/>
      </g>
     </g>
     <g id="text_1">
      <!-- 0 -->
      <defs>
       <path d="M 31.78125 66.40625 
Q 24.171875 66.40625 20.328125 58.90625 
Q 16.5 51.421875 16.5 36.375 
Q 16.5 21.390625 20.328125 13.890625 
Q 24.171875 6.390625 31.78125 6.390625 
Q 39.453125 6.390625 43.28125 13.890625 
Q 47.125 21.390625 47.125 36.375 
Q 47.125 51.421875 43.28125 58.90625 
Q 39.453125 66.40625 31.78125 66.40625 
z
M 31.78125 74.21875 
Q 44.046875 74.21875 50.515625 64.515625 
Q 56.984375 54.828125 56.984375 36.375 
Q 56.984375 17.96875 50.515625 8.265625 
Q 44.046875 -1.421875 31.78125 -1.421875 
Q 19.53125 -1.421875 13.0625 8.265625 
Q 6.59375 17.96875 6.59375 36.375 
Q 6.59375 54.828125 13.0625 64.515625 
Q 19.53125 74.21875 31.78125 74.21875 
z
" id="DejaVuSans-30"/>
      </defs>
      <g transform="translate(86.81875 531.238438)scale(0.1 -0.1)">
       <use xlink:href="#DejaVuSans-30"/>
      </g>
     </g>
    </g>
    <g id="xtick_2">
     <g id="line2d_2">
      <g>
       <use style="stroke:#000000;stroke-width:0.8;" x="183" xlink:href="#m1a793eaf25" y="516.64"/>
      </g>
     </g>
     <g id="text_2">
      <!-- 200 -->
      <defs>
       <path d="M 19.1875 8.296875 
L 53.609375 8.296875 
L 53.609375 0 
L 7.328125 0 
L 7.328125 8.296875 
Q 12.9375 14.109375 22.625 23.890625 
Q 32.328125 33.6875 34.8125 36.53125 
Q 39.546875 41.84375 41.421875 45.53125 
Q 43.3125 49.21875 43.3125 52.78125 
Q 43.3125 58.59375 39.234375 62.25 
Q 35.15625 65.921875 28.609375 65.921875 
Q 23.96875 65.921875 18.8125 64.3125 
Q 13.671875 62.703125 7.8125 59.421875 
L 7.8125 69.390625 
Q 13.765625 71.78125 18.9375 73 
Q 24.125 74.21875 28.421875 74.21875 
Q 39.75 74.21875 46.484375 68.546875 
Q 53.21875 62.890625 53.21875 53.421875 
Q 53.21875 48.921875 51.53125 44.890625 
Q 49.859375 40.875 45.40625 35.40625 
Q 44.1875 33.984375 37.640625 27.21875 
Q 31.109375 20.453125 19.1875 8.296875 
z
" id="DejaVuSans-32"/>
      </defs>
      <g transform="translate(173.45625 531.238438)scale(0.1 -0.1)">
       <use xlink:href="#DejaVuSans-32"/>
       <use x="63.623047" xlink:href="#DejaVuSans-30"/>
       <use x="127.246094" xlink:href="#DejaVuSans-30"/>
      </g>
     </g>
    </g>
    <g id="xtick_3">
     <g id="line2d_3">
      <g>
       <use style="stroke:#000000;stroke-width:0.8;" x="276" xlink:href="#m1a793eaf25" y="516.64"/>
      </g>
     </g>
     <g id="text_3">
      <!-- 400 -->
      <defs>
       <path d="M 37.796875 64.3125 
L 12.890625 25.390625 
L 37.796875 25.390625 
z
M 35.203125 72.90625 
L 47.609375 72.90625 
L 47.609375 25.390625 
L 58.015625 25.390625 
L 58.015625 17.1875 
L 47.609375 17.1875 
L 47.609375 0 
L 37.796875 0 
L 37.796875 17.1875 
L 4.890625 17.1875 
L 4.890625 26.703125 
z
" id="DejaVuSans-34"/>
      </defs>
      <g transform="translate(266.45625 531.238438)scale(0.1 -0.1)">
       <use xlink:href="#DejaVuSans-34"/>
       <use x="63.623047" xlink:href="#DejaVuSans-30"/>
       <use x="127.246094" xlink:href="#DejaVuSans-30"/>
      </g>
     </g>
    </g>
    <g id="xtick_4">
     <g id="line2d_4">
      <g>
       <use style="stroke:#000000;stroke-width:0.8;" x="369" xlink:href="#m1a793eaf25" y="516.64"/>
      </g>
     </g>
     <g id="text_4">
      <!-- 600 -->
      <defs>
       <path d="M 33.015625 40.375 
Q 26.375 40.375 22.484375 35.828125 
Q 18.609375 31.296875 18.609375 23.390625 
Q 18.609375 15.53125 22.484375 10.953125 
Q 26.375 6.390625 33.015625 6.390625 
Q 39.65625 6.390625 43.53125 10.953125 
Q 47.40625 15.53125 47.40625 23.390625 
Q 47.40625 31.296875 43.53125 35.828125 
Q 39.65625 40.375 33.015625 40.375 
z
M 52.59375 71.296875 
L 52.59375 62.3125 
Q 48.875 64.0625 45.09375 64.984375 
Q 41.3125 65.921875 37.59375 65.921875 
Q 27.828125 65.921875 22.671875 59.328125 
Q 17.53125 52.734375 16.796875 39.40625 
Q 19.671875 43.65625 24.015625 45.921875 
Q 28.375 48.1875 33.59375 48.1875 
Q 44.578125 48.1875 50.953125 41.515625 
Q 57.328125 34.859375 57.328125 23.390625 
Q 57.328125 12.15625 50.6875 5.359375 
Q 44.046875 -1.421875 33.015625 -1.421875 
Q 20.359375 -1.421875 13.671875 8.265625 
Q 6.984375 17.96875 6.984375 36.375 
Q 6.984375 53.65625 15.1875 63.9375 
Q 23.390625 74.21875 37.203125 74.21875 
Q 40.921875 74.21875 44.703125 73.484375 
Q 48.484375 72.75 52.59375 71.296875 
z
" id="DejaVuSans-36"/>
      </defs>
      <g transform="translate(359.45625 531.238438)scale(0.1 -0.1)">
       <use xlink:href="#DejaVuSans-36"/>
       <use x="63.623047" xlink:href="#DejaVuSans-30"/>
       <use x="127.246094" xlink:href="#DejaVuSans-30"/>
      </g>
     </g>
    </g>
    <g id="xtick_5">
     <g id="line2d_5">
      <g>
       <use style="stroke:#000000;stroke-width:0.8;" x="462" xlink:href="#m1a793eaf25" y="516.64"/>
      </g>
     </g>
     <g id="text_5">
      <!-- 800 -->
      <defs>
       <path d="M 31.78125 34.625 
Q 24.75 34.625 20.71875 30.859375 
Q 16.703125 27.09375 16.703125 20.515625 
Q 16.703125 13.921875 20.71875 10.15625 
Q 24.75 6.390625 31.78125 6.390625 
Q 38.8125 6.390625 42.859375 10.171875 
Q 46.921875 13.96875 46.921875 20.515625 
Q 46.921875 27.09375 42.890625 30.859375 
Q 38.875 34.625 31.78125 34.625 
z
M 21.921875 38.8125 
Q 15.578125 40.375 12.03125 44.71875 
Q 8.5 49.078125 8.5 55.328125 
Q 8.5 64.0625 14.71875 69.140625 
Q 20.953125 74.21875 31.78125 74.21875 
Q 42.671875 74.21875 48.875 69.140625 
Q 55.078125 64.0625 55.078125 55.328125 
Q 55.078125 49.078125 51.53125 44.71875 
Q 48 40.375 41.703125 38.8125 
Q 48.828125 37.15625 52.796875 32.3125 
Q 56.78125 27.484375 56.78125 20.515625 
Q 56.78125 9.90625 50.3125 4.234375 
Q 43.84375 -1.421875 31.78125 -1.421875 
Q 19.734375 -1.421875 13.25 4.234375 
Q 6.78125 9.90625 6.78125 20.515625 
Q 6.78125 27.484375 10.78125 32.3125 
Q 14.796875 37.15625 21.921875 38.8125 
z
M 18.3125 54.390625 
Q 18.3125 48.734375 21.84375 45.5625 
Q 25.390625 42.390625 31.78125 42.390625 
Q 38.140625 42.390625 41.71875 45.5625 
Q 45.3125 48.734375 45.3125 54.390625 
Q 45.3125 60.0625 41.71875 63.234375 
Q 38.140625 66.40625 31.78125 66.40625 
Q 25.390625 66.40625 21.84375 63.234375 
Q 18.3125 60.0625 18.3125 54.390625 
z
" id="DejaVuSans-38"/>
      </defs>
      <g transform="translate(452.45625 531.238438)scale(0.1 -0.1)">
       <use xlink:href="#DejaVuSans-38"/>
       <use x="63.623047" xlink:href="#DejaVuSans-30"/>
       <use x="127.246094" xlink:href="#DejaVuSans-30"/>
      </g>
     </g>
    </g>
    <g id="xtick_6">
     <g id="line2d_6">
      <g>
       <use style="stroke:#000000;stroke-width:0.8;" x="555" xlink:href="#m1a793eaf25" y="516.64"/>
      </g>
     </g>
     <g id="text_6">
      <!-- 1000 -->
      <defs>
       <path d="M 12.40625 8.296875 
L 28.515625 8.296875 
L 28.515625 63.921875 
L 10.984375 60.40625 
L 10.984375 69.390625 
L 28.421875 72.90625 
L 38.28125 72.90625 
L 38.28125 8.296875 
L 54.390625 8.296875 
L 54.390625 0 
L 12.40625 0 
z
" id="DejaVuSans-31"/>
      </defs>
      <g transform="translate(542.275 531.238438)scale(0.1 -0.1)">
       <use xlink:href="#DejaVuSans-31"/>
       <use x="63.623047" xlink:href="#DejaVuSans-30"/>
       <use x="127.246094" xlink:href="#DejaVuSans-30"/>
       <use x="190.869141" xlink:href="#DejaVuSans-30"/>
      </g>
     </g>
    </g>
    <g id="xtick_7">
     <g id="line2d_7">
      <g>
       <use style="stroke:#000000;stroke-width:0.8;" x="648" xlink:href="#m1a793eaf25" y="516.64"/>
      </g>
     </g>
     <g id="text_7">
      <!-- 1200 -->
      <g transform="translate(635.275 531.238438)scale(0.1 -0.1)">
       <use xlink:href="#DejaVuSans-31"/>
       <use x="63.623047" xlink:href="#DejaVuSans-32"/>
       <use x="127.246094" xlink:href="#DejaVuSans-30"/>
       <use x="190.869141" xlink:href="#DejaVuSans-30"/>
      </g>
     </g>
    </g>
    <g id="text_8">
     <!-- xpos_fov -->
     <defs>
      <path d="M 54.890625 54.6875 
L 35.109375 28.078125 
L 55.90625 0 
L 45.3125 0 
L 29.390625 21.484375 
L 13.484375 0 
L 2.875 0 
L 24.125 28.609375 
L 4.6875 54.6875 
L 15.28125 54.6875 
L 29.78125 35.203125 
L 44.28125 54.6875 
z
" id="DejaVuSans-78"/>
      <path d="M 18.109375 8.203125 
L 18.109375 -20.796875 
L 9.078125 -20.796875 
L 9.078125 54.6875 
L 18.109375 54.6875 
L 18.109375 46.390625 
Q 20.953125 51.265625 25.265625 53.625 
Q 29.59375 56 35.59375 56 
Q 45.5625 56 51.78125 48.09375 
Q 58.015625 40.1875 58.015625 27.296875 
Q 58.015625 14.40625 51.78125 6.484375 
Q 45.5625 -1.421875 35.59375 -1.421875 
Q 29.59375 -1.421875 25.265625 0.953125 
Q 20.953125 3.328125 18.109375 8.203125 
z
M 48.6875 27.296875 
Q 48.6875 37.203125 44.609375 42.84375 
Q 40.53125 48.484375 33.40625 48.484375 
Q 26.265625 48.484375 22.1875 42.84375 
Q 18.109375 37.203125 18.109375 27.296875 
Q 18.109375 17.390625 22.1875 11.75 
Q 26.265625 6.109375 33.40625 6.109375 
Q 40.53125 6.109375 44.609375 11.75 
Q 48.6875 17.390625 48.6875 27.296875 
z
" id="DejaVuSans-70"/>
      <path d="M 30.609375 48.390625 
Q 23.390625 48.390625 19.1875 42.75 
Q 14.984375 37.109375 14.984375 27.296875 
Q 14.984375 17.484375 19.15625 11.84375 
Q 23.34375 6.203125 30.609375 6.203125 
Q 37.796875 6.203125 41.984375 11.859375 
Q 46.1875 17.53125 46.1875 27.296875 
Q 46.1875 37.015625 41.984375 42.703125 
Q 37.796875 48.390625 30.609375 48.390625 
z
M 30.609375 56 
Q 42.328125 56 49.015625 48.375 
Q 55.71875 40.765625 55.71875 27.296875 
Q 55.71875 13.875 49.015625 6.21875 
Q 42.328125 -1.421875 30.609375 -1.421875 
Q 18.84375 -1.421875 12.171875 6.21875 
Q 5.515625 13.875 5.515625 27.296875 
Q 5.515625 40.765625 12.171875 48.375 
Q 18.84375 56 30.609375 56 
z
" id="DejaVuSans-6f"/>
      <path d="M 44.28125 53.078125 
L 44.28125 44.578125 
Q 40.484375 46.53125 36.375 47.5 
Q 32.28125 48.484375 27.875 48.484375 
Q 21.1875 48.484375 17.84375 46.4375 
Q 14.5 44.390625 14.5 40.28125 
Q 14.5 37.15625 16.890625 35.375 
Q 19.28125 33.59375 26.515625 31.984375 
L 29.59375 31.296875 
Q 39.15625 29.25 43.1875 25.515625 
Q 47.21875 21.78125 47.21875 15.09375 
Q 47.21875 7.46875 41.1875 3.015625 
Q 35.15625 -1.421875 24.609375 -1.421875 
Q 20.21875 -1.421875 15.453125 -0.5625 
Q 10.6875 0.296875 5.421875 2 
L 5.421875 11.28125 
Q 10.40625 8.6875 15.234375 7.390625 
Q 20.0625 6.109375 24.8125 6.109375 
Q 31.15625 6.109375 34.5625 8.28125 
Q 37.984375 10.453125 37.984375 14.40625 
Q 37.984375 18.0625 35.515625 20.015625 
Q 33.0625 21.96875 24.703125 23.78125 
L 21.578125 24.515625 
Q 13.234375 26.265625 9.515625 29.90625 
Q 5.8125 33.546875 5.8125 39.890625 
Q 5.8125 47.609375 11.28125 51.796875 
Q 16.75 56 26.8125 56 
Q 31.78125 56 36.171875 55.265625 
Q 40.578125 54.546875 44.28125 53.078125 
z
" id="DejaVuSans-73"/>
      <path d="M 50.984375 -16.609375 
L 50.984375 -23.578125 
L -0.984375 -23.578125 
L -0.984375 -16.609375 
z
" id="DejaVuSans-5f"/>
      <path d="M 37.109375 75.984375 
L 37.109375 68.5 
L 28.515625 68.5 
Q 23.6875 68.5 21.796875 66.546875 
Q 19.921875 64.59375 19.921875 59.515625 
L 19.921875 54.6875 
L 34.71875 54.6875 
L 34.71875 47.703125 
L 19.921875 47.703125 
L 19.921875 0 
L 10.890625 0 
L 10.890625 47.703125 
L 2.296875 47.703125 
L 2.296875 54.6875 
L 10.890625 54.6875 
L 10.890625 58.5 
Q 10.890625 67.625 15.140625 71.796875 
Q 19.390625 75.984375 28.609375 75.984375 
z
" id="DejaVuSans-66"/>
      <path d="M 2.984375 54.6875 
L 12.5 54.6875 
L 29.59375 8.796875 
L 46.6875 54.6875 
L 56.203125 54.6875 
L 35.6875 0 
L 23.484375 0 
z
" id="DejaVuSans-76"/>
     </defs>
     <g transform="translate(346.923437 544.916563)scale(0.1 -0.1)">
      <use xlink:href="#DejaVuSans-78"/>
      <use x="59.179688" xlink:href="#DejaVuSans-70"/>
      <use x="122.65625" xlink:href="#DejaVuSans-6f"/>
      <use x="183.837891" xlink:href="#DejaVuSans-73"/>
      <use x="235.9375" xlink:href="#DejaVuSans-5f"/>
      <use x="285.9375" xlink:href="#DejaVuSans-66"/>
      <use x="321.142578" xlink:href="#DejaVuSans-6f"/>
      <use x="382.324219" xlink:href="#DejaVuSans-76"/>
     </g>
    </g>
   </g>
   <g id="matplotlib.axis_2">
    <g id="ytick_1">
     <g id="line2d_8">
      <defs>
       <path d="M 0 0 
L -3.5 0 
" id="m053ef96e09" style="stroke:#000000;stroke-width:0.8;"/>
      </defs>
      <g>
       <use style="stroke:#000000;stroke-width:0.8;" x="86" xlink:href="#m053ef96e09" y="474.304357"/>
      </g>
     </g>
     <g id="text_9">
      <!-- 5 -->
      <defs>
       <path d="M 10.796875 72.90625 
L 49.515625 72.90625 
L 49.515625 64.59375 
L 19.828125 64.59375 
L 19.828125 46.734375 
Q 21.96875 47.46875 24.109375 47.828125 
Q 26.265625 48.1875 28.421875 48.1875 
Q 40.625 48.1875 47.75 41.5 
Q 54.890625 34.8125 54.890625 23.390625 
Q 54.890625 11.625 47.5625 5.09375 
Q 40.234375 -1.421875 26.90625 -1.421875 
Q 22.3125 -1.421875 17.546875 -0.640625 
Q 12.796875 0.140625 7.71875 1.703125 
L 7.71875 11.625 
Q 12.109375 9.234375 16.796875 8.0625 
Q 21.484375 6.890625 26.703125 6.890625 
Q 35.15625 6.890625 40.078125 11.328125 
Q 45.015625 15.765625 45.015625 23.390625 
Q 45.015625 31 40.078125 35.4375 
Q 35.15625 39.890625 26.703125 39.890625 
Q 22.75 39.890625 18.8125 39.015625 
Q 14.890625 38.140625 10.796875 36.28125 
z
" id="DejaVuSans-35"/>
      </defs>
      <g transform="translate(72.6375 478.103576)scale(0.1 -0.1)">
       <use xlink:href="#DejaVuSans-35"/>
      </g>
     </g>
    </g>
    <g id="ytick_2">
     <g id="line2d_9">
      <g>
       <use style="stroke:#000000;stroke-width:0.8;" x="86" xlink:href="#m053ef96e09" y="412.897812"/>
      </g>
     </g>
     <g id="text_10">
      <!-- 10 -->
      <g transform="translate(66.275 416.697031)scale(0.1 -0.1)">
       <use xlink:href="#DejaVuSans-31"/>
       <use x="63.623047" xlink:href="#DejaVuSans-30"/>
      </g>
     </g>
    </g>
    <g id="ytick_3">
     <g id="line2d_10">
      <g>
       <use style="stroke:#000000;stroke-width:0.8;" x="86" xlink:href="#m053ef96e09" y="351.491266"/>
      </g>
     </g>
     <g id="text_11">
      <!-- 15 -->
      <g transform="translate(66.275 355.290485)scale(0.1 -0.1)">
       <use xlink:href="#DejaVuSans-31"/>
       <use x="63.623047" xlink:href="#DejaVuSans-35"/>
      </g>
     </g>
    </g>
    <g id="ytick_4">
     <g id="line2d_11">
      <g>
       <use style="stroke:#000000;stroke-width:0.8;" x="86" xlink:href="#m053ef96e09" y="290.08472"/>
      </g>
     </g>
     <g id="text_12">
      <!-- 20 -->
      <g transform="translate(66.275 293.883939)scale(0.1 -0.1)">
       <use xlink:href="#DejaVuSans-32"/>
       <use x="63.623047" xlink:href="#DejaVuSans-30"/>
      </g>
     </g>
    </g>
    <g id="ytick_5">
     <g id="line2d_12">
      <g>
       <use style="stroke:#000000;stroke-width:0.8;" x="86" xlink:href="#m053ef96e09" y="228.678175"/>
      </g>
     </g>
     <g id="text_13">
      <!-- 25 -->
      <g transform="translate(66.275 232.477394)scale(0.1 -0.1)">
       <use xlink:href="#DejaVuSans-32"/>
       <use x="63.623047" xlink:href="#DejaVuSans-35"/>
      </g>
     </g>
    </g>
    <g id="ytick_6">
     <g id="line2d_13">
      <g>
       <use style="stroke:#000000;stroke-width:0.8;" x="86" xlink:href="#m053ef96e09" y="167.271629"/>
      </g>
     </g>
     <g id="text_14">
      <!-- 30 -->
      <defs>
       <path d="M 40.578125 39.3125 
Q 47.65625 37.796875 51.625 33 
Q 55.609375 28.21875 55.609375 21.1875 
Q 55.609375 10.40625 48.1875 4.484375 
Q 40.765625 -1.421875 27.09375 -1.421875 
Q 22.515625 -1.421875 17.65625 -0.515625 
Q 12.796875 0.390625 7.625 2.203125 
L 7.625 11.71875 
Q 11.71875 9.328125 16.59375 8.109375 
Q 21.484375 6.890625 26.8125 6.890625 
Q 36.078125 6.890625 40.9375 10.546875 
Q 45.796875 14.203125 45.796875 21.1875 
Q 45.796875 27.640625 41.28125 31.265625 
Q 36.765625 34.90625 28.71875 34.90625 
L 20.21875 34.90625 
L 20.21875 43.015625 
L 29.109375 43.015625 
Q 36.375 43.015625 40.234375 45.921875 
Q 44.09375 48.828125 44.09375 54.296875 
Q 44.09375 59.90625 40.109375 62.90625 
Q 36.140625 65.921875 28.71875 65.921875 
Q 24.65625 65.921875 20.015625 65.03125 
Q 15.375 64.15625 9.8125 62.3125 
L 9.8125 71.09375 
Q 15.4375 72.65625 20.34375 73.4375 
Q 25.25 74.21875 29.59375 74.21875 
Q 40.828125 74.21875 47.359375 69.109375 
Q 53.90625 64.015625 53.90625 55.328125 
Q 53.90625 49.265625 50.4375 45.09375 
Q 46.96875 40.921875 40.578125 39.3125 
z
" id="DejaVuSans-33"/>
      </defs>
      <g transform="translate(66.275 171.070848)scale(0.1 -0.1)">
       <use xlink:href="#DejaVuSans-33"/>
       <use x="63.623047" xlink:href="#DejaVuSans-30"/>
      </g>
     </g>
    </g>
    <g id="ytick_7">
     <g id="line2d_14">
      <g>
       <use style="stroke:#000000;stroke-width:0.8;" x="86" xlink:href="#m053ef96e09" y="105.865084"/>
      </g>
     </g>
     <g id="text_15">
      <!-- 35 -->
      <g transform="translate(66.275 109.664302)scale(0.1 -0.1)">
       <use xlink:href="#DejaVuSans-33"/>
       <use x="63.623047" xlink:href="#DejaVuSans-35"/>
      </g>
     </g>
    </g>
    <g id="text_16">
     <!-- xpos_rf -->
     <defs>
      <path d="M 41.109375 46.296875 
Q 39.59375 47.171875 37.8125 47.578125 
Q 36.03125 48 33.890625 48 
Q 26.265625 48 22.1875 43.046875 
Q 18.109375 38.09375 18.109375 28.8125 
L 18.109375 0 
L 9.078125 0 
L 9.078125 54.6875 
L 18.109375 54.6875 
L 18.109375 46.1875 
Q 20.953125 51.171875 25.484375 53.578125 
Q 30.03125 56 36.53125 56 
Q 37.453125 56 38.578125 55.875 
Q 39.703125 55.765625 41.0625 55.515625 
z
" id="DejaVuSans-72"/>
     </defs>
     <g transform="translate(59.917188 308.993281)rotate(-90)scale(0.1 -0.1)">
      <use xlink:href="#DejaVuSans-78"/>
      <use x="59.179688" xlink:href="#DejaVuSans-70"/>
      <use x="122.65625" xlink:href="#DejaVuSans-6f"/>
      <use x="183.837891" xlink:href="#DejaVuSans-73"/>
      <use x="235.9375" xlink:href="#DejaVuSans-5f"/>
      <use x="285.9375" xlink:href="#DejaVuSans-72"/>
      <use x="327.050781" xlink:href="#DejaVuSans-66"/>
     </g>
    </g>
   </g>
   <g id="LineCollection_1">
    <path clip-path="url(#p445b9d5137)" d="M 451.173417 357.602706 
L 451.173417 271.578303 
" style="fill:none;stroke:#ff00ff;stroke-opacity:0.7;"/>
    <path clip-path="url(#p445b9d5137)" d="M 447.632501 302.11922 
L 447.632501 271.765918 
" style="fill:none;stroke:#ff00ff;stroke-opacity:0.7;"/>
    <path clip-path="url(#p445b9d5137)" d="M 452.058646 310.706147 
L 452.058646 276.930016 
" style="fill:none;stroke:#ff00ff;stroke-opacity:0.7;"/>
    <path clip-path="url(#p445b9d5137)" d="M 510.483757 265.958543 
L 510.483757 231.090812 
" style="fill:none;stroke:#ff00ff;stroke-opacity:0.7;"/>
    <path clip-path="url(#p445b9d5137)" d="M 509.598528 191.54086 
L 509.598528 89.28 
" style="fill:none;stroke:#ff00ff;stroke-opacity:0.7;"/>
    <path clip-path="url(#p445b9d5137)" d="M 467.992767 236.455723 
L 467.992767 180.857979 
" style="fill:none;stroke:#ff00ff;stroke-opacity:0.7;"/>
    <path clip-path="url(#p445b9d5137)" d="M 407.797198 263.010297 
L 407.797198 221.733949 
" style="fill:none;stroke:#ff00ff;stroke-opacity:0.7;"/>
    <path clip-path="url(#p445b9d5137)" d="M 377.699413 273.729682 
L 377.699413 223.712625 
" style="fill:none;stroke:#ff00ff;stroke-opacity:0.7;"/>
    <path clip-path="url(#p445b9d5137)" d="M 378.584642 279.762327 
L 378.584642 217.610123 
" style="fill:none;stroke:#ff00ff;stroke-opacity:0.7;"/>
    <path clip-path="url(#p445b9d5137)" d="M 369.732352 282.44779 
L 369.732352 217.777611 
" style="fill:none;stroke:#ff00ff;stroke-opacity:0.7;"/>
    <path clip-path="url(#p445b9d5137)" d="M 303.34018 292.735617 
L 303.34018 211.948778 
" style="fill:none;stroke:#ff00ff;stroke-opacity:0.7;"/>
    <path clip-path="url(#p445b9d5137)" d="M 399.830137 269.822471 
L 399.830137 240.245937 
" style="fill:none;stroke:#ff00ff;stroke-opacity:0.7;"/>
    <path clip-path="url(#p445b9d5137)" d="M 363.53575 280.062502 
L 363.53575 251.67129 
" style="fill:none;stroke:#ff00ff;stroke-opacity:0.7;"/>
    <path clip-path="url(#p445b9d5137)" d="M 355.568689 367.557743 
L 355.568689 344.009179 
" style="fill:none;stroke:#ff00ff;stroke-opacity:0.7;"/>
    <path clip-path="url(#p445b9d5137)" d="M 402.485824 354.356217 
L 402.485824 295.00162 
" style="fill:none;stroke:#ff00ff;stroke-opacity:0.7;"/>
    <path clip-path="url(#p445b9d5137)" d="M 373.273268 296.300601 
L 373.273268 267.752811 
" style="fill:none;stroke:#ff00ff;stroke-opacity:0.7;"/>
    <path clip-path="url(#p445b9d5137)" d="M 394.518763 351.919987 
L 394.518763 301.896184 
" style="fill:none;stroke:#ff00ff;stroke-opacity:0.7;"/>
    <path clip-path="url(#p445b9d5137)" d="M 375.928955 337.657017 
L 375.928955 310.405851 
" style="fill:none;stroke:#ff00ff;stroke-opacity:0.7;"/>
    <path clip-path="url(#p445b9d5137)" d="M 415.764258 327.630447 
L 415.764258 301.047977 
" style="fill:none;stroke:#ff00ff;stroke-opacity:0.7;"/>
    <path clip-path="url(#p445b9d5137)" d="M 369.732352 288.519934 
L 369.732352 234.112093 
" style="fill:none;stroke:#ff00ff;stroke-opacity:0.7;"/>
    <path clip-path="url(#p445b9d5137)" d="M 341.405025 387.214556 
L 341.405025 349.020393 
" style="fill:none;stroke:#ff00ff;stroke-opacity:0.7;"/>
    <path clip-path="url(#p445b9d5137)" d="M 359.994834 370.649472 
L 359.994834 332.6705 
" style="fill:none;stroke:#ff00ff;stroke-opacity:0.7;"/>
    <path clip-path="url(#p445b9d5137)" d="M 342.290254 360.828569 
L 342.290254 332.427072 
" style="fill:none;stroke:#ff00ff;stroke-opacity:0.7;"/>
    <path clip-path="url(#p445b9d5137)" d="M 321.044759 369.767222 
L 321.044759 359.145024 
" style="fill:none;stroke:#ff00ff;stroke-opacity:0.7;"/>
    <path clip-path="url(#p445b9d5137)" d="M 321.929988 381.182841 
L 321.929988 366.161084 
" style="fill:none;stroke:#ff00ff;stroke-opacity:0.7;"/>
    <path clip-path="url(#p445b9d5137)" d="M 334.323194 358.869314 
L 334.323194 336.701055 
" style="fill:none;stroke:#ff00ff;stroke-opacity:0.7;"/>
    <path clip-path="url(#p445b9d5137)" d="M 298.914035 408.511444 
L 298.914035 378.189925 
" style="fill:none;stroke:#ff00ff;stroke-opacity:0.7;"/>
    <path clip-path="url(#p445b9d5137)" d="M 256.423045 422.08068 
L 256.423045 387.495609 
" style="fill:none;stroke:#ff00ff;stroke-opacity:0.7;"/>
    <path clip-path="url(#p445b9d5137)" d="M 262.619648 421.300465 
L 262.619648 388.227026 
" style="fill:none;stroke:#ff00ff;stroke-opacity:0.7;"/>
    <path clip-path="url(#p445b9d5137)" d="M 265.275335 364.627158 
L 265.275335 302.283679 
" style="fill:none;stroke:#ff00ff;stroke-opacity:0.7;"/>
    <path clip-path="url(#p445b9d5137)" d="M 316.618614 335.360173 
L 316.618614 299.253321 
" style="fill:none;stroke:#ff00ff;stroke-opacity:0.7;"/>
    <path clip-path="url(#p445b9d5137)" d="M 299.799264 432.039191 
L 299.799264 370.608654 
" style="fill:none;stroke:#ff00ff;stroke-opacity:0.7;"/>
    <path clip-path="url(#p445b9d5137)" d="M 274.127624 338.86446 
L 274.127624 313.586464 
" style="fill:none;stroke:#ff00ff;stroke-opacity:0.7;"/>
    <path clip-path="url(#p445b9d5137)" d="M 238.718466 426.957484 
L 238.718466 398.966782 
" style="fill:none;stroke:#ff00ff;stroke-opacity:0.7;"/>
    <path clip-path="url(#p445b9d5137)" d="M 251.9969 338.326075 
L 251.9969 308.757641 
" style="fill:none;stroke:#ff00ff;stroke-opacity:0.7;"/>
    <path clip-path="url(#p445b9d5137)" d="M 282.979914 389.767498 
L 282.979914 367.241158 
" style="fill:none;stroke:#ff00ff;stroke-opacity:0.7;"/>
    <path clip-path="url(#p445b9d5137)" d="M 231.636634 378.121464 
L 231.636634 338.808848 
" style="fill:none;stroke:#ff00ff;stroke-opacity:0.7;"/>
    <path clip-path="url(#p445b9d5137)" d="M 209.50591 451.437935 
L 209.50591 418.271647 
" style="fill:none;stroke:#ff00ff;stroke-opacity:0.7;"/>
   </g>
   <g id="line2d_15">
    <path clip-path="url(#p445b9d5137)" d="M 90 479.930195 
L 95.636364 476.45474 
L 101.272727 472.979286 
L 106.909091 469.503831 
L 112.545455 466.028377 
L 118.181818 462.552922 
L 123.818182 459.077468 
L 129.454545 455.602014 
L 135.090909 452.126559 
L 140.727273 448.651105 
L 146.363636 445.17565 
L 152 441.700196 
L 157.636364 438.224742 
L 163.272727 434.749287 
L 168.909091 431.273833 
L 174.545455 427.798378 
L 180.181818 424.322924 
L 185.818182 420.84747 
L 191.454545 417.372015 
L 197.090909 413.896561 
L 202.727273 410.421106 
L 208.363636 406.945652 
L 214 403.470197 
L 219.636364 399.994743 
L 225.272727 396.519289 
L 230.909091 393.043834 
L 236.545455 389.56838 
L 242.181818 386.092925 
L 247.818182 382.617471 
L 253.454545 379.142017 
L 259.090909 375.666562 
L 264.727273 372.191108 
L 270.363636 368.715653 
L 276 365.240199 
L 281.636364 361.764745 
L 287.272727 358.28929 
L 292.909091 354.813836 
L 298.545455 351.338381 
L 304.181818 347.862927 
L 309.818182 344.387473 
L 315.454545 340.912018 
L 321.090909 337.436564 
L 326.727273 333.961109 
L 332.363636 330.485655 
L 338 327.0102 
L 343.636364 323.534746 
L 349.272727 320.059292 
L 354.909091 316.583837 
L 360.545455 313.108383 
L 366.181818 309.632928 
L 371.818182 306.157474 
L 377.454545 302.68202 
L 383.090909 299.206565 
L 388.727273 295.731111 
L 394.363636 292.255656 
L 400 288.780202 
L 405.636364 285.304748 
L 411.272727 281.829293 
L 416.909091 278.353839 
L 422.545455 274.878384 
L 428.181818 271.40293 
L 433.818182 267.927475 
L 439.454545 264.452021 
L 445.090909 260.976567 
L 450.727273 257.501112 
L 456.363636 254.025658 
L 462 250.550203 
L 467.636364 247.074749 
L 473.272727 243.599295 
L 478.909091 240.12384 
L 484.545455 236.648386 
L 490.181818 233.172931 
L 495.818182 229.697477 
L 501.454545 226.222023 
L 507.090909 222.746568 
L 512.727273 219.271114 
L 518.363636 215.795659 
L 524 212.320205 
L 529.636364 208.844751 
L 535.272727 205.369296 
L 540.909091 201.893842 
L 546.545455 198.418387 
L 552.181818 194.942933 
L 557.818182 191.467478 
L 563.454545 187.992024 
L 569.090909 184.51657 
L 574.727273 181.041115 
L 580.363636 177.565661 
L 586 174.090206 
L 591.636364 170.614752 
L 597.272727 167.139298 
L 602.909091 163.663843 
L 608.545455 160.188389 
L 614.181818 156.712934 
L 619.818182 153.23748 
L 625.454545 149.762026 
L 631.090909 146.286571 
L 636.727273 142.811117 
L 642.363636 139.335662 
L 648 135.860208 
" style="fill:none;stroke:#000000;stroke-linecap:square;stroke-width:2.25;"/>
   </g>
   <g id="patch_3">
    <path d="M 86 474.304357 
L 86 105.865084 
" style="fill:none;stroke:#000000;stroke-linecap:square;stroke-linejoin:miter;stroke-width:0.8;"/>
   </g>
   <g id="patch_4">
    <path d="M 90 516.64 
L 648 516.64 
" style="fill:none;stroke:#000000;stroke-linecap:square;stroke-linejoin:miter;stroke-width:0.8;"/>
   </g>
   <g id="text_17">
    <!-- azimuth -->
    <defs>
     <path d="M 34.28125 27.484375 
Q 23.390625 27.484375 19.1875 25 
Q 14.984375 22.515625 14.984375 16.5 
Q 14.984375 11.71875 18.140625 8.90625 
Q 21.296875 6.109375 26.703125 6.109375 
Q 34.1875 6.109375 38.703125 11.40625 
Q 43.21875 16.703125 43.21875 25.484375 
L 43.21875 27.484375 
z
M 52.203125 31.203125 
L 52.203125 0 
L 43.21875 0 
L 43.21875 8.296875 
Q 40.140625 3.328125 35.546875 0.953125 
Q 30.953125 -1.421875 24.3125 -1.421875 
Q 15.921875 -1.421875 10.953125 3.296875 
Q 6 8.015625 6 15.921875 
Q 6 25.140625 12.171875 29.828125 
Q 18.359375 34.515625 30.609375 34.515625 
L 43.21875 34.515625 
L 43.21875 35.40625 
Q 43.21875 41.609375 39.140625 45 
Q 35.0625 48.390625 27.6875 48.390625 
Q 23 48.390625 18.546875 47.265625 
Q 14.109375 46.140625 10.015625 43.890625 
L 10.015625 52.203125 
Q 14.9375 54.109375 19.578125 55.046875 
Q 24.21875 56 28.609375 56 
Q 40.484375 56 46.34375 49.84375 
Q 52.203125 43.703125 52.203125 31.203125 
z
" id="DejaVuSans-61"/>
     <path d="M 5.515625 54.6875 
L 48.1875 54.6875 
L 48.1875 46.484375 
L 14.40625 7.171875 
L 48.1875 7.171875 
L 48.1875 0 
L 4.296875 0 
L 4.296875 8.203125 
L 38.09375 47.515625 
L 5.515625 47.515625 
z
" id="DejaVuSans-7a"/>
     <path d="M 9.421875 54.6875 
L 18.40625 54.6875 
L 18.40625 0 
L 9.421875 0 
z
M 9.421875 75.984375 
L 18.40625 75.984375 
L 18.40625 64.59375 
L 9.421875 64.59375 
z
" id="DejaVuSans-69"/>
     <path d="M 52 44.1875 
Q 55.375 50.25 60.0625 53.125 
Q 64.75 56 71.09375 56 
Q 79.640625 56 84.28125 50.015625 
Q 88.921875 44.046875 88.921875 33.015625 
L 88.921875 0 
L 79.890625 0 
L 79.890625 32.71875 
Q 79.890625 40.578125 77.09375 44.375 
Q 74.3125 48.1875 68.609375 48.1875 
Q 61.625 48.1875 57.5625 43.546875 
Q 53.515625 38.921875 53.515625 30.90625 
L 53.515625 0 
L 44.484375 0 
L 44.484375 32.71875 
Q 44.484375 40.625 41.703125 44.40625 
Q 38.921875 48.1875 33.109375 48.1875 
Q 26.21875 48.1875 22.15625 43.53125 
Q 18.109375 38.875 18.109375 30.90625 
L 18.109375 0 
L 9.078125 0 
L 9.078125 54.6875 
L 18.109375 54.6875 
L 18.109375 46.1875 
Q 21.1875 51.21875 25.484375 53.609375 
Q 29.78125 56 35.6875 56 
Q 41.65625 56 45.828125 52.96875 
Q 50 49.953125 52 44.1875 
z
" id="DejaVuSans-6d"/>
     <path d="M 8.5 21.578125 
L 8.5 54.6875 
L 17.484375 54.6875 
L 17.484375 21.921875 
Q 17.484375 14.15625 20.5 10.265625 
Q 23.53125 6.390625 29.59375 6.390625 
Q 36.859375 6.390625 41.078125 11.03125 
Q 45.3125 15.671875 45.3125 23.6875 
L 45.3125 54.6875 
L 54.296875 54.6875 
L 54.296875 0 
L 45.3125 0 
L 45.3125 8.40625 
Q 42.046875 3.421875 37.71875 1 
Q 33.40625 -1.421875 27.6875 -1.421875 
Q 18.265625 -1.421875 13.375 4.4375 
Q 8.5 10.296875 8.5 21.578125 
z
M 31.109375 56 
z
" id="DejaVuSans-75"/>
     <path d="M 18.3125 70.21875 
L 18.3125 54.6875 
L 36.8125 54.6875 
L 36.8125 47.703125 
L 18.3125 47.703125 
L 18.3125 18.015625 
Q 18.3125 11.328125 20.140625 9.421875 
Q 21.96875 7.515625 27.59375 7.515625 
L 36.8125 7.515625 
L 36.8125 0 
L 27.59375 0 
Q 17.1875 0 13.234375 3.875 
Q 9.28125 7.765625 9.28125 18.015625 
L 9.28125 47.703125 
L 2.6875 47.703125 
L 2.6875 54.6875 
L 9.28125 54.6875 
L 9.28125 70.21875 
z
" id="DejaVuSans-74"/>
     <path d="M 54.890625 33.015625 
L 54.890625 0 
L 45.90625 0 
L 45.90625 32.71875 
Q 45.90625 40.484375 42.875 44.328125 
Q 39.84375 48.1875 33.796875 48.1875 
Q 26.515625 48.1875 22.3125 43.546875 
Q 18.109375 38.921875 18.109375 30.90625 
L 18.109375 0 
L 9.078125 0 
L 9.078125 75.984375 
L 18.109375 75.984375 
L 18.109375 46.1875 
Q 21.34375 51.125 25.703125 53.5625 
Q 30.078125 56 35.796875 56 
Q 45.21875 56 50.046875 50.171875 
Q 54.890625 44.34375 54.890625 33.015625 
z
" id="DejaVuSans-68"/>
    </defs>
    <g transform="translate(344.705625 63.12)scale(0.12 -0.12)">
     <use xlink:href="#DejaVuSans-61"/>
     <use x="61.279297" xlink:href="#DejaVuSans-7a"/>
     <use x="113.769531" xlink:href="#DejaVuSans-69"/>
     <use x="141.552734" xlink:href="#DejaVuSans-6d"/>
     <use x="238.964844" xlink:href="#DejaVuSans-75"/>
     <use x="302.34375" xlink:href="#DejaVuSans-74"/>
     <use x="341.552734" xlink:href="#DejaVuSans-68"/>
    </g>
   </g>
   <g id="text_18">
    <!-- y=0.02x + 4.54 -->
    <defs>
     <path d="M 32.171875 -5.078125 
Q 28.375 -14.84375 24.75 -17.8125 
Q 21.140625 -20.796875 15.09375 -20.796875 
L 7.90625 -20.796875 
L 7.90625 -13.28125 
L 13.1875 -13.28125 
Q 16.890625 -13.28125 18.9375 -11.515625 
Q 21 -9.765625 23.484375 -3.21875 
L 25.09375 0.875 
L 2.984375 54.6875 
L 12.5 54.6875 
L 29.59375 11.921875 
L 46.6875 54.6875 
L 56.203125 54.6875 
z
" id="DejaVuSans-79"/>
     <path d="M 10.59375 45.40625 
L 73.1875 45.40625 
L 73.1875 37.203125 
L 10.59375 37.203125 
z
M 10.59375 25.484375 
L 73.1875 25.484375 
L 73.1875 17.1875 
L 10.59375 17.1875 
z
" id="DejaVuSans-3d"/>
     <path d="M 10.6875 12.40625 
L 21 12.40625 
L 21 0 
L 10.6875 0 
z
" id="DejaVuSans-2e"/>
     <path id="DejaVuSans-20"/>
     <path d="M 46 62.703125 
L 46 35.5 
L 73.1875 35.5 
L 73.1875 27.203125 
L 46 27.203125 
L 46 0 
L 37.796875 0 
L 37.796875 27.203125 
L 10.59375 27.203125 
L 10.59375 35.5 
L 37.796875 35.5 
L 37.796875 62.703125 
z
" id="DejaVuSans-2b"/>
    </defs>
    <g transform="translate(90 63.12)scale(0.12 -0.12)">
     <use xlink:href="#DejaVuSans-79"/>
     <use x="59.179688" xlink:href="#DejaVuSans-3d"/>
     <use x="142.96875" xlink:href="#DejaVuSans-30"/>
     <use x="206.591797" xlink:href="#DejaVuSans-2e"/>
     <use x="238.378906" xlink:href="#DejaVuSans-30"/>
     <use x="302.001953" xlink:href="#DejaVuSans-32"/>
     <use x="365.625" xlink:href="#DejaVuSans-78"/>
     <use x="424.804688" xlink:href="#DejaVuSans-20"/>
     <use x="456.591797" xlink:href="#DejaVuSans-2b"/>
     <use x="540.380859" xlink:href="#DejaVuSans-20"/>
     <use x="572.167969" xlink:href="#DejaVuSans-34"/>
     <use x="635.791016" xlink:href="#DejaVuSans-2e"/>
     <use x="667.578125" xlink:href="#DejaVuSans-35"/>
     <use x="731.201172" xlink:href="#DejaVuSans-34"/>
    </g>
   </g>
   <g id="legend_1">
    <g id="patch_5">
     <path d="M 510.525 121.154375 
L 641 121.154375 
Q 643 121.154375 643 119.154375 
L 643 76.12 
Q 643 74.12 641 74.12 
L 510.525 74.12 
Q 508.525 74.12 508.525 76.12 
L 508.525 119.154375 
Q 508.525 121.154375 510.525 121.154375 
z
" style="fill:#ffffff;opacity:0.8;stroke:#cccccc;stroke-linejoin:miter;"/>
    </g>
    <g id="PathCollection_4">
     <defs>
      <path d="M -2.738613 2.738613 
L 2.738613 -2.738613 
M -2.738613 -2.738613 
L 2.738613 2.738613 
" id="m6e2fbb83f6" style="stroke:#808080;stroke-opacity:0.5;stroke-width:1.5;"/>
     </defs>
     <g>
      <use style="fill:#808080;fill-opacity:0.5;stroke:#808080;stroke-opacity:0.5;stroke-width:1.5;" x="522.525" xlink:href="#m6e2fbb83f6" y="83.093438"/>
     </g>
    </g>
    <g id="text_19">
     <!-- unreliable (R2&gt;0.5) -->
     <defs>
      <path d="M 54.890625 33.015625 
L 54.890625 0 
L 45.90625 0 
L 45.90625 32.71875 
Q 45.90625 40.484375 42.875 44.328125 
Q 39.84375 48.1875 33.796875 48.1875 
Q 26.515625 48.1875 22.3125 43.546875 
Q 18.109375 38.921875 18.109375 30.90625 
L 18.109375 0 
L 9.078125 0 
L 9.078125 54.6875 
L 18.109375 54.6875 
L 18.109375 46.1875 
Q 21.34375 51.125 25.703125 53.5625 
Q 30.078125 56 35.796875 56 
Q 45.21875 56 50.046875 50.171875 
Q 54.890625 44.34375 54.890625 33.015625 
z
" id="DejaVuSans-6e"/>
      <path d="M 56.203125 29.59375 
L 56.203125 25.203125 
L 14.890625 25.203125 
Q 15.484375 15.921875 20.484375 11.0625 
Q 25.484375 6.203125 34.421875 6.203125 
Q 39.59375 6.203125 44.453125 7.46875 
Q 49.3125 8.734375 54.109375 11.28125 
L 54.109375 2.78125 
Q 49.265625 0.734375 44.1875 -0.34375 
Q 39.109375 -1.421875 33.890625 -1.421875 
Q 20.796875 -1.421875 13.15625 6.1875 
Q 5.515625 13.8125 5.515625 26.8125 
Q 5.515625 40.234375 12.765625 48.109375 
Q 20.015625 56 32.328125 56 
Q 43.359375 56 49.78125 48.890625 
Q 56.203125 41.796875 56.203125 29.59375 
z
M 47.21875 32.234375 
Q 47.125 39.59375 43.09375 43.984375 
Q 39.0625 48.390625 32.421875 48.390625 
Q 24.90625 48.390625 20.390625 44.140625 
Q 15.875 39.890625 15.1875 32.171875 
z
" id="DejaVuSans-65"/>
      <path d="M 9.421875 75.984375 
L 18.40625 75.984375 
L 18.40625 0 
L 9.421875 0 
z
" id="DejaVuSans-6c"/>
      <path d="M 48.6875 27.296875 
Q 48.6875 37.203125 44.609375 42.84375 
Q 40.53125 48.484375 33.40625 48.484375 
Q 26.265625 48.484375 22.1875 42.84375 
Q 18.109375 37.203125 18.109375 27.296875 
Q 18.109375 17.390625 22.1875 11.75 
Q 26.265625 6.109375 33.40625 6.109375 
Q 40.53125 6.109375 44.609375 11.75 
Q 48.6875 17.390625 48.6875 27.296875 
z
M 18.109375 46.390625 
Q 20.953125 51.265625 25.265625 53.625 
Q 29.59375 56 35.59375 56 
Q 45.5625 56 51.78125 48.09375 
Q 58.015625 40.1875 58.015625 27.296875 
Q 58.015625 14.40625 51.78125 6.484375 
Q 45.5625 -1.421875 35.59375 -1.421875 
Q 29.59375 -1.421875 25.265625 0.953125 
Q 20.953125 3.328125 18.109375 8.203125 
L 18.109375 0 
L 9.078125 0 
L 9.078125 75.984375 
L 18.109375 75.984375 
z
" id="DejaVuSans-62"/>
      <path d="M 31 75.875 
Q 24.46875 64.65625 21.28125 53.65625 
Q 18.109375 42.671875 18.109375 31.390625 
Q 18.109375 20.125 21.3125 9.0625 
Q 24.515625 -2 31 -13.1875 
L 23.1875 -13.1875 
Q 15.875 -1.703125 12.234375 9.375 
Q 8.59375 20.453125 8.59375 31.390625 
Q 8.59375 42.28125 12.203125 53.3125 
Q 15.828125 64.359375 23.1875 75.875 
z
" id="DejaVuSans-28"/>
      <path d="M 44.390625 34.1875 
Q 47.5625 33.109375 50.5625 29.59375 
Q 53.5625 26.078125 56.59375 19.921875 
L 66.609375 0 
L 56 0 
L 46.6875 18.703125 
Q 43.0625 26.03125 39.671875 28.421875 
Q 36.28125 30.8125 30.421875 30.8125 
L 19.671875 30.8125 
L 19.671875 0 
L 9.8125 0 
L 9.8125 72.90625 
L 32.078125 72.90625 
Q 44.578125 72.90625 50.734375 67.671875 
Q 56.890625 62.453125 56.890625 51.90625 
Q 56.890625 45.015625 53.6875 40.46875 
Q 50.484375 35.9375 44.390625 34.1875 
z
M 19.671875 64.796875 
L 19.671875 38.921875 
L 32.078125 38.921875 
Q 39.203125 38.921875 42.84375 42.21875 
Q 46.484375 45.515625 46.484375 51.90625 
Q 46.484375 58.296875 42.84375 61.546875 
Q 39.203125 64.796875 32.078125 64.796875 
z
" id="DejaVuSans-52"/>
      <path d="M 10.59375 49.21875 
L 10.59375 58.109375 
L 73.1875 35.40625 
L 73.1875 27.296875 
L 10.59375 4.59375 
L 10.59375 13.484375 
L 60.890625 31.296875 
z
" id="DejaVuSans-3e"/>
      <path d="M 8.015625 75.875 
L 15.828125 75.875 
Q 23.140625 64.359375 26.78125 53.3125 
Q 30.421875 42.28125 30.421875 31.390625 
Q 30.421875 20.453125 26.78125 9.375 
Q 23.140625 -1.703125 15.828125 -13.1875 
L 8.015625 -13.1875 
Q 14.5 -2 17.703125 9.0625 
Q 20.90625 20.125 20.90625 31.390625 
Q 20.90625 42.671875 17.703125 53.65625 
Q 14.5 64.65625 8.015625 75.875 
z
" id="DejaVuSans-29"/>
     </defs>
     <g transform="translate(540.525 85.718438)scale(0.1 -0.1)">
      <use xlink:href="#DejaVuSans-75"/>
      <use x="63.378906" xlink:href="#DejaVuSans-6e"/>
      <use x="126.757812" xlink:href="#DejaVuSans-72"/>
      <use x="167.839844" xlink:href="#DejaVuSans-65"/>
      <use x="229.363281" xlink:href="#DejaVuSans-6c"/>
      <use x="257.146484" xlink:href="#DejaVuSans-69"/>
      <use x="284.929688" xlink:href="#DejaVuSans-61"/>
      <use x="346.208984" xlink:href="#DejaVuSans-62"/>
      <use x="409.685547" xlink:href="#DejaVuSans-6c"/>
      <use x="437.46875" xlink:href="#DejaVuSans-65"/>
      <use x="498.992188" xlink:href="#DejaVuSans-20"/>
      <use x="530.779297" xlink:href="#DejaVuSans-28"/>
      <use x="569.792969" xlink:href="#DejaVuSans-52"/>
      <use x="639.275391" xlink:href="#DejaVuSans-32"/>
      <use x="702.898438" xlink:href="#DejaVuSans-3e"/>
      <use x="786.6875" xlink:href="#DejaVuSans-30"/>
      <use x="850.310547" xlink:href="#DejaVuSans-2e"/>
      <use x="882.097656" xlink:href="#DejaVuSans-35"/>
      <use x="945.720703" xlink:href="#DejaVuSans-29"/>
     </g>
    </g>
    <g id="PathCollection_5">
     <g>
      <use style="stroke:#000000;" x="522.525" xlink:href="#m2db59aeb47" y="97.771563"/>
     </g>
    </g>
    <g id="text_20">
     <!-- reliable (95% CI) -->
     <defs>
      <path d="M 10.984375 1.515625 
L 10.984375 10.5 
Q 14.703125 8.734375 18.5 7.8125 
Q 22.3125 6.890625 25.984375 6.890625 
Q 35.75 6.890625 40.890625 13.453125 
Q 46.046875 20.015625 46.78125 33.40625 
Q 43.953125 29.203125 39.59375 26.953125 
Q 35.25 24.703125 29.984375 24.703125 
Q 19.046875 24.703125 12.671875 31.3125 
Q 6.296875 37.9375 6.296875 49.421875 
Q 6.296875 60.640625 12.9375 67.421875 
Q 19.578125 74.21875 30.609375 74.21875 
Q 43.265625 74.21875 49.921875 64.515625 
Q 56.59375 54.828125 56.59375 36.375 
Q 56.59375 19.140625 48.40625 8.859375 
Q 40.234375 -1.421875 26.421875 -1.421875 
Q 22.703125 -1.421875 18.890625 -0.6875 
Q 15.09375 0.046875 10.984375 1.515625 
z
M 30.609375 32.421875 
Q 37.25 32.421875 41.125 36.953125 
Q 45.015625 41.5 45.015625 49.421875 
Q 45.015625 57.28125 41.125 61.84375 
Q 37.25 66.40625 30.609375 66.40625 
Q 23.96875 66.40625 20.09375 61.84375 
Q 16.21875 57.28125 16.21875 49.421875 
Q 16.21875 41.5 20.09375 36.953125 
Q 23.96875 32.421875 30.609375 32.421875 
z
" id="DejaVuSans-39"/>
      <path d="M 72.703125 32.078125 
Q 68.453125 32.078125 66.03125 28.46875 
Q 63.625 24.859375 63.625 18.40625 
Q 63.625 12.0625 66.03125 8.421875 
Q 68.453125 4.78125 72.703125 4.78125 
Q 76.859375 4.78125 79.265625 8.421875 
Q 81.6875 12.0625 81.6875 18.40625 
Q 81.6875 24.8125 79.265625 28.4375 
Q 76.859375 32.078125 72.703125 32.078125 
z
M 72.703125 38.28125 
Q 80.421875 38.28125 84.953125 32.90625 
Q 89.5 27.546875 89.5 18.40625 
Q 89.5 9.28125 84.9375 3.921875 
Q 80.375 -1.421875 72.703125 -1.421875 
Q 64.890625 -1.421875 60.34375 3.921875 
Q 55.8125 9.28125 55.8125 18.40625 
Q 55.8125 27.59375 60.375 32.9375 
Q 64.9375 38.28125 72.703125 38.28125 
z
M 22.3125 68.015625 
Q 18.109375 68.015625 15.6875 64.375 
Q 13.28125 60.75 13.28125 54.390625 
Q 13.28125 47.953125 15.671875 44.328125 
Q 18.0625 40.71875 22.3125 40.71875 
Q 26.5625 40.71875 28.96875 44.328125 
Q 31.390625 47.953125 31.390625 54.390625 
Q 31.390625 60.6875 28.953125 64.34375 
Q 26.515625 68.015625 22.3125 68.015625 
z
M 66.40625 74.21875 
L 74.21875 74.21875 
L 28.609375 -1.421875 
L 20.796875 -1.421875 
z
M 22.3125 74.21875 
Q 30.03125 74.21875 34.609375 68.875 
Q 39.203125 63.53125 39.203125 54.390625 
Q 39.203125 45.171875 34.640625 39.84375 
Q 30.078125 34.515625 22.3125 34.515625 
Q 14.546875 34.515625 10.03125 39.859375 
Q 5.515625 45.21875 5.515625 54.390625 
Q 5.515625 63.484375 10.046875 68.84375 
Q 14.59375 74.21875 22.3125 74.21875 
z
" id="DejaVuSans-25"/>
      <path d="M 64.40625 67.28125 
L 64.40625 56.890625 
Q 59.421875 61.53125 53.78125 63.8125 
Q 48.140625 66.109375 41.796875 66.109375 
Q 29.296875 66.109375 22.65625 58.46875 
Q 16.015625 50.828125 16.015625 36.375 
Q 16.015625 21.96875 22.65625 14.328125 
Q 29.296875 6.6875 41.796875 6.6875 
Q 48.140625 6.6875 53.78125 8.984375 
Q 59.421875 11.28125 64.40625 15.921875 
L 64.40625 5.609375 
Q 59.234375 2.09375 53.4375 0.328125 
Q 47.65625 -1.421875 41.21875 -1.421875 
Q 24.65625 -1.421875 15.125 8.703125 
Q 5.609375 18.84375 5.609375 36.375 
Q 5.609375 53.953125 15.125 64.078125 
Q 24.65625 74.21875 41.21875 74.21875 
Q 47.75 74.21875 53.53125 72.484375 
Q 59.328125 70.75 64.40625 67.28125 
z
" id="DejaVuSans-43"/>
      <path d="M 9.8125 72.90625 
L 19.671875 72.90625 
L 19.671875 0 
L 9.8125 0 
z
" id="DejaVuSans-49"/>
     </defs>
     <g transform="translate(540.525 100.396563)scale(0.1 -0.1)">
      <use xlink:href="#DejaVuSans-72"/>
      <use x="41.082031" xlink:href="#DejaVuSans-65"/>
      <use x="102.605469" xlink:href="#DejaVuSans-6c"/>
      <use x="130.388672" xlink:href="#DejaVuSans-69"/>
      <use x="158.171875" xlink:href="#DejaVuSans-61"/>
      <use x="219.451172" xlink:href="#DejaVuSans-62"/>
      <use x="282.927734" xlink:href="#DejaVuSans-6c"/>
      <use x="310.710938" xlink:href="#DejaVuSans-65"/>
      <use x="372.234375" xlink:href="#DejaVuSans-20"/>
      <use x="404.021484" xlink:href="#DejaVuSans-28"/>
      <use x="443.035156" xlink:href="#DejaVuSans-39"/>
      <use x="506.658203" xlink:href="#DejaVuSans-35"/>
      <use x="570.28125" xlink:href="#DejaVuSans-25"/>
      <use x="665.300781" xlink:href="#DejaVuSans-20"/>
      <use x="697.087891" xlink:href="#DejaVuSans-43"/>
      <use x="766.912109" xlink:href="#DejaVuSans-49"/>
      <use x="796.404297" xlink:href="#DejaVuSans-29"/>
     </g>
    </g>
    <g id="PathCollection_6">
     <g>
      <use style="fill:#ff00ff;stroke:#ff00ff;" x="522.525" xlink:href="#m4c4693f1e5" y="112.449688"/>
     </g>
    </g>
    <g id="text_21">
     <!-- scattered -->
     <defs>
      <path d="M 48.78125 52.59375 
L 48.78125 44.1875 
Q 44.96875 46.296875 41.140625 47.34375 
Q 37.3125 48.390625 33.40625 48.390625 
Q 24.65625 48.390625 19.8125 42.84375 
Q 14.984375 37.3125 14.984375 27.296875 
Q 14.984375 17.28125 19.8125 11.734375 
Q 24.65625 6.203125 33.40625 6.203125 
Q 37.3125 6.203125 41.140625 7.25 
Q 44.96875 8.296875 48.78125 10.40625 
L 48.78125 2.09375 
Q 45.015625 0.34375 40.984375 -0.53125 
Q 36.96875 -1.421875 32.421875 -1.421875 
Q 20.0625 -1.421875 12.78125 6.34375 
Q 5.515625 14.109375 5.515625 27.296875 
Q 5.515625 40.671875 12.859375 48.328125 
Q 20.21875 56 33.015625 56 
Q 37.15625 56 41.109375 55.140625 
Q 45.0625 54.296875 48.78125 52.59375 
z
" id="DejaVuSans-63"/>
      <path d="M 45.40625 46.390625 
L 45.40625 75.984375 
L 54.390625 75.984375 
L 54.390625 0 
L 45.40625 0 
L 45.40625 8.203125 
Q 42.578125 3.328125 38.25 0.953125 
Q 33.9375 -1.421875 27.875 -1.421875 
Q 17.96875 -1.421875 11.734375 6.484375 
Q 5.515625 14.40625 5.515625 27.296875 
Q 5.515625 40.1875 11.734375 48.09375 
Q 17.96875 56 27.875 56 
Q 33.9375 56 38.25 53.625 
Q 42.578125 51.265625 45.40625 46.390625 
z
M 14.796875 27.296875 
Q 14.796875 17.390625 18.875 11.75 
Q 22.953125 6.109375 30.078125 6.109375 
Q 37.203125 6.109375 41.296875 11.75 
Q 45.40625 17.390625 45.40625 27.296875 
Q 45.40625 37.203125 41.296875 42.84375 
Q 37.203125 48.484375 30.078125 48.484375 
Q 22.953125 48.484375 18.875 42.84375 
Q 14.796875 37.203125 14.796875 27.296875 
z
" id="DejaVuSans-64"/>
     </defs>
     <g transform="translate(540.525 115.074688)scale(0.1 -0.1)">
      <use xlink:href="#DejaVuSans-73"/>
      <use x="52.099609" xlink:href="#DejaVuSans-63"/>
      <use x="107.080078" xlink:href="#DejaVuSans-61"/>
      <use x="168.359375" xlink:href="#DejaVuSans-74"/>
      <use x="207.568359" xlink:href="#DejaVuSans-74"/>
      <use x="246.777344" xlink:href="#DejaVuSans-65"/>
      <use x="308.300781" xlink:href="#DejaVuSans-72"/>
      <use x="349.382812" xlink:href="#DejaVuSans-65"/>
      <use x="410.90625" xlink:href="#DejaVuSans-64"/>
     </g>
    </g>
   </g>
  </g>
  <g id="text_22">
   <!-- JC084|20190522|FOV1_zoom2p0x|traces001|rois001|corrected|fit-2dgaus_dff-no-cutoff -->
   <defs>
    <path d="M 9.8125 72.90625 
L 19.671875 72.90625 
L 19.671875 5.078125 
Q 19.671875 -8.109375 14.671875 -14.0625 
Q 9.671875 -20.015625 -1.421875 -20.015625 
L -5.171875 -20.015625 
L -5.171875 -11.71875 
L -2.09375 -11.71875 
Q 4.4375 -11.71875 7.125 -8.046875 
Q 9.8125 -4.390625 9.8125 5.078125 
z
" id="DejaVuSans-4a"/>
    <path d="M 21 76.421875 
L 21 -23.578125 
L 12.703125 -23.578125 
L 12.703125 76.421875 
z
" id="DejaVuSans-7c"/>
    <path d="M 9.8125 72.90625 
L 51.703125 72.90625 
L 51.703125 64.59375 
L 19.671875 64.59375 
L 19.671875 43.109375 
L 48.578125 43.109375 
L 48.578125 34.8125 
L 19.671875 34.8125 
L 19.671875 0 
L 9.8125 0 
z
" id="DejaVuSans-46"/>
    <path d="M 39.40625 66.21875 
Q 28.65625 66.21875 22.328125 58.203125 
Q 16.015625 50.203125 16.015625 36.375 
Q 16.015625 22.609375 22.328125 14.59375 
Q 28.65625 6.59375 39.40625 6.59375 
Q 50.140625 6.59375 56.421875 14.59375 
Q 62.703125 22.609375 62.703125 36.375 
Q 62.703125 50.203125 56.421875 58.203125 
Q 50.140625 66.21875 39.40625 66.21875 
z
M 39.40625 74.21875 
Q 54.734375 74.21875 63.90625 63.9375 
Q 73.09375 53.65625 73.09375 36.375 
Q 73.09375 19.140625 63.90625 8.859375 
Q 54.734375 -1.421875 39.40625 -1.421875 
Q 24.03125 -1.421875 14.8125 8.828125 
Q 5.609375 19.09375 5.609375 36.375 
Q 5.609375 53.65625 14.8125 63.9375 
Q 24.03125 74.21875 39.40625 74.21875 
z
" id="DejaVuSans-4f"/>
    <path d="M 28.609375 0 
L 0.78125 72.90625 
L 11.078125 72.90625 
L 34.1875 11.53125 
L 57.328125 72.90625 
L 67.578125 72.90625 
L 39.796875 0 
z
" id="DejaVuSans-56"/>
    <path d="M 4.890625 31.390625 
L 31.203125 31.390625 
L 31.203125 23.390625 
L 4.890625 23.390625 
z
" id="DejaVuSans-2d"/>
    <path d="M 45.40625 27.984375 
Q 45.40625 37.75 41.375 43.109375 
Q 37.359375 48.484375 30.078125 48.484375 
Q 22.859375 48.484375 18.828125 43.109375 
Q 14.796875 37.75 14.796875 27.984375 
Q 14.796875 18.265625 18.828125 12.890625 
Q 22.859375 7.515625 30.078125 7.515625 
Q 37.359375 7.515625 41.375 12.890625 
Q 45.40625 18.265625 45.40625 27.984375 
z
M 54.390625 6.78125 
Q 54.390625 -7.171875 48.1875 -13.984375 
Q 42 -20.796875 29.203125 -20.796875 
Q 24.46875 -20.796875 20.265625 -20.09375 
Q 16.0625 -19.390625 12.109375 -17.921875 
L 12.109375 -9.1875 
Q 16.0625 -11.328125 19.921875 -12.34375 
Q 23.78125 -13.375 27.78125 -13.375 
Q 36.625 -13.375 41.015625 -8.765625 
Q 45.40625 -4.15625 45.40625 5.171875 
L 45.40625 9.625 
Q 42.625 4.78125 38.28125 2.390625 
Q 33.9375 0 27.875 0 
Q 17.828125 0 11.671875 7.65625 
Q 5.515625 15.328125 5.515625 27.984375 
Q 5.515625 40.671875 11.671875 48.328125 
Q 17.828125 56 27.875 56 
Q 33.9375 56 38.28125 53.609375 
Q 42.625 51.21875 45.40625 46.390625 
L 45.40625 54.6875 
L 54.390625 54.6875 
z
" id="DejaVuSans-67"/>
   </defs>
   <g transform="translate(0 6.11375)scale(0.08 -0.08)">
    <use xlink:href="#DejaVuSans-4a"/>
    <use x="29.492188" xlink:href="#DejaVuSans-43"/>
    <use x="99.316406" xlink:href="#DejaVuSans-30"/>
    <use x="162.939453" xlink:href="#DejaVuSans-38"/>
    <use x="226.5625" xlink:href="#DejaVuSans-34"/>
    <use x="290.185547" xlink:href="#DejaVuSans-7c"/>
    <use x="323.876953" xlink:href="#DejaVuSans-32"/>
    <use x="387.5" xlink:href="#DejaVuSans-30"/>
    <use x="451.123047" xlink:href="#DejaVuSans-31"/>
    <use x="514.746094" xlink:href="#DejaVuSans-39"/>
    <use x="578.369141" xlink:href="#DejaVuSans-30"/>
    <use x="641.992188" xlink:href="#DejaVuSans-35"/>
    <use x="705.615234" xlink:href="#DejaVuSans-32"/>
    <use x="769.238281" xlink:href="#DejaVuSans-32"/>
    <use x="832.861328" xlink:href="#DejaVuSans-7c"/>
    <use x="866.552734" xlink:href="#DejaVuSans-46"/>
    <use x="924.072266" xlink:href="#DejaVuSans-4f"/>
    <use x="1002.767578" xlink:href="#DejaVuSans-56"/>
    <use x="1071.175781" xlink:href="#DejaVuSans-31"/>
    <use x="1134.798828" xlink:href="#DejaVuSans-5f"/>
    <use x="1184.798828" xlink:href="#DejaVuSans-7a"/>
    <use x="1237.289062" xlink:href="#DejaVuSans-6f"/>
    <use x="1298.470703" xlink:href="#DejaVuSans-6f"/>
    <use x="1359.652344" xlink:href="#DejaVuSans-6d"/>
    <use x="1457.064453" xlink:href="#DejaVuSans-32"/>
    <use x="1520.6875" xlink:href="#DejaVuSans-70"/>
    <use x="1584.164062" xlink:href="#DejaVuSans-30"/>
    <use x="1647.787109" xlink:href="#DejaVuSans-78"/>
    <use x="1706.966797" xlink:href="#DejaVuSans-7c"/>
    <use x="1740.658203" xlink:href="#DejaVuSans-74"/>
    <use x="1779.867188" xlink:href="#DejaVuSans-72"/>
    <use x="1820.980469" xlink:href="#DejaVuSans-61"/>
    <use x="1882.259766" xlink:href="#DejaVuSans-63"/>
    <use x="1937.240234" xlink:href="#DejaVuSans-65"/>
    <use x="1998.763672" xlink:href="#DejaVuSans-73"/>
    <use x="2050.863281" xlink:href="#DejaVuSans-30"/>
    <use x="2114.486328" xlink:href="#DejaVuSans-30"/>
    <use x="2178.109375" xlink:href="#DejaVuSans-31"/>
    <use x="2241.732422" xlink:href="#DejaVuSans-7c"/>
    <use x="2275.423828" xlink:href="#DejaVuSans-72"/>
    <use x="2316.505859" xlink:href="#DejaVuSans-6f"/>
    <use x="2377.6875" xlink:href="#DejaVuSans-69"/>
    <use x="2405.470703" xlink:href="#DejaVuSans-73"/>
    <use x="2457.570312" xlink:href="#DejaVuSans-30"/>
    <use x="2521.193359" xlink:href="#DejaVuSans-30"/>
    <use x="2584.816406" xlink:href="#DejaVuSans-31"/>
    <use x="2648.439453" xlink:href="#DejaVuSans-7c"/>
    <use x="2682.130859" xlink:href="#DejaVuSans-63"/>
    <use x="2737.111328" xlink:href="#DejaVuSans-6f"/>
    <use x="2798.292969" xlink:href="#DejaVuSans-72"/>
    <use x="2839.390625" xlink:href="#DejaVuSans-72"/>
    <use x="2880.472656" xlink:href="#DejaVuSans-65"/>
    <use x="2941.996094" xlink:href="#DejaVuSans-63"/>
    <use x="2996.976562" xlink:href="#DejaVuSans-74"/>
    <use x="3036.185547" xlink:href="#DejaVuSans-65"/>
    <use x="3097.708984" xlink:href="#DejaVuSans-64"/>
    <use x="3161.185547" xlink:href="#DejaVuSans-7c"/>
    <use x="3194.876953" xlink:href="#DejaVuSans-66"/>
    <use x="3230.082031" xlink:href="#DejaVuSans-69"/>
    <use x="3257.865234" xlink:href="#DejaVuSans-74"/>
    <use x="3297.074219" xlink:href="#DejaVuSans-2d"/>
    <use x="3333.158203" xlink:href="#DejaVuSans-32"/>
    <use x="3396.78125" xlink:href="#DejaVuSans-64"/>
    <use x="3460.257812" xlink:href="#DejaVuSans-67"/>
    <use x="3523.734375" xlink:href="#DejaVuSans-61"/>
    <use x="3585.013672" xlink:href="#DejaVuSans-75"/>
    <use x="3648.392578" xlink:href="#DejaVuSans-73"/>
    <use x="3700.492188" xlink:href="#DejaVuSans-5f"/>
    <use x="3750.492188" xlink:href="#DejaVuSans-64"/>
    <use x="3813.96875" xlink:href="#DejaVuSans-66"/>
    <use x="3849.173828" xlink:href="#DejaVuSans-66"/>
    <use x="3884.300781" xlink:href="#DejaVuSans-2d"/>
    <use x="3920.384766" xlink:href="#DejaVuSans-6e"/>
    <use x="3983.763672" xlink:href="#DejaVuSans-6f"/>
    <use x="4044.960938" xlink:href="#DejaVuSans-2d"/>
    <use x="4081.044922" xlink:href="#DejaVuSans-63"/>
    <use x="4136.025391" xlink:href="#DejaVuSans-75"/>
    <use x="4199.404297" xlink:href="#DejaVuSans-74"/>
    <use x="4238.613281" xlink:href="#DejaVuSans-6f"/>
    <use x="4299.794922" xlink:href="#DejaVuSans-66"/>
    <use x="4335" xlink:href="#DejaVuSans-66"/>
   </g>
  </g>
 </g>
 <defs>
  <clipPath id="p445b9d5137">
   <rect height="443.52" width="558" x="90" y="69.12"/>
  </clipPath>
 </defs>
</svg>
