<?xml version="1.0" encoding="utf-8" standalone="no"?>
<!DOCTYPE svg PUBLIC "-//W3C//DTD SVG 1.1//EN"
  "http://www.w3.org/Graphics/SVG/1.1/DTD/svg11.dtd">
<!-- Created with matplotlib (http://matplotlib.org/) -->
<svg height="576pt" version="1.1" viewBox="0 0 720 576" width="720pt" xmlns="http://www.w3.org/2000/svg" xmlns:xlink="http://www.w3.org/1999/xlink">
 <defs>
  <style type="text/css">
*{stroke-linecap:butt;stroke-linejoin:round;}
  </style>
 </defs>
 <g id="figure_1">
  <g id="patch_1">
   <path d="M 0 576 
L 720 576 
L 720 0 
L 0 0 
z
" style="fill:#ffffff;"/>
  </g>
  <g id="axes_1">
   <g id="patch_2">
    <path d="M 90 512.64 
L 648 512.64 
L 648 69.12 
L 90 69.12 
z
" style="fill:#ffffff;"/>
   </g>
   <g id="PathCollection_1"/>
   <g id="PathCollection_2">
    <defs>
     <path d="M 0 2.738613 
C 0.726289 2.738613 1.422928 2.450055 1.936492 1.936492 
C 2.450055 1.422928 2.738613 0.726289 2.738613 0 
C 2.738613 -0.726289 2.450055 -1.422928 1.936492 -1.936492 
C 1.422928 -2.450055 0.726289 -2.738613 0 -2.738613 
C -0.726289 -2.738613 -1.422928 -2.450055 -1.936492 -1.936492 
C -2.450055 -1.422928 -2.738613 -0.726289 -2.738613 0 
C -2.738613 0.726289 -2.450055 1.422928 -1.936492 1.936492 
C -1.422928 2.450055 -0.726289 2.738613 0 2.738613 
z
" id="mfe8c1201d8" style="stroke:#000000;"/>
    </defs>
    <g clip-path="url(#pa5dec09e8b)">
     <use style="stroke:#000000;" x="476.845057" xlink:href="#mfe8c1201d8" y="170.503213"/>
     <use style="stroke:#000000;" x="541.140634" xlink:href="#mfe8c1201d8" y="155.483966"/>
     <use style="stroke:#000000;" x="543.28382" xlink:href="#mfe8c1201d8" y="178.036271"/>
     <use style="stroke:#000000;" x="451.126826" xlink:href="#mfe8c1201d8" y="176.435957"/>
     <use style="stroke:#000000;" x="454.341605" xlink:href="#mfe8c1201d8" y="179.655894"/>
     <use style="stroke:#000000;" x="442.554082" xlink:href="#mfe8c1201d8" y="173.092255"/>
     <use style="stroke:#000000;" x="428.623374" xlink:href="#mfe8c1201d8" y="187.458878"/>
     <use style="stroke:#000000;" x="393.260806" xlink:href="#mfe8c1201d8" y="198.781931"/>
     <use style="stroke:#000000;" x="349.325495" xlink:href="#mfe8c1201d8" y="212.689062"/>
     <use style="stroke:#000000;" x="351.468681" xlink:href="#mfe8c1201d8" y="192.000334"/>
     <use style="stroke:#000000;" x="360.041425" xlink:href="#mfe8c1201d8" y="217.722942"/>
     <use style="stroke:#000000;" x="346.110716" xlink:href="#mfe8c1201d8" y="214.261537"/>
     <use style="stroke:#000000;" x="382.544877" xlink:href="#mfe8c1201d8" y="197.902146"/>
     <use style="stroke:#000000;" x="349.325495" xlink:href="#mfe8c1201d8" y="213.420554"/>
     <use style="stroke:#000000;" x="303.246998" xlink:href="#mfe8c1201d8" y="246.640496"/>
     <use style="stroke:#000000;" x="316.106114" xlink:href="#mfe8c1201d8" y="194.365048"/>
     <use style="stroke:#000000;" x="320.392485" xlink:href="#mfe8c1201d8" y="208.52164"/>
     <use style="stroke:#000000;" x="238.951421" xlink:href="#mfe8c1201d8" y="240.021469"/>
     <use style="stroke:#000000;" x="226.092305" xlink:href="#mfe8c1201d8" y="276.273489"/>
     <use style="stroke:#000000;" x="133.935311" xlink:href="#mfe8c1201d8" y="382.644798"/>
     <use style="stroke:#000000;" x="163.939914" xlink:href="#mfe8c1201d8" y="398.994438"/>
     <use style="stroke:#000000;" x="144.651241" xlink:href="#mfe8c1201d8" y="263.652257"/>
     <use style="stroke:#000000;" x="105.002301" xlink:href="#mfe8c1201d8" y="277.992721"/>
     <use style="stroke:#000000;" x="206.803632" xlink:href="#mfe8c1201d8" y="193.917683"/>
     <use style="stroke:#000000;" x="305.390184" xlink:href="#mfe8c1201d8" y="219.728028"/>
     <use style="stroke:#000000;" x="327.893636" xlink:href="#mfe8c1201d8" y="196.708493"/>
     <use style="stroke:#000000;" x="260.38328" xlink:href="#mfe8c1201d8" y="253.875364"/>
     <use style="stroke:#000000;" x="227.163898" xlink:href="#mfe8c1201d8" y="300.825121"/>
     <use style="stroke:#000000;" x="237.879828" xlink:href="#mfe8c1201d8" y="247.097528"/>
     <use style="stroke:#000000;" x="278.60036" xlink:href="#mfe8c1201d8" y="242.525315"/>
     <use style="stroke:#000000;" x="223.949119" xlink:href="#mfe8c1201d8" y="273.982279"/>
     <use style="stroke:#000000;" x="208.946818" xlink:href="#mfe8c1201d8" y="316.694219"/>
     <use style="stroke:#000000;" x="235.736642" xlink:href="#mfe8c1201d8" y="285.809213"/>
     <use style="stroke:#000000;" x="247.524164" xlink:href="#mfe8c1201d8" y="269.894487"/>
     <use style="stroke:#000000;" x="223.949119" xlink:href="#mfe8c1201d8" y="289.156706"/>
     <use style="stroke:#000000;" x="215.376376" xlink:href="#mfe8c1201d8" y="304.921813"/>
     <use style="stroke:#000000;" x="233.593456" xlink:href="#mfe8c1201d8" y="413.821052"/>
     <use style="stroke:#000000;" x="242.1662" xlink:href="#mfe8c1201d8" y="195.879147"/>
     <use style="stroke:#000000;" x="226.092305" xlink:href="#mfe8c1201d8" y="307.193781"/>
     <use style="stroke:#000000;" x="196.087703" xlink:href="#mfe8c1201d8" y="285.884691"/>
     <use style="stroke:#000000;" x="177.870622" xlink:href="#mfe8c1201d8" y="371.027326"/>
     <use style="stroke:#000000;" x="189.658145" xlink:href="#mfe8c1201d8" y="218.823894"/>
     <use style="stroke:#000000;" x="171.441065" xlink:href="#mfe8c1201d8" y="299.264882"/>
     <use style="stroke:#000000;" x="159.653542" xlink:href="#mfe8c1201d8" y="338.654996"/>
     <use style="stroke:#000000;" x="182.156994" xlink:href="#mfe8c1201d8" y="294.533345"/>
     <use style="stroke:#000000;" x="151.080798" xlink:href="#mfe8c1201d8" y="396.346473"/>
     <use style="stroke:#000000;" x="259.311687" xlink:href="#mfe8c1201d8" y="263.779486"/>
     <use style="stroke:#000000;" x="213.23319" xlink:href="#mfe8c1201d8" y="233.018994"/>
     <use style="stroke:#000000;" x="290.387883" xlink:href="#mfe8c1201d8" y="282.684865"/>
     <use style="stroke:#000000;" x="288.244697" xlink:href="#mfe8c1201d8" y="268.050866"/>
     <use style="stroke:#000000;" x="258.240094" xlink:href="#mfe8c1201d8" y="269.892039"/>
     <use style="stroke:#000000;" x="285.029918" xlink:href="#mfe8c1201d8" y="274.01492"/>
     <use style="stroke:#000000;" x="294.674254" xlink:href="#mfe8c1201d8" y="258.427503"/>
     <use style="stroke:#000000;" x="324.678857" xlink:href="#mfe8c1201d8" y="213.483175"/>
     <use style="stroke:#000000;" x="315.034521" xlink:href="#mfe8c1201d8" y="251.327654"/>
     <use style="stroke:#000000;" x="303.246998" xlink:href="#mfe8c1201d8" y="251.455349"/>
     <use style="stroke:#000000;" x="348.253902" xlink:href="#mfe8c1201d8" y="183.006153"/>
     <use style="stroke:#000000;" x="360.041425" xlink:href="#mfe8c1201d8" y="218.375017"/>
     <use style="stroke:#000000;" x="368.614168" xlink:href="#mfe8c1201d8" y="184.260763"/>
     <use style="stroke:#000000;" x="366.470982" xlink:href="#mfe8c1201d8" y="258.481407"/>
     <use style="stroke:#000000;" x="383.61647" xlink:href="#mfe8c1201d8" y="186.364709"/>
     <use style="stroke:#000000;" x="367.542575" xlink:href="#mfe8c1201d8" y="207.380509"/>
     <use style="stroke:#000000;" x="427.551781" xlink:href="#mfe8c1201d8" y="200.630116"/>
     <use style="stroke:#000000;" x="425.408595" xlink:href="#mfe8c1201d8" y="154.576466"/>
     <use style="stroke:#000000;" x="457.556384" xlink:href="#mfe8c1201d8" y="173.286995"/>
     <use style="stroke:#000000;" x="470.415499" xlink:href="#mfe8c1201d8" y="180.640035"/>
     <use style="stroke:#000000;" x="460.771162" xlink:href="#mfe8c1201d8" y="182.838945"/>
     <use style="stroke:#000000;" x="437.196117" xlink:href="#mfe8c1201d8" y="178.127183"/>
     <use style="stroke:#000000;" x="481.131429" xlink:href="#mfe8c1201d8" y="161.138495"/>
     <use style="stroke:#000000;" x="474.701871" xlink:href="#mfe8c1201d8" y="175.112782"/>
     <use style="stroke:#000000;" x="469.343906" xlink:href="#mfe8c1201d8" y="177.056934"/>
     <use style="stroke:#000000;" x="416.835851" xlink:href="#mfe8c1201d8" y="193.547029"/>
     <use style="stroke:#000000;" x="396.475585" xlink:href="#mfe8c1201d8" y="152.200416"/>
     <use style="stroke:#000000;" x="393.260806" xlink:href="#mfe8c1201d8" y="188.870232"/>
     <use style="stroke:#000000;" x="387.902841" xlink:href="#mfe8c1201d8" y="201.55683"/>
     <use style="stroke:#000000;" x="375.043726" xlink:href="#mfe8c1201d8" y="218.810709"/>
     <use style="stroke:#000000;" x="376.115319" xlink:href="#mfe8c1201d8" y="239.162264"/>
     <use style="stroke:#000000;" x="414.692665" xlink:href="#mfe8c1201d8" y="197.435043"/>
     <use style="stroke:#000000;" x="408.263108" xlink:href="#mfe8c1201d8" y="195.163486"/>
     <use style="stroke:#000000;" x="447.912047" xlink:href="#mfe8c1201d8" y="204.985476"/>
     <use style="stroke:#000000;" x="437.196117" xlink:href="#mfe8c1201d8" y="200.718735"/>
     <use style="stroke:#000000;" x="448.98364" xlink:href="#mfe8c1201d8" y="184.637641"/>
     <use style="stroke:#000000;" x="420.05063" xlink:href="#mfe8c1201d8" y="199.996026"/>
     <use style="stroke:#000000;" x="411.477886" xlink:href="#mfe8c1201d8" y="236.069626"/>
     <use style="stroke:#000000;" x="397.547178" xlink:href="#mfe8c1201d8" y="215.827188"/>
     <use style="stroke:#000000;" x="336.46638" xlink:href="#mfe8c1201d8" y="155.485454"/>
     <use style="stroke:#000000;" x="361.113018" xlink:href="#mfe8c1201d8" y="193.653936"/>
     <use style="stroke:#000000;" x="373.972133" xlink:href="#mfe8c1201d8" y="221.671338"/>
     <use style="stroke:#000000;" x="385.759656" xlink:href="#mfe8c1201d8" y="215.906177"/>
     <use style="stroke:#000000;" x="384.688063" xlink:href="#mfe8c1201d8" y="230.632839"/>
     <use style="stroke:#000000;" x="346.110716" xlink:href="#mfe8c1201d8" y="236.505942"/>
     <use style="stroke:#000000;" x="313.962928" xlink:href="#mfe8c1201d8" y="278.522875"/>
     <use style="stroke:#000000;" x="337.537973" xlink:href="#mfe8c1201d8" y="247.929587"/>
     <use style="stroke:#000000;" x="307.53337" xlink:href="#mfe8c1201d8" y="245.959102"/>
     <use style="stroke:#000000;" x="300.032219" xlink:href="#mfe8c1201d8" y="271.109013"/>
     <use style="stroke:#000000;" x="324.678857" xlink:href="#mfe8c1201d8" y="265.790325"/>
     <use style="stroke:#000000;" x="316.106114" xlink:href="#mfe8c1201d8" y="247.808989"/>
     <use style="stroke:#000000;" x="330.036822" xlink:href="#mfe8c1201d8" y="232.143616"/>
     <use style="stroke:#000000;" x="320.392485" xlink:href="#mfe8c1201d8" y="253.29898"/>
     <use style="stroke:#000000;" x="366.470982" xlink:href="#mfe8c1201d8" y="289.020669"/>
     <use style="stroke:#000000;" x="351.468681" xlink:href="#mfe8c1201d8" y="239.413215"/>
     <use style="stroke:#000000;" x="271.099209" xlink:href="#mfe8c1201d8" y="268.416098"/>
     <use style="stroke:#000000;" x="217.519562" xlink:href="#mfe8c1201d8" y="276.037035"/>
     <use style="stroke:#000000;" x="192.872924" xlink:href="#mfe8c1201d8" y="369.835162"/>
     <use style="stroke:#000000;" x="183.228587" xlink:href="#mfe8c1201d8" y="313.348396"/>
     <use style="stroke:#000000;" x="233.593456" xlink:href="#mfe8c1201d8" y="279.929806"/>
     <use style="stroke:#000000;" x="422.193816" xlink:href="#mfe8c1201d8" y="214.861344"/>
     <use style="stroke:#000000;" x="417.907444" xlink:href="#mfe8c1201d8" y="189.979157"/>
     <use style="stroke:#000000;" x="355.755053" xlink:href="#mfe8c1201d8" y="217.529932"/>
     <use style="stroke:#000000;" x="505.778067" xlink:href="#mfe8c1201d8" y="150.059672"/>
     <use style="stroke:#000000;" x="579.71798" xlink:href="#mfe8c1201d8" y="163.779265"/>
     <use style="stroke:#000000;" x="515.422403" xlink:href="#mfe8c1201d8" y="158.793267"/>
     <use style="stroke:#000000;" x="532.56789" xlink:href="#mfe8c1201d8" y="170.672511"/>
     <use style="stroke:#000000;" x="541.140634" xlink:href="#mfe8c1201d8" y="199.367771"/>
     <use style="stroke:#000000;" x="529.353112" xlink:href="#mfe8c1201d8" y="202.670263"/>
     <use style="stroke:#000000;" x="445.768861" xlink:href="#mfe8c1201d8" y="205.704366"/>
     <use style="stroke:#000000;" x="440.410896" xlink:href="#mfe8c1201d8" y="201.147695"/>
     <use style="stroke:#000000;" x="414.692665" xlink:href="#mfe8c1201d8" y="209.191729"/>
     <use style="stroke:#000000;" x="421.122223" xlink:href="#mfe8c1201d8" y="207.050248"/>
     <use style="stroke:#000000;" x="412.549479" xlink:href="#mfe8c1201d8" y="195.55094"/>
     <use style="stroke:#000000;" x="420.05063" xlink:href="#mfe8c1201d8" y="199.084311"/>
     <use style="stroke:#000000;" x="444.697268" xlink:href="#mfe8c1201d8" y="177.676678"/>
     <use style="stroke:#000000;" x="406.119922" xlink:href="#mfe8c1201d8" y="227.369229"/>
     <use style="stroke:#000000;" x="406.119922" xlink:href="#mfe8c1201d8" y="228.180541"/>
     <use style="stroke:#000000;" x="420.05063" xlink:href="#mfe8c1201d8" y="187.36886"/>
     <use style="stroke:#000000;" x="390.046027" xlink:href="#mfe8c1201d8" y="272.88798"/>
     <use style="stroke:#000000;" x="401.83355" xlink:href="#mfe8c1201d8" y="234.429738"/>
     <use style="stroke:#000000;" x="443.625675" xlink:href="#mfe8c1201d8" y="195.295314"/>
     <use style="stroke:#000000;" x="457.556384" xlink:href="#mfe8c1201d8" y="207.232489"/>
     <use style="stroke:#000000;" x="558.286121" xlink:href="#mfe8c1201d8" y="167.413429"/>
     <use style="stroke:#000000;" x="375.043726" xlink:href="#mfe8c1201d8" y="194.12264"/>
     <use style="stroke:#000000;" x="385.759656" xlink:href="#mfe8c1201d8" y="203.612396"/>
     <use style="stroke:#000000;" x="405.048329" xlink:href="#mfe8c1201d8" y="181.90354"/>
     <use style="stroke:#000000;" x="560.429307" xlink:href="#mfe8c1201d8" y="164.985313"/>
    </g>
   </g>
   <g id="PolyCollection_1">
    <path clip-path="url(#pa5dec09e8b)" d="M 90 314.821587 
L 90 356.497647 
L 95.636364 353.847558 
L 101.272727 351.197469 
L 106.909091 348.54738 
L 112.545455 345.912856 
L 118.181818 343.362324 
L 123.818182 340.677521 
L 129.454545 337.989482 
L 135.090909 335.302407 
L 140.727273 332.652937 
L 146.363636 330.022848 
L 152 327.450214 
L 157.636364 324.859556 
L 163.272727 322.197532 
L 168.909091 319.531959 
L 174.545455 316.832801 
L 180.181818 314.106643 
L 185.818182 311.457172 
L 191.454545 308.807702 
L 197.090909 306.168937 
L 202.727273 303.549268 
L 208.363636 300.888543 
L 214 298.221625 
L 219.636364 295.561754 
L 225.272727 292.906042 
L 230.909091 290.349501 
L 236.545455 287.703354 
L 242.181818 285.152261 
L 247.818182 282.474129 
L 253.454545 279.670237 
L 259.090909 277.020979 
L 264.727273 274.371721 
L 270.363636 271.746547 
L 276 269.144357 
L 281.636364 266.553855 
L 287.272727 263.90988 
L 292.909091 261.262498 
L 298.545455 258.704892 
L 304.181818 256.094183 
L 309.818182 253.540536 
L 315.454545 250.986889 
L 321.090909 248.43349 
L 326.727273 245.750789 
L 332.363636 243.189635 
L 338 240.594036 
L 343.636364 238.08419 
L 349.272727 235.59274 
L 354.909091 233.107901 
L 360.545455 230.581182 
L 366.181818 228.059328 
L 371.818182 225.638054 
L 377.454545 223.059023 
L 383.090909 220.813667 
L 388.727273 218.46871 
L 394.363636 216.086695 
L 400 213.792842 
L 405.636364 211.389839 
L 411.272727 209.076157 
L 416.909091 206.828138 
L 422.545455 204.55873 
L 428.181818 202.351656 
L 433.818182 200.115432 
L 439.454545 197.87603 
L 445.090909 195.702178 
L 450.727273 193.608536 
L 456.363636 191.548237 
L 462 189.42392 
L 467.636364 187.343212 
L 473.272727 185.16719 
L 478.909091 183.161902 
L 484.545455 181.125744 
L 490.181818 179.022169 
L 495.818182 177.138093 
L 501.454545 175.095764 
L 507.090909 173.011944 
L 512.727273 171.013411 
L 518.363636 168.961381 
L 524 166.933631 
L 529.636364 164.933013 
L 535.272727 163.112355 
L 540.909091 161.183227 
L 546.545455 159.080931 
L 552.181818 156.957517 
L 557.818182 154.944959 
L 563.454545 153.072447 
L 569.090909 151.166353 
L 574.727273 149.266046 
L 580.363636 147.381439 
L 586 145.495738 
L 591.636364 143.561965 
L 597.272727 141.658332 
L 602.909091 139.657634 
L 608.545455 137.658315 
L 614.181818 135.658952 
L 619.818182 133.806162 
L 625.454545 131.740506 
L 631.090909 129.670486 
L 636.727273 127.707829 
L 642.363636 125.783184 
L 648 123.858539 
L 648 89.28 
L 648 89.28 
L 642.363636 91.944973 
L 636.727273 94.683798 
L 631.090909 97.427904 
L 625.454545 100.172035 
L 619.818182 102.850925 
L 614.181818 105.519074 
L 608.545455 108.187223 
L 602.909091 110.855373 
L 597.272727 113.523522 
L 591.636364 116.191671 
L 586 118.85982 
L 580.363636 121.528538 
L 574.727273 124.196786 
L 569.090909 126.864268 
L 563.454545 129.532417 
L 557.818182 132.215863 
L 552.181818 134.964123 
L 546.545455 137.68045 
L 540.909091 140.280688 
L 535.272727 142.968564 
L 529.636364 145.658674 
L 524 148.348812 
L 518.363636 150.898869 
L 512.727273 153.539239 
L 507.090909 156.1893 
L 501.454545 158.909308 
L 495.818182 161.526365 
L 490.181818 164.200018 
L 484.545455 166.810987 
L 478.909091 169.375862 
L 473.272727 171.989894 
L 467.636364 174.609764 
L 462 177.226152 
L 456.363636 179.82008 
L 450.727273 182.469322 
L 445.090909 185.075508 
L 439.454545 187.689984 
L 433.818182 190.275497 
L 428.181818 192.610877 
L 422.545455 194.99294 
L 416.909091 197.505477 
L 411.272727 200.040079 
L 405.636364 202.304039 
L 400 204.651208 
L 394.363636 206.934608 
L 388.727273 209.257398 
L 383.090909 211.520295 
L 377.454545 213.80568 
L 371.818182 215.976407 
L 366.181818 218.091921 
L 360.545455 220.123938 
L 354.909091 222.239021 
L 349.272727 224.266419 
L 343.636364 226.376492 
L 338 228.410606 
L 332.363636 230.512696 
L 326.727273 232.588846 
L 321.090909 234.624467 
L 315.454545 236.695214 
L 309.818182 238.765961 
L 304.181818 240.836709 
L 298.545455 242.837124 
L 292.909091 244.750203 
L 287.272727 246.74261 
L 281.636364 248.707794 
L 276 250.689781 
L 270.363636 252.699343 
L 264.727273 254.625034 
L 259.090909 256.553111 
L 253.454545 258.574654 
L 247.818182 260.546817 
L 242.181818 262.355993 
L 236.545455 264.241332 
L 230.909091 266.161578 
L 225.272727 268.085037 
L 219.636364 270.012442 
L 214 272.085684 
L 208.363636 274.174101 
L 202.727273 276.262518 
L 197.090909 278.350935 
L 191.454545 280.277458 
L 185.818182 282.196125 
L 180.181818 284.114791 
L 174.545455 286.033457 
L 168.909091 287.952123 
L 163.272727 289.870789 
L 157.636364 291.789456 
L 152 293.708122 
L 146.363636 295.626788 
L 140.727273 297.545454 
L 135.090909 299.464121 
L 129.454545 301.382787 
L 123.818182 303.301453 
L 118.181818 305.220976 
L 112.545455 307.141098 
L 106.909091 309.06122 
L 101.272727 310.981343 
L 95.636364 312.901465 
L 90 314.821587 
z
" style="fill-opacity:0.15;"/>
   </g>
   <g id="PathCollection_3">
    <defs>
     <path d="M 0 2.738613 
C 0.726289 2.738613 1.422928 2.450055 1.936492 1.936492 
C 2.450055 1.422928 2.738613 0.726289 2.738613 0 
C 2.738613 -0.726289 2.450055 -1.422928 1.936492 -1.936492 
C 1.422928 -2.450055 0.726289 -2.738613 0 -2.738613 
C -0.726289 -2.738613 -1.422928 -2.450055 -1.936492 -1.936492 
C -2.450055 -1.422928 -2.738613 -0.726289 -2.738613 0 
C -2.738613 0.726289 -2.450055 1.422928 -1.936492 1.936492 
C -1.422928 2.450055 -0.726289 2.738613 0 2.738613 
z
" id="mb5dbb4d495" style="stroke:#ff00ff;"/>
    </defs>
    <g clip-path="url(#pa5dec09e8b)">
     <use style="fill:#ff00ff;stroke:#ff00ff;" x="442.554082" xlink:href="#mb5dbb4d495" y="173.092255"/>
     <use style="fill:#ff00ff;stroke:#ff00ff;" x="351.468681" xlink:href="#mb5dbb4d495" y="192.000334"/>
     <use style="fill:#ff00ff;stroke:#ff00ff;" x="316.106114" xlink:href="#mb5dbb4d495" y="194.365048"/>
     <use style="fill:#ff00ff;stroke:#ff00ff;" x="238.951421" xlink:href="#mb5dbb4d495" y="240.021469"/>
     <use style="fill:#ff00ff;stroke:#ff00ff;" x="206.803632" xlink:href="#mb5dbb4d495" y="193.917683"/>
     <use style="fill:#ff00ff;stroke:#ff00ff;" x="327.893636" xlink:href="#mb5dbb4d495" y="196.708493"/>
     <use style="fill:#ff00ff;stroke:#ff00ff;" x="237.879828" xlink:href="#mb5dbb4d495" y="247.097528"/>
     <use style="fill:#ff00ff;stroke:#ff00ff;" x="233.593456" xlink:href="#mb5dbb4d495" y="413.821052"/>
     <use style="fill:#ff00ff;stroke:#ff00ff;" x="242.1662" xlink:href="#mb5dbb4d495" y="195.879147"/>
     <use style="fill:#ff00ff;stroke:#ff00ff;" x="189.658145" xlink:href="#mb5dbb4d495" y="218.823894"/>
     <use style="fill:#ff00ff;stroke:#ff00ff;" x="348.253902" xlink:href="#mb5dbb4d495" y="183.006153"/>
     <use style="fill:#ff00ff;stroke:#ff00ff;" x="368.614168" xlink:href="#mb5dbb4d495" y="184.260763"/>
     <use style="fill:#ff00ff;stroke:#ff00ff;" x="383.61647" xlink:href="#mb5dbb4d495" y="186.364709"/>
     <use style="fill:#ff00ff;stroke:#ff00ff;" x="425.408595" xlink:href="#mb5dbb4d495" y="154.576466"/>
     <use style="fill:#ff00ff;stroke:#ff00ff;" x="396.475585" xlink:href="#mb5dbb4d495" y="152.200416"/>
     <use style="fill:#ff00ff;stroke:#ff00ff;" x="393.260806" xlink:href="#mb5dbb4d495" y="188.870232"/>
     <use style="fill:#ff00ff;stroke:#ff00ff;" x="376.115319" xlink:href="#mb5dbb4d495" y="239.162264"/>
     <use style="fill:#ff00ff;stroke:#ff00ff;" x="411.477886" xlink:href="#mb5dbb4d495" y="236.069626"/>
     <use style="fill:#ff00ff;stroke:#ff00ff;" x="336.46638" xlink:href="#mb5dbb4d495" y="155.485454"/>
     <use style="fill:#ff00ff;stroke:#ff00ff;" x="313.962928" xlink:href="#mb5dbb4d495" y="278.522875"/>
     <use style="fill:#ff00ff;stroke:#ff00ff;" x="366.470982" xlink:href="#mb5dbb4d495" y="289.020669"/>
     <use style="fill:#ff00ff;stroke:#ff00ff;" x="541.140634" xlink:href="#mb5dbb4d495" y="199.367771"/>
     <use style="fill:#ff00ff;stroke:#ff00ff;" x="529.353112" xlink:href="#mb5dbb4d495" y="202.670263"/>
     <use style="fill:#ff00ff;stroke:#ff00ff;" x="445.768861" xlink:href="#mb5dbb4d495" y="205.704366"/>
     <use style="fill:#ff00ff;stroke:#ff00ff;" x="406.119922" xlink:href="#mb5dbb4d495" y="227.369229"/>
     <use style="fill:#ff00ff;stroke:#ff00ff;" x="406.119922" xlink:href="#mb5dbb4d495" y="228.180541"/>
     <use style="fill:#ff00ff;stroke:#ff00ff;" x="390.046027" xlink:href="#mb5dbb4d495" y="272.88798"/>
     <use style="fill:#ff00ff;stroke:#ff00ff;" x="401.83355" xlink:href="#mb5dbb4d495" y="234.429738"/>
     <use style="fill:#ff00ff;stroke:#ff00ff;" x="457.556384" xlink:href="#mb5dbb4d495" y="207.232489"/>
     <use style="fill:#ff00ff;stroke:#ff00ff;" x="558.286121" xlink:href="#mb5dbb4d495" y="167.413429"/>
     <use style="fill:#ff00ff;stroke:#ff00ff;" x="375.043726" xlink:href="#mb5dbb4d495" y="194.12264"/>
     <use style="fill:#ff00ff;stroke:#ff00ff;" x="405.048329" xlink:href="#mb5dbb4d495" y="181.90354"/>
     <use style="fill:#ff00ff;stroke:#ff00ff;" x="560.429307" xlink:href="#mb5dbb4d495" y="164.985313"/>
    </g>
   </g>
   <g id="matplotlib.axis_1">
    <g id="xtick_1">
     <g id="line2d_1">
      <defs>
       <path d="M 0 0 
L 0 3.5 
" id="mc44e8a38e2" style="stroke:#000000;stroke-width:0.8;"/>
      </defs>
      <g>
       <use style="stroke:#000000;stroke-width:0.8;" x="90" xlink:href="#mc44e8a38e2" y="516.64"/>
      </g>
     </g>
     <g id="text_1">
      <!-- 0 -->
      <defs>
       <path d="M 31.78125 66.40625 
Q 24.171875 66.40625 20.328125 58.90625 
Q 16.5 51.421875 16.5 36.375 
Q 16.5 21.390625 20.328125 13.890625 
Q 24.171875 6.390625 31.78125 6.390625 
Q 39.453125 6.390625 43.28125 13.890625 
Q 47.125 21.390625 47.125 36.375 
Q 47.125 51.421875 43.28125 58.90625 
Q 39.453125 66.40625 31.78125 66.40625 
z
M 31.78125 74.21875 
Q 44.046875 74.21875 50.515625 64.515625 
Q 56.984375 54.828125 56.984375 36.375 
Q 56.984375 17.96875 50.515625 8.265625 
Q 44.046875 -1.421875 31.78125 -1.421875 
Q 19.53125 -1.421875 13.0625 8.265625 
Q 6.59375 17.96875 6.59375 36.375 
Q 6.59375 54.828125 13.0625 64.515625 
Q 19.53125 74.21875 31.78125 74.21875 
z
" id="DejaVuSans-30"/>
      </defs>
      <g transform="translate(86.81875 531.238438)scale(0.1 -0.1)">
       <use xlink:href="#DejaVuSans-30"/>
      </g>
     </g>
    </g>
    <g id="xtick_2">
     <g id="line2d_2">
      <g>
       <use style="stroke:#000000;stroke-width:0.8;" x="183" xlink:href="#mc44e8a38e2" y="516.64"/>
      </g>
     </g>
     <g id="text_2">
      <!-- 200 -->
      <defs>
       <path d="M 19.1875 8.296875 
L 53.609375 8.296875 
L 53.609375 0 
L 7.328125 0 
L 7.328125 8.296875 
Q 12.9375 14.109375 22.625 23.890625 
Q 32.328125 33.6875 34.8125 36.53125 
Q 39.546875 41.84375 41.421875 45.53125 
Q 43.3125 49.21875 43.3125 52.78125 
Q 43.3125 58.59375 39.234375 62.25 
Q 35.15625 65.921875 28.609375 65.921875 
Q 23.96875 65.921875 18.8125 64.3125 
Q 13.671875 62.703125 7.8125 59.421875 
L 7.8125 69.390625 
Q 13.765625 71.78125 18.9375 73 
Q 24.125 74.21875 28.421875 74.21875 
Q 39.75 74.21875 46.484375 68.546875 
Q 53.21875 62.890625 53.21875 53.421875 
Q 53.21875 48.921875 51.53125 44.890625 
Q 49.859375 40.875 45.40625 35.40625 
Q 44.1875 33.984375 37.640625 27.21875 
Q 31.109375 20.453125 19.1875 8.296875 
z
" id="DejaVuSans-32"/>
      </defs>
      <g transform="translate(173.45625 531.238438)scale(0.1 -0.1)">
       <use xlink:href="#DejaVuSans-32"/>
       <use x="63.623047" xlink:href="#DejaVuSans-30"/>
       <use x="127.246094" xlink:href="#DejaVuSans-30"/>
      </g>
     </g>
    </g>
    <g id="xtick_3">
     <g id="line2d_3">
      <g>
       <use style="stroke:#000000;stroke-width:0.8;" x="276" xlink:href="#mc44e8a38e2" y="516.64"/>
      </g>
     </g>
     <g id="text_3">
      <!-- 400 -->
      <defs>
       <path d="M 37.796875 64.3125 
L 12.890625 25.390625 
L 37.796875 25.390625 
z
M 35.203125 72.90625 
L 47.609375 72.90625 
L 47.609375 25.390625 
L 58.015625 25.390625 
L 58.015625 17.1875 
L 47.609375 17.1875 
L 47.609375 0 
L 37.796875 0 
L 37.796875 17.1875 
L 4.890625 17.1875 
L 4.890625 26.703125 
z
" id="DejaVuSans-34"/>
      </defs>
      <g transform="translate(266.45625 531.238438)scale(0.1 -0.1)">
       <use xlink:href="#DejaVuSans-34"/>
       <use x="63.623047" xlink:href="#DejaVuSans-30"/>
       <use x="127.246094" xlink:href="#DejaVuSans-30"/>
      </g>
     </g>
    </g>
    <g id="xtick_4">
     <g id="line2d_4">
      <g>
       <use style="stroke:#000000;stroke-width:0.8;" x="369" xlink:href="#mc44e8a38e2" y="516.64"/>
      </g>
     </g>
     <g id="text_4">
      <!-- 600 -->
      <defs>
       <path d="M 33.015625 40.375 
Q 26.375 40.375 22.484375 35.828125 
Q 18.609375 31.296875 18.609375 23.390625 
Q 18.609375 15.53125 22.484375 10.953125 
Q 26.375 6.390625 33.015625 6.390625 
Q 39.65625 6.390625 43.53125 10.953125 
Q 47.40625 15.53125 47.40625 23.390625 
Q 47.40625 31.296875 43.53125 35.828125 
Q 39.65625 40.375 33.015625 40.375 
z
M 52.59375 71.296875 
L 52.59375 62.3125 
Q 48.875 64.0625 45.09375 64.984375 
Q 41.3125 65.921875 37.59375 65.921875 
Q 27.828125 65.921875 22.671875 59.328125 
Q 17.53125 52.734375 16.796875 39.40625 
Q 19.671875 43.65625 24.015625 45.921875 
Q 28.375 48.1875 33.59375 48.1875 
Q 44.578125 48.1875 50.953125 41.515625 
Q 57.328125 34.859375 57.328125 23.390625 
Q 57.328125 12.15625 50.6875 5.359375 
Q 44.046875 -1.421875 33.015625 -1.421875 
Q 20.359375 -1.421875 13.671875 8.265625 
Q 6.984375 17.96875 6.984375 36.375 
Q 6.984375 53.65625 15.1875 63.9375 
Q 23.390625 74.21875 37.203125 74.21875 
Q 40.921875 74.21875 44.703125 73.484375 
Q 48.484375 72.75 52.59375 71.296875 
z
" id="DejaVuSans-36"/>
      </defs>
      <g transform="translate(359.45625 531.238438)scale(0.1 -0.1)">
       <use xlink:href="#DejaVuSans-36"/>
       <use x="63.623047" xlink:href="#DejaVuSans-30"/>
       <use x="127.246094" xlink:href="#DejaVuSans-30"/>
      </g>
     </g>
    </g>
    <g id="xtick_5">
     <g id="line2d_5">
      <g>
       <use style="stroke:#000000;stroke-width:0.8;" x="462" xlink:href="#mc44e8a38e2" y="516.64"/>
      </g>
     </g>
     <g id="text_5">
      <!-- 800 -->
      <defs>
       <path d="M 31.78125 34.625 
Q 24.75 34.625 20.71875 30.859375 
Q 16.703125 27.09375 16.703125 20.515625 
Q 16.703125 13.921875 20.71875 10.15625 
Q 24.75 6.390625 31.78125 6.390625 
Q 38.8125 6.390625 42.859375 10.171875 
Q 46.921875 13.96875 46.921875 20.515625 
Q 46.921875 27.09375 42.890625 30.859375 
Q 38.875 34.625 31.78125 34.625 
z
M 21.921875 38.8125 
Q 15.578125 40.375 12.03125 44.71875 
Q 8.5 49.078125 8.5 55.328125 
Q 8.5 64.0625 14.71875 69.140625 
Q 20.953125 74.21875 31.78125 74.21875 
Q 42.671875 74.21875 48.875 69.140625 
Q 55.078125 64.0625 55.078125 55.328125 
Q 55.078125 49.078125 51.53125 44.71875 
Q 48 40.375 41.703125 38.8125 
Q 48.828125 37.15625 52.796875 32.3125 
Q 56.78125 27.484375 56.78125 20.515625 
Q 56.78125 9.90625 50.3125 4.234375 
Q 43.84375 -1.421875 31.78125 -1.421875 
Q 19.734375 -1.421875 13.25 4.234375 
Q 6.78125 9.90625 6.78125 20.515625 
Q 6.78125 27.484375 10.78125 32.3125 
Q 14.796875 37.15625 21.921875 38.8125 
z
M 18.3125 54.390625 
Q 18.3125 48.734375 21.84375 45.5625 
Q 25.390625 42.390625 31.78125 42.390625 
Q 38.140625 42.390625 41.71875 45.5625 
Q 45.3125 48.734375 45.3125 54.390625 
Q 45.3125 60.0625 41.71875 63.234375 
Q 38.140625 66.40625 31.78125 66.40625 
Q 25.390625 66.40625 21.84375 63.234375 
Q 18.3125 60.0625 18.3125 54.390625 
z
" id="DejaVuSans-38"/>
      </defs>
      <g transform="translate(452.45625 531.238438)scale(0.1 -0.1)">
       <use xlink:href="#DejaVuSans-38"/>
       <use x="63.623047" xlink:href="#DejaVuSans-30"/>
       <use x="127.246094" xlink:href="#DejaVuSans-30"/>
      </g>
     </g>
    </g>
    <g id="xtick_6">
     <g id="line2d_6">
      <g>
       <use style="stroke:#000000;stroke-width:0.8;" x="555" xlink:href="#mc44e8a38e2" y="516.64"/>
      </g>
     </g>
     <g id="text_6">
      <!-- 1000 -->
      <defs>
       <path d="M 12.40625 8.296875 
L 28.515625 8.296875 
L 28.515625 63.921875 
L 10.984375 60.40625 
L 10.984375 69.390625 
L 28.421875 72.90625 
L 38.28125 72.90625 
L 38.28125 8.296875 
L 54.390625 8.296875 
L 54.390625 0 
L 12.40625 0 
z
" id="DejaVuSans-31"/>
      </defs>
      <g transform="translate(542.275 531.238438)scale(0.1 -0.1)">
       <use xlink:href="#DejaVuSans-31"/>
       <use x="63.623047" xlink:href="#DejaVuSans-30"/>
       <use x="127.246094" xlink:href="#DejaVuSans-30"/>
       <use x="190.869141" xlink:href="#DejaVuSans-30"/>
      </g>
     </g>
    </g>
    <g id="xtick_7">
     <g id="line2d_7">
      <g>
       <use style="stroke:#000000;stroke-width:0.8;" x="648" xlink:href="#mc44e8a38e2" y="516.64"/>
      </g>
     </g>
     <g id="text_7">
      <!-- 1200 -->
      <g transform="translate(635.275 531.238438)scale(0.1 -0.1)">
       <use xlink:href="#DejaVuSans-31"/>
       <use x="63.623047" xlink:href="#DejaVuSans-32"/>
       <use x="127.246094" xlink:href="#DejaVuSans-30"/>
       <use x="190.869141" xlink:href="#DejaVuSans-30"/>
      </g>
     </g>
    </g>
    <g id="text_8">
     <!-- ypos_fov -->
     <defs>
      <path d="M 32.171875 -5.078125 
Q 28.375 -14.84375 24.75 -17.8125 
Q 21.140625 -20.796875 15.09375 -20.796875 
L 7.90625 -20.796875 
L 7.90625 -13.28125 
L 13.1875 -13.28125 
Q 16.890625 -13.28125 18.9375 -11.515625 
Q 21 -9.765625 23.484375 -3.21875 
L 25.09375 0.875 
L 2.984375 54.6875 
L 12.5 54.6875 
L 29.59375 11.921875 
L 46.6875 54.6875 
L 56.203125 54.6875 
z
" id="DejaVuSans-79"/>
      <path d="M 18.109375 8.203125 
L 18.109375 -20.796875 
L 9.078125 -20.796875 
L 9.078125 54.6875 
L 18.109375 54.6875 
L 18.109375 46.390625 
Q 20.953125 51.265625 25.265625 53.625 
Q 29.59375 56 35.59375 56 
Q 45.5625 56 51.78125 48.09375 
Q 58.015625 40.1875 58.015625 27.296875 
Q 58.015625 14.40625 51.78125 6.484375 
Q 45.5625 -1.421875 35.59375 -1.421875 
Q 29.59375 -1.421875 25.265625 0.953125 
Q 20.953125 3.328125 18.109375 8.203125 
z
M 48.6875 27.296875 
Q 48.6875 37.203125 44.609375 42.84375 
Q 40.53125 48.484375 33.40625 48.484375 
Q 26.265625 48.484375 22.1875 42.84375 
Q 18.109375 37.203125 18.109375 27.296875 
Q 18.109375 17.390625 22.1875 11.75 
Q 26.265625 6.109375 33.40625 6.109375 
Q 40.53125 6.109375 44.609375 11.75 
Q 48.6875 17.390625 48.6875 27.296875 
z
" id="DejaVuSans-70"/>
      <path d="M 30.609375 48.390625 
Q 23.390625 48.390625 19.1875 42.75 
Q 14.984375 37.109375 14.984375 27.296875 
Q 14.984375 17.484375 19.15625 11.84375 
Q 23.34375 6.203125 30.609375 6.203125 
Q 37.796875 6.203125 41.984375 11.859375 
Q 46.1875 17.53125 46.1875 27.296875 
Q 46.1875 37.015625 41.984375 42.703125 
Q 37.796875 48.390625 30.609375 48.390625 
z
M 30.609375 56 
Q 42.328125 56 49.015625 48.375 
Q 55.71875 40.765625 55.71875 27.296875 
Q 55.71875 13.875 49.015625 6.21875 
Q 42.328125 -1.421875 30.609375 -1.421875 
Q 18.84375 -1.421875 12.171875 6.21875 
Q 5.515625 13.875 5.515625 27.296875 
Q 5.515625 40.765625 12.171875 48.375 
Q 18.84375 56 30.609375 56 
z
" id="DejaVuSans-6f"/>
      <path d="M 44.28125 53.078125 
L 44.28125 44.578125 
Q 40.484375 46.53125 36.375 47.5 
Q 32.28125 48.484375 27.875 48.484375 
Q 21.1875 48.484375 17.84375 46.4375 
Q 14.5 44.390625 14.5 40.28125 
Q 14.5 37.15625 16.890625 35.375 
Q 19.28125 33.59375 26.515625 31.984375 
L 29.59375 31.296875 
Q 39.15625 29.25 43.1875 25.515625 
Q 47.21875 21.78125 47.21875 15.09375 
Q 47.21875 7.46875 41.1875 3.015625 
Q 35.15625 -1.421875 24.609375 -1.421875 
Q 20.21875 -1.421875 15.453125 -0.5625 
Q 10.6875 0.296875 5.421875 2 
L 5.421875 11.28125 
Q 10.40625 8.6875 15.234375 7.390625 
Q 20.0625 6.109375 24.8125 6.109375 
Q 31.15625 6.109375 34.5625 8.28125 
Q 37.984375 10.453125 37.984375 14.40625 
Q 37.984375 18.0625 35.515625 20.015625 
Q 33.0625 21.96875 24.703125 23.78125 
L 21.578125 24.515625 
Q 13.234375 26.265625 9.515625 29.90625 
Q 5.8125 33.546875 5.8125 39.890625 
Q 5.8125 47.609375 11.28125 51.796875 
Q 16.75 56 26.8125 56 
Q 31.78125 56 36.171875 55.265625 
Q 40.578125 54.546875 44.28125 53.078125 
z
" id="DejaVuSans-73"/>
      <path d="M 50.984375 -16.609375 
L 50.984375 -23.578125 
L -0.984375 -23.578125 
L -0.984375 -16.609375 
z
" id="DejaVuSans-5f"/>
      <path d="M 37.109375 75.984375 
L 37.109375 68.5 
L 28.515625 68.5 
Q 23.6875 68.5 21.796875 66.546875 
Q 19.921875 64.59375 19.921875 59.515625 
L 19.921875 54.6875 
L 34.71875 54.6875 
L 34.71875 47.703125 
L 19.921875 47.703125 
L 19.921875 0 
L 10.890625 0 
L 10.890625 47.703125 
L 2.296875 47.703125 
L 2.296875 54.6875 
L 10.890625 54.6875 
L 10.890625 58.5 
Q 10.890625 67.625 15.140625 71.796875 
Q 19.390625 75.984375 28.609375 75.984375 
z
" id="DejaVuSans-66"/>
      <path d="M 2.984375 54.6875 
L 12.5 54.6875 
L 29.59375 8.796875 
L 46.6875 54.6875 
L 56.203125 54.6875 
L 35.6875 0 
L 23.484375 0 
z
" id="DejaVuSans-76"/>
     </defs>
     <g transform="translate(346.923437 544.916563)scale(0.1 -0.1)">
      <use xlink:href="#DejaVuSans-79"/>
      <use x="59.179688" xlink:href="#DejaVuSans-70"/>
      <use x="122.65625" xlink:href="#DejaVuSans-6f"/>
      <use x="183.837891" xlink:href="#DejaVuSans-73"/>
      <use x="235.9375" xlink:href="#DejaVuSans-5f"/>
      <use x="285.9375" xlink:href="#DejaVuSans-66"/>
      <use x="321.142578" xlink:href="#DejaVuSans-6f"/>
      <use x="382.324219" xlink:href="#DejaVuSans-76"/>
     </g>
    </g>
   </g>
   <g id="matplotlib.axis_2">
    <g id="ytick_1">
     <g id="line2d_8">
      <defs>
       <path d="M 0 0 
L -3.5 0 
" id="m95b8c8c946" style="stroke:#000000;stroke-width:0.8;"/>
      </defs>
      <g>
       <use style="stroke:#000000;stroke-width:0.8;" x="86" xlink:href="#m95b8c8c946" y="404.77282"/>
      </g>
     </g>
     <g id="text_9">
      <!-- −35 -->
      <defs>
       <path d="M 10.59375 35.5 
L 73.1875 35.5 
L 73.1875 27.203125 
L 10.59375 27.203125 
z
" id="DejaVuSans-2212"/>
       <path d="M 40.578125 39.3125 
Q 47.65625 37.796875 51.625 33 
Q 55.609375 28.21875 55.609375 21.1875 
Q 55.609375 10.40625 48.1875 4.484375 
Q 40.765625 -1.421875 27.09375 -1.421875 
Q 22.515625 -1.421875 17.65625 -0.515625 
Q 12.796875 0.390625 7.625 2.203125 
L 7.625 11.71875 
Q 11.71875 9.328125 16.59375 8.109375 
Q 21.484375 6.890625 26.8125 6.890625 
Q 36.078125 6.890625 40.9375 10.546875 
Q 45.796875 14.203125 45.796875 21.1875 
Q 45.796875 27.640625 41.28125 31.265625 
Q 36.765625 34.90625 28.71875 34.90625 
L 20.21875 34.90625 
L 20.21875 43.015625 
L 29.109375 43.015625 
Q 36.375 43.015625 40.234375 45.921875 
Q 44.09375 48.828125 44.09375 54.296875 
Q 44.09375 59.90625 40.109375 62.90625 
Q 36.140625 65.921875 28.71875 65.921875 
Q 24.65625 65.921875 20.015625 65.03125 
Q 15.375 64.15625 9.8125 62.3125 
L 9.8125 71.09375 
Q 15.4375 72.65625 20.34375 73.4375 
Q 25.25 74.21875 29.59375 74.21875 
Q 40.828125 74.21875 47.359375 69.109375 
Q 53.90625 64.015625 53.90625 55.328125 
Q 53.90625 49.265625 50.4375 45.09375 
Q 46.96875 40.921875 40.578125 39.3125 
z
" id="DejaVuSans-33"/>
       <path d="M 10.796875 72.90625 
L 49.515625 72.90625 
L 49.515625 64.59375 
L 19.828125 64.59375 
L 19.828125 46.734375 
Q 21.96875 47.46875 24.109375 47.828125 
Q 26.265625 48.1875 28.421875 48.1875 
Q 40.625 48.1875 47.75 41.5 
Q 54.890625 34.8125 54.890625 23.390625 
Q 54.890625 11.625 47.5625 5.09375 
Q 40.234375 -1.421875 26.90625 -1.421875 
Q 22.3125 -1.421875 17.546875 -0.640625 
Q 12.796875 0.140625 7.71875 1.703125 
L 7.71875 11.625 
Q 12.109375 9.234375 16.796875 8.0625 
Q 21.484375 6.890625 26.703125 6.890625 
Q 35.15625 6.890625 40.078125 11.328125 
Q 45.015625 15.765625 45.015625 23.390625 
Q 45.015625 31 40.078125 35.4375 
Q 35.15625 39.890625 26.703125 39.890625 
Q 22.75 39.890625 18.8125 39.015625 
Q 14.890625 38.140625 10.796875 36.28125 
z
" id="DejaVuSans-35"/>
      </defs>
      <g transform="translate(57.895313 408.572039)scale(0.1 -0.1)">
       <use xlink:href="#DejaVuSans-2212"/>
       <use x="83.789062" xlink:href="#DejaVuSans-33"/>
       <use x="147.412109" xlink:href="#DejaVuSans-35"/>
      </g>
     </g>
    </g>
    <g id="ytick_2">
     <g id="line2d_9">
      <g>
       <use style="stroke:#000000;stroke-width:0.8;" x="86" xlink:href="#m95b8c8c946" y="356.463463"/>
      </g>
     </g>
     <g id="text_10">
      <!-- −30 -->
      <g transform="translate(57.895313 360.262682)scale(0.1 -0.1)">
       <use xlink:href="#DejaVuSans-2212"/>
       <use x="83.789062" xlink:href="#DejaVuSans-33"/>
       <use x="147.412109" xlink:href="#DejaVuSans-30"/>
      </g>
     </g>
    </g>
    <g id="ytick_3">
     <g id="line2d_10">
      <g>
       <use style="stroke:#000000;stroke-width:0.8;" x="86" xlink:href="#m95b8c8c946" y="308.154106"/>
      </g>
     </g>
     <g id="text_11">
      <!-- −25 -->
      <g transform="translate(57.895313 311.953325)scale(0.1 -0.1)">
       <use xlink:href="#DejaVuSans-2212"/>
       <use x="83.789062" xlink:href="#DejaVuSans-32"/>
       <use x="147.412109" xlink:href="#DejaVuSans-35"/>
      </g>
     </g>
    </g>
    <g id="ytick_4">
     <g id="line2d_11">
      <g>
       <use style="stroke:#000000;stroke-width:0.8;" x="86" xlink:href="#m95b8c8c946" y="259.844749"/>
      </g>
     </g>
     <g id="text_12">
      <!-- −20 -->
      <g transform="translate(57.895313 263.643968)scale(0.1 -0.1)">
       <use xlink:href="#DejaVuSans-2212"/>
       <use x="83.789062" xlink:href="#DejaVuSans-32"/>
       <use x="147.412109" xlink:href="#DejaVuSans-30"/>
      </g>
     </g>
    </g>
    <g id="ytick_5">
     <g id="line2d_12">
      <g>
       <use style="stroke:#000000;stroke-width:0.8;" x="86" xlink:href="#m95b8c8c946" y="211.535392"/>
      </g>
     </g>
     <g id="text_13">
      <!-- −15 -->
      <g transform="translate(57.895313 215.33461)scale(0.1 -0.1)">
       <use xlink:href="#DejaVuSans-2212"/>
       <use x="83.789062" xlink:href="#DejaVuSans-31"/>
       <use x="147.412109" xlink:href="#DejaVuSans-35"/>
      </g>
     </g>
    </g>
    <g id="ytick_6">
     <g id="line2d_13">
      <g>
       <use style="stroke:#000000;stroke-width:0.8;" x="86" xlink:href="#m95b8c8c946" y="163.226034"/>
      </g>
     </g>
     <g id="text_14">
      <!-- −10 -->
      <g transform="translate(57.895313 167.025253)scale(0.1 -0.1)">
       <use xlink:href="#DejaVuSans-2212"/>
       <use x="83.789062" xlink:href="#DejaVuSans-31"/>
       <use x="147.412109" xlink:href="#DejaVuSans-30"/>
      </g>
     </g>
    </g>
    <g id="ytick_7">
     <g id="line2d_14">
      <g>
       <use style="stroke:#000000;stroke-width:0.8;" x="86" xlink:href="#m95b8c8c946" y="114.916677"/>
      </g>
     </g>
     <g id="text_15">
      <!-- −5 -->
      <g transform="translate(64.257812 118.715896)scale(0.1 -0.1)">
       <use xlink:href="#DejaVuSans-2212"/>
       <use x="83.789062" xlink:href="#DejaVuSans-35"/>
      </g>
     </g>
    </g>
    <g id="text_16">
     <!-- ypos_rf -->
     <defs>
      <path d="M 41.109375 46.296875 
Q 39.59375 47.171875 37.8125 47.578125 
Q 36.03125 48 33.890625 48 
Q 26.265625 48 22.1875 43.046875 
Q 18.109375 38.09375 18.109375 28.8125 
L 18.109375 0 
L 9.078125 0 
L 9.078125 54.6875 
L 18.109375 54.6875 
L 18.109375 46.1875 
Q 20.953125 51.171875 25.484375 53.578125 
Q 30.03125 56 36.53125 56 
Q 37.453125 56 38.578125 55.875 
Q 39.703125 55.765625 41.0625 55.515625 
z
" id="DejaVuSans-72"/>
     </defs>
     <g transform="translate(51.5375 308.993281)rotate(-90)scale(0.1 -0.1)">
      <use xlink:href="#DejaVuSans-79"/>
      <use x="59.179688" xlink:href="#DejaVuSans-70"/>
      <use x="122.65625" xlink:href="#DejaVuSans-6f"/>
      <use x="183.837891" xlink:href="#DejaVuSans-73"/>
      <use x="235.9375" xlink:href="#DejaVuSans-5f"/>
      <use x="285.9375" xlink:href="#DejaVuSans-72"/>
      <use x="327.050781" xlink:href="#DejaVuSans-66"/>
     </g>
    </g>
   </g>
   <g id="LineCollection_1">
    <path clip-path="url(#pa5dec09e8b)" d="M 442.554082 183.665745 
L 442.554082 162.428978 
" style="fill:none;stroke:#ff00ff;stroke-opacity:0.7;"/>
    <path clip-path="url(#pa5dec09e8b)" d="M 351.468681 200.040328 
L 351.468681 184.178091 
" style="fill:none;stroke:#ff00ff;stroke-opacity:0.7;"/>
    <path clip-path="url(#pa5dec09e8b)" d="M 316.106114 217.062539 
L 316.106114 177.415577 
" style="fill:none;stroke:#ff00ff;stroke-opacity:0.7;"/>
    <path clip-path="url(#pa5dec09e8b)" d="M 238.951421 252.080636 
L 238.951421 229.032184 
" style="fill:none;stroke:#ff00ff;stroke-opacity:0.7;"/>
    <path clip-path="url(#pa5dec09e8b)" d="M 206.803632 200.549237 
L 206.803632 184.664427 
" style="fill:none;stroke:#ff00ff;stroke-opacity:0.7;"/>
    <path clip-path="url(#pa5dec09e8b)" d="M 327.893636 209.286672 
L 327.893636 183.722026 
" style="fill:none;stroke:#ff00ff;stroke-opacity:0.7;"/>
    <path clip-path="url(#pa5dec09e8b)" d="M 237.879828 262.276742 
L 237.879828 237.336531 
" style="fill:none;stroke:#ff00ff;stroke-opacity:0.7;"/>
    <path clip-path="url(#pa5dec09e8b)" d="M 233.593456 492.48 
L 233.593456 311.083505 
" style="fill:none;stroke:#ff00ff;stroke-opacity:0.7;"/>
    <path clip-path="url(#pa5dec09e8b)" d="M 242.1662 208.326683 
L 242.1662 184.433092 
" style="fill:none;stroke:#ff00ff;stroke-opacity:0.7;"/>
    <path clip-path="url(#pa5dec09e8b)" d="M 189.658145 252.943448 
L 189.658145 203.999695 
" style="fill:none;stroke:#ff00ff;stroke-opacity:0.7;"/>
    <path clip-path="url(#pa5dec09e8b)" d="M 348.253902 192.035639 
L 348.253902 174.565961 
" style="fill:none;stroke:#ff00ff;stroke-opacity:0.7;"/>
    <path clip-path="url(#pa5dec09e8b)" d="M 368.614168 204.981992 
L 368.614168 170.579982 
" style="fill:none;stroke:#ff00ff;stroke-opacity:0.7;"/>
    <path clip-path="url(#pa5dec09e8b)" d="M 383.61647 197.659308 
L 383.61647 176.809411 
" style="fill:none;stroke:#ff00ff;stroke-opacity:0.7;"/>
    <path clip-path="url(#pa5dec09e8b)" d="M 425.408595 165.350507 
L 425.408595 142.672368 
" style="fill:none;stroke:#ff00ff;stroke-opacity:0.7;"/>
    <path clip-path="url(#pa5dec09e8b)" d="M 396.475585 174.614503 
L 396.475585 133.912126 
" style="fill:none;stroke:#ff00ff;stroke-opacity:0.7;"/>
    <path clip-path="url(#pa5dec09e8b)" d="M 393.260806 206.779335 
L 393.260806 177.127412 
" style="fill:none;stroke:#ff00ff;stroke-opacity:0.7;"/>
    <path clip-path="url(#pa5dec09e8b)" d="M 376.115319 252.600563 
L 376.115319 227.310553 
" style="fill:none;stroke:#ff00ff;stroke-opacity:0.7;"/>
    <path clip-path="url(#pa5dec09e8b)" d="M 411.477886 250.627271 
L 411.477886 223.044658 
" style="fill:none;stroke:#ff00ff;stroke-opacity:0.7;"/>
    <path clip-path="url(#pa5dec09e8b)" d="M 336.46638 176.948523 
L 336.46638 134.942725 
" style="fill:none;stroke:#ff00ff;stroke-opacity:0.7;"/>
    <path clip-path="url(#pa5dec09e8b)" d="M 313.962928 323.633459 
L 313.962928 251.768608 
" style="fill:none;stroke:#ff00ff;stroke-opacity:0.7;"/>
    <path clip-path="url(#pa5dec09e8b)" d="M 366.470982 437.843332 
L 366.470982 243.139001 
" style="fill:none;stroke:#ff00ff;stroke-opacity:0.7;"/>
    <path clip-path="url(#pa5dec09e8b)" d="M 541.140634 212.144871 
L 541.140634 187.495964 
" style="fill:none;stroke:#ff00ff;stroke-opacity:0.7;"/>
    <path clip-path="url(#pa5dec09e8b)" d="M 529.353112 228.942841 
L 529.353112 187.716938 
" style="fill:none;stroke:#ff00ff;stroke-opacity:0.7;"/>
    <path clip-path="url(#pa5dec09e8b)" d="M 445.768861 218.594025 
L 445.768861 195.379406 
" style="fill:none;stroke:#ff00ff;stroke-opacity:0.7;"/>
    <path clip-path="url(#pa5dec09e8b)" d="M 406.119922 237.532512 
L 406.119922 220.493581 
" style="fill:none;stroke:#ff00ff;stroke-opacity:0.7;"/>
    <path clip-path="url(#pa5dec09e8b)" d="M 406.119922 237.616235 
L 406.119922 221.500021 
" style="fill:none;stroke:#ff00ff;stroke-opacity:0.7;"/>
    <path clip-path="url(#pa5dec09e8b)" d="M 390.046027 297.038961 
L 390.046027 257.332375 
" style="fill:none;stroke:#ff00ff;stroke-opacity:0.7;"/>
    <path clip-path="url(#pa5dec09e8b)" d="M 401.83355 250.341903 
L 401.83355 213.662177 
" style="fill:none;stroke:#ff00ff;stroke-opacity:0.7;"/>
    <path clip-path="url(#pa5dec09e8b)" d="M 457.556384 239.005545 
L 457.556384 190.97169 
" style="fill:none;stroke:#ff00ff;stroke-opacity:0.7;"/>
    <path clip-path="url(#pa5dec09e8b)" d="M 558.286121 178.963644 
L 558.286121 156.760157 
" style="fill:none;stroke:#ff00ff;stroke-opacity:0.7;"/>
    <path clip-path="url(#pa5dec09e8b)" d="M 375.043726 209.845245 
L 375.043726 182.985311 
" style="fill:none;stroke:#ff00ff;stroke-opacity:0.7;"/>
    <path clip-path="url(#pa5dec09e8b)" d="M 405.048329 196.321211 
L 405.048329 167.664051 
" style="fill:none;stroke:#ff00ff;stroke-opacity:0.7;"/>
    <path clip-path="url(#pa5dec09e8b)" d="M 560.429307 179.122298 
L 560.429307 154.797172 
" style="fill:none;stroke:#ff00ff;stroke-opacity:0.7;"/>
   </g>
   <g id="line2d_15">
    <path clip-path="url(#pa5dec09e8b)" d="M 90 337.14225 
L 95.636364 334.813441 
L 101.272727 332.484632 
L 106.909091 330.155823 
L 112.545455 327.827014 
L 118.181818 325.498205 
L 123.818182 323.169396 
L 129.454545 320.840587 
L 135.090909 318.511778 
L 140.727273 316.182969 
L 146.363636 313.85416 
L 152 311.525351 
L 157.636364 309.196542 
L 163.272727 306.867733 
L 168.909091 304.538924 
L 174.545455 302.210115 
L 180.181818 299.881306 
L 185.818182 297.552497 
L 191.454545 295.223688 
L 197.090909 292.894879 
L 202.727273 290.566069 
L 208.363636 288.23726 
L 214 285.908451 
L 219.636364 283.579642 
L 225.272727 281.250833 
L 230.909091 278.922024 
L 236.545455 276.593215 
L 242.181818 274.264406 
L 247.818182 271.935597 
L 253.454545 269.606788 
L 259.090909 267.277979 
L 264.727273 264.94917 
L 270.363636 262.620361 
L 276 260.291552 
L 281.636364 257.962743 
L 287.272727 255.633934 
L 292.909091 253.305125 
L 298.545455 250.976316 
L 304.181818 248.647507 
L 309.818182 246.318698 
L 315.454545 243.989889 
L 321.090909 241.66108 
L 326.727273 239.332271 
L 332.363636 237.003462 
L 338 234.674653 
L 343.636364 232.345843 
L 349.272727 230.017034 
L 354.909091 227.688225 
L 360.545455 225.359416 
L 366.181818 223.030607 
L 371.818182 220.701798 
L 377.454545 218.372989 
L 383.090909 216.04418 
L 388.727273 213.715371 
L 394.363636 211.386562 
L 400 209.057753 
L 405.636364 206.728944 
L 411.272727 204.400135 
L 416.909091 202.071326 
L 422.545455 199.742517 
L 428.181818 197.413708 
L 433.818182 195.084899 
L 439.454545 192.75609 
L 445.090909 190.427281 
L 450.727273 188.098472 
L 456.363636 185.769663 
L 462 183.440854 
L 467.636364 181.112045 
L 473.272727 178.783236 
L 478.909091 176.454427 
L 484.545455 174.125617 
L 490.181818 171.796808 
L 495.818182 169.467999 
L 501.454545 167.13919 
L 507.090909 164.810381 
L 512.727273 162.481572 
L 518.363636 160.152763 
L 524 157.823954 
L 529.636364 155.495145 
L 535.272727 153.166336 
L 540.909091 150.837527 
L 546.545455 148.508718 
L 552.181818 146.179909 
L 557.818182 143.8511 
L 563.454545 141.522291 
L 569.090909 139.193482 
L 574.727273 136.864673 
L 580.363636 134.535864 
L 586 132.207055 
L 591.636364 129.878246 
L 597.272727 127.549437 
L 602.909091 125.220628 
L 608.545455 122.891819 
L 614.181818 120.56301 
L 619.818182 118.2342 
L 625.454545 115.905391 
L 631.090909 113.576582 
L 636.727273 111.247773 
L 642.363636 108.918964 
L 648 106.590155 
" style="fill:none;stroke:#000000;stroke-linecap:square;stroke-width:2.25;"/>
   </g>
   <g id="patch_3">
    <path d="M 86 404.77282 
L 86 114.916677 
" style="fill:none;stroke:#000000;stroke-linecap:square;stroke-linejoin:miter;stroke-width:0.8;"/>
   </g>
   <g id="patch_4">
    <path d="M 90 516.64 
L 648 516.64 
" style="fill:none;stroke:#000000;stroke-linecap:square;stroke-linejoin:miter;stroke-width:0.8;"/>
   </g>
   <g id="text_17">
    <!-- elevation -->
    <defs>
     <path d="M 56.203125 29.59375 
L 56.203125 25.203125 
L 14.890625 25.203125 
Q 15.484375 15.921875 20.484375 11.0625 
Q 25.484375 6.203125 34.421875 6.203125 
Q 39.59375 6.203125 44.453125 7.46875 
Q 49.3125 8.734375 54.109375 11.28125 
L 54.109375 2.78125 
Q 49.265625 0.734375 44.1875 -0.34375 
Q 39.109375 -1.421875 33.890625 -1.421875 
Q 20.796875 -1.421875 13.15625 6.1875 
Q 5.515625 13.8125 5.515625 26.8125 
Q 5.515625 40.234375 12.765625 48.109375 
Q 20.015625 56 32.328125 56 
Q 43.359375 56 49.78125 48.890625 
Q 56.203125 41.796875 56.203125 29.59375 
z
M 47.21875 32.234375 
Q 47.125 39.59375 43.09375 43.984375 
Q 39.0625 48.390625 32.421875 48.390625 
Q 24.90625 48.390625 20.390625 44.140625 
Q 15.875 39.890625 15.1875 32.171875 
z
" id="DejaVuSans-65"/>
     <path d="M 9.421875 75.984375 
L 18.40625 75.984375 
L 18.40625 0 
L 9.421875 0 
z
" id="DejaVuSans-6c"/>
     <path d="M 34.28125 27.484375 
Q 23.390625 27.484375 19.1875 25 
Q 14.984375 22.515625 14.984375 16.5 
Q 14.984375 11.71875 18.140625 8.90625 
Q 21.296875 6.109375 26.703125 6.109375 
Q 34.1875 6.109375 38.703125 11.40625 
Q 43.21875 16.703125 43.21875 25.484375 
L 43.21875 27.484375 
z
M 52.203125 31.203125 
L 52.203125 0 
L 43.21875 0 
L 43.21875 8.296875 
Q 40.140625 3.328125 35.546875 0.953125 
Q 30.953125 -1.421875 24.3125 -1.421875 
Q 15.921875 -1.421875 10.953125 3.296875 
Q 6 8.015625 6 15.921875 
Q 6 25.140625 12.171875 29.828125 
Q 18.359375 34.515625 30.609375 34.515625 
L 43.21875 34.515625 
L 43.21875 35.40625 
Q 43.21875 41.609375 39.140625 45 
Q 35.0625 48.390625 27.6875 48.390625 
Q 23 48.390625 18.546875 47.265625 
Q 14.109375 46.140625 10.015625 43.890625 
L 10.015625 52.203125 
Q 14.9375 54.109375 19.578125 55.046875 
Q 24.21875 56 28.609375 56 
Q 40.484375 56 46.34375 49.84375 
Q 52.203125 43.703125 52.203125 31.203125 
z
" id="DejaVuSans-61"/>
     <path d="M 18.3125 70.21875 
L 18.3125 54.6875 
L 36.8125 54.6875 
L 36.8125 47.703125 
L 18.3125 47.703125 
L 18.3125 18.015625 
Q 18.3125 11.328125 20.140625 9.421875 
Q 21.96875 7.515625 27.59375 7.515625 
L 36.8125 7.515625 
L 36.8125 0 
L 27.59375 0 
Q 17.1875 0 13.234375 3.875 
Q 9.28125 7.765625 9.28125 18.015625 
L 9.28125 47.703125 
L 2.6875 47.703125 
L 2.6875 54.6875 
L 9.28125 54.6875 
L 9.28125 70.21875 
z
" id="DejaVuSans-74"/>
     <path d="M 9.421875 54.6875 
L 18.40625 54.6875 
L 18.40625 0 
L 9.421875 0 
z
M 9.421875 75.984375 
L 18.40625 75.984375 
L 18.40625 64.59375 
L 9.421875 64.59375 
z
" id="DejaVuSans-69"/>
     <path d="M 54.890625 33.015625 
L 54.890625 0 
L 45.90625 0 
L 45.90625 32.71875 
Q 45.90625 40.484375 42.875 44.328125 
Q 39.84375 48.1875 33.796875 48.1875 
Q 26.515625 48.1875 22.3125 43.546875 
Q 18.109375 38.921875 18.109375 30.90625 
L 18.109375 0 
L 9.078125 0 
L 9.078125 54.6875 
L 18.109375 54.6875 
L 18.109375 46.1875 
Q 21.34375 51.125 25.703125 53.5625 
Q 30.078125 56 35.796875 56 
Q 45.21875 56 50.046875 50.171875 
Q 54.890625 44.34375 54.890625 33.015625 
z
" id="DejaVuSans-6e"/>
    </defs>
    <g transform="translate(341.228437 63.12)scale(0.12 -0.12)">
     <use xlink:href="#DejaVuSans-65"/>
     <use x="61.523438" xlink:href="#DejaVuSans-6c"/>
     <use x="89.306641" xlink:href="#DejaVuSans-65"/>
     <use x="150.830078" xlink:href="#DejaVuSans-76"/>
     <use x="210.009766" xlink:href="#DejaVuSans-61"/>
     <use x="271.289062" xlink:href="#DejaVuSans-74"/>
     <use x="310.498047" xlink:href="#DejaVuSans-69"/>
     <use x="338.28125" xlink:href="#DejaVuSans-6f"/>
     <use x="399.462891" xlink:href="#DejaVuSans-6e"/>
    </g>
   </g>
   <g id="text_18">
    <!-- y=0.02x + -28.00 -->
    <defs>
     <path d="M 10.59375 45.40625 
L 73.1875 45.40625 
L 73.1875 37.203125 
L 10.59375 37.203125 
z
M 10.59375 25.484375 
L 73.1875 25.484375 
L 73.1875 17.1875 
L 10.59375 17.1875 
z
" id="DejaVuSans-3d"/>
     <path d="M 10.6875 12.40625 
L 21 12.40625 
L 21 0 
L 10.6875 0 
z
" id="DejaVuSans-2e"/>
     <path d="M 54.890625 54.6875 
L 35.109375 28.078125 
L 55.90625 0 
L 45.3125 0 
L 29.390625 21.484375 
L 13.484375 0 
L 2.875 0 
L 24.125 28.609375 
L 4.6875 54.6875 
L 15.28125 54.6875 
L 29.78125 35.203125 
L 44.28125 54.6875 
z
" id="DejaVuSans-78"/>
     <path id="DejaVuSans-20"/>
     <path d="M 46 62.703125 
L 46 35.5 
L 73.1875 35.5 
L 73.1875 27.203125 
L 46 27.203125 
L 46 0 
L 37.796875 0 
L 37.796875 27.203125 
L 10.59375 27.203125 
L 10.59375 35.5 
L 37.796875 35.5 
L 37.796875 62.703125 
z
" id="DejaVuSans-2b"/>
     <path d="M 4.890625 31.390625 
L 31.203125 31.390625 
L 31.203125 23.390625 
L 4.890625 23.390625 
z
" id="DejaVuSans-2d"/>
    </defs>
    <g transform="translate(90 63.12)scale(0.12 -0.12)">
     <use xlink:href="#DejaVuSans-79"/>
     <use x="59.179688" xlink:href="#DejaVuSans-3d"/>
     <use x="142.96875" xlink:href="#DejaVuSans-30"/>
     <use x="206.591797" xlink:href="#DejaVuSans-2e"/>
     <use x="238.378906" xlink:href="#DejaVuSans-30"/>
     <use x="302.001953" xlink:href="#DejaVuSans-32"/>
     <use x="365.625" xlink:href="#DejaVuSans-78"/>
     <use x="424.804688" xlink:href="#DejaVuSans-20"/>
     <use x="456.591797" xlink:href="#DejaVuSans-2b"/>
     <use x="540.380859" xlink:href="#DejaVuSans-20"/>
     <use x="572.167969" xlink:href="#DejaVuSans-2d"/>
     <use x="608.251953" xlink:href="#DejaVuSans-32"/>
     <use x="671.875" xlink:href="#DejaVuSans-38"/>
     <use x="735.498047" xlink:href="#DejaVuSans-2e"/>
     <use x="767.285156" xlink:href="#DejaVuSans-30"/>
     <use x="830.908203" xlink:href="#DejaVuSans-30"/>
    </g>
   </g>
   <g id="legend_1">
    <g id="patch_5">
     <path d="M 97 121.154375 
L 227.475 121.154375 
Q 229.475 121.154375 229.475 119.154375 
L 229.475 76.12 
Q 229.475 74.12 227.475 74.12 
L 97 74.12 
Q 95 74.12 95 76.12 
L 95 119.154375 
Q 95 121.154375 97 121.154375 
z
" style="fill:#ffffff;opacity:0.8;stroke:#cccccc;stroke-linejoin:miter;"/>
    </g>
    <g id="PathCollection_4">
     <defs>
      <path d="M -2.738613 2.738613 
L 2.738613 -2.738613 
M -2.738613 -2.738613 
L 2.738613 2.738613 
" id="m1cdb6121b7" style="stroke:#808080;stroke-opacity:0.5;stroke-width:1.5;"/>
     </defs>
     <g>
      <use style="fill:#808080;fill-opacity:0.5;stroke:#808080;stroke-opacity:0.5;stroke-width:1.5;" x="109" xlink:href="#m1cdb6121b7" y="83.093438"/>
     </g>
    </g>
    <g id="text_19">
     <!-- unreliable (R2&gt;0.5) -->
     <defs>
      <path d="M 8.5 21.578125 
L 8.5 54.6875 
L 17.484375 54.6875 
L 17.484375 21.921875 
Q 17.484375 14.15625 20.5 10.265625 
Q 23.53125 6.390625 29.59375 6.390625 
Q 36.859375 6.390625 41.078125 11.03125 
Q 45.3125 15.671875 45.3125 23.6875 
L 45.3125 54.6875 
L 54.296875 54.6875 
L 54.296875 0 
L 45.3125 0 
L 45.3125 8.40625 
Q 42.046875 3.421875 37.71875 1 
Q 33.40625 -1.421875 27.6875 -1.421875 
Q 18.265625 -1.421875 13.375 4.4375 
Q 8.5 10.296875 8.5 21.578125 
z
M 31.109375 56 
z
" id="DejaVuSans-75"/>
      <path d="M 48.6875 27.296875 
Q 48.6875 37.203125 44.609375 42.84375 
Q 40.53125 48.484375 33.40625 48.484375 
Q 26.265625 48.484375 22.1875 42.84375 
Q 18.109375 37.203125 18.109375 27.296875 
Q 18.109375 17.390625 22.1875 11.75 
Q 26.265625 6.109375 33.40625 6.109375 
Q 40.53125 6.109375 44.609375 11.75 
Q 48.6875 17.390625 48.6875 27.296875 
z
M 18.109375 46.390625 
Q 20.953125 51.265625 25.265625 53.625 
Q 29.59375 56 35.59375 56 
Q 45.5625 56 51.78125 48.09375 
Q 58.015625 40.1875 58.015625 27.296875 
Q 58.015625 14.40625 51.78125 6.484375 
Q 45.5625 -1.421875 35.59375 -1.421875 
Q 29.59375 -1.421875 25.265625 0.953125 
Q 20.953125 3.328125 18.109375 8.203125 
L 18.109375 0 
L 9.078125 0 
L 9.078125 75.984375 
L 18.109375 75.984375 
z
" id="DejaVuSans-62"/>
      <path d="M 31 75.875 
Q 24.46875 64.65625 21.28125 53.65625 
Q 18.109375 42.671875 18.109375 31.390625 
Q 18.109375 20.125 21.3125 9.0625 
Q 24.515625 -2 31 -13.1875 
L 23.1875 -13.1875 
Q 15.875 -1.703125 12.234375 9.375 
Q 8.59375 20.453125 8.59375 31.390625 
Q 8.59375 42.28125 12.203125 53.3125 
Q 15.828125 64.359375 23.1875 75.875 
z
" id="DejaVuSans-28"/>
      <path d="M 44.390625 34.1875 
Q 47.5625 33.109375 50.5625 29.59375 
Q 53.5625 26.078125 56.59375 19.921875 
L 66.609375 0 
L 56 0 
L 46.6875 18.703125 
Q 43.0625 26.03125 39.671875 28.421875 
Q 36.28125 30.8125 30.421875 30.8125 
L 19.671875 30.8125 
L 19.671875 0 
L 9.8125 0 
L 9.8125 72.90625 
L 32.078125 72.90625 
Q 44.578125 72.90625 50.734375 67.671875 
Q 56.890625 62.453125 56.890625 51.90625 
Q 56.890625 45.015625 53.6875 40.46875 
Q 50.484375 35.9375 44.390625 34.1875 
z
M 19.671875 64.796875 
L 19.671875 38.921875 
L 32.078125 38.921875 
Q 39.203125 38.921875 42.84375 42.21875 
Q 46.484375 45.515625 46.484375 51.90625 
Q 46.484375 58.296875 42.84375 61.546875 
Q 39.203125 64.796875 32.078125 64.796875 
z
" id="DejaVuSans-52"/>
      <path d="M 10.59375 49.21875 
L 10.59375 58.109375 
L 73.1875 35.40625 
L 73.1875 27.296875 
L 10.59375 4.59375 
L 10.59375 13.484375 
L 60.890625 31.296875 
z
" id="DejaVuSans-3e"/>
      <path d="M 8.015625 75.875 
L 15.828125 75.875 
Q 23.140625 64.359375 26.78125 53.3125 
Q 30.421875 42.28125 30.421875 31.390625 
Q 30.421875 20.453125 26.78125 9.375 
Q 23.140625 -1.703125 15.828125 -13.1875 
L 8.015625 -13.1875 
Q 14.5 -2 17.703125 9.0625 
Q 20.90625 20.125 20.90625 31.390625 
Q 20.90625 42.671875 17.703125 53.65625 
Q 14.5 64.65625 8.015625 75.875 
z
" id="DejaVuSans-29"/>
     </defs>
     <g transform="translate(127 85.718438)scale(0.1 -0.1)">
      <use xlink:href="#DejaVuSans-75"/>
      <use x="63.378906" xlink:href="#DejaVuSans-6e"/>
      <use x="126.757812" xlink:href="#DejaVuSans-72"/>
      <use x="167.839844" xlink:href="#DejaVuSans-65"/>
      <use x="229.363281" xlink:href="#DejaVuSans-6c"/>
      <use x="257.146484" xlink:href="#DejaVuSans-69"/>
      <use x="284.929688" xlink:href="#DejaVuSans-61"/>
      <use x="346.208984" xlink:href="#DejaVuSans-62"/>
      <use x="409.685547" xlink:href="#DejaVuSans-6c"/>
      <use x="437.46875" xlink:href="#DejaVuSans-65"/>
      <use x="498.992188" xlink:href="#DejaVuSans-20"/>
      <use x="530.779297" xlink:href="#DejaVuSans-28"/>
      <use x="569.792969" xlink:href="#DejaVuSans-52"/>
      <use x="639.275391" xlink:href="#DejaVuSans-32"/>
      <use x="702.898438" xlink:href="#DejaVuSans-3e"/>
      <use x="786.6875" xlink:href="#DejaVuSans-30"/>
      <use x="850.310547" xlink:href="#DejaVuSans-2e"/>
      <use x="882.097656" xlink:href="#DejaVuSans-35"/>
      <use x="945.720703" xlink:href="#DejaVuSans-29"/>
     </g>
    </g>
    <g id="PathCollection_5">
     <g>
      <use style="stroke:#000000;" x="109" xlink:href="#mfe8c1201d8" y="97.771563"/>
     </g>
    </g>
    <g id="text_20">
     <!-- reliable (95% CI) -->
     <defs>
      <path d="M 10.984375 1.515625 
L 10.984375 10.5 
Q 14.703125 8.734375 18.5 7.8125 
Q 22.3125 6.890625 25.984375 6.890625 
Q 35.75 6.890625 40.890625 13.453125 
Q 46.046875 20.015625 46.78125 33.40625 
Q 43.953125 29.203125 39.59375 26.953125 
Q 35.25 24.703125 29.984375 24.703125 
Q 19.046875 24.703125 12.671875 31.3125 
Q 6.296875 37.9375 6.296875 49.421875 
Q 6.296875 60.640625 12.9375 67.421875 
Q 19.578125 74.21875 30.609375 74.21875 
Q 43.265625 74.21875 49.921875 64.515625 
Q 56.59375 54.828125 56.59375 36.375 
Q 56.59375 19.140625 48.40625 8.859375 
Q 40.234375 -1.421875 26.421875 -1.421875 
Q 22.703125 -1.421875 18.890625 -0.6875 
Q 15.09375 0.046875 10.984375 1.515625 
z
M 30.609375 32.421875 
Q 37.25 32.421875 41.125 36.953125 
Q 45.015625 41.5 45.015625 49.421875 
Q 45.015625 57.28125 41.125 61.84375 
Q 37.25 66.40625 30.609375 66.40625 
Q 23.96875 66.40625 20.09375 61.84375 
Q 16.21875 57.28125 16.21875 49.421875 
Q 16.21875 41.5 20.09375 36.953125 
Q 23.96875 32.421875 30.609375 32.421875 
z
" id="DejaVuSans-39"/>
      <path d="M 72.703125 32.078125 
Q 68.453125 32.078125 66.03125 28.46875 
Q 63.625 24.859375 63.625 18.40625 
Q 63.625 12.0625 66.03125 8.421875 
Q 68.453125 4.78125 72.703125 4.78125 
Q 76.859375 4.78125 79.265625 8.421875 
Q 81.6875 12.0625 81.6875 18.40625 
Q 81.6875 24.8125 79.265625 28.4375 
Q 76.859375 32.078125 72.703125 32.078125 
z
M 72.703125 38.28125 
Q 80.421875 38.28125 84.953125 32.90625 
Q 89.5 27.546875 89.5 18.40625 
Q 89.5 9.28125 84.9375 3.921875 
Q 80.375 -1.421875 72.703125 -1.421875 
Q 64.890625 -1.421875 60.34375 3.921875 
Q 55.8125 9.28125 55.8125 18.40625 
Q 55.8125 27.59375 60.375 32.9375 
Q 64.9375 38.28125 72.703125 38.28125 
z
M 22.3125 68.015625 
Q 18.109375 68.015625 15.6875 64.375 
Q 13.28125 60.75 13.28125 54.390625 
Q 13.28125 47.953125 15.671875 44.328125 
Q 18.0625 40.71875 22.3125 40.71875 
Q 26.5625 40.71875 28.96875 44.328125 
Q 31.390625 47.953125 31.390625 54.390625 
Q 31.390625 60.6875 28.953125 64.34375 
Q 26.515625 68.015625 22.3125 68.015625 
z
M 66.40625 74.21875 
L 74.21875 74.21875 
L 28.609375 -1.421875 
L 20.796875 -1.421875 
z
M 22.3125 74.21875 
Q 30.03125 74.21875 34.609375 68.875 
Q 39.203125 63.53125 39.203125 54.390625 
Q 39.203125 45.171875 34.640625 39.84375 
Q 30.078125 34.515625 22.3125 34.515625 
Q 14.546875 34.515625 10.03125 39.859375 
Q 5.515625 45.21875 5.515625 54.390625 
Q 5.515625 63.484375 10.046875 68.84375 
Q 14.59375 74.21875 22.3125 74.21875 
z
" id="DejaVuSans-25"/>
      <path d="M 64.40625 67.28125 
L 64.40625 56.890625 
Q 59.421875 61.53125 53.78125 63.8125 
Q 48.140625 66.109375 41.796875 66.109375 
Q 29.296875 66.109375 22.65625 58.46875 
Q 16.015625 50.828125 16.015625 36.375 
Q 16.015625 21.96875 22.65625 14.328125 
Q 29.296875 6.6875 41.796875 6.6875 
Q 48.140625 6.6875 53.78125 8.984375 
Q 59.421875 11.28125 64.40625 15.921875 
L 64.40625 5.609375 
Q 59.234375 2.09375 53.4375 0.328125 
Q 47.65625 -1.421875 41.21875 -1.421875 
Q 24.65625 -1.421875 15.125 8.703125 
Q 5.609375 18.84375 5.609375 36.375 
Q 5.609375 53.953125 15.125 64.078125 
Q 24.65625 74.21875 41.21875 74.21875 
Q 47.75 74.21875 53.53125 72.484375 
Q 59.328125 70.75 64.40625 67.28125 
z
" id="DejaVuSans-43"/>
      <path d="M 9.8125 72.90625 
L 19.671875 72.90625 
L 19.671875 0 
L 9.8125 0 
z
" id="DejaVuSans-49"/>
     </defs>
     <g transform="translate(127 100.396563)scale(0.1 -0.1)">
      <use xlink:href="#DejaVuSans-72"/>
      <use x="41.082031" xlink:href="#DejaVuSans-65"/>
      <use x="102.605469" xlink:href="#DejaVuSans-6c"/>
      <use x="130.388672" xlink:href="#DejaVuSans-69"/>
      <use x="158.171875" xlink:href="#DejaVuSans-61"/>
      <use x="219.451172" xlink:href="#DejaVuSans-62"/>
      <use x="282.927734" xlink:href="#DejaVuSans-6c"/>
      <use x="310.710938" xlink:href="#DejaVuSans-65"/>
      <use x="372.234375" xlink:href="#DejaVuSans-20"/>
      <use x="404.021484" xlink:href="#DejaVuSans-28"/>
      <use x="443.035156" xlink:href="#DejaVuSans-39"/>
      <use x="506.658203" xlink:href="#DejaVuSans-35"/>
      <use x="570.28125" xlink:href="#DejaVuSans-25"/>
      <use x="665.300781" xlink:href="#DejaVuSans-20"/>
      <use x="697.087891" xlink:href="#DejaVuSans-43"/>
      <use x="766.912109" xlink:href="#DejaVuSans-49"/>
      <use x="796.404297" xlink:href="#DejaVuSans-29"/>
     </g>
    </g>
    <g id="PathCollection_6">
     <g>
      <use style="fill:#ff00ff;stroke:#ff00ff;" x="109" xlink:href="#mb5dbb4d495" y="112.449688"/>
     </g>
    </g>
    <g id="text_21">
     <!-- scattered -->
     <defs>
      <path d="M 48.78125 52.59375 
L 48.78125 44.1875 
Q 44.96875 46.296875 41.140625 47.34375 
Q 37.3125 48.390625 33.40625 48.390625 
Q 24.65625 48.390625 19.8125 42.84375 
Q 14.984375 37.3125 14.984375 27.296875 
Q 14.984375 17.28125 19.8125 11.734375 
Q 24.65625 6.203125 33.40625 6.203125 
Q 37.3125 6.203125 41.140625 7.25 
Q 44.96875 8.296875 48.78125 10.40625 
L 48.78125 2.09375 
Q 45.015625 0.34375 40.984375 -0.53125 
Q 36.96875 -1.421875 32.421875 -1.421875 
Q 20.0625 -1.421875 12.78125 6.34375 
Q 5.515625 14.109375 5.515625 27.296875 
Q 5.515625 40.671875 12.859375 48.328125 
Q 20.21875 56 33.015625 56 
Q 37.15625 56 41.109375 55.140625 
Q 45.0625 54.296875 48.78125 52.59375 
z
" id="DejaVuSans-63"/>
      <path d="M 45.40625 46.390625 
L 45.40625 75.984375 
L 54.390625 75.984375 
L 54.390625 0 
L 45.40625 0 
L 45.40625 8.203125 
Q 42.578125 3.328125 38.25 0.953125 
Q 33.9375 -1.421875 27.875 -1.421875 
Q 17.96875 -1.421875 11.734375 6.484375 
Q 5.515625 14.40625 5.515625 27.296875 
Q 5.515625 40.1875 11.734375 48.09375 
Q 17.96875 56 27.875 56 
Q 33.9375 56 38.25 53.625 
Q 42.578125 51.265625 45.40625 46.390625 
z
M 14.796875 27.296875 
Q 14.796875 17.390625 18.875 11.75 
Q 22.953125 6.109375 30.078125 6.109375 
Q 37.203125 6.109375 41.296875 11.75 
Q 45.40625 17.390625 45.40625 27.296875 
Q 45.40625 37.203125 41.296875 42.84375 
Q 37.203125 48.484375 30.078125 48.484375 
Q 22.953125 48.484375 18.875 42.84375 
Q 14.796875 37.203125 14.796875 27.296875 
z
" id="DejaVuSans-64"/>
     </defs>
     <g transform="translate(127 115.074688)scale(0.1 -0.1)">
      <use xlink:href="#DejaVuSans-73"/>
      <use x="52.099609" xlink:href="#DejaVuSans-63"/>
      <use x="107.080078" xlink:href="#DejaVuSans-61"/>
      <use x="168.359375" xlink:href="#DejaVuSans-74"/>
      <use x="207.568359" xlink:href="#DejaVuSans-74"/>
      <use x="246.777344" xlink:href="#DejaVuSans-65"/>
      <use x="308.300781" xlink:href="#DejaVuSans-72"/>
      <use x="349.382812" xlink:href="#DejaVuSans-65"/>
      <use x="410.90625" xlink:href="#DejaVuSans-64"/>
     </g>
    </g>
   </g>
  </g>
  <g id="text_22">
   <!-- JC084|20190522|FOV1_zoom2p0x|traces001|rois001|corrected|fit-2dgaus_dff-no-cutoff -->
   <defs>
    <path d="M 9.8125 72.90625 
L 19.671875 72.90625 
L 19.671875 5.078125 
Q 19.671875 -8.109375 14.671875 -14.0625 
Q 9.671875 -20.015625 -1.421875 -20.015625 
L -5.171875 -20.015625 
L -5.171875 -11.71875 
L -2.09375 -11.71875 
Q 4.4375 -11.71875 7.125 -8.046875 
Q 9.8125 -4.390625 9.8125 5.078125 
z
" id="DejaVuSans-4a"/>
    <path d="M 21 76.421875 
L 21 -23.578125 
L 12.703125 -23.578125 
L 12.703125 76.421875 
z
" id="DejaVuSans-7c"/>
    <path d="M 9.8125 72.90625 
L 51.703125 72.90625 
L 51.703125 64.59375 
L 19.671875 64.59375 
L 19.671875 43.109375 
L 48.578125 43.109375 
L 48.578125 34.8125 
L 19.671875 34.8125 
L 19.671875 0 
L 9.8125 0 
z
" id="DejaVuSans-46"/>
    <path d="M 39.40625 66.21875 
Q 28.65625 66.21875 22.328125 58.203125 
Q 16.015625 50.203125 16.015625 36.375 
Q 16.015625 22.609375 22.328125 14.59375 
Q 28.65625 6.59375 39.40625 6.59375 
Q 50.140625 6.59375 56.421875 14.59375 
Q 62.703125 22.609375 62.703125 36.375 
Q 62.703125 50.203125 56.421875 58.203125 
Q 50.140625 66.21875 39.40625 66.21875 
z
M 39.40625 74.21875 
Q 54.734375 74.21875 63.90625 63.9375 
Q 73.09375 53.65625 73.09375 36.375 
Q 73.09375 19.140625 63.90625 8.859375 
Q 54.734375 -1.421875 39.40625 -1.421875 
Q 24.03125 -1.421875 14.8125 8.828125 
Q 5.609375 19.09375 5.609375 36.375 
Q 5.609375 53.65625 14.8125 63.9375 
Q 24.03125 74.21875 39.40625 74.21875 
z
" id="DejaVuSans-4f"/>
    <path d="M 28.609375 0 
L 0.78125 72.90625 
L 11.078125 72.90625 
L 34.1875 11.53125 
L 57.328125 72.90625 
L 67.578125 72.90625 
L 39.796875 0 
z
" id="DejaVuSans-56"/>
    <path d="M 5.515625 54.6875 
L 48.1875 54.6875 
L 48.1875 46.484375 
L 14.40625 7.171875 
L 48.1875 7.171875 
L 48.1875 0 
L 4.296875 0 
L 4.296875 8.203125 
L 38.09375 47.515625 
L 5.515625 47.515625 
z
" id="DejaVuSans-7a"/>
    <path d="M 52 44.1875 
Q 55.375 50.25 60.0625 53.125 
Q 64.75 56 71.09375 56 
Q 79.640625 56 84.28125 50.015625 
Q 88.921875 44.046875 88.921875 33.015625 
L 88.921875 0 
L 79.890625 0 
L 79.890625 32.71875 
Q 79.890625 40.578125 77.09375 44.375 
Q 74.3125 48.1875 68.609375 48.1875 
Q 61.625 48.1875 57.5625 43.546875 
Q 53.515625 38.921875 53.515625 30.90625 
L 53.515625 0 
L 44.484375 0 
L 44.484375 32.71875 
Q 44.484375 40.625 41.703125 44.40625 
Q 38.921875 48.1875 33.109375 48.1875 
Q 26.21875 48.1875 22.15625 43.53125 
Q 18.109375 38.875 18.109375 30.90625 
L 18.109375 0 
L 9.078125 0 
L 9.078125 54.6875 
L 18.109375 54.6875 
L 18.109375 46.1875 
Q 21.1875 51.21875 25.484375 53.609375 
Q 29.78125 56 35.6875 56 
Q 41.65625 56 45.828125 52.96875 
Q 50 49.953125 52 44.1875 
z
" id="DejaVuSans-6d"/>
    <path d="M 45.40625 27.984375 
Q 45.40625 37.75 41.375 43.109375 
Q 37.359375 48.484375 30.078125 48.484375 
Q 22.859375 48.484375 18.828125 43.109375 
Q 14.796875 37.75 14.796875 27.984375 
Q 14.796875 18.265625 18.828125 12.890625 
Q 22.859375 7.515625 30.078125 7.515625 
Q 37.359375 7.515625 41.375 12.890625 
Q 45.40625 18.265625 45.40625 27.984375 
z
M 54.390625 6.78125 
Q 54.390625 -7.171875 48.1875 -13.984375 
Q 42 -20.796875 29.203125 -20.796875 
Q 24.46875 -20.796875 20.265625 -20.09375 
Q 16.0625 -19.390625 12.109375 -17.921875 
L 12.109375 -9.1875 
Q 16.0625 -11.328125 19.921875 -12.34375 
Q 23.78125 -13.375 27.78125 -13.375 
Q 36.625 -13.375 41.015625 -8.765625 
Q 45.40625 -4.15625 45.40625 5.171875 
L 45.40625 9.625 
Q 42.625 4.78125 38.28125 2.390625 
Q 33.9375 0 27.875 0 
Q 17.828125 0 11.671875 7.65625 
Q 5.515625 15.328125 5.515625 27.984375 
Q 5.515625 40.671875 11.671875 48.328125 
Q 17.828125 56 27.875 56 
Q 33.9375 56 38.28125 53.609375 
Q 42.625 51.21875 45.40625 46.390625 
L 45.40625 54.6875 
L 54.390625 54.6875 
z
" id="DejaVuSans-67"/>
   </defs>
   <g transform="translate(0 6.11375)scale(0.08 -0.08)">
    <use xlink:href="#DejaVuSans-4a"/>
    <use x="29.492188" xlink:href="#DejaVuSans-43"/>
    <use x="99.316406" xlink:href="#DejaVuSans-30"/>
    <use x="162.939453" xlink:href="#DejaVuSans-38"/>
    <use x="226.5625" xlink:href="#DejaVuSans-34"/>
    <use x="290.185547" xlink:href="#DejaVuSans-7c"/>
    <use x="323.876953" xlink:href="#DejaVuSans-32"/>
    <use x="387.5" xlink:href="#DejaVuSans-30"/>
    <use x="451.123047" xlink:href="#DejaVuSans-31"/>
    <use x="514.746094" xlink:href="#DejaVuSans-39"/>
    <use x="578.369141" xlink:href="#DejaVuSans-30"/>
    <use x="641.992188" xlink:href="#DejaVuSans-35"/>
    <use x="705.615234" xlink:href="#DejaVuSans-32"/>
    <use x="769.238281" xlink:href="#DejaVuSans-32"/>
    <use x="832.861328" xlink:href="#DejaVuSans-7c"/>
    <use x="866.552734" xlink:href="#DejaVuSans-46"/>
    <use x="924.072266" xlink:href="#DejaVuSans-4f"/>
    <use x="1002.767578" xlink:href="#DejaVuSans-56"/>
    <use x="1071.175781" xlink:href="#DejaVuSans-31"/>
    <use x="1134.798828" xlink:href="#DejaVuSans-5f"/>
    <use x="1184.798828" xlink:href="#DejaVuSans-7a"/>
    <use x="1237.289062" xlink:href="#DejaVuSans-6f"/>
    <use x="1298.470703" xlink:href="#DejaVuSans-6f"/>
    <use x="1359.652344" xlink:href="#DejaVuSans-6d"/>
    <use x="1457.064453" xlink:href="#DejaVuSans-32"/>
    <use x="1520.6875" xlink:href="#DejaVuSans-70"/>
    <use x="1584.164062" xlink:href="#DejaVuSans-30"/>
    <use x="1647.787109" xlink:href="#DejaVuSans-78"/>
    <use x="1706.966797" xlink:href="#DejaVuSans-7c"/>
    <use x="1740.658203" xlink:href="#DejaVuSans-74"/>
    <use x="1779.867188" xlink:href="#DejaVuSans-72"/>
    <use x="1820.980469" xlink:href="#DejaVuSans-61"/>
    <use x="1882.259766" xlink:href="#DejaVuSans-63"/>
    <use x="1937.240234" xlink:href="#DejaVuSans-65"/>
    <use x="1998.763672" xlink:href="#DejaVuSans-73"/>
    <use x="2050.863281" xlink:href="#DejaVuSans-30"/>
    <use x="2114.486328" xlink:href="#DejaVuSans-30"/>
    <use x="2178.109375" xlink:href="#DejaVuSans-31"/>
    <use x="2241.732422" xlink:href="#DejaVuSans-7c"/>
    <use x="2275.423828" xlink:href="#DejaVuSans-72"/>
    <use x="2316.505859" xlink:href="#DejaVuSans-6f"/>
    <use x="2377.6875" xlink:href="#DejaVuSans-69"/>
    <use x="2405.470703" xlink:href="#DejaVuSans-73"/>
    <use x="2457.570312" xlink:href="#DejaVuSans-30"/>
    <use x="2521.193359" xlink:href="#DejaVuSans-30"/>
    <use x="2584.816406" xlink:href="#DejaVuSans-31"/>
    <use x="2648.439453" xlink:href="#DejaVuSans-7c"/>
    <use x="2682.130859" xlink:href="#DejaVuSans-63"/>
    <use x="2737.111328" xlink:href="#DejaVuSans-6f"/>
    <use x="2798.292969" xlink:href="#DejaVuSans-72"/>
    <use x="2839.390625" xlink:href="#DejaVuSans-72"/>
    <use x="2880.472656" xlink:href="#DejaVuSans-65"/>
    <use x="2941.996094" xlink:href="#DejaVuSans-63"/>
    <use x="2996.976562" xlink:href="#DejaVuSans-74"/>
    <use x="3036.185547" xlink:href="#DejaVuSans-65"/>
    <use x="3097.708984" xlink:href="#DejaVuSans-64"/>
    <use x="3161.185547" xlink:href="#DejaVuSans-7c"/>
    <use x="3194.876953" xlink:href="#DejaVuSans-66"/>
    <use x="3230.082031" xlink:href="#DejaVuSans-69"/>
    <use x="3257.865234" xlink:href="#DejaVuSans-74"/>
    <use x="3297.074219" xlink:href="#DejaVuSans-2d"/>
    <use x="3333.158203" xlink:href="#DejaVuSans-32"/>
    <use x="3396.78125" xlink:href="#DejaVuSans-64"/>
    <use x="3460.257812" xlink:href="#DejaVuSans-67"/>
    <use x="3523.734375" xlink:href="#DejaVuSans-61"/>
    <use x="3585.013672" xlink:href="#DejaVuSans-75"/>
    <use x="3648.392578" xlink:href="#DejaVuSans-73"/>
    <use x="3700.492188" xlink:href="#DejaVuSans-5f"/>
    <use x="3750.492188" xlink:href="#DejaVuSans-64"/>
    <use x="3813.96875" xlink:href="#DejaVuSans-66"/>
    <use x="3849.173828" xlink:href="#DejaVuSans-66"/>
    <use x="3884.300781" xlink:href="#DejaVuSans-2d"/>
    <use x="3920.384766" xlink:href="#DejaVuSans-6e"/>
    <use x="3983.763672" xlink:href="#DejaVuSans-6f"/>
    <use x="4044.960938" xlink:href="#DejaVuSans-2d"/>
    <use x="4081.044922" xlink:href="#DejaVuSans-63"/>
    <use x="4136.025391" xlink:href="#DejaVuSans-75"/>
    <use x="4199.404297" xlink:href="#DejaVuSans-74"/>
    <use x="4238.613281" xlink:href="#DejaVuSans-6f"/>
    <use x="4299.794922" xlink:href="#DejaVuSans-66"/>
    <use x="4335" xlink:href="#DejaVuSans-66"/>
   </g>
  </g>
 </g>
 <defs>
  <clipPath id="pa5dec09e8b">
   <rect height="443.52" width="558" x="90" y="69.12"/>
  </clipPath>
 </defs>
</svg>
