<?xml version="1.0" encoding="utf-8" standalone="no"?>
<!DOCTYPE svg PUBLIC "-//W3C//DTD SVG 1.1//EN"
  "http://www.w3.org/Graphics/SVG/1.1/DTD/svg11.dtd">
<!-- Created with matplotlib (http://matplotlib.org/) -->
<svg height="576pt" version="1.1" viewBox="0 0 720 576" width="720pt" xmlns="http://www.w3.org/2000/svg" xmlns:xlink="http://www.w3.org/1999/xlink">
 <defs>
  <style type="text/css">
*{stroke-linecap:butt;stroke-linejoin:round;}
  </style>
 </defs>
 <g id="figure_1">
  <g id="patch_1">
   <path d="M 0 576 
L 720 576 
L 720 0 
L 0 0 
z
" style="fill:#ffffff;"/>
  </g>
  <g id="axes_1">
   <g id="patch_2">
    <path d="M 90 512.64 
L 648 512.64 
L 648 69.12 
L 90 69.12 
z
" style="fill:#ffffff;"/>
   </g>
   <g id="PathCollection_1">
    <defs>
     <path d="M -2.738613 2.738613 
L 2.738613 -2.738613 
M -2.738613 -2.738613 
L 2.738613 2.738613 
" id="m6bf2bfed3a" style="stroke:#808080;stroke-opacity:0.5;stroke-width:1.5;"/>
    </defs>
    <g clip-path="url(#p7e864ff440)">
     <use style="fill:#808080;fill-opacity:0.5;stroke:#808080;stroke-opacity:0.5;stroke-width:1.5;" x="387.902841" xlink:href="#m6bf2bfed3a" y="392.731663"/>
     <use style="fill:#808080;fill-opacity:0.5;stroke:#808080;stroke-opacity:0.5;stroke-width:1.5;" x="496.13373" xlink:href="#m6bf2bfed3a" y="276.05651"/>
    </g>
   </g>
   <g id="PathCollection_2">
    <defs>
     <path d="M 0 2.738613 
C 0.726289 2.738613 1.422928 2.450055 1.936492 1.936492 
C 2.450055 1.422928 2.738613 0.726289 2.738613 0 
C 2.738613 -0.726289 2.450055 -1.422928 1.936492 -1.936492 
C 1.422928 -2.450055 0.726289 -2.738613 0 -2.738613 
C -0.726289 -2.738613 -1.422928 -2.450055 -1.936492 -1.936492 
C -2.450055 -1.422928 -2.738613 -0.726289 -2.738613 0 
C -2.738613 0.726289 -2.450055 1.422928 -1.936492 1.936492 
C -1.422928 2.450055 -0.726289 2.738613 0 2.738613 
z
" id="m80aecf497f" style="stroke:#000000;"/>
    </defs>
    <g clip-path="url(#p7e864ff440)">
     <use style="stroke:#000000;" x="607.579397" xlink:href="#m80aecf497f" y="289.653918"/>
     <use style="stroke:#000000;" x="609.722583" xlink:href="#m80aecf497f" y="186.306098"/>
     <use style="stroke:#000000;" x="589.362317" xlink:href="#m80aecf497f" y="282.73813"/>
     <use style="stroke:#000000;" x="561.5009" xlink:href="#m80aecf497f" y="254.603854"/>
     <use style="stroke:#000000;" x="521.851961" xlink:href="#m80aecf497f" y="293.469246"/>
     <use style="stroke:#000000;" x="556.142935" xlink:href="#m80aecf497f" y="288.773242"/>
     <use style="stroke:#000000;" x="556.142935" xlink:href="#m80aecf497f" y="273.971463"/>
     <use style="stroke:#000000;" x="550.784971" xlink:href="#m80aecf497f" y="267.819062"/>
     <use style="stroke:#000000;" x="538.997448" xlink:href="#m80aecf497f" y="255.922744"/>
     <use style="stroke:#000000;" x="535.782669" xlink:href="#m80aecf497f" y="306.368109"/>
     <use style="stroke:#000000;" x="523.995147" xlink:href="#m80aecf497f" y="207.740957"/>
     <use style="stroke:#000000;" x="487.560986" xlink:href="#m80aecf497f" y="401.71992"/>
     <use style="stroke:#000000;" x="503.634881" xlink:href="#m80aecf497f" y="336.025895"/>
     <use style="stroke:#000000;" x="503.634881" xlink:href="#m80aecf497f" y="331.293559"/>
     <use style="stroke:#000000;" x="450.055233" xlink:href="#m80aecf497f" y="259.649828"/>
     <use style="stroke:#000000;" x="428.623374" xlink:href="#m80aecf497f" y="244.164224"/>
     <use style="stroke:#000000;" x="446.840454" xlink:href="#m80aecf497f" y="216.44248"/>
     <use style="stroke:#000000;" x="470.415499" xlink:href="#m80aecf497f" y="376.373412"/>
     <use style="stroke:#000000;" x="510.064438" xlink:href="#m80aecf497f" y="136.415191"/>
     <use style="stroke:#000000;" x="485.4178" xlink:href="#m80aecf497f" y="286.152518"/>
     <use style="stroke:#000000;" x="485.4178" xlink:href="#m80aecf497f" y="315.907845"/>
     <use style="stroke:#000000;" x="450.055233" xlink:href="#m80aecf497f" y="305.200578"/>
     <use style="stroke:#000000;" x="468.272313" xlink:href="#m80aecf497f" y="303.417407"/>
     <use style="stroke:#000000;" x="471.487092" xlink:href="#m80aecf497f" y="295.809874"/>
     <use style="stroke:#000000;" x="523.995147" xlink:href="#m80aecf497f" y="300.871684"/>
     <use style="stroke:#000000;" x="435.052932" xlink:href="#m80aecf497f" y="186.184773"/>
     <use style="stroke:#000000;" x="451.126826" xlink:href="#m80aecf497f" y="349.765079"/>
     <use style="stroke:#000000;" x="492.918951" xlink:href="#m80aecf497f" y="287.977672"/>
     <use style="stroke:#000000;" x="523.995147" xlink:href="#m80aecf497f" y="300.581287"/>
     <use style="stroke:#000000;" x="407.191515" xlink:href="#m80aecf497f" y="285.593115"/>
     <use style="stroke:#000000;" x="395.403992" xlink:href="#m80aecf497f" y="290.446564"/>
     <use style="stroke:#000000;" x="395.403992" xlink:href="#m80aecf497f" y="250.734692"/>
     <use style="stroke:#000000;" x="366.470982" xlink:href="#m80aecf497f" y="324.107907"/>
     <use style="stroke:#000000;" x="334.323194" xlink:href="#m80aecf497f" y="354.248309"/>
     <use style="stroke:#000000;" x="307.53337" xlink:href="#m80aecf497f" y="185.510373"/>
     <use style="stroke:#000000;" x="401.83355" xlink:href="#m80aecf497f" y="349.657152"/>
     <use style="stroke:#000000;" x="346.110716" xlink:href="#m80aecf497f" y="331.04094"/>
     <use style="stroke:#000000;" x="213.23319" xlink:href="#m80aecf497f" y="430.183491"/>
     <use style="stroke:#000000;" x="114.646638" xlink:href="#m80aecf497f" y="346.863358"/>
     <use style="stroke:#000000;" x="118.93301" xlink:href="#m80aecf497f" y="410.17758"/>
     <use style="stroke:#000000;" x="124.290975" xlink:href="#m80aecf497f" y="411.868955"/>
     <use style="stroke:#000000;" x="112.503452" xlink:href="#m80aecf497f" y="473.220163"/>
     <use style="stroke:#000000;" x="128.577346" xlink:href="#m80aecf497f" y="438.968471"/>
     <use style="stroke:#000000;" x="123.219382" xlink:href="#m80aecf497f" y="396.140434"/>
     <use style="stroke:#000000;" x="318.249299" xlink:href="#m80aecf497f" y="334.870245"/>
     <use style="stroke:#000000;" x="377.186912" xlink:href="#m80aecf497f" y="404.127404"/>
     <use style="stroke:#000000;" x="367.542575" xlink:href="#m80aecf497f" y="320.47533"/>
     <use style="stroke:#000000;" x="386.831249" xlink:href="#m80aecf497f" y="306.083726"/>
     <use style="stroke:#000000;" x="383.61647" xlink:href="#m80aecf497f" y="295.449491"/>
     <use style="stroke:#000000;" x="328.965229" xlink:href="#m80aecf497f" y="294.163907"/>
     <use style="stroke:#000000;" x="302.175405" xlink:href="#m80aecf497f" y="353.258262"/>
     <use style="stroke:#000000;" x="326.822043" xlink:href="#m80aecf497f" y="277.370642"/>
     <use style="stroke:#000000;" x="368.614168" xlink:href="#m80aecf497f" y="357.100745"/>
     <use style="stroke:#000000;" x="600.078247" xlink:href="#m80aecf497f" y="201.617296"/>
     <use style="stroke:#000000;" x="530.424705" xlink:href="#m80aecf497f" y="338.975415"/>
     <use style="stroke:#000000;" x="522.923554" xlink:href="#m80aecf497f" y="305.977127"/>
     <use style="stroke:#000000;" x="503.634881" xlink:href="#m80aecf497f" y="294.67833"/>
     <use style="stroke:#000000;" x="483.274614" xlink:href="#m80aecf497f" y="405.143662"/>
     <use style="stroke:#000000;" x="499.348509" xlink:href="#m80aecf497f" y="323.104027"/>
     <use style="stroke:#000000;" x="498.276916" xlink:href="#m80aecf497f" y="324.388834"/>
     <use style="stroke:#000000;" x="474.701871" xlink:href="#m80aecf497f" y="276.68584"/>
     <use style="stroke:#000000;" x="447.912047" xlink:href="#m80aecf497f" y="301.851619"/>
     <use style="stroke:#000000;" x="452.198419" xlink:href="#m80aecf497f" y="281.410715"/>
     <use style="stroke:#000000;" x="409.334701" xlink:href="#m80aecf497f" y="181.098091"/>
     <use style="stroke:#000000;" x="448.98364" xlink:href="#m80aecf497f" y="279.754574"/>
     <use style="stroke:#000000;" x="430.76656" xlink:href="#m80aecf497f" y="369.423458"/>
     <use style="stroke:#000000;" x="426.480188" xlink:href="#m80aecf497f" y="298.233579"/>
     <use style="stroke:#000000;" x="503.634881" xlink:href="#m80aecf497f" y="304.464942"/>
     <use style="stroke:#000000;" x="489.704172" xlink:href="#m80aecf497f" y="315.300337"/>
     <use style="stroke:#000000;" x="473.630278" xlink:href="#m80aecf497f" y="323.135742"/>
     <use style="stroke:#000000;" x="491.847358" xlink:href="#m80aecf497f" y="245.435312"/>
     <use style="stroke:#000000;" x="507.921252" xlink:href="#m80aecf497f" y="388.214425"/>
     <use style="stroke:#000000;" x="488.632579" xlink:href="#m80aecf497f" y="274.582829"/>
     <use style="stroke:#000000;" x="482.203022" xlink:href="#m80aecf497f" y="181.046251"/>
     <use style="stroke:#000000;" x="430.76656" xlink:href="#m80aecf497f" y="306.091863"/>
     <use style="stroke:#000000;" x="422.193816" xlink:href="#m80aecf497f" y="271.090908"/>
     <use style="stroke:#000000;" x="451.126826" xlink:href="#m80aecf497f" y="328.373025"/>
     <use style="stroke:#000000;" x="421.122223" xlink:href="#m80aecf497f" y="313.185241"/>
     <use style="stroke:#000000;" x="430.76656" xlink:href="#m80aecf497f" y="296.778635"/>
     <use style="stroke:#000000;" x="387.902841" xlink:href="#m80aecf497f" y="305.326368"/>
     <use style="stroke:#000000;" x="360.041425" xlink:href="#m80aecf497f" y="295.834133"/>
     <use style="stroke:#000000;" x="352.540274" xlink:href="#m80aecf497f" y="334.184164"/>
     <use style="stroke:#000000;" x="360.041425" xlink:href="#m80aecf497f" y="276.705113"/>
     <use style="stroke:#000000;" x="371.828947" xlink:href="#m80aecf497f" y="371.904182"/>
     <use style="stroke:#000000;" x="366.470982" xlink:href="#m80aecf497f" y="301.742843"/>
     <use style="stroke:#000000;" x="361.113018" xlink:href="#m80aecf497f" y="322.222103"/>
     <use style="stroke:#000000;" x="390.046027" xlink:href="#m80aecf497f" y="300.961402"/>
     <use style="stroke:#000000;" x="358.969832" xlink:href="#m80aecf497f" y="285.377675"/>
     <use style="stroke:#000000;" x="580.789573" xlink:href="#m80aecf497f" y="365.690316"/>
     <use style="stroke:#000000;" x="575.431609" xlink:href="#m80aecf497f" y="285.525574"/>
     <use style="stroke:#000000;" x="550.784971" xlink:href="#m80aecf497f" y="321.613547"/>
     <use style="stroke:#000000;" x="493.990544" xlink:href="#m80aecf497f" y="378.479632"/>
     <use style="stroke:#000000;" x="486.489393" xlink:href="#m80aecf497f" y="389.83419"/>
     <use style="stroke:#000000;" x="490.775765" xlink:href="#m80aecf497f" y="294.182377"/>
     <use style="stroke:#000000;" x="574.360016" xlink:href="#m80aecf497f" y="322.436417"/>
     <use style="stroke:#000000;" x="441.482489" xlink:href="#m80aecf497f" y="354.363644"/>
     <use style="stroke:#000000;" x="436.124524" xlink:href="#m80aecf497f" y="310.131105"/>
     <use style="stroke:#000000;" x="409.334701" xlink:href="#m80aecf497f" y="358.125792"/>
     <use style="stroke:#000000;" x="398.618771" xlink:href="#m80aecf497f" y="350.967124"/>
     <use style="stroke:#000000;" x="433.981339" xlink:href="#m80aecf497f" y="383.528452"/>
     <use style="stroke:#000000;" x="347.182309" xlink:href="#m80aecf497f" y="356.937329"/>
     <use style="stroke:#000000;" x="350.397088" xlink:href="#m80aecf497f" y="368.586231"/>
     <use style="stroke:#000000;" x="385.759656" xlink:href="#m80aecf497f" y="272.111017"/>
     <use style="stroke:#000000;" x="337.537973" xlink:href="#m80aecf497f" y="320.795736"/>
     <use style="stroke:#000000;" x="309.676556" xlink:href="#m80aecf497f" y="350.797617"/>
     <use style="stroke:#000000;" x="312.891335" xlink:href="#m80aecf497f" y="413.825238"/>
     <use style="stroke:#000000;" x="263.598059" xlink:href="#m80aecf497f" y="333.297782"/>
     <use style="stroke:#000000;" x="253.953722" xlink:href="#m80aecf497f" y="294.078587"/>
     <use style="stroke:#000000;" x="261.454873" xlink:href="#m80aecf497f" y="326.6484"/>
     <use style="stroke:#000000;" x="267.884431" xlink:href="#m80aecf497f" y="402.537085"/>
     <use style="stroke:#000000;" x="255.025315" xlink:href="#m80aecf497f" y="415.076902"/>
     <use style="stroke:#000000;" x="125.362568" xlink:href="#m80aecf497f" y="337.009368"/>
     <use style="stroke:#000000;" x="438.26771" xlink:href="#m80aecf497f" y="374.14591"/>
     <use style="stroke:#000000;" x="278.60036" xlink:href="#m80aecf497f" y="339.421167"/>
     <use style="stroke:#000000;" x="574.360016" xlink:href="#m80aecf497f" y="277.519356"/>
    </g>
   </g>
   <g id="PolyCollection_1">
    <path clip-path="url(#p7e864ff440)" d="M 90 363.786697 
L 90 421.062492 
L 95.636364 419.233528 
L 101.272727 417.363647 
L 106.909091 415.544113 
L 112.545455 413.762491 
L 118.181818 411.980869 
L 123.818182 410.155109 
L 129.454545 408.30744 
L 135.090909 406.45977 
L 140.727273 404.703606 
L 146.363636 402.881665 
L 152 401.177795 
L 157.636364 399.341984 
L 163.272727 397.571546 
L 168.909091 395.859166 
L 174.545455 394.146054 
L 180.181818 392.312175 
L 185.818182 390.605458 
L 191.454545 388.828216 
L 197.090909 387.027014 
L 202.727273 385.282814 
L 208.363636 383.473867 
L 214 381.691295 
L 219.636364 379.935179 
L 225.272727 378.162923 
L 230.909091 376.424854 
L 236.545455 374.674886 
L 242.181818 372.924451 
L 247.818182 371.178518 
L 253.454545 369.405003 
L 259.090909 367.652134 
L 264.727273 365.974111 
L 270.363636 364.441496 
L 276 362.662914 
L 281.636364 360.922936 
L 287.272727 359.248197 
L 292.909091 357.584087 
L 298.545455 355.918383 
L 304.181818 354.292902 
L 309.818182 352.679313 
L 315.454545 350.972283 
L 321.090909 349.330096 
L 326.727273 347.743957 
L 332.363636 346.249455 
L 338 344.597316 
L 343.636364 343.036547 
L 349.272727 341.5798 
L 354.909091 339.915053 
L 360.545455 338.353278 
L 366.181818 336.744116 
L 371.818182 335.147588 
L 377.454545 333.696803 
L 383.090909 332.286803 
L 388.727273 330.963269 
L 394.363636 329.411225 
L 400 328.040487 
L 405.636364 326.592538 
L 411.272727 325.212423 
L 416.909091 323.974567 
L 422.545455 322.661639 
L 428.181818 321.262664 
L 433.818182 320.10127 
L 439.454545 318.761922 
L 445.090909 317.514575 
L 450.727273 316.371498 
L 456.363636 315.16934 
L 462 313.872677 
L 467.636364 312.694801 
L 473.272727 311.399682 
L 478.909091 310.319571 
L 484.545455 309.369645 
L 490.181818 308.316959 
L 495.818182 307.208129 
L 501.454545 306.147571 
L 507.090909 304.891885 
L 512.727273 303.6377 
L 518.363636 302.467958 
L 524 301.459909 
L 529.636364 300.441008 
L 535.272727 299.493685 
L 540.909091 298.444255 
L 546.545455 297.482542 
L 552.181818 296.667958 
L 557.818182 295.627925 
L 563.454545 294.417833 
L 569.090909 293.49634 
L 574.727273 292.51282 
L 580.363636 291.380247 
L 586 290.286143 
L 591.636364 289.186621 
L 597.272727 288.012825 
L 602.909091 286.850463 
L 608.545455 285.963873 
L 614.181818 285.140587 
L 619.818182 284.196577 
L 625.454545 283.308697 
L 631.090909 282.440032 
L 636.727273 281.535434 
L 642.363636 280.491426 
L 648 279.444479 
L 648 236.420441 
L 648 236.420441 
L 642.363636 238.086307 
L 636.727273 239.752985 
L 631.090909 241.537779 
L 625.454545 243.408194 
L 619.818182 245.235402 
L 614.181818 247.081006 
L 608.545455 249.007378 
L 602.909091 250.878596 
L 597.272727 252.622719 
L 591.636364 254.29793 
L 586 255.972282 
L 580.363636 257.809837 
L 574.727273 259.532568 
L 569.090909 261.235778 
L 563.454545 262.843522 
L 557.818182 264.460711 
L 552.181818 266.101763 
L 546.545455 267.834088 
L 540.909091 269.398649 
L 535.272727 271.210177 
L 529.636364 272.809342 
L 524 274.628636 
L 518.363636 276.449089 
L 512.727273 277.816978 
L 507.090909 279.480414 
L 501.454545 281.222939 
L 495.818182 282.997368 
L 490.181818 284.832946 
L 484.545455 286.49987 
L 478.909091 288.093275 
L 473.272727 289.843309 
L 467.636364 291.343518 
L 462 292.843727 
L 456.363636 294.377562 
L 450.727273 295.927159 
L 445.090909 297.413064 
L 439.454545 298.840196 
L 433.818182 300.338782 
L 428.181818 301.705403 
L 422.545455 303.10526 
L 416.909091 304.621647 
L 411.272727 305.9318 
L 405.636364 307.372301 
L 400 308.778108 
L 394.363636 309.821762 
L 388.727273 311.188506 
L 383.090909 312.339946 
L 377.454545 313.526711 
L 371.818182 314.864521 
L 366.181818 316.114312 
L 360.545455 317.403805 
L 354.909091 318.394921 
L 349.272727 319.592189 
L 343.636364 320.616801 
L 338 321.698991 
L 332.363636 322.888584 
L 326.727273 323.752549 
L 321.090909 324.779191 
L 315.454545 325.876306 
L 309.818182 327.085408 
L 304.181818 328.18787 
L 298.545455 329.153093 
L 292.909091 330.29212 
L 287.272727 331.336817 
L 281.636364 332.327732 
L 276 333.140578 
L 270.363636 334.018971 
L 264.727273 335.086241 
L 259.090909 336.052333 
L 253.454545 337.098898 
L 247.818182 338.12554 
L 242.181818 339.149235 
L 236.545455 339.966449 
L 230.909091 340.78279 
L 225.272727 341.60588 
L 219.636364 342.631657 
L 214 343.670345 
L 208.363636 344.649953 
L 202.727273 345.546028 
L 197.090909 346.442104 
L 191.454545 347.33818 
L 185.818182 348.234045 
L 180.181818 349.049238 
L 174.545455 350.028169 
L 168.909091 350.926186 
L 163.272727 351.911586 
L 157.636364 352.755739 
L 152 353.615138 
L 146.363636 354.509366 
L 140.727273 355.404099 
L 135.090909 356.30159 
L 129.454545 357.250769 
L 123.818182 358.165348 
L 118.181818 359.026686 
L 112.545455 359.946778 
L 106.909091 360.906436 
L 101.272727 361.866189 
L 95.636364 362.826414 
L 90 363.786697 
z
" style="fill-opacity:0.15;"/>
   </g>
   <g id="PathCollection_3">
    <defs>
     <path d="M 0 2.738613 
C 0.726289 2.738613 1.422928 2.450055 1.936492 1.936492 
C 2.450055 1.422928 2.738613 0.726289 2.738613 0 
C 2.738613 -0.726289 2.450055 -1.422928 1.936492 -1.936492 
C 1.422928 -2.450055 0.726289 -2.738613 0 -2.738613 
C -0.726289 -2.738613 -1.422928 -2.450055 -1.936492 -1.936492 
C -2.450055 -1.422928 -2.738613 -0.726289 -2.738613 0 
C -2.738613 0.726289 -2.450055 1.422928 -1.936492 1.936492 
C -1.422928 2.450055 -0.726289 2.738613 0 2.738613 
z
" id="ma15ef4f75b" style="stroke:#ff00ff;"/>
    </defs>
    <g clip-path="url(#p7e864ff440)">
     <use style="fill:#ff00ff;stroke:#ff00ff;" x="609.722583" xlink:href="#ma15ef4f75b" y="186.306098"/>
     <use style="fill:#ff00ff;stroke:#ff00ff;" x="523.995147" xlink:href="#ma15ef4f75b" y="207.740957"/>
     <use style="fill:#ff00ff;stroke:#ff00ff;" x="487.560986" xlink:href="#ma15ef4f75b" y="401.71992"/>
     <use style="fill:#ff00ff;stroke:#ff00ff;" x="503.634881" xlink:href="#ma15ef4f75b" y="331.293559"/>
     <use style="fill:#ff00ff;stroke:#ff00ff;" x="450.055233" xlink:href="#ma15ef4f75b" y="259.649828"/>
     <use style="fill:#ff00ff;stroke:#ff00ff;" x="446.840454" xlink:href="#ma15ef4f75b" y="216.44248"/>
     <use style="fill:#ff00ff;stroke:#ff00ff;" x="470.415499" xlink:href="#ma15ef4f75b" y="376.373412"/>
     <use style="fill:#ff00ff;stroke:#ff00ff;" x="510.064438" xlink:href="#ma15ef4f75b" y="136.415191"/>
     <use style="fill:#ff00ff;stroke:#ff00ff;" x="435.052932" xlink:href="#ma15ef4f75b" y="186.184773"/>
     <use style="fill:#ff00ff;stroke:#ff00ff;" x="307.53337" xlink:href="#ma15ef4f75b" y="185.510373"/>
     <use style="fill:#ff00ff;stroke:#ff00ff;" x="377.186912" xlink:href="#ma15ef4f75b" y="404.127404"/>
     <use style="fill:#ff00ff;stroke:#ff00ff;" x="326.822043" xlink:href="#ma15ef4f75b" y="277.370642"/>
     <use style="fill:#ff00ff;stroke:#ff00ff;" x="483.274614" xlink:href="#ma15ef4f75b" y="405.143662"/>
     <use style="fill:#ff00ff;stroke:#ff00ff;" x="491.847358" xlink:href="#ma15ef4f75b" y="245.435312"/>
     <use style="fill:#ff00ff;stroke:#ff00ff;" x="507.921252" xlink:href="#ma15ef4f75b" y="388.214425"/>
     <use style="fill:#ff00ff;stroke:#ff00ff;" x="482.203022" xlink:href="#ma15ef4f75b" y="181.046251"/>
     <use style="fill:#ff00ff;stroke:#ff00ff;" x="360.041425" xlink:href="#ma15ef4f75b" y="295.834133"/>
     <use style="fill:#ff00ff;stroke:#ff00ff;" x="580.789573" xlink:href="#ma15ef4f75b" y="365.690316"/>
     <use style="fill:#ff00ff;stroke:#ff00ff;" x="486.489393" xlink:href="#ma15ef4f75b" y="389.83419"/>
     <use style="fill:#ff00ff;stroke:#ff00ff;" x="441.482489" xlink:href="#ma15ef4f75b" y="354.363644"/>
     <use style="fill:#ff00ff;stroke:#ff00ff;" x="433.981339" xlink:href="#ma15ef4f75b" y="383.528452"/>
     <use style="fill:#ff00ff;stroke:#ff00ff;" x="312.891335" xlink:href="#ma15ef4f75b" y="413.825238"/>
    </g>
   </g>
   <g id="matplotlib.axis_1">
    <g id="xtick_1">
     <g id="line2d_1">
      <defs>
       <path d="M 0 0 
L 0 3.5 
" id="madb619570d" style="stroke:#000000;stroke-width:0.8;"/>
      </defs>
      <g>
       <use style="stroke:#000000;stroke-width:0.8;" x="90" xlink:href="#madb619570d" y="516.64"/>
      </g>
     </g>
     <g id="text_1">
      <!-- 0 -->
      <defs>
       <path d="M 31.78125 66.40625 
Q 24.171875 66.40625 20.328125 58.90625 
Q 16.5 51.421875 16.5 36.375 
Q 16.5 21.390625 20.328125 13.890625 
Q 24.171875 6.390625 31.78125 6.390625 
Q 39.453125 6.390625 43.28125 13.890625 
Q 47.125 21.390625 47.125 36.375 
Q 47.125 51.421875 43.28125 58.90625 
Q 39.453125 66.40625 31.78125 66.40625 
z
M 31.78125 74.21875 
Q 44.046875 74.21875 50.515625 64.515625 
Q 56.984375 54.828125 56.984375 36.375 
Q 56.984375 17.96875 50.515625 8.265625 
Q 44.046875 -1.421875 31.78125 -1.421875 
Q 19.53125 -1.421875 13.0625 8.265625 
Q 6.59375 17.96875 6.59375 36.375 
Q 6.59375 54.828125 13.0625 64.515625 
Q 19.53125 74.21875 31.78125 74.21875 
z
" id="DejaVuSans-30"/>
      </defs>
      <g transform="translate(86.81875 531.238438)scale(0.1 -0.1)">
       <use xlink:href="#DejaVuSans-30"/>
      </g>
     </g>
    </g>
    <g id="xtick_2">
     <g id="line2d_2">
      <g>
       <use style="stroke:#000000;stroke-width:0.8;" x="183" xlink:href="#madb619570d" y="516.64"/>
      </g>
     </g>
     <g id="text_2">
      <!-- 200 -->
      <defs>
       <path d="M 19.1875 8.296875 
L 53.609375 8.296875 
L 53.609375 0 
L 7.328125 0 
L 7.328125 8.296875 
Q 12.9375 14.109375 22.625 23.890625 
Q 32.328125 33.6875 34.8125 36.53125 
Q 39.546875 41.84375 41.421875 45.53125 
Q 43.3125 49.21875 43.3125 52.78125 
Q 43.3125 58.59375 39.234375 62.25 
Q 35.15625 65.921875 28.609375 65.921875 
Q 23.96875 65.921875 18.8125 64.3125 
Q 13.671875 62.703125 7.8125 59.421875 
L 7.8125 69.390625 
Q 13.765625 71.78125 18.9375 73 
Q 24.125 74.21875 28.421875 74.21875 
Q 39.75 74.21875 46.484375 68.546875 
Q 53.21875 62.890625 53.21875 53.421875 
Q 53.21875 48.921875 51.53125 44.890625 
Q 49.859375 40.875 45.40625 35.40625 
Q 44.1875 33.984375 37.640625 27.21875 
Q 31.109375 20.453125 19.1875 8.296875 
z
" id="DejaVuSans-32"/>
      </defs>
      <g transform="translate(173.45625 531.238438)scale(0.1 -0.1)">
       <use xlink:href="#DejaVuSans-32"/>
       <use x="63.623047" xlink:href="#DejaVuSans-30"/>
       <use x="127.246094" xlink:href="#DejaVuSans-30"/>
      </g>
     </g>
    </g>
    <g id="xtick_3">
     <g id="line2d_3">
      <g>
       <use style="stroke:#000000;stroke-width:0.8;" x="276" xlink:href="#madb619570d" y="516.64"/>
      </g>
     </g>
     <g id="text_3">
      <!-- 400 -->
      <defs>
       <path d="M 37.796875 64.3125 
L 12.890625 25.390625 
L 37.796875 25.390625 
z
M 35.203125 72.90625 
L 47.609375 72.90625 
L 47.609375 25.390625 
L 58.015625 25.390625 
L 58.015625 17.1875 
L 47.609375 17.1875 
L 47.609375 0 
L 37.796875 0 
L 37.796875 17.1875 
L 4.890625 17.1875 
L 4.890625 26.703125 
z
" id="DejaVuSans-34"/>
      </defs>
      <g transform="translate(266.45625 531.238438)scale(0.1 -0.1)">
       <use xlink:href="#DejaVuSans-34"/>
       <use x="63.623047" xlink:href="#DejaVuSans-30"/>
       <use x="127.246094" xlink:href="#DejaVuSans-30"/>
      </g>
     </g>
    </g>
    <g id="xtick_4">
     <g id="line2d_4">
      <g>
       <use style="stroke:#000000;stroke-width:0.8;" x="369" xlink:href="#madb619570d" y="516.64"/>
      </g>
     </g>
     <g id="text_4">
      <!-- 600 -->
      <defs>
       <path d="M 33.015625 40.375 
Q 26.375 40.375 22.484375 35.828125 
Q 18.609375 31.296875 18.609375 23.390625 
Q 18.609375 15.53125 22.484375 10.953125 
Q 26.375 6.390625 33.015625 6.390625 
Q 39.65625 6.390625 43.53125 10.953125 
Q 47.40625 15.53125 47.40625 23.390625 
Q 47.40625 31.296875 43.53125 35.828125 
Q 39.65625 40.375 33.015625 40.375 
z
M 52.59375 71.296875 
L 52.59375 62.3125 
Q 48.875 64.0625 45.09375 64.984375 
Q 41.3125 65.921875 37.59375 65.921875 
Q 27.828125 65.921875 22.671875 59.328125 
Q 17.53125 52.734375 16.796875 39.40625 
Q 19.671875 43.65625 24.015625 45.921875 
Q 28.375 48.1875 33.59375 48.1875 
Q 44.578125 48.1875 50.953125 41.515625 
Q 57.328125 34.859375 57.328125 23.390625 
Q 57.328125 12.15625 50.6875 5.359375 
Q 44.046875 -1.421875 33.015625 -1.421875 
Q 20.359375 -1.421875 13.671875 8.265625 
Q 6.984375 17.96875 6.984375 36.375 
Q 6.984375 53.65625 15.1875 63.9375 
Q 23.390625 74.21875 37.203125 74.21875 
Q 40.921875 74.21875 44.703125 73.484375 
Q 48.484375 72.75 52.59375 71.296875 
z
" id="DejaVuSans-36"/>
      </defs>
      <g transform="translate(359.45625 531.238438)scale(0.1 -0.1)">
       <use xlink:href="#DejaVuSans-36"/>
       <use x="63.623047" xlink:href="#DejaVuSans-30"/>
       <use x="127.246094" xlink:href="#DejaVuSans-30"/>
      </g>
     </g>
    </g>
    <g id="xtick_5">
     <g id="line2d_5">
      <g>
       <use style="stroke:#000000;stroke-width:0.8;" x="462" xlink:href="#madb619570d" y="516.64"/>
      </g>
     </g>
     <g id="text_5">
      <!-- 800 -->
      <defs>
       <path d="M 31.78125 34.625 
Q 24.75 34.625 20.71875 30.859375 
Q 16.703125 27.09375 16.703125 20.515625 
Q 16.703125 13.921875 20.71875 10.15625 
Q 24.75 6.390625 31.78125 6.390625 
Q 38.8125 6.390625 42.859375 10.171875 
Q 46.921875 13.96875 46.921875 20.515625 
Q 46.921875 27.09375 42.890625 30.859375 
Q 38.875 34.625 31.78125 34.625 
z
M 21.921875 38.8125 
Q 15.578125 40.375 12.03125 44.71875 
Q 8.5 49.078125 8.5 55.328125 
Q 8.5 64.0625 14.71875 69.140625 
Q 20.953125 74.21875 31.78125 74.21875 
Q 42.671875 74.21875 48.875 69.140625 
Q 55.078125 64.0625 55.078125 55.328125 
Q 55.078125 49.078125 51.53125 44.71875 
Q 48 40.375 41.703125 38.8125 
Q 48.828125 37.15625 52.796875 32.3125 
Q 56.78125 27.484375 56.78125 20.515625 
Q 56.78125 9.90625 50.3125 4.234375 
Q 43.84375 -1.421875 31.78125 -1.421875 
Q 19.734375 -1.421875 13.25 4.234375 
Q 6.78125 9.90625 6.78125 20.515625 
Q 6.78125 27.484375 10.78125 32.3125 
Q 14.796875 37.15625 21.921875 38.8125 
z
M 18.3125 54.390625 
Q 18.3125 48.734375 21.84375 45.5625 
Q 25.390625 42.390625 31.78125 42.390625 
Q 38.140625 42.390625 41.71875 45.5625 
Q 45.3125 48.734375 45.3125 54.390625 
Q 45.3125 60.0625 41.71875 63.234375 
Q 38.140625 66.40625 31.78125 66.40625 
Q 25.390625 66.40625 21.84375 63.234375 
Q 18.3125 60.0625 18.3125 54.390625 
z
" id="DejaVuSans-38"/>
      </defs>
      <g transform="translate(452.45625 531.238438)scale(0.1 -0.1)">
       <use xlink:href="#DejaVuSans-38"/>
       <use x="63.623047" xlink:href="#DejaVuSans-30"/>
       <use x="127.246094" xlink:href="#DejaVuSans-30"/>
      </g>
     </g>
    </g>
    <g id="xtick_6">
     <g id="line2d_6">
      <g>
       <use style="stroke:#000000;stroke-width:0.8;" x="555" xlink:href="#madb619570d" y="516.64"/>
      </g>
     </g>
     <g id="text_6">
      <!-- 1000 -->
      <defs>
       <path d="M 12.40625 8.296875 
L 28.515625 8.296875 
L 28.515625 63.921875 
L 10.984375 60.40625 
L 10.984375 69.390625 
L 28.421875 72.90625 
L 38.28125 72.90625 
L 38.28125 8.296875 
L 54.390625 8.296875 
L 54.390625 0 
L 12.40625 0 
z
" id="DejaVuSans-31"/>
      </defs>
      <g transform="translate(542.275 531.238438)scale(0.1 -0.1)">
       <use xlink:href="#DejaVuSans-31"/>
       <use x="63.623047" xlink:href="#DejaVuSans-30"/>
       <use x="127.246094" xlink:href="#DejaVuSans-30"/>
       <use x="190.869141" xlink:href="#DejaVuSans-30"/>
      </g>
     </g>
    </g>
    <g id="xtick_7">
     <g id="line2d_7">
      <g>
       <use style="stroke:#000000;stroke-width:0.8;" x="648" xlink:href="#madb619570d" y="516.64"/>
      </g>
     </g>
     <g id="text_7">
      <!-- 1200 -->
      <g transform="translate(635.275 531.238438)scale(0.1 -0.1)">
       <use xlink:href="#DejaVuSans-31"/>
       <use x="63.623047" xlink:href="#DejaVuSans-32"/>
       <use x="127.246094" xlink:href="#DejaVuSans-30"/>
       <use x="190.869141" xlink:href="#DejaVuSans-30"/>
      </g>
     </g>
    </g>
    <g id="text_8">
     <!-- ypos_fov -->
     <defs>
      <path d="M 32.171875 -5.078125 
Q 28.375 -14.84375 24.75 -17.8125 
Q 21.140625 -20.796875 15.09375 -20.796875 
L 7.90625 -20.796875 
L 7.90625 -13.28125 
L 13.1875 -13.28125 
Q 16.890625 -13.28125 18.9375 -11.515625 
Q 21 -9.765625 23.484375 -3.21875 
L 25.09375 0.875 
L 2.984375 54.6875 
L 12.5 54.6875 
L 29.59375 11.921875 
L 46.6875 54.6875 
L 56.203125 54.6875 
z
" id="DejaVuSans-79"/>
      <path d="M 18.109375 8.203125 
L 18.109375 -20.796875 
L 9.078125 -20.796875 
L 9.078125 54.6875 
L 18.109375 54.6875 
L 18.109375 46.390625 
Q 20.953125 51.265625 25.265625 53.625 
Q 29.59375 56 35.59375 56 
Q 45.5625 56 51.78125 48.09375 
Q 58.015625 40.1875 58.015625 27.296875 
Q 58.015625 14.40625 51.78125 6.484375 
Q 45.5625 -1.421875 35.59375 -1.421875 
Q 29.59375 -1.421875 25.265625 0.953125 
Q 20.953125 3.328125 18.109375 8.203125 
z
M 48.6875 27.296875 
Q 48.6875 37.203125 44.609375 42.84375 
Q 40.53125 48.484375 33.40625 48.484375 
Q 26.265625 48.484375 22.1875 42.84375 
Q 18.109375 37.203125 18.109375 27.296875 
Q 18.109375 17.390625 22.1875 11.75 
Q 26.265625 6.109375 33.40625 6.109375 
Q 40.53125 6.109375 44.609375 11.75 
Q 48.6875 17.390625 48.6875 27.296875 
z
" id="DejaVuSans-70"/>
      <path d="M 30.609375 48.390625 
Q 23.390625 48.390625 19.1875 42.75 
Q 14.984375 37.109375 14.984375 27.296875 
Q 14.984375 17.484375 19.15625 11.84375 
Q 23.34375 6.203125 30.609375 6.203125 
Q 37.796875 6.203125 41.984375 11.859375 
Q 46.1875 17.53125 46.1875 27.296875 
Q 46.1875 37.015625 41.984375 42.703125 
Q 37.796875 48.390625 30.609375 48.390625 
z
M 30.609375 56 
Q 42.328125 56 49.015625 48.375 
Q 55.71875 40.765625 55.71875 27.296875 
Q 55.71875 13.875 49.015625 6.21875 
Q 42.328125 -1.421875 30.609375 -1.421875 
Q 18.84375 -1.421875 12.171875 6.21875 
Q 5.515625 13.875 5.515625 27.296875 
Q 5.515625 40.765625 12.171875 48.375 
Q 18.84375 56 30.609375 56 
z
" id="DejaVuSans-6f"/>
      <path d="M 44.28125 53.078125 
L 44.28125 44.578125 
Q 40.484375 46.53125 36.375 47.5 
Q 32.28125 48.484375 27.875 48.484375 
Q 21.1875 48.484375 17.84375 46.4375 
Q 14.5 44.390625 14.5 40.28125 
Q 14.5 37.15625 16.890625 35.375 
Q 19.28125 33.59375 26.515625 31.984375 
L 29.59375 31.296875 
Q 39.15625 29.25 43.1875 25.515625 
Q 47.21875 21.78125 47.21875 15.09375 
Q 47.21875 7.46875 41.1875 3.015625 
Q 35.15625 -1.421875 24.609375 -1.421875 
Q 20.21875 -1.421875 15.453125 -0.5625 
Q 10.6875 0.296875 5.421875 2 
L 5.421875 11.28125 
Q 10.40625 8.6875 15.234375 7.390625 
Q 20.0625 6.109375 24.8125 6.109375 
Q 31.15625 6.109375 34.5625 8.28125 
Q 37.984375 10.453125 37.984375 14.40625 
Q 37.984375 18.0625 35.515625 20.015625 
Q 33.0625 21.96875 24.703125 23.78125 
L 21.578125 24.515625 
Q 13.234375 26.265625 9.515625 29.90625 
Q 5.8125 33.546875 5.8125 39.890625 
Q 5.8125 47.609375 11.28125 51.796875 
Q 16.75 56 26.8125 56 
Q 31.78125 56 36.171875 55.265625 
Q 40.578125 54.546875 44.28125 53.078125 
z
" id="DejaVuSans-73"/>
      <path d="M 50.984375 -16.609375 
L 50.984375 -23.578125 
L -0.984375 -23.578125 
L -0.984375 -16.609375 
z
" id="DejaVuSans-5f"/>
      <path d="M 37.109375 75.984375 
L 37.109375 68.5 
L 28.515625 68.5 
Q 23.6875 68.5 21.796875 66.546875 
Q 19.921875 64.59375 19.921875 59.515625 
L 19.921875 54.6875 
L 34.71875 54.6875 
L 34.71875 47.703125 
L 19.921875 47.703125 
L 19.921875 0 
L 10.890625 0 
L 10.890625 47.703125 
L 2.296875 47.703125 
L 2.296875 54.6875 
L 10.890625 54.6875 
L 10.890625 58.5 
Q 10.890625 67.625 15.140625 71.796875 
Q 19.390625 75.984375 28.609375 75.984375 
z
" id="DejaVuSans-66"/>
      <path d="M 2.984375 54.6875 
L 12.5 54.6875 
L 29.59375 8.796875 
L 46.6875 54.6875 
L 56.203125 54.6875 
L 35.6875 0 
L 23.484375 0 
z
" id="DejaVuSans-76"/>
     </defs>
     <g transform="translate(346.923437 544.916563)scale(0.1 -0.1)">
      <use xlink:href="#DejaVuSans-79"/>
      <use x="59.179688" xlink:href="#DejaVuSans-70"/>
      <use x="122.65625" xlink:href="#DejaVuSans-6f"/>
      <use x="183.837891" xlink:href="#DejaVuSans-73"/>
      <use x="235.9375" xlink:href="#DejaVuSans-5f"/>
      <use x="285.9375" xlink:href="#DejaVuSans-66"/>
      <use x="321.142578" xlink:href="#DejaVuSans-6f"/>
      <use x="382.324219" xlink:href="#DejaVuSans-76"/>
     </g>
    </g>
   </g>
   <g id="matplotlib.axis_2">
    <g id="ytick_1">
     <g id="line2d_8">
      <defs>
       <path d="M 0 0 
L -3.5 0 
" id="m35f7b02082" style="stroke:#000000;stroke-width:0.8;"/>
      </defs>
      <g>
       <use style="stroke:#000000;stroke-width:0.8;" x="86" xlink:href="#m35f7b02082" y="458.014044"/>
      </g>
     </g>
     <g id="text_9">
      <!-- −12.5 -->
      <defs>
       <path d="M 10.59375 35.5 
L 73.1875 35.5 
L 73.1875 27.203125 
L 10.59375 27.203125 
z
" id="DejaVuSans-2212"/>
       <path d="M 10.6875 12.40625 
L 21 12.40625 
L 21 0 
L 10.6875 0 
z
" id="DejaVuSans-2e"/>
       <path d="M 10.796875 72.90625 
L 49.515625 72.90625 
L 49.515625 64.59375 
L 19.828125 64.59375 
L 19.828125 46.734375 
Q 21.96875 47.46875 24.109375 47.828125 
Q 26.265625 48.1875 28.421875 48.1875 
Q 40.625 48.1875 47.75 41.5 
Q 54.890625 34.8125 54.890625 23.390625 
Q 54.890625 11.625 47.5625 5.09375 
Q 40.234375 -1.421875 26.90625 -1.421875 
Q 22.3125 -1.421875 17.546875 -0.640625 
Q 12.796875 0.140625 7.71875 1.703125 
L 7.71875 11.625 
Q 12.109375 9.234375 16.796875 8.0625 
Q 21.484375 6.890625 26.703125 6.890625 
Q 35.15625 6.890625 40.078125 11.328125 
Q 45.015625 15.765625 45.015625 23.390625 
Q 45.015625 31 40.078125 35.4375 
Q 35.15625 39.890625 26.703125 39.890625 
Q 22.75 39.890625 18.8125 39.015625 
Q 14.890625 38.140625 10.796875 36.28125 
z
" id="DejaVuSans-35"/>
      </defs>
      <g transform="translate(48.354687 461.813263)scale(0.1 -0.1)">
       <use xlink:href="#DejaVuSans-2212"/>
       <use x="83.789062" xlink:href="#DejaVuSans-31"/>
       <use x="147.412109" xlink:href="#DejaVuSans-32"/>
       <use x="211.035156" xlink:href="#DejaVuSans-2e"/>
       <use x="242.822266" xlink:href="#DejaVuSans-35"/>
      </g>
     </g>
    </g>
    <g id="ytick_2">
     <g id="line2d_9">
      <g>
       <use style="stroke:#000000;stroke-width:0.8;" x="86" xlink:href="#m35f7b02082" y="409.281158"/>
      </g>
     </g>
     <g id="text_10">
      <!-- −10.0 -->
      <g transform="translate(48.354687 413.080376)scale(0.1 -0.1)">
       <use xlink:href="#DejaVuSans-2212"/>
       <use x="83.789062" xlink:href="#DejaVuSans-31"/>
       <use x="147.412109" xlink:href="#DejaVuSans-30"/>
       <use x="211.035156" xlink:href="#DejaVuSans-2e"/>
       <use x="242.822266" xlink:href="#DejaVuSans-30"/>
      </g>
     </g>
    </g>
    <g id="ytick_3">
     <g id="line2d_10">
      <g>
       <use style="stroke:#000000;stroke-width:0.8;" x="86" xlink:href="#m35f7b02082" y="360.548271"/>
      </g>
     </g>
     <g id="text_11">
      <!-- −7.5 -->
      <defs>
       <path d="M 8.203125 72.90625 
L 55.078125 72.90625 
L 55.078125 68.703125 
L 28.609375 0 
L 18.3125 0 
L 43.21875 64.59375 
L 8.203125 64.59375 
z
" id="DejaVuSans-37"/>
      </defs>
      <g transform="translate(54.717187 364.34749)scale(0.1 -0.1)">
       <use xlink:href="#DejaVuSans-2212"/>
       <use x="83.789062" xlink:href="#DejaVuSans-37"/>
       <use x="147.412109" xlink:href="#DejaVuSans-2e"/>
       <use x="179.199219" xlink:href="#DejaVuSans-35"/>
      </g>
     </g>
    </g>
    <g id="ytick_4">
     <g id="line2d_11">
      <g>
       <use style="stroke:#000000;stroke-width:0.8;" x="86" xlink:href="#m35f7b02082" y="311.815385"/>
      </g>
     </g>
     <g id="text_12">
      <!-- −5.0 -->
      <g transform="translate(54.717187 315.614604)scale(0.1 -0.1)">
       <use xlink:href="#DejaVuSans-2212"/>
       <use x="83.789062" xlink:href="#DejaVuSans-35"/>
       <use x="147.412109" xlink:href="#DejaVuSans-2e"/>
       <use x="179.199219" xlink:href="#DejaVuSans-30"/>
      </g>
     </g>
    </g>
    <g id="ytick_5">
     <g id="line2d_12">
      <g>
       <use style="stroke:#000000;stroke-width:0.8;" x="86" xlink:href="#m35f7b02082" y="263.082499"/>
      </g>
     </g>
     <g id="text_13">
      <!-- −2.5 -->
      <g transform="translate(54.717187 266.881718)scale(0.1 -0.1)">
       <use xlink:href="#DejaVuSans-2212"/>
       <use x="83.789062" xlink:href="#DejaVuSans-32"/>
       <use x="147.412109" xlink:href="#DejaVuSans-2e"/>
       <use x="179.199219" xlink:href="#DejaVuSans-35"/>
      </g>
     </g>
    </g>
    <g id="ytick_6">
     <g id="line2d_13">
      <g>
       <use style="stroke:#000000;stroke-width:0.8;" x="86" xlink:href="#m35f7b02082" y="214.349613"/>
      </g>
     </g>
     <g id="text_14">
      <!-- 0.0 -->
      <g transform="translate(63.096875 218.148831)scale(0.1 -0.1)">
       <use xlink:href="#DejaVuSans-30"/>
       <use x="63.623047" xlink:href="#DejaVuSans-2e"/>
       <use x="95.410156" xlink:href="#DejaVuSans-30"/>
      </g>
     </g>
    </g>
    <g id="ytick_7">
     <g id="line2d_14">
      <g>
       <use style="stroke:#000000;stroke-width:0.8;" x="86" xlink:href="#m35f7b02082" y="165.616726"/>
      </g>
     </g>
     <g id="text_15">
      <!-- 2.5 -->
      <g transform="translate(63.096875 169.415945)scale(0.1 -0.1)">
       <use xlink:href="#DejaVuSans-32"/>
       <use x="63.623047" xlink:href="#DejaVuSans-2e"/>
       <use x="95.410156" xlink:href="#DejaVuSans-35"/>
      </g>
     </g>
    </g>
    <g id="text_16">
     <!-- ypos_rf -->
     <defs>
      <path d="M 41.109375 46.296875 
Q 39.59375 47.171875 37.8125 47.578125 
Q 36.03125 48 33.890625 48 
Q 26.265625 48 22.1875 43.046875 
Q 18.109375 38.09375 18.109375 28.8125 
L 18.109375 0 
L 9.078125 0 
L 9.078125 54.6875 
L 18.109375 54.6875 
L 18.109375 46.1875 
Q 20.953125 51.171875 25.484375 53.578125 
Q 30.03125 56 36.53125 56 
Q 37.453125 56 38.578125 55.875 
Q 39.703125 55.765625 41.0625 55.515625 
z
" id="DejaVuSans-72"/>
     </defs>
     <g transform="translate(41.996875 308.993281)rotate(-90)scale(0.1 -0.1)">
      <use xlink:href="#DejaVuSans-79"/>
      <use x="59.179688" xlink:href="#DejaVuSans-70"/>
      <use x="122.65625" xlink:href="#DejaVuSans-6f"/>
      <use x="183.837891" xlink:href="#DejaVuSans-73"/>
      <use x="235.9375" xlink:href="#DejaVuSans-5f"/>
      <use x="285.9375" xlink:href="#DejaVuSans-72"/>
      <use x="327.050781" xlink:href="#DejaVuSans-66"/>
     </g>
    </g>
   </g>
   <g id="LineCollection_1">
    <path clip-path="url(#p7e864ff440)" d="M 609.722583 244.93999 
L 609.722583 149.55006 
" style="fill:none;stroke:#ff00ff;stroke-opacity:0.7;"/>
    <path clip-path="url(#p7e864ff440)" d="M 523.995147 268.505219 
L 523.995147 123.916609 
" style="fill:none;stroke:#ff00ff;stroke-opacity:0.7;"/>
    <path clip-path="url(#p7e864ff440)" d="M 487.560986 455.945432 
L 487.560986 336.63937 
" style="fill:none;stroke:#ff00ff;stroke-opacity:0.7;"/>
    <path clip-path="url(#p7e864ff440)" d="M 503.634881 358.357057 
L 503.634881 306.237474 
" style="fill:none;stroke:#ff00ff;stroke-opacity:0.7;"/>
    <path clip-path="url(#p7e864ff440)" d="M 450.055233 285.546498 
L 450.055233 231.693083 
" style="fill:none;stroke:#ff00ff;stroke-opacity:0.7;"/>
    <path clip-path="url(#p7e864ff440)" d="M 446.840454 273.427731 
L 446.840454 153.208468 
" style="fill:none;stroke:#ff00ff;stroke-opacity:0.7;"/>
    <path clip-path="url(#p7e864ff440)" d="M 470.415499 412.693894 
L 470.415499 322.841652 
" style="fill:none;stroke:#ff00ff;stroke-opacity:0.7;"/>
    <path clip-path="url(#p7e864ff440)" d="M 510.064438 203.617711 
L 510.064438 89.28 
" style="fill:none;stroke:#ff00ff;stroke-opacity:0.7;"/>
    <path clip-path="url(#p7e864ff440)" d="M 435.052932 287.824307 
L 435.052932 96.650269 
" style="fill:none;stroke:#ff00ff;stroke-opacity:0.7;"/>
    <path clip-path="url(#p7e864ff440)" d="M 307.53337 293.360936 
L 307.53337 113.749761 
" style="fill:none;stroke:#ff00ff;stroke-opacity:0.7;"/>
    <path clip-path="url(#p7e864ff440)" d="M 377.186912 444.566946 
L 377.186912 382.25334 
" style="fill:none;stroke:#ff00ff;stroke-opacity:0.7;"/>
    <path clip-path="url(#p7e864ff440)" d="M 326.822043 321.665029 
L 326.822043 237.058688 
" style="fill:none;stroke:#ff00ff;stroke-opacity:0.7;"/>
    <path clip-path="url(#p7e864ff440)" d="M 483.274614 473.644991 
L 483.274614 318.134454 
" style="fill:none;stroke:#ff00ff;stroke-opacity:0.7;"/>
    <path clip-path="url(#p7e864ff440)" d="M 491.847358 283.992861 
L 491.847358 214.589669 
" style="fill:none;stroke:#ff00ff;stroke-opacity:0.7;"/>
    <path clip-path="url(#p7e864ff440)" d="M 507.921252 492.48 
L 507.921252 338.253099 
" style="fill:none;stroke:#ff00ff;stroke-opacity:0.7;"/>
    <path clip-path="url(#p7e864ff440)" d="M 482.203022 220.261288 
L 482.203022 126.006211 
" style="fill:none;stroke:#ff00ff;stroke-opacity:0.7;"/>
    <path clip-path="url(#p7e864ff440)" d="M 360.041425 312.30993 
L 360.041425 276.700703 
" style="fill:none;stroke:#ff00ff;stroke-opacity:0.7;"/>
    <path clip-path="url(#p7e864ff440)" d="M 580.789573 406.522686 
L 580.789573 326.827666 
" style="fill:none;stroke:#ff00ff;stroke-opacity:0.7;"/>
    <path clip-path="url(#p7e864ff440)" d="M 486.489393 426.697169 
L 486.489393 334.546559 
" style="fill:none;stroke:#ff00ff;stroke-opacity:0.7;"/>
    <path clip-path="url(#p7e864ff440)" d="M 441.482489 406.302734 
L 441.482489 320.957837 
" style="fill:none;stroke:#ff00ff;stroke-opacity:0.7;"/>
    <path clip-path="url(#p7e864ff440)" d="M 433.981339 484.61205 
L 433.981339 326.794142 
" style="fill:none;stroke:#ff00ff;stroke-opacity:0.7;"/>
    <path clip-path="url(#p7e864ff440)" d="M 312.891335 470.319534 
L 312.891335 363.400625 
" style="fill:none;stroke:#ff00ff;stroke-opacity:0.7;"/>
   </g>
   <g id="line2d_15">
    <path clip-path="url(#p7e864ff440)" d="M 90 394.471924 
L 95.636364 393.099747 
L 101.272727 391.727571 
L 106.909091 390.355394 
L 112.545455 388.983218 
L 118.181818 387.611042 
L 123.818182 386.238865 
L 129.454545 384.866689 
L 135.090909 383.494512 
L 140.727273 382.122336 
L 146.363636 380.750159 
L 152 379.377983 
L 157.636364 378.005807 
L 163.272727 376.63363 
L 168.909091 375.261454 
L 174.545455 373.889277 
L 180.181818 372.517101 
L 185.818182 371.144924 
L 191.454545 369.772748 
L 197.090909 368.400572 
L 202.727273 367.028395 
L 208.363636 365.656219 
L 214 364.284042 
L 219.636364 362.911866 
L 225.272727 361.539689 
L 230.909091 360.167513 
L 236.545455 358.795337 
L 242.181818 357.42316 
L 247.818182 356.050984 
L 253.454545 354.678807 
L 259.090909 353.306631 
L 264.727273 351.934454 
L 270.363636 350.562278 
L 276 349.190102 
L 281.636364 347.817925 
L 287.272727 346.445749 
L 292.909091 345.073572 
L 298.545455 343.701396 
L 304.181818 342.32922 
L 309.818182 340.957043 
L 315.454545 339.584867 
L 321.090909 338.21269 
L 326.727273 336.840514 
L 332.363636 335.468337 
L 338 334.096161 
L 343.636364 332.723985 
L 349.272727 331.351808 
L 354.909091 329.979632 
L 360.545455 328.607455 
L 366.181818 327.235279 
L 371.818182 325.863102 
L 377.454545 324.490926 
L 383.090909 323.11875 
L 388.727273 321.746573 
L 394.363636 320.374397 
L 400 319.00222 
L 405.636364 317.630044 
L 411.272727 316.257867 
L 416.909091 314.885691 
L 422.545455 313.513515 
L 428.181818 312.141338 
L 433.818182 310.769162 
L 439.454545 309.396985 
L 445.090909 308.024809 
L 450.727273 306.652633 
L 456.363636 305.280456 
L 462 303.90828 
L 467.636364 302.536103 
L 473.272727 301.163927 
L 478.909091 299.79175 
L 484.545455 298.419574 
L 490.181818 297.047398 
L 495.818182 295.675221 
L 501.454545 294.303045 
L 507.090909 292.930868 
L 512.727273 291.558692 
L 518.363636 290.186515 
L 524 288.814339 
L 529.636364 287.442163 
L 535.272727 286.069986 
L 540.909091 284.69781 
L 546.545455 283.325633 
L 552.181818 281.953457 
L 557.818182 280.58128 
L 563.454545 279.209104 
L 569.090909 277.836928 
L 574.727273 276.464751 
L 580.363636 275.092575 
L 586 273.720398 
L 591.636364 272.348222 
L 597.272727 270.976045 
L 602.909091 269.603869 
L 608.545455 268.231693 
L 614.181818 266.859516 
L 619.818182 265.48734 
L 625.454545 264.115163 
L 631.090909 262.742987 
L 636.727273 261.370811 
L 642.363636 259.998634 
L 648 258.626458 
" style="fill:none;stroke:#000000;stroke-linecap:square;stroke-width:2.25;"/>
   </g>
   <g id="patch_3">
    <path d="M 86 458.014044 
L 86 165.616726 
" style="fill:none;stroke:#000000;stroke-linecap:square;stroke-linejoin:miter;stroke-width:0.8;"/>
   </g>
   <g id="patch_4">
    <path d="M 90 516.64 
L 648 516.64 
" style="fill:none;stroke:#000000;stroke-linecap:square;stroke-linejoin:miter;stroke-width:0.8;"/>
   </g>
   <g id="text_17">
    <!-- elevation -->
    <defs>
     <path d="M 56.203125 29.59375 
L 56.203125 25.203125 
L 14.890625 25.203125 
Q 15.484375 15.921875 20.484375 11.0625 
Q 25.484375 6.203125 34.421875 6.203125 
Q 39.59375 6.203125 44.453125 7.46875 
Q 49.3125 8.734375 54.109375 11.28125 
L 54.109375 2.78125 
Q 49.265625 0.734375 44.1875 -0.34375 
Q 39.109375 -1.421875 33.890625 -1.421875 
Q 20.796875 -1.421875 13.15625 6.1875 
Q 5.515625 13.8125 5.515625 26.8125 
Q 5.515625 40.234375 12.765625 48.109375 
Q 20.015625 56 32.328125 56 
Q 43.359375 56 49.78125 48.890625 
Q 56.203125 41.796875 56.203125 29.59375 
z
M 47.21875 32.234375 
Q 47.125 39.59375 43.09375 43.984375 
Q 39.0625 48.390625 32.421875 48.390625 
Q 24.90625 48.390625 20.390625 44.140625 
Q 15.875 39.890625 15.1875 32.171875 
z
" id="DejaVuSans-65"/>
     <path d="M 9.421875 75.984375 
L 18.40625 75.984375 
L 18.40625 0 
L 9.421875 0 
z
" id="DejaVuSans-6c"/>
     <path d="M 34.28125 27.484375 
Q 23.390625 27.484375 19.1875 25 
Q 14.984375 22.515625 14.984375 16.5 
Q 14.984375 11.71875 18.140625 8.90625 
Q 21.296875 6.109375 26.703125 6.109375 
Q 34.1875 6.109375 38.703125 11.40625 
Q 43.21875 16.703125 43.21875 25.484375 
L 43.21875 27.484375 
z
M 52.203125 31.203125 
L 52.203125 0 
L 43.21875 0 
L 43.21875 8.296875 
Q 40.140625 3.328125 35.546875 0.953125 
Q 30.953125 -1.421875 24.3125 -1.421875 
Q 15.921875 -1.421875 10.953125 3.296875 
Q 6 8.015625 6 15.921875 
Q 6 25.140625 12.171875 29.828125 
Q 18.359375 34.515625 30.609375 34.515625 
L 43.21875 34.515625 
L 43.21875 35.40625 
Q 43.21875 41.609375 39.140625 45 
Q 35.0625 48.390625 27.6875 48.390625 
Q 23 48.390625 18.546875 47.265625 
Q 14.109375 46.140625 10.015625 43.890625 
L 10.015625 52.203125 
Q 14.9375 54.109375 19.578125 55.046875 
Q 24.21875 56 28.609375 56 
Q 40.484375 56 46.34375 49.84375 
Q 52.203125 43.703125 52.203125 31.203125 
z
" id="DejaVuSans-61"/>
     <path d="M 18.3125 70.21875 
L 18.3125 54.6875 
L 36.8125 54.6875 
L 36.8125 47.703125 
L 18.3125 47.703125 
L 18.3125 18.015625 
Q 18.3125 11.328125 20.140625 9.421875 
Q 21.96875 7.515625 27.59375 7.515625 
L 36.8125 7.515625 
L 36.8125 0 
L 27.59375 0 
Q 17.1875 0 13.234375 3.875 
Q 9.28125 7.765625 9.28125 18.015625 
L 9.28125 47.703125 
L 2.6875 47.703125 
L 2.6875 54.6875 
L 9.28125 54.6875 
L 9.28125 70.21875 
z
" id="DejaVuSans-74"/>
     <path d="M 9.421875 54.6875 
L 18.40625 54.6875 
L 18.40625 0 
L 9.421875 0 
z
M 9.421875 75.984375 
L 18.40625 75.984375 
L 18.40625 64.59375 
L 9.421875 64.59375 
z
" id="DejaVuSans-69"/>
     <path d="M 54.890625 33.015625 
L 54.890625 0 
L 45.90625 0 
L 45.90625 32.71875 
Q 45.90625 40.484375 42.875 44.328125 
Q 39.84375 48.1875 33.796875 48.1875 
Q 26.515625 48.1875 22.3125 43.546875 
Q 18.109375 38.921875 18.109375 30.90625 
L 18.109375 0 
L 9.078125 0 
L 9.078125 54.6875 
L 18.109375 54.6875 
L 18.109375 46.1875 
Q 21.34375 51.125 25.703125 53.5625 
Q 30.078125 56 35.796875 56 
Q 45.21875 56 50.046875 50.171875 
Q 54.890625 44.34375 54.890625 33.015625 
z
" id="DejaVuSans-6e"/>
    </defs>
    <g transform="translate(341.228437 63.12)scale(0.12 -0.12)">
     <use xlink:href="#DejaVuSans-65"/>
     <use x="61.523438" xlink:href="#DejaVuSans-6c"/>
     <use x="89.306641" xlink:href="#DejaVuSans-65"/>
     <use x="150.830078" xlink:href="#DejaVuSans-76"/>
     <use x="210.009766" xlink:href="#DejaVuSans-61"/>
     <use x="271.289062" xlink:href="#DejaVuSans-74"/>
     <use x="310.498047" xlink:href="#DejaVuSans-69"/>
     <use x="338.28125" xlink:href="#DejaVuSans-6f"/>
     <use x="399.462891" xlink:href="#DejaVuSans-6e"/>
    </g>
   </g>
   <g id="text_18">
    <!-- y=0.01x + -9.24 -->
    <defs>
     <path d="M 10.59375 45.40625 
L 73.1875 45.40625 
L 73.1875 37.203125 
L 10.59375 37.203125 
z
M 10.59375 25.484375 
L 73.1875 25.484375 
L 73.1875 17.1875 
L 10.59375 17.1875 
z
" id="DejaVuSans-3d"/>
     <path d="M 54.890625 54.6875 
L 35.109375 28.078125 
L 55.90625 0 
L 45.3125 0 
L 29.390625 21.484375 
L 13.484375 0 
L 2.875 0 
L 24.125 28.609375 
L 4.6875 54.6875 
L 15.28125 54.6875 
L 29.78125 35.203125 
L 44.28125 54.6875 
z
" id="DejaVuSans-78"/>
     <path id="DejaVuSans-20"/>
     <path d="M 46 62.703125 
L 46 35.5 
L 73.1875 35.5 
L 73.1875 27.203125 
L 46 27.203125 
L 46 0 
L 37.796875 0 
L 37.796875 27.203125 
L 10.59375 27.203125 
L 10.59375 35.5 
L 37.796875 35.5 
L 37.796875 62.703125 
z
" id="DejaVuSans-2b"/>
     <path d="M 4.890625 31.390625 
L 31.203125 31.390625 
L 31.203125 23.390625 
L 4.890625 23.390625 
z
" id="DejaVuSans-2d"/>
     <path d="M 10.984375 1.515625 
L 10.984375 10.5 
Q 14.703125 8.734375 18.5 7.8125 
Q 22.3125 6.890625 25.984375 6.890625 
Q 35.75 6.890625 40.890625 13.453125 
Q 46.046875 20.015625 46.78125 33.40625 
Q 43.953125 29.203125 39.59375 26.953125 
Q 35.25 24.703125 29.984375 24.703125 
Q 19.046875 24.703125 12.671875 31.3125 
Q 6.296875 37.9375 6.296875 49.421875 
Q 6.296875 60.640625 12.9375 67.421875 
Q 19.578125 74.21875 30.609375 74.21875 
Q 43.265625 74.21875 49.921875 64.515625 
Q 56.59375 54.828125 56.59375 36.375 
Q 56.59375 19.140625 48.40625 8.859375 
Q 40.234375 -1.421875 26.421875 -1.421875 
Q 22.703125 -1.421875 18.890625 -0.6875 
Q 15.09375 0.046875 10.984375 1.515625 
z
M 30.609375 32.421875 
Q 37.25 32.421875 41.125 36.953125 
Q 45.015625 41.5 45.015625 49.421875 
Q 45.015625 57.28125 41.125 61.84375 
Q 37.25 66.40625 30.609375 66.40625 
Q 23.96875 66.40625 20.09375 61.84375 
Q 16.21875 57.28125 16.21875 49.421875 
Q 16.21875 41.5 20.09375 36.953125 
Q 23.96875 32.421875 30.609375 32.421875 
z
" id="DejaVuSans-39"/>
    </defs>
    <g transform="translate(90 63.12)scale(0.12 -0.12)">
     <use xlink:href="#DejaVuSans-79"/>
     <use x="59.179688" xlink:href="#DejaVuSans-3d"/>
     <use x="142.96875" xlink:href="#DejaVuSans-30"/>
     <use x="206.591797" xlink:href="#DejaVuSans-2e"/>
     <use x="238.378906" xlink:href="#DejaVuSans-30"/>
     <use x="302.001953" xlink:href="#DejaVuSans-31"/>
     <use x="365.625" xlink:href="#DejaVuSans-78"/>
     <use x="424.804688" xlink:href="#DejaVuSans-20"/>
     <use x="456.591797" xlink:href="#DejaVuSans-2b"/>
     <use x="540.380859" xlink:href="#DejaVuSans-20"/>
     <use x="572.167969" xlink:href="#DejaVuSans-2d"/>
     <use x="608.251953" xlink:href="#DejaVuSans-39"/>
     <use x="671.875" xlink:href="#DejaVuSans-2e"/>
     <use x="703.662109" xlink:href="#DejaVuSans-32"/>
     <use x="767.285156" xlink:href="#DejaVuSans-34"/>
    </g>
   </g>
   <g id="legend_1">
    <g id="patch_5">
     <path d="M 510.525 121.154375 
L 641 121.154375 
Q 643 121.154375 643 119.154375 
L 643 76.12 
Q 643 74.12 641 74.12 
L 510.525 74.12 
Q 508.525 74.12 508.525 76.12 
L 508.525 119.154375 
Q 508.525 121.154375 510.525 121.154375 
z
" style="fill:#ffffff;opacity:0.8;stroke:#cccccc;stroke-linejoin:miter;"/>
    </g>
    <g id="PathCollection_4">
     <g>
      <use style="fill:#808080;fill-opacity:0.5;stroke:#808080;stroke-opacity:0.5;stroke-width:1.5;" x="522.525" xlink:href="#m6bf2bfed3a" y="83.093438"/>
     </g>
    </g>
    <g id="text_19">
     <!-- unreliable (R2&gt;0.5) -->
     <defs>
      <path d="M 8.5 21.578125 
L 8.5 54.6875 
L 17.484375 54.6875 
L 17.484375 21.921875 
Q 17.484375 14.15625 20.5 10.265625 
Q 23.53125 6.390625 29.59375 6.390625 
Q 36.859375 6.390625 41.078125 11.03125 
Q 45.3125 15.671875 45.3125 23.6875 
L 45.3125 54.6875 
L 54.296875 54.6875 
L 54.296875 0 
L 45.3125 0 
L 45.3125 8.40625 
Q 42.046875 3.421875 37.71875 1 
Q 33.40625 -1.421875 27.6875 -1.421875 
Q 18.265625 -1.421875 13.375 4.4375 
Q 8.5 10.296875 8.5 21.578125 
z
M 31.109375 56 
z
" id="DejaVuSans-75"/>
      <path d="M 48.6875 27.296875 
Q 48.6875 37.203125 44.609375 42.84375 
Q 40.53125 48.484375 33.40625 48.484375 
Q 26.265625 48.484375 22.1875 42.84375 
Q 18.109375 37.203125 18.109375 27.296875 
Q 18.109375 17.390625 22.1875 11.75 
Q 26.265625 6.109375 33.40625 6.109375 
Q 40.53125 6.109375 44.609375 11.75 
Q 48.6875 17.390625 48.6875 27.296875 
z
M 18.109375 46.390625 
Q 20.953125 51.265625 25.265625 53.625 
Q 29.59375 56 35.59375 56 
Q 45.5625 56 51.78125 48.09375 
Q 58.015625 40.1875 58.015625 27.296875 
Q 58.015625 14.40625 51.78125 6.484375 
Q 45.5625 -1.421875 35.59375 -1.421875 
Q 29.59375 -1.421875 25.265625 0.953125 
Q 20.953125 3.328125 18.109375 8.203125 
L 18.109375 0 
L 9.078125 0 
L 9.078125 75.984375 
L 18.109375 75.984375 
z
" id="DejaVuSans-62"/>
      <path d="M 31 75.875 
Q 24.46875 64.65625 21.28125 53.65625 
Q 18.109375 42.671875 18.109375 31.390625 
Q 18.109375 20.125 21.3125 9.0625 
Q 24.515625 -2 31 -13.1875 
L 23.1875 -13.1875 
Q 15.875 -1.703125 12.234375 9.375 
Q 8.59375 20.453125 8.59375 31.390625 
Q 8.59375 42.28125 12.203125 53.3125 
Q 15.828125 64.359375 23.1875 75.875 
z
" id="DejaVuSans-28"/>
      <path d="M 44.390625 34.1875 
Q 47.5625 33.109375 50.5625 29.59375 
Q 53.5625 26.078125 56.59375 19.921875 
L 66.609375 0 
L 56 0 
L 46.6875 18.703125 
Q 43.0625 26.03125 39.671875 28.421875 
Q 36.28125 30.8125 30.421875 30.8125 
L 19.671875 30.8125 
L 19.671875 0 
L 9.8125 0 
L 9.8125 72.90625 
L 32.078125 72.90625 
Q 44.578125 72.90625 50.734375 67.671875 
Q 56.890625 62.453125 56.890625 51.90625 
Q 56.890625 45.015625 53.6875 40.46875 
Q 50.484375 35.9375 44.390625 34.1875 
z
M 19.671875 64.796875 
L 19.671875 38.921875 
L 32.078125 38.921875 
Q 39.203125 38.921875 42.84375 42.21875 
Q 46.484375 45.515625 46.484375 51.90625 
Q 46.484375 58.296875 42.84375 61.546875 
Q 39.203125 64.796875 32.078125 64.796875 
z
" id="DejaVuSans-52"/>
      <path d="M 10.59375 49.21875 
L 10.59375 58.109375 
L 73.1875 35.40625 
L 73.1875 27.296875 
L 10.59375 4.59375 
L 10.59375 13.484375 
L 60.890625 31.296875 
z
" id="DejaVuSans-3e"/>
      <path d="M 8.015625 75.875 
L 15.828125 75.875 
Q 23.140625 64.359375 26.78125 53.3125 
Q 30.421875 42.28125 30.421875 31.390625 
Q 30.421875 20.453125 26.78125 9.375 
Q 23.140625 -1.703125 15.828125 -13.1875 
L 8.015625 -13.1875 
Q 14.5 -2 17.703125 9.0625 
Q 20.90625 20.125 20.90625 31.390625 
Q 20.90625 42.671875 17.703125 53.65625 
Q 14.5 64.65625 8.015625 75.875 
z
" id="DejaVuSans-29"/>
     </defs>
     <g transform="translate(540.525 85.718438)scale(0.1 -0.1)">
      <use xlink:href="#DejaVuSans-75"/>
      <use x="63.378906" xlink:href="#DejaVuSans-6e"/>
      <use x="126.757812" xlink:href="#DejaVuSans-72"/>
      <use x="167.839844" xlink:href="#DejaVuSans-65"/>
      <use x="229.363281" xlink:href="#DejaVuSans-6c"/>
      <use x="257.146484" xlink:href="#DejaVuSans-69"/>
      <use x="284.929688" xlink:href="#DejaVuSans-61"/>
      <use x="346.208984" xlink:href="#DejaVuSans-62"/>
      <use x="409.685547" xlink:href="#DejaVuSans-6c"/>
      <use x="437.46875" xlink:href="#DejaVuSans-65"/>
      <use x="498.992188" xlink:href="#DejaVuSans-20"/>
      <use x="530.779297" xlink:href="#DejaVuSans-28"/>
      <use x="569.792969" xlink:href="#DejaVuSans-52"/>
      <use x="639.275391" xlink:href="#DejaVuSans-32"/>
      <use x="702.898438" xlink:href="#DejaVuSans-3e"/>
      <use x="786.6875" xlink:href="#DejaVuSans-30"/>
      <use x="850.310547" xlink:href="#DejaVuSans-2e"/>
      <use x="882.097656" xlink:href="#DejaVuSans-35"/>
      <use x="945.720703" xlink:href="#DejaVuSans-29"/>
     </g>
    </g>
    <g id="PathCollection_5">
     <g>
      <use style="stroke:#000000;" x="522.525" xlink:href="#m80aecf497f" y="97.771563"/>
     </g>
    </g>
    <g id="text_20">
     <!-- reliable (95% CI) -->
     <defs>
      <path d="M 72.703125 32.078125 
Q 68.453125 32.078125 66.03125 28.46875 
Q 63.625 24.859375 63.625 18.40625 
Q 63.625 12.0625 66.03125 8.421875 
Q 68.453125 4.78125 72.703125 4.78125 
Q 76.859375 4.78125 79.265625 8.421875 
Q 81.6875 12.0625 81.6875 18.40625 
Q 81.6875 24.8125 79.265625 28.4375 
Q 76.859375 32.078125 72.703125 32.078125 
z
M 72.703125 38.28125 
Q 80.421875 38.28125 84.953125 32.90625 
Q 89.5 27.546875 89.5 18.40625 
Q 89.5 9.28125 84.9375 3.921875 
Q 80.375 -1.421875 72.703125 -1.421875 
Q 64.890625 -1.421875 60.34375 3.921875 
Q 55.8125 9.28125 55.8125 18.40625 
Q 55.8125 27.59375 60.375 32.9375 
Q 64.9375 38.28125 72.703125 38.28125 
z
M 22.3125 68.015625 
Q 18.109375 68.015625 15.6875 64.375 
Q 13.28125 60.75 13.28125 54.390625 
Q 13.28125 47.953125 15.671875 44.328125 
Q 18.0625 40.71875 22.3125 40.71875 
Q 26.5625 40.71875 28.96875 44.328125 
Q 31.390625 47.953125 31.390625 54.390625 
Q 31.390625 60.6875 28.953125 64.34375 
Q 26.515625 68.015625 22.3125 68.015625 
z
M 66.40625 74.21875 
L 74.21875 74.21875 
L 28.609375 -1.421875 
L 20.796875 -1.421875 
z
M 22.3125 74.21875 
Q 30.03125 74.21875 34.609375 68.875 
Q 39.203125 63.53125 39.203125 54.390625 
Q 39.203125 45.171875 34.640625 39.84375 
Q 30.078125 34.515625 22.3125 34.515625 
Q 14.546875 34.515625 10.03125 39.859375 
Q 5.515625 45.21875 5.515625 54.390625 
Q 5.515625 63.484375 10.046875 68.84375 
Q 14.59375 74.21875 22.3125 74.21875 
z
" id="DejaVuSans-25"/>
      <path d="M 64.40625 67.28125 
L 64.40625 56.890625 
Q 59.421875 61.53125 53.78125 63.8125 
Q 48.140625 66.109375 41.796875 66.109375 
Q 29.296875 66.109375 22.65625 58.46875 
Q 16.015625 50.828125 16.015625 36.375 
Q 16.015625 21.96875 22.65625 14.328125 
Q 29.296875 6.6875 41.796875 6.6875 
Q 48.140625 6.6875 53.78125 8.984375 
Q 59.421875 11.28125 64.40625 15.921875 
L 64.40625 5.609375 
Q 59.234375 2.09375 53.4375 0.328125 
Q 47.65625 -1.421875 41.21875 -1.421875 
Q 24.65625 -1.421875 15.125 8.703125 
Q 5.609375 18.84375 5.609375 36.375 
Q 5.609375 53.953125 15.125 64.078125 
Q 24.65625 74.21875 41.21875 74.21875 
Q 47.75 74.21875 53.53125 72.484375 
Q 59.328125 70.75 64.40625 67.28125 
z
" id="DejaVuSans-43"/>
      <path d="M 9.8125 72.90625 
L 19.671875 72.90625 
L 19.671875 0 
L 9.8125 0 
z
" id="DejaVuSans-49"/>
     </defs>
     <g transform="translate(540.525 100.396563)scale(0.1 -0.1)">
      <use xlink:href="#DejaVuSans-72"/>
      <use x="41.082031" xlink:href="#DejaVuSans-65"/>
      <use x="102.605469" xlink:href="#DejaVuSans-6c"/>
      <use x="130.388672" xlink:href="#DejaVuSans-69"/>
      <use x="158.171875" xlink:href="#DejaVuSans-61"/>
      <use x="219.451172" xlink:href="#DejaVuSans-62"/>
      <use x="282.927734" xlink:href="#DejaVuSans-6c"/>
      <use x="310.710938" xlink:href="#DejaVuSans-65"/>
      <use x="372.234375" xlink:href="#DejaVuSans-20"/>
      <use x="404.021484" xlink:href="#DejaVuSans-28"/>
      <use x="443.035156" xlink:href="#DejaVuSans-39"/>
      <use x="506.658203" xlink:href="#DejaVuSans-35"/>
      <use x="570.28125" xlink:href="#DejaVuSans-25"/>
      <use x="665.300781" xlink:href="#DejaVuSans-20"/>
      <use x="697.087891" xlink:href="#DejaVuSans-43"/>
      <use x="766.912109" xlink:href="#DejaVuSans-49"/>
      <use x="796.404297" xlink:href="#DejaVuSans-29"/>
     </g>
    </g>
    <g id="PathCollection_6">
     <g>
      <use style="fill:#ff00ff;stroke:#ff00ff;" x="522.525" xlink:href="#ma15ef4f75b" y="112.449688"/>
     </g>
    </g>
    <g id="text_21">
     <!-- scattered -->
     <defs>
      <path d="M 48.78125 52.59375 
L 48.78125 44.1875 
Q 44.96875 46.296875 41.140625 47.34375 
Q 37.3125 48.390625 33.40625 48.390625 
Q 24.65625 48.390625 19.8125 42.84375 
Q 14.984375 37.3125 14.984375 27.296875 
Q 14.984375 17.28125 19.8125 11.734375 
Q 24.65625 6.203125 33.40625 6.203125 
Q 37.3125 6.203125 41.140625 7.25 
Q 44.96875 8.296875 48.78125 10.40625 
L 48.78125 2.09375 
Q 45.015625 0.34375 40.984375 -0.53125 
Q 36.96875 -1.421875 32.421875 -1.421875 
Q 20.0625 -1.421875 12.78125 6.34375 
Q 5.515625 14.109375 5.515625 27.296875 
Q 5.515625 40.671875 12.859375 48.328125 
Q 20.21875 56 33.015625 56 
Q 37.15625 56 41.109375 55.140625 
Q 45.0625 54.296875 48.78125 52.59375 
z
" id="DejaVuSans-63"/>
      <path d="M 45.40625 46.390625 
L 45.40625 75.984375 
L 54.390625 75.984375 
L 54.390625 0 
L 45.40625 0 
L 45.40625 8.203125 
Q 42.578125 3.328125 38.25 0.953125 
Q 33.9375 -1.421875 27.875 -1.421875 
Q 17.96875 -1.421875 11.734375 6.484375 
Q 5.515625 14.40625 5.515625 27.296875 
Q 5.515625 40.1875 11.734375 48.09375 
Q 17.96875 56 27.875 56 
Q 33.9375 56 38.25 53.625 
Q 42.578125 51.265625 45.40625 46.390625 
z
M 14.796875 27.296875 
Q 14.796875 17.390625 18.875 11.75 
Q 22.953125 6.109375 30.078125 6.109375 
Q 37.203125 6.109375 41.296875 11.75 
Q 45.40625 17.390625 45.40625 27.296875 
Q 45.40625 37.203125 41.296875 42.84375 
Q 37.203125 48.484375 30.078125 48.484375 
Q 22.953125 48.484375 18.875 42.84375 
Q 14.796875 37.203125 14.796875 27.296875 
z
" id="DejaVuSans-64"/>
     </defs>
     <g transform="translate(540.525 115.074688)scale(0.1 -0.1)">
      <use xlink:href="#DejaVuSans-73"/>
      <use x="52.099609" xlink:href="#DejaVuSans-63"/>
      <use x="107.080078" xlink:href="#DejaVuSans-61"/>
      <use x="168.359375" xlink:href="#DejaVuSans-74"/>
      <use x="207.568359" xlink:href="#DejaVuSans-74"/>
      <use x="246.777344" xlink:href="#DejaVuSans-65"/>
      <use x="308.300781" xlink:href="#DejaVuSans-72"/>
      <use x="349.382812" xlink:href="#DejaVuSans-65"/>
      <use x="410.90625" xlink:href="#DejaVuSans-64"/>
     </g>
    </g>
   </g>
  </g>
  <g id="text_22">
   <!-- JC085|20190622|FOV1_zoom2p0x|traces001|rois001|corrected|fit-2dgaus_dff-no-cutoff -->
   <defs>
    <path d="M 9.8125 72.90625 
L 19.671875 72.90625 
L 19.671875 5.078125 
Q 19.671875 -8.109375 14.671875 -14.0625 
Q 9.671875 -20.015625 -1.421875 -20.015625 
L -5.171875 -20.015625 
L -5.171875 -11.71875 
L -2.09375 -11.71875 
Q 4.4375 -11.71875 7.125 -8.046875 
Q 9.8125 -4.390625 9.8125 5.078125 
z
" id="DejaVuSans-4a"/>
    <path d="M 21 76.421875 
L 21 -23.578125 
L 12.703125 -23.578125 
L 12.703125 76.421875 
z
" id="DejaVuSans-7c"/>
    <path d="M 9.8125 72.90625 
L 51.703125 72.90625 
L 51.703125 64.59375 
L 19.671875 64.59375 
L 19.671875 43.109375 
L 48.578125 43.109375 
L 48.578125 34.8125 
L 19.671875 34.8125 
L 19.671875 0 
L 9.8125 0 
z
" id="DejaVuSans-46"/>
    <path d="M 39.40625 66.21875 
Q 28.65625 66.21875 22.328125 58.203125 
Q 16.015625 50.203125 16.015625 36.375 
Q 16.015625 22.609375 22.328125 14.59375 
Q 28.65625 6.59375 39.40625 6.59375 
Q 50.140625 6.59375 56.421875 14.59375 
Q 62.703125 22.609375 62.703125 36.375 
Q 62.703125 50.203125 56.421875 58.203125 
Q 50.140625 66.21875 39.40625 66.21875 
z
M 39.40625 74.21875 
Q 54.734375 74.21875 63.90625 63.9375 
Q 73.09375 53.65625 73.09375 36.375 
Q 73.09375 19.140625 63.90625 8.859375 
Q 54.734375 -1.421875 39.40625 -1.421875 
Q 24.03125 -1.421875 14.8125 8.828125 
Q 5.609375 19.09375 5.609375 36.375 
Q 5.609375 53.65625 14.8125 63.9375 
Q 24.03125 74.21875 39.40625 74.21875 
z
" id="DejaVuSans-4f"/>
    <path d="M 28.609375 0 
L 0.78125 72.90625 
L 11.078125 72.90625 
L 34.1875 11.53125 
L 57.328125 72.90625 
L 67.578125 72.90625 
L 39.796875 0 
z
" id="DejaVuSans-56"/>
    <path d="M 5.515625 54.6875 
L 48.1875 54.6875 
L 48.1875 46.484375 
L 14.40625 7.171875 
L 48.1875 7.171875 
L 48.1875 0 
L 4.296875 0 
L 4.296875 8.203125 
L 38.09375 47.515625 
L 5.515625 47.515625 
z
" id="DejaVuSans-7a"/>
    <path d="M 52 44.1875 
Q 55.375 50.25 60.0625 53.125 
Q 64.75 56 71.09375 56 
Q 79.640625 56 84.28125 50.015625 
Q 88.921875 44.046875 88.921875 33.015625 
L 88.921875 0 
L 79.890625 0 
L 79.890625 32.71875 
Q 79.890625 40.578125 77.09375 44.375 
Q 74.3125 48.1875 68.609375 48.1875 
Q 61.625 48.1875 57.5625 43.546875 
Q 53.515625 38.921875 53.515625 30.90625 
L 53.515625 0 
L 44.484375 0 
L 44.484375 32.71875 
Q 44.484375 40.625 41.703125 44.40625 
Q 38.921875 48.1875 33.109375 48.1875 
Q 26.21875 48.1875 22.15625 43.53125 
Q 18.109375 38.875 18.109375 30.90625 
L 18.109375 0 
L 9.078125 0 
L 9.078125 54.6875 
L 18.109375 54.6875 
L 18.109375 46.1875 
Q 21.1875 51.21875 25.484375 53.609375 
Q 29.78125 56 35.6875 56 
Q 41.65625 56 45.828125 52.96875 
Q 50 49.953125 52 44.1875 
z
" id="DejaVuSans-6d"/>
    <path d="M 45.40625 27.984375 
Q 45.40625 37.75 41.375 43.109375 
Q 37.359375 48.484375 30.078125 48.484375 
Q 22.859375 48.484375 18.828125 43.109375 
Q 14.796875 37.75 14.796875 27.984375 
Q 14.796875 18.265625 18.828125 12.890625 
Q 22.859375 7.515625 30.078125 7.515625 
Q 37.359375 7.515625 41.375 12.890625 
Q 45.40625 18.265625 45.40625 27.984375 
z
M 54.390625 6.78125 
Q 54.390625 -7.171875 48.1875 -13.984375 
Q 42 -20.796875 29.203125 -20.796875 
Q 24.46875 -20.796875 20.265625 -20.09375 
Q 16.0625 -19.390625 12.109375 -17.921875 
L 12.109375 -9.1875 
Q 16.0625 -11.328125 19.921875 -12.34375 
Q 23.78125 -13.375 27.78125 -13.375 
Q 36.625 -13.375 41.015625 -8.765625 
Q 45.40625 -4.15625 45.40625 5.171875 
L 45.40625 9.625 
Q 42.625 4.78125 38.28125 2.390625 
Q 33.9375 0 27.875 0 
Q 17.828125 0 11.671875 7.65625 
Q 5.515625 15.328125 5.515625 27.984375 
Q 5.515625 40.671875 11.671875 48.328125 
Q 17.828125 56 27.875 56 
Q 33.9375 56 38.28125 53.609375 
Q 42.625 51.21875 45.40625 46.390625 
L 45.40625 54.6875 
L 54.390625 54.6875 
z
" id="DejaVuSans-67"/>
   </defs>
   <g transform="translate(0 6.11375)scale(0.08 -0.08)">
    <use xlink:href="#DejaVuSans-4a"/>
    <use x="29.492188" xlink:href="#DejaVuSans-43"/>
    <use x="99.316406" xlink:href="#DejaVuSans-30"/>
    <use x="162.939453" xlink:href="#DejaVuSans-38"/>
    <use x="226.5625" xlink:href="#DejaVuSans-35"/>
    <use x="290.185547" xlink:href="#DejaVuSans-7c"/>
    <use x="323.876953" xlink:href="#DejaVuSans-32"/>
    <use x="387.5" xlink:href="#DejaVuSans-30"/>
    <use x="451.123047" xlink:href="#DejaVuSans-31"/>
    <use x="514.746094" xlink:href="#DejaVuSans-39"/>
    <use x="578.369141" xlink:href="#DejaVuSans-30"/>
    <use x="641.992188" xlink:href="#DejaVuSans-36"/>
    <use x="705.615234" xlink:href="#DejaVuSans-32"/>
    <use x="769.238281" xlink:href="#DejaVuSans-32"/>
    <use x="832.861328" xlink:href="#DejaVuSans-7c"/>
    <use x="866.552734" xlink:href="#DejaVuSans-46"/>
    <use x="924.072266" xlink:href="#DejaVuSans-4f"/>
    <use x="1002.767578" xlink:href="#DejaVuSans-56"/>
    <use x="1071.175781" xlink:href="#DejaVuSans-31"/>
    <use x="1134.798828" xlink:href="#DejaVuSans-5f"/>
    <use x="1184.798828" xlink:href="#DejaVuSans-7a"/>
    <use x="1237.289062" xlink:href="#DejaVuSans-6f"/>
    <use x="1298.470703" xlink:href="#DejaVuSans-6f"/>
    <use x="1359.652344" xlink:href="#DejaVuSans-6d"/>
    <use x="1457.064453" xlink:href="#DejaVuSans-32"/>
    <use x="1520.6875" xlink:href="#DejaVuSans-70"/>
    <use x="1584.164062" xlink:href="#DejaVuSans-30"/>
    <use x="1647.787109" xlink:href="#DejaVuSans-78"/>
    <use x="1706.966797" xlink:href="#DejaVuSans-7c"/>
    <use x="1740.658203" xlink:href="#DejaVuSans-74"/>
    <use x="1779.867188" xlink:href="#DejaVuSans-72"/>
    <use x="1820.980469" xlink:href="#DejaVuSans-61"/>
    <use x="1882.259766" xlink:href="#DejaVuSans-63"/>
    <use x="1937.240234" xlink:href="#DejaVuSans-65"/>
    <use x="1998.763672" xlink:href="#DejaVuSans-73"/>
    <use x="2050.863281" xlink:href="#DejaVuSans-30"/>
    <use x="2114.486328" xlink:href="#DejaVuSans-30"/>
    <use x="2178.109375" xlink:href="#DejaVuSans-31"/>
    <use x="2241.732422" xlink:href="#DejaVuSans-7c"/>
    <use x="2275.423828" xlink:href="#DejaVuSans-72"/>
    <use x="2316.505859" xlink:href="#DejaVuSans-6f"/>
    <use x="2377.6875" xlink:href="#DejaVuSans-69"/>
    <use x="2405.470703" xlink:href="#DejaVuSans-73"/>
    <use x="2457.570312" xlink:href="#DejaVuSans-30"/>
    <use x="2521.193359" xlink:href="#DejaVuSans-30"/>
    <use x="2584.816406" xlink:href="#DejaVuSans-31"/>
    <use x="2648.439453" xlink:href="#DejaVuSans-7c"/>
    <use x="2682.130859" xlink:href="#DejaVuSans-63"/>
    <use x="2737.111328" xlink:href="#DejaVuSans-6f"/>
    <use x="2798.292969" xlink:href="#DejaVuSans-72"/>
    <use x="2839.390625" xlink:href="#DejaVuSans-72"/>
    <use x="2880.472656" xlink:href="#DejaVuSans-65"/>
    <use x="2941.996094" xlink:href="#DejaVuSans-63"/>
    <use x="2996.976562" xlink:href="#DejaVuSans-74"/>
    <use x="3036.185547" xlink:href="#DejaVuSans-65"/>
    <use x="3097.708984" xlink:href="#DejaVuSans-64"/>
    <use x="3161.185547" xlink:href="#DejaVuSans-7c"/>
    <use x="3194.876953" xlink:href="#DejaVuSans-66"/>
    <use x="3230.082031" xlink:href="#DejaVuSans-69"/>
    <use x="3257.865234" xlink:href="#DejaVuSans-74"/>
    <use x="3297.074219" xlink:href="#DejaVuSans-2d"/>
    <use x="3333.158203" xlink:href="#DejaVuSans-32"/>
    <use x="3396.78125" xlink:href="#DejaVuSans-64"/>
    <use x="3460.257812" xlink:href="#DejaVuSans-67"/>
    <use x="3523.734375" xlink:href="#DejaVuSans-61"/>
    <use x="3585.013672" xlink:href="#DejaVuSans-75"/>
    <use x="3648.392578" xlink:href="#DejaVuSans-73"/>
    <use x="3700.492188" xlink:href="#DejaVuSans-5f"/>
    <use x="3750.492188" xlink:href="#DejaVuSans-64"/>
    <use x="3813.96875" xlink:href="#DejaVuSans-66"/>
    <use x="3849.173828" xlink:href="#DejaVuSans-66"/>
    <use x="3884.300781" xlink:href="#DejaVuSans-2d"/>
    <use x="3920.384766" xlink:href="#DejaVuSans-6e"/>
    <use x="3983.763672" xlink:href="#DejaVuSans-6f"/>
    <use x="4044.960938" xlink:href="#DejaVuSans-2d"/>
    <use x="4081.044922" xlink:href="#DejaVuSans-63"/>
    <use x="4136.025391" xlink:href="#DejaVuSans-75"/>
    <use x="4199.404297" xlink:href="#DejaVuSans-74"/>
    <use x="4238.613281" xlink:href="#DejaVuSans-6f"/>
    <use x="4299.794922" xlink:href="#DejaVuSans-66"/>
    <use x="4335" xlink:href="#DejaVuSans-66"/>
   </g>
  </g>
 </g>
 <defs>
  <clipPath id="p7e864ff440">
   <rect height="443.52" width="558" x="90" y="69.12"/>
  </clipPath>
 </defs>
</svg>
