<?xml version="1.0" encoding="utf-8" standalone="no"?>
<!DOCTYPE svg PUBLIC "-//W3C//DTD SVG 1.1//EN"
  "http://www.w3.org/Graphics/SVG/1.1/DTD/svg11.dtd">
<!-- Created with matplotlib (http://matplotlib.org/) -->
<svg height="576pt" version="1.1" viewBox="0 0 720 576" width="720pt" xmlns="http://www.w3.org/2000/svg" xmlns:xlink="http://www.w3.org/1999/xlink">
 <defs>
  <style type="text/css">
*{stroke-linecap:butt;stroke-linejoin:round;}
  </style>
 </defs>
 <g id="figure_1">
  <g id="patch_1">
   <path d="M 0 576 
L 720 576 
L 720 0 
L 0 0 
z
" style="fill:#ffffff;"/>
  </g>
  <g id="axes_1">
   <g id="patch_2">
    <path d="M 90 512.64 
L 648 512.64 
L 648 69.12 
L 90 69.12 
z
" style="fill:#ffffff;"/>
   </g>
   <g id="PathCollection_1">
    <defs>
     <path d="M -2.738613 2.738613 
L 2.738613 -2.738613 
M -2.738613 -2.738613 
L 2.738613 2.738613 
" id="m419273c942" style="stroke:#808080;stroke-opacity:0.5;stroke-width:1.5;"/>
    </defs>
    <g clip-path="url(#p242f7e5c6f)">
     <use style="fill:#808080;fill-opacity:0.5;stroke:#808080;stroke-opacity:0.5;stroke-width:1.5;" x="412.223342" xlink:href="#m419273c942" y="174.300592"/>
     <use style="fill:#808080;fill-opacity:0.5;stroke:#808080;stroke-opacity:0.5;stroke-width:1.5;" x="270.586708" xlink:href="#m419273c942" y="301.647441"/>
    </g>
   </g>
   <g id="PathCollection_2">
    <defs>
     <path d="M 0 2.738613 
C 0.726289 2.738613 1.422928 2.450055 1.936492 1.936492 
C 2.450055 1.422928 2.738613 0.726289 2.738613 0 
C 2.738613 -0.726289 2.450055 -1.422928 1.936492 -1.936492 
C 1.422928 -2.450055 0.726289 -2.738613 0 -2.738613 
C -0.726289 -2.738613 -1.422928 -2.450055 -1.936492 -1.936492 
C -2.450055 -1.422928 -2.738613 -0.726289 -2.738613 0 
C -2.738613 0.726289 -2.450055 1.422928 -1.936492 1.936492 
C -1.422928 2.450055 -0.726289 2.738613 0 2.738613 
z
" id="mf544aaef7a" style="stroke:#000000;"/>
    </defs>
    <g clip-path="url(#p242f7e5c6f)">
     <use style="stroke:#000000;" x="506.942841" xlink:href="#mf544aaef7a" y="277.848752"/>
     <use style="stroke:#000000;" x="513.139444" xlink:href="#mf544aaef7a" y="199.285051"/>
     <use style="stroke:#000000;" x="490.123491" xlink:href="#mf544aaef7a" y="253.640108"/>
     <use style="stroke:#000000;" x="515.795131" xlink:href="#mf544aaef7a" y="183.921483"/>
     <use style="stroke:#000000;" x="427.272235" xlink:href="#mf544aaef7a" y="259.669585"/>
     <use style="stroke:#000000;" x="396.289221" xlink:href="#mf544aaef7a" y="279.644236"/>
     <use style="stroke:#000000;" x="374.158497" xlink:href="#mf544aaef7a" y="289.475716"/>
     <use style="stroke:#000000;" x="363.53575" xlink:href="#mf544aaef7a" y="311.226833"/>
     <use style="stroke:#000000;" x="390.092618" xlink:href="#mf544aaef7a" y="266.661304"/>
     <use style="stroke:#000000;" x="397.17445" xlink:href="#mf544aaef7a" y="273.852348"/>
     <use style="stroke:#000000;" x="400.715366" xlink:href="#mf544aaef7a" y="256.495513"/>
     <use style="stroke:#000000;" x="436.124524" xlink:href="#mf544aaef7a" y="489.827765"/>
     <use style="stroke:#000000;" x="398.059679" xlink:href="#mf544aaef7a" y="328.782773"/>
     <use style="stroke:#000000;" x="387.436932" xlink:href="#mf544aaef7a" y="258.58814"/>
     <use style="stroke:#000000;" x="454.714333" xlink:href="#mf544aaef7a" y="213.028906"/>
     <use style="stroke:#000000;" x="421.960861" xlink:href="#mf544aaef7a" y="267.13615"/>
     <use style="stroke:#000000;" x="415.764258" xlink:href="#mf544aaef7a" y="227.19387"/>
     <use style="stroke:#000000;" x="374.158497" xlink:href="#mf544aaef7a" y="220.471782"/>
     <use style="stroke:#000000;" x="365.306207" xlink:href="#mf544aaef7a" y="346.545022"/>
     <use style="stroke:#000000;" x="358.224376" xlink:href="#mf544aaef7a" y="272.784342"/>
     <use style="stroke:#000000;" x="367.076665" xlink:href="#mf544aaef7a" y="264.065545"/>
     <use style="stroke:#000000;" x="375.043726" xlink:href="#mf544aaef7a" y="222.135576"/>
     <use style="stroke:#000000;" x="370.617581" xlink:href="#mf544aaef7a" y="246.573485"/>
     <use style="stroke:#000000;" x="363.53575" xlink:href="#mf544aaef7a" y="207.30593"/>
     <use style="stroke:#000000;" x="373.273268" xlink:href="#mf544aaef7a" y="258.131924"/>
     <use style="stroke:#000000;" x="413.9938" xlink:href="#mf544aaef7a" y="274.664828"/>
     <use style="stroke:#000000;" x="360.880063" xlink:href="#mf544aaef7a" y="222.314082"/>
     <use style="stroke:#000000;" x="358.224376" xlink:href="#mf544aaef7a" y="270.373668"/>
     <use style="stroke:#000000;" x="352.913002" xlink:href="#mf544aaef7a" y="304.916613"/>
     <use style="stroke:#000000;" x="318.389072" xlink:href="#mf544aaef7a" y="193.805946"/>
     <use style="stroke:#000000;" x="337.86411" xlink:href="#mf544aaef7a" y="296.43734"/>
     <use style="stroke:#000000;" x="361.765292" xlink:href="#mf544aaef7a" y="286.020706"/>
     <use style="stroke:#000000;" x="344.060712" xlink:href="#mf544aaef7a" y="282.560696"/>
     <use style="stroke:#000000;" x="484.812117" xlink:href="#mf544aaef7a" y="211.096125"/>
     <use style="stroke:#000000;" x="479.500744" xlink:href="#mf544aaef7a" y="207.751634"/>
     <use style="stroke:#000000;" x="462.681393" xlink:href="#mf544aaef7a" y="234.090406"/>
     <use style="stroke:#000000;" x="404.256282" xlink:href="#mf544aaef7a" y="232.175"/>
     <use style="stroke:#000000;" x="510.483757" xlink:href="#mf544aaef7a" y="174.300266"/>
     <use style="stroke:#000000;" x="471.533683" xlink:href="#mf544aaef7a" y="218.949155"/>
     <use style="stroke:#000000;" x="450.288188" xlink:href="#mf544aaef7a" y="187.653905"/>
     <use style="stroke:#000000;" x="444.091585" xlink:href="#mf544aaef7a" y="257.873118"/>
     <use style="stroke:#000000;" x="428.157464" xlink:href="#mf544aaef7a" y="262.214777"/>
     <use style="stroke:#000000;" x="420.190403" xlink:href="#mf544aaef7a" y="178.447732"/>
     <use style="stroke:#000000;" x="437.894982" xlink:href="#mf544aaef7a" y="232.270042"/>
     <use style="stroke:#000000;" x="362.650521" xlink:href="#mf544aaef7a" y="256.560796"/>
     <use style="stroke:#000000;" x="329.01182" xlink:href="#mf544aaef7a" y="280.339375"/>
     <use style="stroke:#000000;" x="331.667507" xlink:href="#mf544aaef7a" y="289.971024"/>
     <use style="stroke:#000000;" x="331.667507" xlink:href="#mf544aaef7a" y="297.353636"/>
     <use style="stroke:#000000;" x="337.86411" xlink:href="#mf544aaef7a" y="282.366191"/>
     <use style="stroke:#000000;" x="329.897049" xlink:href="#mf544aaef7a" y="275.877216"/>
     <use style="stroke:#000000;" x="308.651554" xlink:href="#mf544aaef7a" y="218.56629"/>
     <use style="stroke:#000000;" x="298.028806" xlink:href="#mf544aaef7a" y="323.668888"/>
     <use style="stroke:#000000;" x="311.307241" xlink:href="#mf544aaef7a" y="297.239877"/>
     <use style="stroke:#000000;" x="300.684493" xlink:href="#mf544aaef7a" y="350.662824"/>
     <use style="stroke:#000000;" x="291.832204" xlink:href="#mf544aaef7a" y="338.518679"/>
     <use style="stroke:#000000;" x="288.291288" xlink:href="#mf544aaef7a" y="334.000032"/>
     <use style="stroke:#000000;" x="280.324227" xlink:href="#mf544aaef7a" y="312.967273"/>
     <use style="stroke:#000000;" x="282.979914" xlink:href="#mf544aaef7a" y="321.164134"/>
     <use style="stroke:#000000;" x="282.094685" xlink:href="#mf544aaef7a" y="313.756681"/>
     <use style="stroke:#000000;" x="275.898082" xlink:href="#mf544aaef7a" y="317.234557"/>
     <use style="stroke:#000000;" x="271.471937" xlink:href="#mf544aaef7a" y="333.386121"/>
     <use style="stroke:#000000;" x="266.160564" xlink:href="#mf544aaef7a" y="336.447954"/>
     <use style="stroke:#000000;" x="264.390106" xlink:href="#mf544aaef7a" y="335.782965"/>
     <use style="stroke:#000000;" x="259.078732" xlink:href="#mf544aaef7a" y="317.288749"/>
     <use style="stroke:#000000;" x="257.308274" xlink:href="#mf544aaef7a" y="318.24414"/>
     <use style="stroke:#000000;" x="263.504877" xlink:href="#mf544aaef7a" y="287.438689"/>
     <use style="stroke:#000000;" x="269.701479" xlink:href="#mf544aaef7a" y="309.428141"/>
     <use style="stroke:#000000;" x="271.471937" xlink:href="#mf544aaef7a" y="295.016126"/>
     <use style="stroke:#000000;" x="279.438998" xlink:href="#mf544aaef7a" y="296.52205"/>
     <use style="stroke:#000000;" x="263.504877" xlink:href="#mf544aaef7a" y="333.778976"/>
     <use style="stroke:#000000;" x="267.045793" xlink:href="#mf544aaef7a" y="326.061403"/>
     <use style="stroke:#000000;" x="267.931022" xlink:href="#mf544aaef7a" y="334.324874"/>
     <use style="stroke:#000000;" x="252.882129" xlink:href="#mf544aaef7a" y="333.662953"/>
     <use style="stroke:#000000;" x="244.02984" xlink:href="#mf544aaef7a" y="284.556055"/>
     <use style="stroke:#000000;" x="254.652587" xlink:href="#mf544aaef7a" y="309.202599"/>
     <use style="stroke:#000000;" x="251.9969" xlink:href="#mf544aaef7a" y="357.804117"/>
     <use style="stroke:#000000;" x="250.226442" xlink:href="#mf544aaef7a" y="330.561168"/>
     <use style="stroke:#000000;" x="240.488924" xlink:href="#mf544aaef7a" y="284.782218"/>
     <use style="stroke:#000000;" x="246.685526" xlink:href="#mf544aaef7a" y="346.089952"/>
     <use style="stroke:#000000;" x="237.833237" xlink:href="#mf544aaef7a" y="332.426384"/>
     <use style="stroke:#000000;" x="246.685526" xlink:href="#mf544aaef7a" y="300.621715"/>
     <use style="stroke:#000000;" x="239.603695" xlink:href="#mf544aaef7a" y="334.916607"/>
     <use style="stroke:#000000;" x="229.866176" xlink:href="#mf544aaef7a" y="337.82211"/>
     <use style="stroke:#000000;" x="221.013886" xlink:href="#mf544aaef7a" y="320.996319"/>
     <use style="stroke:#000000;" x="210.391139" xlink:href="#mf544aaef7a" y="341.538751"/>
     <use style="stroke:#000000;" x="220.128658" xlink:href="#mf544aaef7a" y="302.460531"/>
     <use style="stroke:#000000;" x="203.309307" xlink:href="#mf544aaef7a" y="294.562762"/>
     <use style="stroke:#000000;" x="188.260415" xlink:href="#mf544aaef7a" y="362.207277"/>
     <use style="stroke:#000000;" x="266.160564" xlink:href="#mf544aaef7a" y="465.412164"/>
     <use style="stroke:#000000;" x="246.685526" xlink:href="#mf544aaef7a" y="336.327836"/>
     <use style="stroke:#000000;" x="231.636634" xlink:href="#mf544aaef7a" y="367.974158"/>
     <use style="stroke:#000000;" x="183.83427" xlink:href="#mf544aaef7a" y="384.183113"/>
     <use style="stroke:#000000;" x="178.522896" xlink:href="#mf544aaef7a" y="376.742979"/>
     <use style="stroke:#000000;" x="195.342247" xlink:href="#mf544aaef7a" y="382.841693"/>
     <use style="stroke:#000000;" x="181.178583" xlink:href="#mf544aaef7a" y="294.434097"/>
     <use style="stroke:#000000;" x="175.867209" xlink:href="#mf544aaef7a" y="332.265989"/>
     <use style="stroke:#000000;" x="208.620681" xlink:href="#mf544aaef7a" y="332.75675"/>
     <use style="stroke:#000000;" x="176.752438" xlink:href="#mf544aaef7a" y="376.574802"/>
     <use style="stroke:#000000;" x="168.785378" xlink:href="#mf544aaef7a" y="349.379054"/>
     <use style="stroke:#000000;" x="136.917135" xlink:href="#mf544aaef7a" y="364.885145"/>
     <use style="stroke:#000000;" x="156.392172" xlink:href="#mf544aaef7a" y="363.924859"/>
     <use style="stroke:#000000;" x="152.851256" xlink:href="#mf544aaef7a" y="373.277336"/>
     <use style="stroke:#000000;" x="193.571789" xlink:href="#mf544aaef7a" y="346.44199"/>
     <use style="stroke:#000000;" x="172.326294" xlink:href="#mf544aaef7a" y="338.87856"/>
     <use style="stroke:#000000;" x="201.538849" xlink:href="#mf544aaef7a" y="334.240346"/>
     <use style="stroke:#000000;" x="187.375186" xlink:href="#mf544aaef7a" y="352.033425"/>
     <use style="stroke:#000000;" x="214.817284" xlink:href="#mf544aaef7a" y="348.993293"/>
     <use style="stroke:#000000;" x="227.210489" xlink:href="#mf544aaef7a" y="344.615411"/>
     <use style="stroke:#000000;" x="179.408125" xlink:href="#mf544aaef7a" y="331.164278"/>
     <use style="stroke:#000000;" x="107.704579" xlink:href="#mf544aaef7a" y="404.425921"/>
     <use style="stroke:#000000;" x="147.539883" xlink:href="#mf544aaef7a" y="405.664341"/>
     <use style="stroke:#000000;" x="121.868243" xlink:href="#mf544aaef7a" y="388.928014"/>
     <use style="stroke:#000000;" x="156.392172" xlink:href="#mf544aaef7a" y="382.736517"/>
     <use style="stroke:#000000;" x="214.817284" xlink:href="#mf544aaef7a" y="336.912252"/>
     <use style="stroke:#000000;" x="508.713299" xlink:href="#mf544aaef7a" y="234.130333"/>
    </g>
   </g>
   <g id="PolyCollection_1">
    <path clip-path="url(#p242f7e5c6f)" d="M 90 379.098243 
L 90 407.034095 
L 95.636364 404.31016 
L 101.272727 401.556942 
L 106.909091 398.809578 
L 112.545455 396.078822 
L 118.181818 393.348511 
L 123.818182 390.692908 
L 129.454545 388.035624 
L 135.090909 385.272534 
L 140.727273 382.627842 
L 146.363636 379.841529 
L 152 377.30662 
L 157.636364 374.607554 
L 163.272727 371.908489 
L 168.909091 369.209167 
L 174.545455 366.446519 
L 180.181818 363.743239 
L 185.818182 361.133908 
L 191.454545 358.421691 
L 197.090909 355.697314 
L 202.727273 352.969052 
L 208.363636 350.312732 
L 214 347.616897 
L 219.636364 345.076089 
L 225.272727 342.610727 
L 230.909091 340.07018 
L 236.545455 337.56797 
L 242.181818 335.113705 
L 247.818182 332.716886 
L 253.454545 330.209523 
L 259.090909 327.697985 
L 264.727273 325.45551 
L 270.363636 323.083821 
L 276 320.737356 
L 281.636364 318.282051 
L 287.272727 315.979217 
L 292.909091 313.747133 
L 298.545455 311.561394 
L 304.181818 309.421338 
L 309.818182 307.361476 
L 315.454545 305.225819 
L 321.090909 303.079259 
L 326.727273 301.090524 
L 332.363636 299.089763 
L 338 297.019372 
L 343.636364 294.980055 
L 349.272727 292.937689 
L 354.909091 290.89304 
L 360.545455 289.07946 
L 366.181818 287.204016 
L 371.818182 285.278356 
L 377.454545 283.331031 
L 383.090909 281.288235 
L 388.727273 279.247752 
L 394.363636 277.206266 
L 400 275.164219 
L 405.636364 273.119576 
L 411.272727 271.074932 
L 416.909091 269.031431 
L 422.545455 266.990748 
L 428.181818 264.950066 
L 433.818182 262.909383 
L 439.454545 260.949346 
L 445.090909 258.821862 
L 450.727273 256.828074 
L 456.363636 255.038037 
L 462 253.144894 
L 467.636364 251.193579 
L 473.272727 249.241237 
L 478.909091 247.291008 
L 484.545455 245.339894 
L 490.181818 243.378396 
L 495.818182 241.371503 
L 501.454545 239.361764 
L 507.090909 237.358344 
L 512.727273 235.468188 
L 518.363636 233.576981 
L 524 231.682689 
L 529.636364 229.732668 
L 535.272727 227.781449 
L 540.909091 225.83023 
L 546.545455 223.773384 
L 552.181818 221.679051 
L 557.818182 219.584718 
L 563.454545 217.490385 
L 569.090909 215.396052 
L 574.727273 213.301719 
L 580.363636 211.2659 
L 586 209.258659 
L 591.636364 207.251417 
L 597.272727 205.244176 
L 602.909091 203.236934 
L 608.545455 201.229693 
L 614.181818 199.222451 
L 619.818182 197.215209 
L 625.454545 195.207968 
L 631.090909 193.200726 
L 636.727273 191.24176 
L 642.363636 189.302394 
L 648 187.363029 
L 648 130.749576 
L 648 130.749576 
L 642.363636 133.424935 
L 636.727273 136.100293 
L 631.090909 138.866182 
L 625.454545 141.67853 
L 619.818182 144.490878 
L 614.181818 147.267032 
L 608.545455 149.975587 
L 602.909091 152.684142 
L 597.272727 155.392697 
L 591.636364 158.101553 
L 586 160.812244 
L 580.363636 163.523934 
L 574.727273 166.236075 
L 569.090909 168.948216 
L 563.454545 171.660356 
L 557.818182 174.372497 
L 552.181818 177.117049 
L 546.545455 179.902531 
L 540.909091 182.643423 
L 535.272727 185.466976 
L 529.636364 188.291276 
L 524 191.054398 
L 518.363636 193.772376 
L 512.727273 196.493432 
L 507.090909 199.214604 
L 501.454545 201.909204 
L 495.818182 204.654832 
L 490.181818 207.372318 
L 484.545455 210.089804 
L 478.909091 212.79691 
L 473.272727 215.460734 
L 467.636364 218.14516 
L 462 220.899976 
L 456.363636 223.654792 
L 450.727273 226.3998 
L 445.090909 229.103194 
L 439.454545 231.736671 
L 433.818182 234.393536 
L 428.181818 237.127349 
L 422.545455 239.974404 
L 416.909091 242.560948 
L 411.272727 245.331523 
L 405.636364 248.111662 
L 400 250.864577 
L 394.363636 253.582585 
L 388.727273 256.301538 
L 383.090909 259.036676 
L 377.454545 261.701303 
L 371.818182 264.453601 
L 366.181818 267.062903 
L 360.545455 269.678784 
L 354.909091 272.293776 
L 349.272727 274.827028 
L 343.636364 277.462208 
L 338 280.08176 
L 332.363636 282.711137 
L 326.727273 285.280687 
L 321.090909 287.848262 
L 315.454545 290.534245 
L 309.818182 293.104596 
L 304.181818 295.646856 
L 298.545455 298.178542 
L 292.909091 300.682064 
L 287.272727 303.188509 
L 281.636364 305.535115 
L 276 307.917313 
L 270.363636 310.44086 
L 264.727273 312.902233 
L 259.090909 315.322371 
L 253.454545 317.655453 
L 247.818182 319.987214 
L 242.181818 322.274938 
L 236.545455 324.650028 
L 230.909091 326.823241 
L 225.272727 329.057227 
L 219.636364 331.376836 
L 214 333.610883 
L 208.363636 335.710637 
L 202.727273 337.963371 
L 197.090909 340.173979 
L 191.454545 342.475017 
L 185.818182 344.656864 
L 180.181818 346.882713 
L 174.545455 348.944103 
L 168.909091 351.060264 
L 163.272727 353.081098 
L 157.636364 355.069414 
L 152 357.178098 
L 146.363636 359.35165 
L 140.727273 361.458019 
L 135.090909 363.411137 
L 129.454545 365.288266 
L 123.818182 367.170457 
L 118.181818 369.151689 
L 112.545455 371.018769 
L 106.909091 372.950683 
L 101.272727 374.969192 
L 95.636364 377.104364 
L 90 379.098243 
z
" style="fill-opacity:0.15;"/>
   </g>
   <g id="PathCollection_3">
    <defs>
     <path d="M 0 2.738613 
C 0.726289 2.738613 1.422928 2.450055 1.936492 1.936492 
C 2.450055 1.422928 2.738613 0.726289 2.738613 0 
C 2.738613 -0.726289 2.450055 -1.422928 1.936492 -1.936492 
C 1.422928 -2.450055 0.726289 -2.738613 0 -2.738613 
C -0.726289 -2.738613 -1.422928 -2.450055 -1.936492 -1.936492 
C -2.450055 -1.422928 -2.738613 -0.726289 -2.738613 0 
C -2.738613 0.726289 -2.450055 1.422928 -1.936492 1.936492 
C -1.422928 2.450055 -0.726289 2.738613 0 2.738613 
z
" id="md29769e877" style="stroke:#ff00ff;"/>
    </defs>
    <g clip-path="url(#p242f7e5c6f)">
     <use style="fill:#ff00ff;stroke:#ff00ff;" x="436.124524" xlink:href="#md29769e877" y="489.827765"/>
     <use style="fill:#ff00ff;stroke:#ff00ff;" x="398.059679" xlink:href="#md29769e877" y="328.782773"/>
     <use style="fill:#ff00ff;stroke:#ff00ff;" x="374.158497" xlink:href="#md29769e877" y="220.471782"/>
     <use style="fill:#ff00ff;stroke:#ff00ff;" x="365.306207" xlink:href="#md29769e877" y="346.545022"/>
     <use style="fill:#ff00ff;stroke:#ff00ff;" x="375.043726" xlink:href="#md29769e877" y="222.135576"/>
     <use style="fill:#ff00ff;stroke:#ff00ff;" x="360.880063" xlink:href="#md29769e877" y="222.314082"/>
     <use style="fill:#ff00ff;stroke:#ff00ff;" x="318.389072" xlink:href="#md29769e877" y="193.805946"/>
     <use style="fill:#ff00ff;stroke:#ff00ff;" x="510.483757" xlink:href="#md29769e877" y="174.300266"/>
     <use style="fill:#ff00ff;stroke:#ff00ff;" x="420.190403" xlink:href="#md29769e877" y="178.447732"/>
     <use style="fill:#ff00ff;stroke:#ff00ff;" x="308.651554" xlink:href="#md29769e877" y="218.56629"/>
     <use style="fill:#ff00ff;stroke:#ff00ff;" x="300.684493" xlink:href="#md29769e877" y="350.662824"/>
     <use style="fill:#ff00ff;stroke:#ff00ff;" x="240.488924" xlink:href="#md29769e877" y="284.782218"/>
     <use style="fill:#ff00ff;stroke:#ff00ff;" x="220.128658" xlink:href="#md29769e877" y="302.460531"/>
     <use style="fill:#ff00ff;stroke:#ff00ff;" x="203.309307" xlink:href="#md29769e877" y="294.562762"/>
     <use style="fill:#ff00ff;stroke:#ff00ff;" x="266.160564" xlink:href="#md29769e877" y="465.412164"/>
     <use style="fill:#ff00ff;stroke:#ff00ff;" x="231.636634" xlink:href="#md29769e877" y="367.974158"/>
     <use style="fill:#ff00ff;stroke:#ff00ff;" x="175.867209" xlink:href="#md29769e877" y="332.265989"/>
    </g>
   </g>
   <g id="matplotlib.axis_1">
    <g id="xtick_1">
     <g id="line2d_1">
      <defs>
       <path d="M 0 0 
L 0 3.5 
" id="mb98af4df9b" style="stroke:#000000;stroke-width:0.8;"/>
      </defs>
      <g>
       <use style="stroke:#000000;stroke-width:0.8;" x="90" xlink:href="#mb98af4df9b" y="516.64"/>
      </g>
     </g>
     <g id="text_1">
      <!-- 0 -->
      <defs>
       <path d="M 31.78125 66.40625 
Q 24.171875 66.40625 20.328125 58.90625 
Q 16.5 51.421875 16.5 36.375 
Q 16.5 21.390625 20.328125 13.890625 
Q 24.171875 6.390625 31.78125 6.390625 
Q 39.453125 6.390625 43.28125 13.890625 
Q 47.125 21.390625 47.125 36.375 
Q 47.125 51.421875 43.28125 58.90625 
Q 39.453125 66.40625 31.78125 66.40625 
z
M 31.78125 74.21875 
Q 44.046875 74.21875 50.515625 64.515625 
Q 56.984375 54.828125 56.984375 36.375 
Q 56.984375 17.96875 50.515625 8.265625 
Q 44.046875 -1.421875 31.78125 -1.421875 
Q 19.53125 -1.421875 13.0625 8.265625 
Q 6.59375 17.96875 6.59375 36.375 
Q 6.59375 54.828125 13.0625 64.515625 
Q 19.53125 74.21875 31.78125 74.21875 
z
" id="DejaVuSans-30"/>
      </defs>
      <g transform="translate(86.81875 531.238438)scale(0.1 -0.1)">
       <use xlink:href="#DejaVuSans-30"/>
      </g>
     </g>
    </g>
    <g id="xtick_2">
     <g id="line2d_2">
      <g>
       <use style="stroke:#000000;stroke-width:0.8;" x="183" xlink:href="#mb98af4df9b" y="516.64"/>
      </g>
     </g>
     <g id="text_2">
      <!-- 200 -->
      <defs>
       <path d="M 19.1875 8.296875 
L 53.609375 8.296875 
L 53.609375 0 
L 7.328125 0 
L 7.328125 8.296875 
Q 12.9375 14.109375 22.625 23.890625 
Q 32.328125 33.6875 34.8125 36.53125 
Q 39.546875 41.84375 41.421875 45.53125 
Q 43.3125 49.21875 43.3125 52.78125 
Q 43.3125 58.59375 39.234375 62.25 
Q 35.15625 65.921875 28.609375 65.921875 
Q 23.96875 65.921875 18.8125 64.3125 
Q 13.671875 62.703125 7.8125 59.421875 
L 7.8125 69.390625 
Q 13.765625 71.78125 18.9375 73 
Q 24.125 74.21875 28.421875 74.21875 
Q 39.75 74.21875 46.484375 68.546875 
Q 53.21875 62.890625 53.21875 53.421875 
Q 53.21875 48.921875 51.53125 44.890625 
Q 49.859375 40.875 45.40625 35.40625 
Q 44.1875 33.984375 37.640625 27.21875 
Q 31.109375 20.453125 19.1875 8.296875 
z
" id="DejaVuSans-32"/>
      </defs>
      <g transform="translate(173.45625 531.238438)scale(0.1 -0.1)">
       <use xlink:href="#DejaVuSans-32"/>
       <use x="63.623047" xlink:href="#DejaVuSans-30"/>
       <use x="127.246094" xlink:href="#DejaVuSans-30"/>
      </g>
     </g>
    </g>
    <g id="xtick_3">
     <g id="line2d_3">
      <g>
       <use style="stroke:#000000;stroke-width:0.8;" x="276" xlink:href="#mb98af4df9b" y="516.64"/>
      </g>
     </g>
     <g id="text_3">
      <!-- 400 -->
      <defs>
       <path d="M 37.796875 64.3125 
L 12.890625 25.390625 
L 37.796875 25.390625 
z
M 35.203125 72.90625 
L 47.609375 72.90625 
L 47.609375 25.390625 
L 58.015625 25.390625 
L 58.015625 17.1875 
L 47.609375 17.1875 
L 47.609375 0 
L 37.796875 0 
L 37.796875 17.1875 
L 4.890625 17.1875 
L 4.890625 26.703125 
z
" id="DejaVuSans-34"/>
      </defs>
      <g transform="translate(266.45625 531.238438)scale(0.1 -0.1)">
       <use xlink:href="#DejaVuSans-34"/>
       <use x="63.623047" xlink:href="#DejaVuSans-30"/>
       <use x="127.246094" xlink:href="#DejaVuSans-30"/>
      </g>
     </g>
    </g>
    <g id="xtick_4">
     <g id="line2d_4">
      <g>
       <use style="stroke:#000000;stroke-width:0.8;" x="369" xlink:href="#mb98af4df9b" y="516.64"/>
      </g>
     </g>
     <g id="text_4">
      <!-- 600 -->
      <defs>
       <path d="M 33.015625 40.375 
Q 26.375 40.375 22.484375 35.828125 
Q 18.609375 31.296875 18.609375 23.390625 
Q 18.609375 15.53125 22.484375 10.953125 
Q 26.375 6.390625 33.015625 6.390625 
Q 39.65625 6.390625 43.53125 10.953125 
Q 47.40625 15.53125 47.40625 23.390625 
Q 47.40625 31.296875 43.53125 35.828125 
Q 39.65625 40.375 33.015625 40.375 
z
M 52.59375 71.296875 
L 52.59375 62.3125 
Q 48.875 64.0625 45.09375 64.984375 
Q 41.3125 65.921875 37.59375 65.921875 
Q 27.828125 65.921875 22.671875 59.328125 
Q 17.53125 52.734375 16.796875 39.40625 
Q 19.671875 43.65625 24.015625 45.921875 
Q 28.375 48.1875 33.59375 48.1875 
Q 44.578125 48.1875 50.953125 41.515625 
Q 57.328125 34.859375 57.328125 23.390625 
Q 57.328125 12.15625 50.6875 5.359375 
Q 44.046875 -1.421875 33.015625 -1.421875 
Q 20.359375 -1.421875 13.671875 8.265625 
Q 6.984375 17.96875 6.984375 36.375 
Q 6.984375 53.65625 15.1875 63.9375 
Q 23.390625 74.21875 37.203125 74.21875 
Q 40.921875 74.21875 44.703125 73.484375 
Q 48.484375 72.75 52.59375 71.296875 
z
" id="DejaVuSans-36"/>
      </defs>
      <g transform="translate(359.45625 531.238438)scale(0.1 -0.1)">
       <use xlink:href="#DejaVuSans-36"/>
       <use x="63.623047" xlink:href="#DejaVuSans-30"/>
       <use x="127.246094" xlink:href="#DejaVuSans-30"/>
      </g>
     </g>
    </g>
    <g id="xtick_5">
     <g id="line2d_5">
      <g>
       <use style="stroke:#000000;stroke-width:0.8;" x="462" xlink:href="#mb98af4df9b" y="516.64"/>
      </g>
     </g>
     <g id="text_5">
      <!-- 800 -->
      <defs>
       <path d="M 31.78125 34.625 
Q 24.75 34.625 20.71875 30.859375 
Q 16.703125 27.09375 16.703125 20.515625 
Q 16.703125 13.921875 20.71875 10.15625 
Q 24.75 6.390625 31.78125 6.390625 
Q 38.8125 6.390625 42.859375 10.171875 
Q 46.921875 13.96875 46.921875 20.515625 
Q 46.921875 27.09375 42.890625 30.859375 
Q 38.875 34.625 31.78125 34.625 
z
M 21.921875 38.8125 
Q 15.578125 40.375 12.03125 44.71875 
Q 8.5 49.078125 8.5 55.328125 
Q 8.5 64.0625 14.71875 69.140625 
Q 20.953125 74.21875 31.78125 74.21875 
Q 42.671875 74.21875 48.875 69.140625 
Q 55.078125 64.0625 55.078125 55.328125 
Q 55.078125 49.078125 51.53125 44.71875 
Q 48 40.375 41.703125 38.8125 
Q 48.828125 37.15625 52.796875 32.3125 
Q 56.78125 27.484375 56.78125 20.515625 
Q 56.78125 9.90625 50.3125 4.234375 
Q 43.84375 -1.421875 31.78125 -1.421875 
Q 19.734375 -1.421875 13.25 4.234375 
Q 6.78125 9.90625 6.78125 20.515625 
Q 6.78125 27.484375 10.78125 32.3125 
Q 14.796875 37.15625 21.921875 38.8125 
z
M 18.3125 54.390625 
Q 18.3125 48.734375 21.84375 45.5625 
Q 25.390625 42.390625 31.78125 42.390625 
Q 38.140625 42.390625 41.71875 45.5625 
Q 45.3125 48.734375 45.3125 54.390625 
Q 45.3125 60.0625 41.71875 63.234375 
Q 38.140625 66.40625 31.78125 66.40625 
Q 25.390625 66.40625 21.84375 63.234375 
Q 18.3125 60.0625 18.3125 54.390625 
z
" id="DejaVuSans-38"/>
      </defs>
      <g transform="translate(452.45625 531.238438)scale(0.1 -0.1)">
       <use xlink:href="#DejaVuSans-38"/>
       <use x="63.623047" xlink:href="#DejaVuSans-30"/>
       <use x="127.246094" xlink:href="#DejaVuSans-30"/>
      </g>
     </g>
    </g>
    <g id="xtick_6">
     <g id="line2d_6">
      <g>
       <use style="stroke:#000000;stroke-width:0.8;" x="555" xlink:href="#mb98af4df9b" y="516.64"/>
      </g>
     </g>
     <g id="text_6">
      <!-- 1000 -->
      <defs>
       <path d="M 12.40625 8.296875 
L 28.515625 8.296875 
L 28.515625 63.921875 
L 10.984375 60.40625 
L 10.984375 69.390625 
L 28.421875 72.90625 
L 38.28125 72.90625 
L 38.28125 8.296875 
L 54.390625 8.296875 
L 54.390625 0 
L 12.40625 0 
z
" id="DejaVuSans-31"/>
      </defs>
      <g transform="translate(542.275 531.238438)scale(0.1 -0.1)">
       <use xlink:href="#DejaVuSans-31"/>
       <use x="63.623047" xlink:href="#DejaVuSans-30"/>
       <use x="127.246094" xlink:href="#DejaVuSans-30"/>
       <use x="190.869141" xlink:href="#DejaVuSans-30"/>
      </g>
     </g>
    </g>
    <g id="xtick_7">
     <g id="line2d_7">
      <g>
       <use style="stroke:#000000;stroke-width:0.8;" x="648" xlink:href="#mb98af4df9b" y="516.64"/>
      </g>
     </g>
     <g id="text_7">
      <!-- 1200 -->
      <g transform="translate(635.275 531.238438)scale(0.1 -0.1)">
       <use xlink:href="#DejaVuSans-31"/>
       <use x="63.623047" xlink:href="#DejaVuSans-32"/>
       <use x="127.246094" xlink:href="#DejaVuSans-30"/>
       <use x="190.869141" xlink:href="#DejaVuSans-30"/>
      </g>
     </g>
    </g>
    <g id="text_8">
     <!-- xpos_fov -->
     <defs>
      <path d="M 54.890625 54.6875 
L 35.109375 28.078125 
L 55.90625 0 
L 45.3125 0 
L 29.390625 21.484375 
L 13.484375 0 
L 2.875 0 
L 24.125 28.609375 
L 4.6875 54.6875 
L 15.28125 54.6875 
L 29.78125 35.203125 
L 44.28125 54.6875 
z
" id="DejaVuSans-78"/>
      <path d="M 18.109375 8.203125 
L 18.109375 -20.796875 
L 9.078125 -20.796875 
L 9.078125 54.6875 
L 18.109375 54.6875 
L 18.109375 46.390625 
Q 20.953125 51.265625 25.265625 53.625 
Q 29.59375 56 35.59375 56 
Q 45.5625 56 51.78125 48.09375 
Q 58.015625 40.1875 58.015625 27.296875 
Q 58.015625 14.40625 51.78125 6.484375 
Q 45.5625 -1.421875 35.59375 -1.421875 
Q 29.59375 -1.421875 25.265625 0.953125 
Q 20.953125 3.328125 18.109375 8.203125 
z
M 48.6875 27.296875 
Q 48.6875 37.203125 44.609375 42.84375 
Q 40.53125 48.484375 33.40625 48.484375 
Q 26.265625 48.484375 22.1875 42.84375 
Q 18.109375 37.203125 18.109375 27.296875 
Q 18.109375 17.390625 22.1875 11.75 
Q 26.265625 6.109375 33.40625 6.109375 
Q 40.53125 6.109375 44.609375 11.75 
Q 48.6875 17.390625 48.6875 27.296875 
z
" id="DejaVuSans-70"/>
      <path d="M 30.609375 48.390625 
Q 23.390625 48.390625 19.1875 42.75 
Q 14.984375 37.109375 14.984375 27.296875 
Q 14.984375 17.484375 19.15625 11.84375 
Q 23.34375 6.203125 30.609375 6.203125 
Q 37.796875 6.203125 41.984375 11.859375 
Q 46.1875 17.53125 46.1875 27.296875 
Q 46.1875 37.015625 41.984375 42.703125 
Q 37.796875 48.390625 30.609375 48.390625 
z
M 30.609375 56 
Q 42.328125 56 49.015625 48.375 
Q 55.71875 40.765625 55.71875 27.296875 
Q 55.71875 13.875 49.015625 6.21875 
Q 42.328125 -1.421875 30.609375 -1.421875 
Q 18.84375 -1.421875 12.171875 6.21875 
Q 5.515625 13.875 5.515625 27.296875 
Q 5.515625 40.765625 12.171875 48.375 
Q 18.84375 56 30.609375 56 
z
" id="DejaVuSans-6f"/>
      <path d="M 44.28125 53.078125 
L 44.28125 44.578125 
Q 40.484375 46.53125 36.375 47.5 
Q 32.28125 48.484375 27.875 48.484375 
Q 21.1875 48.484375 17.84375 46.4375 
Q 14.5 44.390625 14.5 40.28125 
Q 14.5 37.15625 16.890625 35.375 
Q 19.28125 33.59375 26.515625 31.984375 
L 29.59375 31.296875 
Q 39.15625 29.25 43.1875 25.515625 
Q 47.21875 21.78125 47.21875 15.09375 
Q 47.21875 7.46875 41.1875 3.015625 
Q 35.15625 -1.421875 24.609375 -1.421875 
Q 20.21875 -1.421875 15.453125 -0.5625 
Q 10.6875 0.296875 5.421875 2 
L 5.421875 11.28125 
Q 10.40625 8.6875 15.234375 7.390625 
Q 20.0625 6.109375 24.8125 6.109375 
Q 31.15625 6.109375 34.5625 8.28125 
Q 37.984375 10.453125 37.984375 14.40625 
Q 37.984375 18.0625 35.515625 20.015625 
Q 33.0625 21.96875 24.703125 23.78125 
L 21.578125 24.515625 
Q 13.234375 26.265625 9.515625 29.90625 
Q 5.8125 33.546875 5.8125 39.890625 
Q 5.8125 47.609375 11.28125 51.796875 
Q 16.75 56 26.8125 56 
Q 31.78125 56 36.171875 55.265625 
Q 40.578125 54.546875 44.28125 53.078125 
z
" id="DejaVuSans-73"/>
      <path d="M 50.984375 -16.609375 
L 50.984375 -23.578125 
L -0.984375 -23.578125 
L -0.984375 -16.609375 
z
" id="DejaVuSans-5f"/>
      <path d="M 37.109375 75.984375 
L 37.109375 68.5 
L 28.515625 68.5 
Q 23.6875 68.5 21.796875 66.546875 
Q 19.921875 64.59375 19.921875 59.515625 
L 19.921875 54.6875 
L 34.71875 54.6875 
L 34.71875 47.703125 
L 19.921875 47.703125 
L 19.921875 0 
L 10.890625 0 
L 10.890625 47.703125 
L 2.296875 47.703125 
L 2.296875 54.6875 
L 10.890625 54.6875 
L 10.890625 58.5 
Q 10.890625 67.625 15.140625 71.796875 
Q 19.390625 75.984375 28.609375 75.984375 
z
" id="DejaVuSans-66"/>
      <path d="M 2.984375 54.6875 
L 12.5 54.6875 
L 29.59375 8.796875 
L 46.6875 54.6875 
L 56.203125 54.6875 
L 35.6875 0 
L 23.484375 0 
z
" id="DejaVuSans-76"/>
     </defs>
     <g transform="translate(346.923437 544.916563)scale(0.1 -0.1)">
      <use xlink:href="#DejaVuSans-78"/>
      <use x="59.179688" xlink:href="#DejaVuSans-70"/>
      <use x="122.65625" xlink:href="#DejaVuSans-6f"/>
      <use x="183.837891" xlink:href="#DejaVuSans-73"/>
      <use x="235.9375" xlink:href="#DejaVuSans-5f"/>
      <use x="285.9375" xlink:href="#DejaVuSans-66"/>
      <use x="321.142578" xlink:href="#DejaVuSans-6f"/>
      <use x="382.324219" xlink:href="#DejaVuSans-76"/>
     </g>
    </g>
   </g>
   <g id="matplotlib.axis_2">
    <g id="ytick_1">
     <g id="line2d_8">
      <defs>
       <path d="M 0 0 
L -3.5 0 
" id="m03c8e85391" style="stroke:#000000;stroke-width:0.8;"/>
      </defs>
      <g>
       <use style="stroke:#000000;stroke-width:0.8;" x="86" xlink:href="#m03c8e85391" y="497.471364"/>
      </g>
     </g>
     <g id="text_9">
      <!-- 15 -->
      <defs>
       <path d="M 10.796875 72.90625 
L 49.515625 72.90625 
L 49.515625 64.59375 
L 19.828125 64.59375 
L 19.828125 46.734375 
Q 21.96875 47.46875 24.109375 47.828125 
Q 26.265625 48.1875 28.421875 48.1875 
Q 40.625 48.1875 47.75 41.5 
Q 54.890625 34.8125 54.890625 23.390625 
Q 54.890625 11.625 47.5625 5.09375 
Q 40.234375 -1.421875 26.90625 -1.421875 
Q 22.3125 -1.421875 17.546875 -0.640625 
Q 12.796875 0.140625 7.71875 1.703125 
L 7.71875 11.625 
Q 12.109375 9.234375 16.796875 8.0625 
Q 21.484375 6.890625 26.703125 6.890625 
Q 35.15625 6.890625 40.078125 11.328125 
Q 45.015625 15.765625 45.015625 23.390625 
Q 45.015625 31 40.078125 35.4375 
Q 35.15625 39.890625 26.703125 39.890625 
Q 22.75 39.890625 18.8125 39.015625 
Q 14.890625 38.140625 10.796875 36.28125 
z
" id="DejaVuSans-35"/>
      </defs>
      <g transform="translate(66.275 501.270583)scale(0.1 -0.1)">
       <use xlink:href="#DejaVuSans-31"/>
       <use x="63.623047" xlink:href="#DejaVuSans-35"/>
      </g>
     </g>
    </g>
    <g id="ytick_2">
     <g id="line2d_9">
      <g>
       <use style="stroke:#000000;stroke-width:0.8;" x="86" xlink:href="#m03c8e85391" y="443.989295"/>
      </g>
     </g>
     <g id="text_10">
      <!-- 20 -->
      <g transform="translate(66.275 447.788513)scale(0.1 -0.1)">
       <use xlink:href="#DejaVuSans-32"/>
       <use x="63.623047" xlink:href="#DejaVuSans-30"/>
      </g>
     </g>
    </g>
    <g id="ytick_3">
     <g id="line2d_10">
      <g>
       <use style="stroke:#000000;stroke-width:0.8;" x="86" xlink:href="#m03c8e85391" y="390.507225"/>
      </g>
     </g>
     <g id="text_11">
      <!-- 25 -->
      <g transform="translate(66.275 394.306444)scale(0.1 -0.1)">
       <use xlink:href="#DejaVuSans-32"/>
       <use x="63.623047" xlink:href="#DejaVuSans-35"/>
      </g>
     </g>
    </g>
    <g id="ytick_4">
     <g id="line2d_11">
      <g>
       <use style="stroke:#000000;stroke-width:0.8;" x="86" xlink:href="#m03c8e85391" y="337.025155"/>
      </g>
     </g>
     <g id="text_12">
      <!-- 30 -->
      <defs>
       <path d="M 40.578125 39.3125 
Q 47.65625 37.796875 51.625 33 
Q 55.609375 28.21875 55.609375 21.1875 
Q 55.609375 10.40625 48.1875 4.484375 
Q 40.765625 -1.421875 27.09375 -1.421875 
Q 22.515625 -1.421875 17.65625 -0.515625 
Q 12.796875 0.390625 7.625 2.203125 
L 7.625 11.71875 
Q 11.71875 9.328125 16.59375 8.109375 
Q 21.484375 6.890625 26.8125 6.890625 
Q 36.078125 6.890625 40.9375 10.546875 
Q 45.796875 14.203125 45.796875 21.1875 
Q 45.796875 27.640625 41.28125 31.265625 
Q 36.765625 34.90625 28.71875 34.90625 
L 20.21875 34.90625 
L 20.21875 43.015625 
L 29.109375 43.015625 
Q 36.375 43.015625 40.234375 45.921875 
Q 44.09375 48.828125 44.09375 54.296875 
Q 44.09375 59.90625 40.109375 62.90625 
Q 36.140625 65.921875 28.71875 65.921875 
Q 24.65625 65.921875 20.015625 65.03125 
Q 15.375 64.15625 9.8125 62.3125 
L 9.8125 71.09375 
Q 15.4375 72.65625 20.34375 73.4375 
Q 25.25 74.21875 29.59375 74.21875 
Q 40.828125 74.21875 47.359375 69.109375 
Q 53.90625 64.015625 53.90625 55.328125 
Q 53.90625 49.265625 50.4375 45.09375 
Q 46.96875 40.921875 40.578125 39.3125 
z
" id="DejaVuSans-33"/>
      </defs>
      <g transform="translate(66.275 340.824374)scale(0.1 -0.1)">
       <use xlink:href="#DejaVuSans-33"/>
       <use x="63.623047" xlink:href="#DejaVuSans-30"/>
      </g>
     </g>
    </g>
    <g id="ytick_5">
     <g id="line2d_12">
      <g>
       <use style="stroke:#000000;stroke-width:0.8;" x="86" xlink:href="#m03c8e85391" y="283.543085"/>
      </g>
     </g>
     <g id="text_13">
      <!-- 35 -->
      <g transform="translate(66.275 287.342304)scale(0.1 -0.1)">
       <use xlink:href="#DejaVuSans-33"/>
       <use x="63.623047" xlink:href="#DejaVuSans-35"/>
      </g>
     </g>
    </g>
    <g id="ytick_6">
     <g id="line2d_13">
      <g>
       <use style="stroke:#000000;stroke-width:0.8;" x="86" xlink:href="#m03c8e85391" y="230.061015"/>
      </g>
     </g>
     <g id="text_14">
      <!-- 40 -->
      <g transform="translate(66.275 233.860234)scale(0.1 -0.1)">
       <use xlink:href="#DejaVuSans-34"/>
       <use x="63.623047" xlink:href="#DejaVuSans-30"/>
      </g>
     </g>
    </g>
    <g id="ytick_7">
     <g id="line2d_14">
      <g>
       <use style="stroke:#000000;stroke-width:0.8;" x="86" xlink:href="#m03c8e85391" y="176.578946"/>
      </g>
     </g>
     <g id="text_15">
      <!-- 45 -->
      <g transform="translate(66.275 180.378164)scale(0.1 -0.1)">
       <use xlink:href="#DejaVuSans-34"/>
       <use x="63.623047" xlink:href="#DejaVuSans-35"/>
      </g>
     </g>
    </g>
    <g id="ytick_8">
     <g id="line2d_15">
      <g>
       <use style="stroke:#000000;stroke-width:0.8;" x="86" xlink:href="#m03c8e85391" y="123.096876"/>
      </g>
     </g>
     <g id="text_16">
      <!-- 50 -->
      <g transform="translate(66.275 126.896094)scale(0.1 -0.1)">
       <use xlink:href="#DejaVuSans-35"/>
       <use x="63.623047" xlink:href="#DejaVuSans-30"/>
      </g>
     </g>
    </g>
    <g id="text_17">
     <!-- xpos_rf -->
     <defs>
      <path d="M 41.109375 46.296875 
Q 39.59375 47.171875 37.8125 47.578125 
Q 36.03125 48 33.890625 48 
Q 26.265625 48 22.1875 43.046875 
Q 18.109375 38.09375 18.109375 28.8125 
L 18.109375 0 
L 9.078125 0 
L 9.078125 54.6875 
L 18.109375 54.6875 
L 18.109375 46.1875 
Q 20.953125 51.171875 25.484375 53.578125 
Q 30.03125 56 36.53125 56 
Q 37.453125 56 38.578125 55.875 
Q 39.703125 55.765625 41.0625 55.515625 
z
" id="DejaVuSans-72"/>
     </defs>
     <g transform="translate(59.917188 308.993281)rotate(-90)scale(0.1 -0.1)">
      <use xlink:href="#DejaVuSans-78"/>
      <use x="59.179688" xlink:href="#DejaVuSans-70"/>
      <use x="122.65625" xlink:href="#DejaVuSans-6f"/>
      <use x="183.837891" xlink:href="#DejaVuSans-73"/>
      <use x="235.9375" xlink:href="#DejaVuSans-5f"/>
      <use x="285.9375" xlink:href="#DejaVuSans-72"/>
      <use x="327.050781" xlink:href="#DejaVuSans-66"/>
     </g>
    </g>
   </g>
   <g id="LineCollection_1">
    <path clip-path="url(#p242f7e5c6f)" d="M 436.124524 492.48 
L 436.124524 462.586259 
" style="fill:none;stroke:#ff00ff;stroke-opacity:0.7;"/>
    <path clip-path="url(#p242f7e5c6f)" d="M 398.059679 363.385742 
L 398.059679 297.509198 
" style="fill:none;stroke:#ff00ff;stroke-opacity:0.7;"/>
    <path clip-path="url(#p242f7e5c6f)" d="M 374.158497 242.432635 
L 374.158497 200.191532 
" style="fill:none;stroke:#ff00ff;stroke-opacity:0.7;"/>
    <path clip-path="url(#p242f7e5c6f)" d="M 365.306207 377.76411 
L 365.306207 318.763285 
" style="fill:none;stroke:#ff00ff;stroke-opacity:0.7;"/>
    <path clip-path="url(#p242f7e5c6f)" d="M 375.043726 248.456193 
L 375.043726 181.446078 
" style="fill:none;stroke:#ff00ff;stroke-opacity:0.7;"/>
    <path clip-path="url(#p242f7e5c6f)" d="M 360.880063 263.424907 
L 360.880063 154.007287 
" style="fill:none;stroke:#ff00ff;stroke-opacity:0.7;"/>
    <path clip-path="url(#p242f7e5c6f)" d="M 318.389072 258.491553 
L 318.389072 148.864057 
" style="fill:none;stroke:#ff00ff;stroke-opacity:0.7;"/>
    <path clip-path="url(#p242f7e5c6f)" d="M 510.483757 186.149737 
L 510.483757 89.28 
" style="fill:none;stroke:#ff00ff;stroke-opacity:0.7;"/>
    <path clip-path="url(#p242f7e5c6f)" d="M 420.190403 219.139202 
L 420.190403 130.473999 
" style="fill:none;stroke:#ff00ff;stroke-opacity:0.7;"/>
    <path clip-path="url(#p242f7e5c6f)" d="M 308.651554 253.835651 
L 308.651554 187.131576 
" style="fill:none;stroke:#ff00ff;stroke-opacity:0.7;"/>
    <path clip-path="url(#p242f7e5c6f)" d="M 300.684493 383.575367 
L 300.684493 325.591632 
" style="fill:none;stroke:#ff00ff;stroke-opacity:0.7;"/>
    <path clip-path="url(#p242f7e5c6f)" d="M 240.488924 307.66165 
L 240.488924 263.540167 
" style="fill:none;stroke:#ff00ff;stroke-opacity:0.7;"/>
    <path clip-path="url(#p242f7e5c6f)" d="M 220.128658 330.543843 
L 220.128658 273.528558 
" style="fill:none;stroke:#ff00ff;stroke-opacity:0.7;"/>
    <path clip-path="url(#p242f7e5c6f)" d="M 203.309307 328.745279 
L 203.309307 258.314336 
" style="fill:none;stroke:#ff00ff;stroke-opacity:0.7;"/>
    <path clip-path="url(#p242f7e5c6f)" d="M 266.160564 484.02028 
L 266.160564 443.336594 
" style="fill:none;stroke:#ff00ff;stroke-opacity:0.7;"/>
    <path clip-path="url(#p242f7e5c6f)" d="M 231.636634 408.315675 
L 231.636634 347.276975 
" style="fill:none;stroke:#ff00ff;stroke-opacity:0.7;"/>
    <path clip-path="url(#p242f7e5c6f)" d="M 175.867209 347.234091 
L 175.867209 314.37129 
" style="fill:none;stroke:#ff00ff;stroke-opacity:0.7;"/>
   </g>
   <g id="line2d_16">
    <path clip-path="url(#p242f7e5c6f)" d="M 90 393.798545 
L 95.636364 391.393491 
L 101.272727 388.988437 
L 106.909091 386.583382 
L 112.545455 384.178328 
L 118.181818 381.773274 
L 123.818182 379.368219 
L 129.454545 376.963165 
L 135.090909 374.558111 
L 140.727273 372.153057 
L 146.363636 369.748002 
L 152 367.342948 
L 157.636364 364.937894 
L 163.272727 362.53284 
L 168.909091 360.127785 
L 174.545455 357.722731 
L 180.181818 355.317677 
L 185.818182 352.912622 
L 191.454545 350.507568 
L 197.090909 348.102514 
L 202.727273 345.69746 
L 208.363636 343.292405 
L 214 340.887351 
L 219.636364 338.482297 
L 225.272727 336.077243 
L 230.909091 333.672188 
L 236.545455 331.267134 
L 242.181818 328.86208 
L 247.818182 326.457025 
L 253.454545 324.051971 
L 259.090909 321.646917 
L 264.727273 319.241863 
L 270.363636 316.836808 
L 276 314.431754 
L 281.636364 312.0267 
L 287.272727 309.621646 
L 292.909091 307.216591 
L 298.545455 304.811537 
L 304.181818 302.406483 
L 309.818182 300.001428 
L 315.454545 297.596374 
L 321.090909 295.19132 
L 326.727273 292.786266 
L 332.363636 290.381211 
L 338 287.976157 
L 343.636364 285.571103 
L 349.272727 283.166049 
L 354.909091 280.760994 
L 360.545455 278.35594 
L 366.181818 275.950886 
L 371.818182 273.545831 
L 377.454545 271.140777 
L 383.090909 268.735723 
L 388.727273 266.330669 
L 394.363636 263.925614 
L 400 261.52056 
L 405.636364 259.115506 
L 411.272727 256.710452 
L 416.909091 254.305397 
L 422.545455 251.900343 
L 428.181818 249.495289 
L 433.818182 247.090234 
L 439.454545 244.68518 
L 445.090909 242.280126 
L 450.727273 239.875072 
L 456.363636 237.470017 
L 462 235.064963 
L 467.636364 232.659909 
L 473.272727 230.254855 
L 478.909091 227.8498 
L 484.545455 225.444746 
L 490.181818 223.039692 
L 495.818182 220.634637 
L 501.454545 218.229583 
L 507.090909 215.824529 
L 512.727273 213.419475 
L 518.363636 211.01442 
L 524 208.609366 
L 529.636364 206.204312 
L 535.272727 203.799258 
L 540.909091 201.394203 
L 546.545455 198.989149 
L 552.181818 196.584095 
L 557.818182 194.17904 
L 563.454545 191.773986 
L 569.090909 189.368932 
L 574.727273 186.963878 
L 580.363636 184.558823 
L 586 182.153769 
L 591.636364 179.748715 
L 597.272727 177.343661 
L 602.909091 174.938606 
L 608.545455 172.533552 
L 614.181818 170.128498 
L 619.818182 167.723443 
L 625.454545 165.318389 
L 631.090909 162.913335 
L 636.727273 160.508281 
L 642.363636 158.103226 
L 648 155.698172 
" style="fill:none;stroke:#000000;stroke-linecap:square;stroke-width:2.25;"/>
   </g>
   <g id="patch_3">
    <path d="M 86 497.471364 
L 86 123.096876 
" style="fill:none;stroke:#000000;stroke-linecap:square;stroke-linejoin:miter;stroke-width:0.8;"/>
   </g>
   <g id="patch_4">
    <path d="M 90 516.64 
L 648 516.64 
" style="fill:none;stroke:#000000;stroke-linecap:square;stroke-linejoin:miter;stroke-width:0.8;"/>
   </g>
   <g id="text_18">
    <!-- azimuth -->
    <defs>
     <path d="M 34.28125 27.484375 
Q 23.390625 27.484375 19.1875 25 
Q 14.984375 22.515625 14.984375 16.5 
Q 14.984375 11.71875 18.140625 8.90625 
Q 21.296875 6.109375 26.703125 6.109375 
Q 34.1875 6.109375 38.703125 11.40625 
Q 43.21875 16.703125 43.21875 25.484375 
L 43.21875 27.484375 
z
M 52.203125 31.203125 
L 52.203125 0 
L 43.21875 0 
L 43.21875 8.296875 
Q 40.140625 3.328125 35.546875 0.953125 
Q 30.953125 -1.421875 24.3125 -1.421875 
Q 15.921875 -1.421875 10.953125 3.296875 
Q 6 8.015625 6 15.921875 
Q 6 25.140625 12.171875 29.828125 
Q 18.359375 34.515625 30.609375 34.515625 
L 43.21875 34.515625 
L 43.21875 35.40625 
Q 43.21875 41.609375 39.140625 45 
Q 35.0625 48.390625 27.6875 48.390625 
Q 23 48.390625 18.546875 47.265625 
Q 14.109375 46.140625 10.015625 43.890625 
L 10.015625 52.203125 
Q 14.9375 54.109375 19.578125 55.046875 
Q 24.21875 56 28.609375 56 
Q 40.484375 56 46.34375 49.84375 
Q 52.203125 43.703125 52.203125 31.203125 
z
" id="DejaVuSans-61"/>
     <path d="M 5.515625 54.6875 
L 48.1875 54.6875 
L 48.1875 46.484375 
L 14.40625 7.171875 
L 48.1875 7.171875 
L 48.1875 0 
L 4.296875 0 
L 4.296875 8.203125 
L 38.09375 47.515625 
L 5.515625 47.515625 
z
" id="DejaVuSans-7a"/>
     <path d="M 9.421875 54.6875 
L 18.40625 54.6875 
L 18.40625 0 
L 9.421875 0 
z
M 9.421875 75.984375 
L 18.40625 75.984375 
L 18.40625 64.59375 
L 9.421875 64.59375 
z
" id="DejaVuSans-69"/>
     <path d="M 52 44.1875 
Q 55.375 50.25 60.0625 53.125 
Q 64.75 56 71.09375 56 
Q 79.640625 56 84.28125 50.015625 
Q 88.921875 44.046875 88.921875 33.015625 
L 88.921875 0 
L 79.890625 0 
L 79.890625 32.71875 
Q 79.890625 40.578125 77.09375 44.375 
Q 74.3125 48.1875 68.609375 48.1875 
Q 61.625 48.1875 57.5625 43.546875 
Q 53.515625 38.921875 53.515625 30.90625 
L 53.515625 0 
L 44.484375 0 
L 44.484375 32.71875 
Q 44.484375 40.625 41.703125 44.40625 
Q 38.921875 48.1875 33.109375 48.1875 
Q 26.21875 48.1875 22.15625 43.53125 
Q 18.109375 38.875 18.109375 30.90625 
L 18.109375 0 
L 9.078125 0 
L 9.078125 54.6875 
L 18.109375 54.6875 
L 18.109375 46.1875 
Q 21.1875 51.21875 25.484375 53.609375 
Q 29.78125 56 35.6875 56 
Q 41.65625 56 45.828125 52.96875 
Q 50 49.953125 52 44.1875 
z
" id="DejaVuSans-6d"/>
     <path d="M 8.5 21.578125 
L 8.5 54.6875 
L 17.484375 54.6875 
L 17.484375 21.921875 
Q 17.484375 14.15625 20.5 10.265625 
Q 23.53125 6.390625 29.59375 6.390625 
Q 36.859375 6.390625 41.078125 11.03125 
Q 45.3125 15.671875 45.3125 23.6875 
L 45.3125 54.6875 
L 54.296875 54.6875 
L 54.296875 0 
L 45.3125 0 
L 45.3125 8.40625 
Q 42.046875 3.421875 37.71875 1 
Q 33.40625 -1.421875 27.6875 -1.421875 
Q 18.265625 -1.421875 13.375 4.4375 
Q 8.5 10.296875 8.5 21.578125 
z
M 31.109375 56 
z
" id="DejaVuSans-75"/>
     <path d="M 18.3125 70.21875 
L 18.3125 54.6875 
L 36.8125 54.6875 
L 36.8125 47.703125 
L 18.3125 47.703125 
L 18.3125 18.015625 
Q 18.3125 11.328125 20.140625 9.421875 
Q 21.96875 7.515625 27.59375 7.515625 
L 36.8125 7.515625 
L 36.8125 0 
L 27.59375 0 
Q 17.1875 0 13.234375 3.875 
Q 9.28125 7.765625 9.28125 18.015625 
L 9.28125 47.703125 
L 2.6875 47.703125 
L 2.6875 54.6875 
L 9.28125 54.6875 
L 9.28125 70.21875 
z
" id="DejaVuSans-74"/>
     <path d="M 54.890625 33.015625 
L 54.890625 0 
L 45.90625 0 
L 45.90625 32.71875 
Q 45.90625 40.484375 42.875 44.328125 
Q 39.84375 48.1875 33.796875 48.1875 
Q 26.515625 48.1875 22.3125 43.546875 
Q 18.109375 38.921875 18.109375 30.90625 
L 18.109375 0 
L 9.078125 0 
L 9.078125 75.984375 
L 18.109375 75.984375 
L 18.109375 46.1875 
Q 21.34375 51.125 25.703125 53.5625 
Q 30.078125 56 35.796875 56 
Q 45.21875 56 50.046875 50.171875 
Q 54.890625 44.34375 54.890625 33.015625 
z
" id="DejaVuSans-68"/>
    </defs>
    <g transform="translate(344.705625 63.12)scale(0.12 -0.12)">
     <use xlink:href="#DejaVuSans-61"/>
     <use x="61.279297" xlink:href="#DejaVuSans-7a"/>
     <use x="113.769531" xlink:href="#DejaVuSans-69"/>
     <use x="141.552734" xlink:href="#DejaVuSans-6d"/>
     <use x="238.964844" xlink:href="#DejaVuSans-75"/>
     <use x="302.34375" xlink:href="#DejaVuSans-74"/>
     <use x="341.552734" xlink:href="#DejaVuSans-68"/>
    </g>
   </g>
   <g id="text_19">
    <!-- y=0.02x + 24.69 -->
    <defs>
     <path d="M 32.171875 -5.078125 
Q 28.375 -14.84375 24.75 -17.8125 
Q 21.140625 -20.796875 15.09375 -20.796875 
L 7.90625 -20.796875 
L 7.90625 -13.28125 
L 13.1875 -13.28125 
Q 16.890625 -13.28125 18.9375 -11.515625 
Q 21 -9.765625 23.484375 -3.21875 
L 25.09375 0.875 
L 2.984375 54.6875 
L 12.5 54.6875 
L 29.59375 11.921875 
L 46.6875 54.6875 
L 56.203125 54.6875 
z
" id="DejaVuSans-79"/>
     <path d="M 10.59375 45.40625 
L 73.1875 45.40625 
L 73.1875 37.203125 
L 10.59375 37.203125 
z
M 10.59375 25.484375 
L 73.1875 25.484375 
L 73.1875 17.1875 
L 10.59375 17.1875 
z
" id="DejaVuSans-3d"/>
     <path d="M 10.6875 12.40625 
L 21 12.40625 
L 21 0 
L 10.6875 0 
z
" id="DejaVuSans-2e"/>
     <path id="DejaVuSans-20"/>
     <path d="M 46 62.703125 
L 46 35.5 
L 73.1875 35.5 
L 73.1875 27.203125 
L 46 27.203125 
L 46 0 
L 37.796875 0 
L 37.796875 27.203125 
L 10.59375 27.203125 
L 10.59375 35.5 
L 37.796875 35.5 
L 37.796875 62.703125 
z
" id="DejaVuSans-2b"/>
     <path d="M 10.984375 1.515625 
L 10.984375 10.5 
Q 14.703125 8.734375 18.5 7.8125 
Q 22.3125 6.890625 25.984375 6.890625 
Q 35.75 6.890625 40.890625 13.453125 
Q 46.046875 20.015625 46.78125 33.40625 
Q 43.953125 29.203125 39.59375 26.953125 
Q 35.25 24.703125 29.984375 24.703125 
Q 19.046875 24.703125 12.671875 31.3125 
Q 6.296875 37.9375 6.296875 49.421875 
Q 6.296875 60.640625 12.9375 67.421875 
Q 19.578125 74.21875 30.609375 74.21875 
Q 43.265625 74.21875 49.921875 64.515625 
Q 56.59375 54.828125 56.59375 36.375 
Q 56.59375 19.140625 48.40625 8.859375 
Q 40.234375 -1.421875 26.421875 -1.421875 
Q 22.703125 -1.421875 18.890625 -0.6875 
Q 15.09375 0.046875 10.984375 1.515625 
z
M 30.609375 32.421875 
Q 37.25 32.421875 41.125 36.953125 
Q 45.015625 41.5 45.015625 49.421875 
Q 45.015625 57.28125 41.125 61.84375 
Q 37.25 66.40625 30.609375 66.40625 
Q 23.96875 66.40625 20.09375 61.84375 
Q 16.21875 57.28125 16.21875 49.421875 
Q 16.21875 41.5 20.09375 36.953125 
Q 23.96875 32.421875 30.609375 32.421875 
z
" id="DejaVuSans-39"/>
    </defs>
    <g transform="translate(90 63.12)scale(0.12 -0.12)">
     <use xlink:href="#DejaVuSans-79"/>
     <use x="59.179688" xlink:href="#DejaVuSans-3d"/>
     <use x="142.96875" xlink:href="#DejaVuSans-30"/>
     <use x="206.591797" xlink:href="#DejaVuSans-2e"/>
     <use x="238.378906" xlink:href="#DejaVuSans-30"/>
     <use x="302.001953" xlink:href="#DejaVuSans-32"/>
     <use x="365.625" xlink:href="#DejaVuSans-78"/>
     <use x="424.804688" xlink:href="#DejaVuSans-20"/>
     <use x="456.591797" xlink:href="#DejaVuSans-2b"/>
     <use x="540.380859" xlink:href="#DejaVuSans-20"/>
     <use x="572.167969" xlink:href="#DejaVuSans-32"/>
     <use x="635.791016" xlink:href="#DejaVuSans-34"/>
     <use x="699.414062" xlink:href="#DejaVuSans-2e"/>
     <use x="731.201172" xlink:href="#DejaVuSans-36"/>
     <use x="794.824219" xlink:href="#DejaVuSans-39"/>
    </g>
   </g>
   <g id="legend_1">
    <g id="patch_5">
     <path d="M 510.525 121.154375 
L 641 121.154375 
Q 643 121.154375 643 119.154375 
L 643 76.12 
Q 643 74.12 641 74.12 
L 510.525 74.12 
Q 508.525 74.12 508.525 76.12 
L 508.525 119.154375 
Q 508.525 121.154375 510.525 121.154375 
z
" style="fill:#ffffff;opacity:0.8;stroke:#cccccc;stroke-linejoin:miter;"/>
    </g>
    <g id="PathCollection_4">
     <g>
      <use style="fill:#808080;fill-opacity:0.5;stroke:#808080;stroke-opacity:0.5;stroke-width:1.5;" x="522.525" xlink:href="#m419273c942" y="83.093438"/>
     </g>
    </g>
    <g id="text_20">
     <!-- unreliable (R2&gt;0.5) -->
     <defs>
      <path d="M 54.890625 33.015625 
L 54.890625 0 
L 45.90625 0 
L 45.90625 32.71875 
Q 45.90625 40.484375 42.875 44.328125 
Q 39.84375 48.1875 33.796875 48.1875 
Q 26.515625 48.1875 22.3125 43.546875 
Q 18.109375 38.921875 18.109375 30.90625 
L 18.109375 0 
L 9.078125 0 
L 9.078125 54.6875 
L 18.109375 54.6875 
L 18.109375 46.1875 
Q 21.34375 51.125 25.703125 53.5625 
Q 30.078125 56 35.796875 56 
Q 45.21875 56 50.046875 50.171875 
Q 54.890625 44.34375 54.890625 33.015625 
z
" id="DejaVuSans-6e"/>
      <path d="M 56.203125 29.59375 
L 56.203125 25.203125 
L 14.890625 25.203125 
Q 15.484375 15.921875 20.484375 11.0625 
Q 25.484375 6.203125 34.421875 6.203125 
Q 39.59375 6.203125 44.453125 7.46875 
Q 49.3125 8.734375 54.109375 11.28125 
L 54.109375 2.78125 
Q 49.265625 0.734375 44.1875 -0.34375 
Q 39.109375 -1.421875 33.890625 -1.421875 
Q 20.796875 -1.421875 13.15625 6.1875 
Q 5.515625 13.8125 5.515625 26.8125 
Q 5.515625 40.234375 12.765625 48.109375 
Q 20.015625 56 32.328125 56 
Q 43.359375 56 49.78125 48.890625 
Q 56.203125 41.796875 56.203125 29.59375 
z
M 47.21875 32.234375 
Q 47.125 39.59375 43.09375 43.984375 
Q 39.0625 48.390625 32.421875 48.390625 
Q 24.90625 48.390625 20.390625 44.140625 
Q 15.875 39.890625 15.1875 32.171875 
z
" id="DejaVuSans-65"/>
      <path d="M 9.421875 75.984375 
L 18.40625 75.984375 
L 18.40625 0 
L 9.421875 0 
z
" id="DejaVuSans-6c"/>
      <path d="M 48.6875 27.296875 
Q 48.6875 37.203125 44.609375 42.84375 
Q 40.53125 48.484375 33.40625 48.484375 
Q 26.265625 48.484375 22.1875 42.84375 
Q 18.109375 37.203125 18.109375 27.296875 
Q 18.109375 17.390625 22.1875 11.75 
Q 26.265625 6.109375 33.40625 6.109375 
Q 40.53125 6.109375 44.609375 11.75 
Q 48.6875 17.390625 48.6875 27.296875 
z
M 18.109375 46.390625 
Q 20.953125 51.265625 25.265625 53.625 
Q 29.59375 56 35.59375 56 
Q 45.5625 56 51.78125 48.09375 
Q 58.015625 40.1875 58.015625 27.296875 
Q 58.015625 14.40625 51.78125 6.484375 
Q 45.5625 -1.421875 35.59375 -1.421875 
Q 29.59375 -1.421875 25.265625 0.953125 
Q 20.953125 3.328125 18.109375 8.203125 
L 18.109375 0 
L 9.078125 0 
L 9.078125 75.984375 
L 18.109375 75.984375 
z
" id="DejaVuSans-62"/>
      <path d="M 31 75.875 
Q 24.46875 64.65625 21.28125 53.65625 
Q 18.109375 42.671875 18.109375 31.390625 
Q 18.109375 20.125 21.3125 9.0625 
Q 24.515625 -2 31 -13.1875 
L 23.1875 -13.1875 
Q 15.875 -1.703125 12.234375 9.375 
Q 8.59375 20.453125 8.59375 31.390625 
Q 8.59375 42.28125 12.203125 53.3125 
Q 15.828125 64.359375 23.1875 75.875 
z
" id="DejaVuSans-28"/>
      <path d="M 44.390625 34.1875 
Q 47.5625 33.109375 50.5625 29.59375 
Q 53.5625 26.078125 56.59375 19.921875 
L 66.609375 0 
L 56 0 
L 46.6875 18.703125 
Q 43.0625 26.03125 39.671875 28.421875 
Q 36.28125 30.8125 30.421875 30.8125 
L 19.671875 30.8125 
L 19.671875 0 
L 9.8125 0 
L 9.8125 72.90625 
L 32.078125 72.90625 
Q 44.578125 72.90625 50.734375 67.671875 
Q 56.890625 62.453125 56.890625 51.90625 
Q 56.890625 45.015625 53.6875 40.46875 
Q 50.484375 35.9375 44.390625 34.1875 
z
M 19.671875 64.796875 
L 19.671875 38.921875 
L 32.078125 38.921875 
Q 39.203125 38.921875 42.84375 42.21875 
Q 46.484375 45.515625 46.484375 51.90625 
Q 46.484375 58.296875 42.84375 61.546875 
Q 39.203125 64.796875 32.078125 64.796875 
z
" id="DejaVuSans-52"/>
      <path d="M 10.59375 49.21875 
L 10.59375 58.109375 
L 73.1875 35.40625 
L 73.1875 27.296875 
L 10.59375 4.59375 
L 10.59375 13.484375 
L 60.890625 31.296875 
z
" id="DejaVuSans-3e"/>
      <path d="M 8.015625 75.875 
L 15.828125 75.875 
Q 23.140625 64.359375 26.78125 53.3125 
Q 30.421875 42.28125 30.421875 31.390625 
Q 30.421875 20.453125 26.78125 9.375 
Q 23.140625 -1.703125 15.828125 -13.1875 
L 8.015625 -13.1875 
Q 14.5 -2 17.703125 9.0625 
Q 20.90625 20.125 20.90625 31.390625 
Q 20.90625 42.671875 17.703125 53.65625 
Q 14.5 64.65625 8.015625 75.875 
z
" id="DejaVuSans-29"/>
     </defs>
     <g transform="translate(540.525 85.718438)scale(0.1 -0.1)">
      <use xlink:href="#DejaVuSans-75"/>
      <use x="63.378906" xlink:href="#DejaVuSans-6e"/>
      <use x="126.757812" xlink:href="#DejaVuSans-72"/>
      <use x="167.839844" xlink:href="#DejaVuSans-65"/>
      <use x="229.363281" xlink:href="#DejaVuSans-6c"/>
      <use x="257.146484" xlink:href="#DejaVuSans-69"/>
      <use x="284.929688" xlink:href="#DejaVuSans-61"/>
      <use x="346.208984" xlink:href="#DejaVuSans-62"/>
      <use x="409.685547" xlink:href="#DejaVuSans-6c"/>
      <use x="437.46875" xlink:href="#DejaVuSans-65"/>
      <use x="498.992188" xlink:href="#DejaVuSans-20"/>
      <use x="530.779297" xlink:href="#DejaVuSans-28"/>
      <use x="569.792969" xlink:href="#DejaVuSans-52"/>
      <use x="639.275391" xlink:href="#DejaVuSans-32"/>
      <use x="702.898438" xlink:href="#DejaVuSans-3e"/>
      <use x="786.6875" xlink:href="#DejaVuSans-30"/>
      <use x="850.310547" xlink:href="#DejaVuSans-2e"/>
      <use x="882.097656" xlink:href="#DejaVuSans-35"/>
      <use x="945.720703" xlink:href="#DejaVuSans-29"/>
     </g>
    </g>
    <g id="PathCollection_5">
     <g>
      <use style="stroke:#000000;" x="522.525" xlink:href="#mf544aaef7a" y="97.771563"/>
     </g>
    </g>
    <g id="text_21">
     <!-- reliable (95% CI) -->
     <defs>
      <path d="M 72.703125 32.078125 
Q 68.453125 32.078125 66.03125 28.46875 
Q 63.625 24.859375 63.625 18.40625 
Q 63.625 12.0625 66.03125 8.421875 
Q 68.453125 4.78125 72.703125 4.78125 
Q 76.859375 4.78125 79.265625 8.421875 
Q 81.6875 12.0625 81.6875 18.40625 
Q 81.6875 24.8125 79.265625 28.4375 
Q 76.859375 32.078125 72.703125 32.078125 
z
M 72.703125 38.28125 
Q 80.421875 38.28125 84.953125 32.90625 
Q 89.5 27.546875 89.5 18.40625 
Q 89.5 9.28125 84.9375 3.921875 
Q 80.375 -1.421875 72.703125 -1.421875 
Q 64.890625 -1.421875 60.34375 3.921875 
Q 55.8125 9.28125 55.8125 18.40625 
Q 55.8125 27.59375 60.375 32.9375 
Q 64.9375 38.28125 72.703125 38.28125 
z
M 22.3125 68.015625 
Q 18.109375 68.015625 15.6875 64.375 
Q 13.28125 60.75 13.28125 54.390625 
Q 13.28125 47.953125 15.671875 44.328125 
Q 18.0625 40.71875 22.3125 40.71875 
Q 26.5625 40.71875 28.96875 44.328125 
Q 31.390625 47.953125 31.390625 54.390625 
Q 31.390625 60.6875 28.953125 64.34375 
Q 26.515625 68.015625 22.3125 68.015625 
z
M 66.40625 74.21875 
L 74.21875 74.21875 
L 28.609375 -1.421875 
L 20.796875 -1.421875 
z
M 22.3125 74.21875 
Q 30.03125 74.21875 34.609375 68.875 
Q 39.203125 63.53125 39.203125 54.390625 
Q 39.203125 45.171875 34.640625 39.84375 
Q 30.078125 34.515625 22.3125 34.515625 
Q 14.546875 34.515625 10.03125 39.859375 
Q 5.515625 45.21875 5.515625 54.390625 
Q 5.515625 63.484375 10.046875 68.84375 
Q 14.59375 74.21875 22.3125 74.21875 
z
" id="DejaVuSans-25"/>
      <path d="M 64.40625 67.28125 
L 64.40625 56.890625 
Q 59.421875 61.53125 53.78125 63.8125 
Q 48.140625 66.109375 41.796875 66.109375 
Q 29.296875 66.109375 22.65625 58.46875 
Q 16.015625 50.828125 16.015625 36.375 
Q 16.015625 21.96875 22.65625 14.328125 
Q 29.296875 6.6875 41.796875 6.6875 
Q 48.140625 6.6875 53.78125 8.984375 
Q 59.421875 11.28125 64.40625 15.921875 
L 64.40625 5.609375 
Q 59.234375 2.09375 53.4375 0.328125 
Q 47.65625 -1.421875 41.21875 -1.421875 
Q 24.65625 -1.421875 15.125 8.703125 
Q 5.609375 18.84375 5.609375 36.375 
Q 5.609375 53.953125 15.125 64.078125 
Q 24.65625 74.21875 41.21875 74.21875 
Q 47.75 74.21875 53.53125 72.484375 
Q 59.328125 70.75 64.40625 67.28125 
z
" id="DejaVuSans-43"/>
      <path d="M 9.8125 72.90625 
L 19.671875 72.90625 
L 19.671875 0 
L 9.8125 0 
z
" id="DejaVuSans-49"/>
     </defs>
     <g transform="translate(540.525 100.396563)scale(0.1 -0.1)">
      <use xlink:href="#DejaVuSans-72"/>
      <use x="41.082031" xlink:href="#DejaVuSans-65"/>
      <use x="102.605469" xlink:href="#DejaVuSans-6c"/>
      <use x="130.388672" xlink:href="#DejaVuSans-69"/>
      <use x="158.171875" xlink:href="#DejaVuSans-61"/>
      <use x="219.451172" xlink:href="#DejaVuSans-62"/>
      <use x="282.927734" xlink:href="#DejaVuSans-6c"/>
      <use x="310.710938" xlink:href="#DejaVuSans-65"/>
      <use x="372.234375" xlink:href="#DejaVuSans-20"/>
      <use x="404.021484" xlink:href="#DejaVuSans-28"/>
      <use x="443.035156" xlink:href="#DejaVuSans-39"/>
      <use x="506.658203" xlink:href="#DejaVuSans-35"/>
      <use x="570.28125" xlink:href="#DejaVuSans-25"/>
      <use x="665.300781" xlink:href="#DejaVuSans-20"/>
      <use x="697.087891" xlink:href="#DejaVuSans-43"/>
      <use x="766.912109" xlink:href="#DejaVuSans-49"/>
      <use x="796.404297" xlink:href="#DejaVuSans-29"/>
     </g>
    </g>
    <g id="PathCollection_6">
     <g>
      <use style="fill:#ff00ff;stroke:#ff00ff;" x="522.525" xlink:href="#md29769e877" y="112.449688"/>
     </g>
    </g>
    <g id="text_22">
     <!-- scattered -->
     <defs>
      <path d="M 48.78125 52.59375 
L 48.78125 44.1875 
Q 44.96875 46.296875 41.140625 47.34375 
Q 37.3125 48.390625 33.40625 48.390625 
Q 24.65625 48.390625 19.8125 42.84375 
Q 14.984375 37.3125 14.984375 27.296875 
Q 14.984375 17.28125 19.8125 11.734375 
Q 24.65625 6.203125 33.40625 6.203125 
Q 37.3125 6.203125 41.140625 7.25 
Q 44.96875 8.296875 48.78125 10.40625 
L 48.78125 2.09375 
Q 45.015625 0.34375 40.984375 -0.53125 
Q 36.96875 -1.421875 32.421875 -1.421875 
Q 20.0625 -1.421875 12.78125 6.34375 
Q 5.515625 14.109375 5.515625 27.296875 
Q 5.515625 40.671875 12.859375 48.328125 
Q 20.21875 56 33.015625 56 
Q 37.15625 56 41.109375 55.140625 
Q 45.0625 54.296875 48.78125 52.59375 
z
" id="DejaVuSans-63"/>
      <path d="M 45.40625 46.390625 
L 45.40625 75.984375 
L 54.390625 75.984375 
L 54.390625 0 
L 45.40625 0 
L 45.40625 8.203125 
Q 42.578125 3.328125 38.25 0.953125 
Q 33.9375 -1.421875 27.875 -1.421875 
Q 17.96875 -1.421875 11.734375 6.484375 
Q 5.515625 14.40625 5.515625 27.296875 
Q 5.515625 40.1875 11.734375 48.09375 
Q 17.96875 56 27.875 56 
Q 33.9375 56 38.25 53.625 
Q 42.578125 51.265625 45.40625 46.390625 
z
M 14.796875 27.296875 
Q 14.796875 17.390625 18.875 11.75 
Q 22.953125 6.109375 30.078125 6.109375 
Q 37.203125 6.109375 41.296875 11.75 
Q 45.40625 17.390625 45.40625 27.296875 
Q 45.40625 37.203125 41.296875 42.84375 
Q 37.203125 48.484375 30.078125 48.484375 
Q 22.953125 48.484375 18.875 42.84375 
Q 14.796875 37.203125 14.796875 27.296875 
z
" id="DejaVuSans-64"/>
     </defs>
     <g transform="translate(540.525 115.074688)scale(0.1 -0.1)">
      <use xlink:href="#DejaVuSans-73"/>
      <use x="52.099609" xlink:href="#DejaVuSans-63"/>
      <use x="107.080078" xlink:href="#DejaVuSans-61"/>
      <use x="168.359375" xlink:href="#DejaVuSans-74"/>
      <use x="207.568359" xlink:href="#DejaVuSans-74"/>
      <use x="246.777344" xlink:href="#DejaVuSans-65"/>
      <use x="308.300781" xlink:href="#DejaVuSans-72"/>
      <use x="349.382812" xlink:href="#DejaVuSans-65"/>
      <use x="410.90625" xlink:href="#DejaVuSans-64"/>
     </g>
    </g>
   </g>
  </g>
  <g id="text_23">
   <!-- JC085|20190622|FOV1_zoom2p0x|traces001|rois001|corrected|fit-2dgaus_dff-no-cutoff -->
   <defs>
    <path d="M 9.8125 72.90625 
L 19.671875 72.90625 
L 19.671875 5.078125 
Q 19.671875 -8.109375 14.671875 -14.0625 
Q 9.671875 -20.015625 -1.421875 -20.015625 
L -5.171875 -20.015625 
L -5.171875 -11.71875 
L -2.09375 -11.71875 
Q 4.4375 -11.71875 7.125 -8.046875 
Q 9.8125 -4.390625 9.8125 5.078125 
z
" id="DejaVuSans-4a"/>
    <path d="M 21 76.421875 
L 21 -23.578125 
L 12.703125 -23.578125 
L 12.703125 76.421875 
z
" id="DejaVuSans-7c"/>
    <path d="M 9.8125 72.90625 
L 51.703125 72.90625 
L 51.703125 64.59375 
L 19.671875 64.59375 
L 19.671875 43.109375 
L 48.578125 43.109375 
L 48.578125 34.8125 
L 19.671875 34.8125 
L 19.671875 0 
L 9.8125 0 
z
" id="DejaVuSans-46"/>
    <path d="M 39.40625 66.21875 
Q 28.65625 66.21875 22.328125 58.203125 
Q 16.015625 50.203125 16.015625 36.375 
Q 16.015625 22.609375 22.328125 14.59375 
Q 28.65625 6.59375 39.40625 6.59375 
Q 50.140625 6.59375 56.421875 14.59375 
Q 62.703125 22.609375 62.703125 36.375 
Q 62.703125 50.203125 56.421875 58.203125 
Q 50.140625 66.21875 39.40625 66.21875 
z
M 39.40625 74.21875 
Q 54.734375 74.21875 63.90625 63.9375 
Q 73.09375 53.65625 73.09375 36.375 
Q 73.09375 19.140625 63.90625 8.859375 
Q 54.734375 -1.421875 39.40625 -1.421875 
Q 24.03125 -1.421875 14.8125 8.828125 
Q 5.609375 19.09375 5.609375 36.375 
Q 5.609375 53.65625 14.8125 63.9375 
Q 24.03125 74.21875 39.40625 74.21875 
z
" id="DejaVuSans-4f"/>
    <path d="M 28.609375 0 
L 0.78125 72.90625 
L 11.078125 72.90625 
L 34.1875 11.53125 
L 57.328125 72.90625 
L 67.578125 72.90625 
L 39.796875 0 
z
" id="DejaVuSans-56"/>
    <path d="M 4.890625 31.390625 
L 31.203125 31.390625 
L 31.203125 23.390625 
L 4.890625 23.390625 
z
" id="DejaVuSans-2d"/>
    <path d="M 45.40625 27.984375 
Q 45.40625 37.75 41.375 43.109375 
Q 37.359375 48.484375 30.078125 48.484375 
Q 22.859375 48.484375 18.828125 43.109375 
Q 14.796875 37.75 14.796875 27.984375 
Q 14.796875 18.265625 18.828125 12.890625 
Q 22.859375 7.515625 30.078125 7.515625 
Q 37.359375 7.515625 41.375 12.890625 
Q 45.40625 18.265625 45.40625 27.984375 
z
M 54.390625 6.78125 
Q 54.390625 -7.171875 48.1875 -13.984375 
Q 42 -20.796875 29.203125 -20.796875 
Q 24.46875 -20.796875 20.265625 -20.09375 
Q 16.0625 -19.390625 12.109375 -17.921875 
L 12.109375 -9.1875 
Q 16.0625 -11.328125 19.921875 -12.34375 
Q 23.78125 -13.375 27.78125 -13.375 
Q 36.625 -13.375 41.015625 -8.765625 
Q 45.40625 -4.15625 45.40625 5.171875 
L 45.40625 9.625 
Q 42.625 4.78125 38.28125 2.390625 
Q 33.9375 0 27.875 0 
Q 17.828125 0 11.671875 7.65625 
Q 5.515625 15.328125 5.515625 27.984375 
Q 5.515625 40.671875 11.671875 48.328125 
Q 17.828125 56 27.875 56 
Q 33.9375 56 38.28125 53.609375 
Q 42.625 51.21875 45.40625 46.390625 
L 45.40625 54.6875 
L 54.390625 54.6875 
z
" id="DejaVuSans-67"/>
   </defs>
   <g transform="translate(0 6.11375)scale(0.08 -0.08)">
    <use xlink:href="#DejaVuSans-4a"/>
    <use x="29.492188" xlink:href="#DejaVuSans-43"/>
    <use x="99.316406" xlink:href="#DejaVuSans-30"/>
    <use x="162.939453" xlink:href="#DejaVuSans-38"/>
    <use x="226.5625" xlink:href="#DejaVuSans-35"/>
    <use x="290.185547" xlink:href="#DejaVuSans-7c"/>
    <use x="323.876953" xlink:href="#DejaVuSans-32"/>
    <use x="387.5" xlink:href="#DejaVuSans-30"/>
    <use x="451.123047" xlink:href="#DejaVuSans-31"/>
    <use x="514.746094" xlink:href="#DejaVuSans-39"/>
    <use x="578.369141" xlink:href="#DejaVuSans-30"/>
    <use x="641.992188" xlink:href="#DejaVuSans-36"/>
    <use x="705.615234" xlink:href="#DejaVuSans-32"/>
    <use x="769.238281" xlink:href="#DejaVuSans-32"/>
    <use x="832.861328" xlink:href="#DejaVuSans-7c"/>
    <use x="866.552734" xlink:href="#DejaVuSans-46"/>
    <use x="924.072266" xlink:href="#DejaVuSans-4f"/>
    <use x="1002.767578" xlink:href="#DejaVuSans-56"/>
    <use x="1071.175781" xlink:href="#DejaVuSans-31"/>
    <use x="1134.798828" xlink:href="#DejaVuSans-5f"/>
    <use x="1184.798828" xlink:href="#DejaVuSans-7a"/>
    <use x="1237.289062" xlink:href="#DejaVuSans-6f"/>
    <use x="1298.470703" xlink:href="#DejaVuSans-6f"/>
    <use x="1359.652344" xlink:href="#DejaVuSans-6d"/>
    <use x="1457.064453" xlink:href="#DejaVuSans-32"/>
    <use x="1520.6875" xlink:href="#DejaVuSans-70"/>
    <use x="1584.164062" xlink:href="#DejaVuSans-30"/>
    <use x="1647.787109" xlink:href="#DejaVuSans-78"/>
    <use x="1706.966797" xlink:href="#DejaVuSans-7c"/>
    <use x="1740.658203" xlink:href="#DejaVuSans-74"/>
    <use x="1779.867188" xlink:href="#DejaVuSans-72"/>
    <use x="1820.980469" xlink:href="#DejaVuSans-61"/>
    <use x="1882.259766" xlink:href="#DejaVuSans-63"/>
    <use x="1937.240234" xlink:href="#DejaVuSans-65"/>
    <use x="1998.763672" xlink:href="#DejaVuSans-73"/>
    <use x="2050.863281" xlink:href="#DejaVuSans-30"/>
    <use x="2114.486328" xlink:href="#DejaVuSans-30"/>
    <use x="2178.109375" xlink:href="#DejaVuSans-31"/>
    <use x="2241.732422" xlink:href="#DejaVuSans-7c"/>
    <use x="2275.423828" xlink:href="#DejaVuSans-72"/>
    <use x="2316.505859" xlink:href="#DejaVuSans-6f"/>
    <use x="2377.6875" xlink:href="#DejaVuSans-69"/>
    <use x="2405.470703" xlink:href="#DejaVuSans-73"/>
    <use x="2457.570312" xlink:href="#DejaVuSans-30"/>
    <use x="2521.193359" xlink:href="#DejaVuSans-30"/>
    <use x="2584.816406" xlink:href="#DejaVuSans-31"/>
    <use x="2648.439453" xlink:href="#DejaVuSans-7c"/>
    <use x="2682.130859" xlink:href="#DejaVuSans-63"/>
    <use x="2737.111328" xlink:href="#DejaVuSans-6f"/>
    <use x="2798.292969" xlink:href="#DejaVuSans-72"/>
    <use x="2839.390625" xlink:href="#DejaVuSans-72"/>
    <use x="2880.472656" xlink:href="#DejaVuSans-65"/>
    <use x="2941.996094" xlink:href="#DejaVuSans-63"/>
    <use x="2996.976562" xlink:href="#DejaVuSans-74"/>
    <use x="3036.185547" xlink:href="#DejaVuSans-65"/>
    <use x="3097.708984" xlink:href="#DejaVuSans-64"/>
    <use x="3161.185547" xlink:href="#DejaVuSans-7c"/>
    <use x="3194.876953" xlink:href="#DejaVuSans-66"/>
    <use x="3230.082031" xlink:href="#DejaVuSans-69"/>
    <use x="3257.865234" xlink:href="#DejaVuSans-74"/>
    <use x="3297.074219" xlink:href="#DejaVuSans-2d"/>
    <use x="3333.158203" xlink:href="#DejaVuSans-32"/>
    <use x="3396.78125" xlink:href="#DejaVuSans-64"/>
    <use x="3460.257812" xlink:href="#DejaVuSans-67"/>
    <use x="3523.734375" xlink:href="#DejaVuSans-61"/>
    <use x="3585.013672" xlink:href="#DejaVuSans-75"/>
    <use x="3648.392578" xlink:href="#DejaVuSans-73"/>
    <use x="3700.492188" xlink:href="#DejaVuSans-5f"/>
    <use x="3750.492188" xlink:href="#DejaVuSans-64"/>
    <use x="3813.96875" xlink:href="#DejaVuSans-66"/>
    <use x="3849.173828" xlink:href="#DejaVuSans-66"/>
    <use x="3884.300781" xlink:href="#DejaVuSans-2d"/>
    <use x="3920.384766" xlink:href="#DejaVuSans-6e"/>
    <use x="3983.763672" xlink:href="#DejaVuSans-6f"/>
    <use x="4044.960938" xlink:href="#DejaVuSans-2d"/>
    <use x="4081.044922" xlink:href="#DejaVuSans-63"/>
    <use x="4136.025391" xlink:href="#DejaVuSans-75"/>
    <use x="4199.404297" xlink:href="#DejaVuSans-74"/>
    <use x="4238.613281" xlink:href="#DejaVuSans-6f"/>
    <use x="4299.794922" xlink:href="#DejaVuSans-66"/>
    <use x="4335" xlink:href="#DejaVuSans-66"/>
   </g>
  </g>
 </g>
 <defs>
  <clipPath id="p242f7e5c6f">
   <rect height="443.52" width="558" x="90" y="69.12"/>
  </clipPath>
 </defs>
</svg>
